<svg width="54" height="13" viewBox="0 0 54 13" fill="none" xmlns="http://www.w3.org/2000/svg">
<g id="Alfamidi" clip-path="url(#clip0_3472_3154)">
<g id="layer1">
<g id="g7849">
<g id="path6153">
<path fill-rule="evenodd" clip-rule="evenodd" d="M6.39957 0.514778C8.01126 0.514778 9.62468 0.514778 11.2315 0.514778C11.6561 0.514778 11.9485 0.759033 12.0241 1.17526C12.029 1.22101 12.029 1.28638 12.029 1.33544C12.029 4.77913 12.029 8.23218 12.029 11.6691C12.029 12.159 11.712 12.5054 11.256 12.5054C8.01117 12.5054 4.77688 12.5054 1.52475 12.5054C1.07217 12.5054 0.764065 12.1639 0.764065 11.6691C0.764065 8.24449 0.76564 4.82542 0.764065 1.4008C0.749323 0.870157 1.09478 0.500565 1.58662 0.505418C3.19103 0.519816 4.79265 0.514755 6.39948 0.514755L6.39957 0.514778ZM10.3769 4.43762C10.109 5.00466 9.69834 5.39246 9.19111 5.69375C9.10463 5.74332 9.0663 5.75702 9.03829 5.63723C8.93411 5.29572 8.81569 4.95907 8.69971 4.63178C8.46581 3.9394 8.25402 3.23818 8.00041 2.54927C7.85937 2.20377 7.61613 1.97338 7.27997 1.87648C6.83083 1.7423 6.37294 1.7423 5.9096 1.78807C5.2928 1.85741 4.89634 2.15315 4.68848 2.80479C4.29585 4.05 3.86922 5.29226 3.45541 6.52862C3.12077 7.52073 2.79354 8.50348 2.47959 9.49507C2.39163 9.75406 2.35477 10.0273 2.41227 10.2951C2.51841 10.8165 3.01536 11.2352 3.53315 11.2548C4.11806 11.2863 4.53221 10.9909 4.69776 10.4288C4.80292 10.0907 4.91938 9.74522 4.99358 9.40371C5.04272 9.14472 5.17491 8.97864 5.37196 8.85383C5.39162 8.81707 5.427 8.80479 5.47073 8.78015C6.061 8.3693 6.72341 8.25835 7.41928 8.23218C7.50183 8.23218 7.50183 8.29511 7.51264 8.35561C7.69937 9.04799 7.87579 9.72754 8.08527 10.4145C8.2209 10.8991 8.5236 11.1669 9.00453 11.2411C9.72694 11.3605 10.5251 10.7143 10.3893 9.84264C10.3598 9.70794 10.3274 9.5462 10.2905 9.41255C10.0812 8.81361 9.8802 8.19837 9.68256 7.60325C9.66291 7.51674 9.66291 7.44307 9.71696 7.38308C9.93514 7.1468 10.0742 6.87949 10.1936 6.57473C10.4403 5.88721 10.3966 5.16692 10.3789 4.43762" fill="#C7C7C7"/>
<path fill-rule="evenodd" clip-rule="evenodd" d="M6.39957 0.514778C8.01126 0.514778 9.62468 0.514778 11.2315 0.514778C11.6561 0.514778 11.9485 0.759033 12.0241 1.17526C12.029 1.22101 12.029 1.28638 12.029 1.33544C12.029 4.77913 12.029 8.23218 12.029 11.6691C12.029 12.159 11.712 12.5054 11.256 12.5054C8.01117 12.5054 4.77688 12.5054 1.52475 12.5054C1.07217 12.5054 0.764065 12.1639 0.764065 11.6691C0.764065 8.24449 0.76564 4.82542 0.764065 1.4008C0.749323 0.870157 1.09478 0.500565 1.58662 0.505418C3.19103 0.519816 4.79265 0.514755 6.39948 0.514755L6.39957 0.514778ZM10.3769 4.43762C10.109 5.00466 9.69834 5.39246 9.19111 5.69375C9.10463 5.74332 9.0663 5.75702 9.03829 5.63723C8.93411 5.29572 8.81569 4.95907 8.69971 4.63178C8.46581 3.9394 8.25402 3.23818 8.00041 2.54927C7.85937 2.20377 7.61613 1.97338 7.27997 1.87648C6.83083 1.7423 6.37294 1.7423 5.9096 1.78807C5.2928 1.85741 4.89634 2.15315 4.68848 2.80479C4.29585 4.05 3.86922 5.29226 3.45541 6.52862C3.12077 7.52073 2.79354 8.50348 2.47959 9.49507C2.39163 9.75406 2.35477 10.0273 2.41227 10.2951C2.51841 10.8165 3.01536 11.2352 3.53315 11.2548C4.11806 11.2863 4.53221 10.9909 4.69776 10.4288C4.80292 10.0907 4.91938 9.74522 4.99358 9.40371C5.04272 9.14472 5.17491 8.97864 5.37196 8.85383C5.39162 8.81707 5.427 8.80479 5.47073 8.78015C6.061 8.3693 6.72341 8.25835 7.41928 8.23218C7.50183 8.23218 7.50183 8.29511 7.51264 8.35561C7.69937 9.04799 7.87579 9.72754 8.08527 10.4145C8.2209 10.8991 8.5236 11.1669 9.00453 11.2411C9.72694 11.3605 10.5251 10.7143 10.3893 9.84264C10.3598 9.70794 10.3274 9.5462 10.2905 9.41255C10.0812 8.81361 9.8802 8.19837 9.68256 7.60325C9.66291 7.51674 9.66291 7.44307 9.71696 7.38308C9.93514 7.1468 10.0742 6.87949 10.1936 6.57473C10.4403 5.88721 10.3966 5.16692 10.3789 4.43762" fill="#C7C7C7"/>
</g>
<g id="path6155">
<path fill-rule="evenodd" clip-rule="evenodd" d="M34.6674 4.84447C35.032 4.70007 35.3804 4.5905 35.7632 4.59449C36.1504 4.59449 36.3744 4.83025 36.3567 5.24994C36.3567 5.57377 36.2545 5.88719 36.1823 6.1871C36.1823 6.2185 36.1577 6.2554 36.1823 6.30307C36.3744 6.01062 36.5641 5.74331 36.7882 5.50356C37.0697 5.17627 37.3675 4.88538 37.7355 4.69659C37.9296 4.59449 38.1355 4.52896 38.3385 4.53451C38.8348 4.5522 39.0815 4.84447 39.0903 5.36938C39.1001 5.66565 39.0186 5.95653 38.9655 6.2469C38.9508 6.29804 38.9508 6.34918 38.936 6.45441C39.0559 6.29267 39.1424 6.15503 39.2446 6.01062C39.5807 5.54916 39.9615 5.09861 40.4441 4.79732C40.7148 4.62639 41.0038 4.51683 41.3247 4.54873C41.7336 4.59448 41.9464 4.84447 41.959 5.29224C41.9787 5.62872 41.8971 5.94718 41.846 6.27846C41.6819 7.08681 41.5148 7.8936 41.3865 8.6971C41.3521 8.98747 41.3521 9.2612 41.4209 9.52851C41.4553 9.67985 41.5143 9.80033 41.6288 9.9163C41.2553 10.1609 40.8553 10.3355 40.4033 10.2386C40.0731 10.1609 39.8952 9.90746 39.8623 9.51967C39.8377 9.12702 39.9183 8.7394 39.9832 8.35559C40.1419 7.57671 40.2952 6.81949 40.4436 6.05292C40.4584 5.99832 40.4584 5.95654 40.4584 5.91042C40.4436 5.85928 40.4092 5.84212 40.3547 5.87647C40.2751 5.90541 40.2083 5.96141 40.1557 6.03907C39.6657 6.6342 39.2795 7.30889 38.9208 7.9959C38.7429 8.3433 38.5842 8.71133 38.4417 9.06706C38.3238 9.38603 38.2034 9.71731 38.3778 10.0417C38.4122 10.0907 38.3631 10.0907 38.3385 10.1148C38.0127 10.2386 37.6756 10.3178 37.3097 10.244C36.9908 10.1698 36.836 9.88772 36.8954 9.50547C36.9711 9.02146 37.1053 8.55947 37.1986 8.08778C37.3539 7.44307 37.4876 6.81015 37.5741 6.15505C37.5937 6.05831 37.6689 5.9335 37.5544 5.87647C37.4664 5.82743 37.3834 5.94234 37.3215 6.01064C36.9043 6.47263 36.5962 7.00761 36.3018 7.55749C36.0448 8.03872 35.8247 8.5177 35.61 9.02147C35.465 9.35258 35.3648 9.67987 35.5319 10.0417C35.5663 10.0907 35.5283 10.0907 35.5024 10.1148C35.1658 10.2386 34.8153 10.3266 34.4808 10.2386C34.067 10.1419 33.9028 9.8052 34.0263 9.32605C34.213 8.56294 34.4066 7.82532 34.5706 7.07296C34.6846 6.50886 34.7779 5.94234 34.8153 5.35553C34.8251 5.18998 34.8595 4.97864 34.6674 4.84447Z" fill="#C7C7C7"/>
<path fill-rule="evenodd" clip-rule="evenodd" d="M34.6674 4.84447C35.032 4.70007 35.3804 4.5905 35.7632 4.59449C36.1504 4.59449 36.3744 4.83025 36.3567 5.24994C36.3567 5.57377 36.2545 5.88719 36.1823 6.1871C36.1823 6.2185 36.1577 6.2554 36.1823 6.30307C36.3744 6.01062 36.5641 5.74331 36.7882 5.50356C37.0697 5.17627 37.3675 4.88538 37.7355 4.69659C37.9296 4.59449 38.1355 4.52896 38.3385 4.53451C38.8348 4.5522 39.0815 4.84447 39.0903 5.36938C39.1001 5.66565 39.0186 5.95653 38.9655 6.2469C38.9508 6.29804 38.9508 6.34918 38.936 6.45441C39.0559 6.29267 39.1424 6.15503 39.2446 6.01062C39.5807 5.54916 39.9615 5.09861 40.4441 4.79732C40.7148 4.62639 41.0038 4.51683 41.3247 4.54873C41.7336 4.59448 41.9464 4.84447 41.959 5.29224C41.9787 5.62872 41.8971 5.94718 41.846 6.27846C41.6819 7.08681 41.5148 7.8936 41.3865 8.6971C41.3521 8.98747 41.3521 9.2612 41.4209 9.52851C41.4553 9.67985 41.5143 9.80033 41.6288 9.9163C41.2553 10.1609 40.8553 10.3355 40.4033 10.2386C40.0731 10.1609 39.8952 9.90746 39.8623 9.51967C39.8377 9.12702 39.9183 8.7394 39.9832 8.35559C40.1419 7.57671 40.2952 6.81949 40.4436 6.05292C40.4584 5.99832 40.4584 5.95654 40.4584 5.91042C40.4436 5.85928 40.4092 5.84212 40.3547 5.87647C40.2751 5.90541 40.2083 5.96141 40.1557 6.03907C39.6657 6.6342 39.2795 7.30889 38.9208 7.9959C38.7429 8.3433 38.5842 8.71133 38.4417 9.06706C38.3238 9.38603 38.2034 9.71731 38.3778 10.0417C38.4122 10.0907 38.3631 10.0907 38.3385 10.1148C38.0127 10.2386 37.6756 10.3178 37.3097 10.244C36.9908 10.1698 36.836 9.88772 36.8954 9.50547C36.9711 9.02146 37.1053 8.55947 37.1986 8.08778C37.3539 7.44307 37.4876 6.81015 37.5741 6.15505C37.5937 6.05831 37.6689 5.9335 37.5544 5.87647C37.4664 5.82743 37.3834 5.94234 37.3215 6.01064C36.9043 6.47263 36.5962 7.00761 36.3018 7.55749C36.0448 8.03872 35.8247 8.5177 35.61 9.02147C35.465 9.35258 35.3648 9.67987 35.5319 10.0417C35.5663 10.0907 35.5283 10.0907 35.5024 10.1148C35.1658 10.2386 34.8153 10.3266 34.4808 10.2386C34.067 10.1419 33.9028 9.8052 34.0263 9.32605C34.213 8.56294 34.4066 7.82532 34.5706 7.07296C34.6846 6.50886 34.7779 5.94234 34.8153 5.35553C34.8251 5.18998 34.8595 4.97864 34.6674 4.84447Z" fill="#C7C7C7"/>
</g>
<g id="path6157">
<path fill-rule="evenodd" clip-rule="evenodd" d="M21.3009 9.19182C21.3009 9.83323 20.8054 10.2843 20.2753 10.2385C19.833 10.2013 19.5808 9.99047 19.4541 9.51963C19.4049 9.326 19.3327 9.12699 19.2747 8.92451C19.26 8.85378 19.2354 8.80472 19.144 8.80472C18.4768 8.81357 17.8158 8.81357 17.1539 8.80472C17.0571 8.80472 17.0374 8.85032 17.0109 8.91913C16.9514 9.12213 16.8787 9.31178 16.8384 9.50542C16.6689 10.2013 16.1112 10.3266 15.6846 10.2066C15.151 10.0499 14.8724 9.54616 15.0291 8.96143C15.1986 8.35556 15.4168 7.77083 15.6124 7.17519C15.9933 6.01059 16.3927 4.86212 16.7573 3.69405C16.9366 3.13238 17.2398 2.82728 17.807 2.77614C18.1175 2.75359 18.4449 2.75359 18.7569 2.84548C19.1039 2.91032 19.3328 3.14469 19.4541 3.50059C19.7136 4.28086 19.9721 5.06113 20.2256 5.82735C20.5519 6.8101 20.8654 7.7561 21.1912 8.73399C21.2511 8.9103 21.2968 9.09908 21.3008 9.19182L21.3009 9.19182ZM17.4635 7.17519C17.8762 7.17519 18.29 7.17519 18.7004 7.17519C18.8026 7.19288 18.8183 7.15612 18.7834 7.04153C18.6335 6.51973 18.4768 5.98753 18.3215 5.46314C18.2773 5.26412 18.2144 5.08384 18.1579 4.87651H18.1333C17.9112 5.63719 17.6827 6.40376 17.4636 7.17519" fill="#C7C7C7"/>
<path fill-rule="evenodd" clip-rule="evenodd" d="M21.3009 9.19182C21.3009 9.83323 20.8054 10.2843 20.2753 10.2385C19.833 10.2013 19.5808 9.99047 19.4541 9.51963C19.4049 9.326 19.3327 9.12699 19.2747 8.92451C19.26 8.85378 19.2354 8.80472 19.144 8.80472C18.4768 8.81357 17.8158 8.81357 17.1539 8.80472C17.0571 8.80472 17.0374 8.85032 17.0109 8.91913C16.9514 9.12213 16.8787 9.31178 16.8384 9.50542C16.6689 10.2013 16.1112 10.3266 15.6846 10.2066C15.151 10.0499 14.8724 9.54616 15.0291 8.96143C15.1986 8.35556 15.4168 7.77083 15.6124 7.17519C15.9933 6.01059 16.3927 4.86212 16.7573 3.69405C16.9366 3.13238 17.2398 2.82728 17.807 2.77614C18.1175 2.75359 18.4449 2.75359 18.7569 2.84548C19.1039 2.91032 19.3328 3.14469 19.4541 3.50059C19.7136 4.28086 19.9721 5.06113 20.2256 5.82735C20.5519 6.8101 20.8654 7.7561 21.1912 8.73399C21.2511 8.9103 21.2968 9.09908 21.3008 9.19182L21.3009 9.19182ZM17.4635 7.17519C17.8762 7.17519 18.29 7.17519 18.7004 7.17519C18.8026 7.19288 18.8183 7.15612 18.7834 7.04153C18.6335 6.51973 18.4768 5.98753 18.3215 5.46314C18.2773 5.26412 18.2144 5.08384 18.1579 4.87651H18.1333C17.9112 5.63719 17.6827 6.40376 17.4636 7.17519" fill="#C7C7C7"/>
</g>
<g id="path6159">
<path fill-rule="evenodd" clip-rule="evenodd" d="M33.2561 7.45529C33.2463 8.1019 33.2856 8.74314 33.2463 9.38057C33.1706 10.1279 32.5028 10.5398 31.9141 10.2066C31.8123 10.156 31.7436 10.0906 31.6821 10.0272C31.6428 9.95298 31.6079 9.96182 31.5445 10.0041C30.0329 10.8901 28.09 9.8611 27.8663 8.03273C27.7518 7.08674 27.9243 6.21841 28.5112 5.50349C28.9957 4.89363 29.6345 4.65423 30.3554 4.59442C30.7799 4.57172 31.1833 4.67347 31.5569 4.89363C31.608 4.93039 31.6448 4.95067 31.693 4.88533C31.976 4.59045 32.3072 4.52562 32.6669 4.67695C33.0241 4.80229 33.2001 5.12456 33.2463 5.52258C33.2856 6.08477 33.2561 6.64886 33.2561 7.21209C33.2561 7.30882 33.2561 7.38302 33.2561 7.45531L33.2561 7.45529ZM30.5839 8.9191C30.9843 8.9191 31.1897 8.75302 31.3028 8.34321C31.4207 7.99096 31.4207 7.62275 31.4001 7.24882C31.3853 6.95846 31.3558 6.69946 31.2197 6.43163C31.1268 6.22378 30.9843 6.0896 30.7588 6.05285C30.3106 5.96132 29.9269 6.18703 29.7716 6.66601C29.6011 7.19769 29.6011 7.75606 29.7716 8.30594C29.8969 8.72009 30.1838 8.9191 30.5839 8.9191Z" fill="#C7C7C7"/>
<path fill-rule="evenodd" clip-rule="evenodd" d="M33.2561 7.45529C33.2463 8.1019 33.2856 8.74314 33.2463 9.38057C33.1706 10.1279 32.5028 10.5398 31.9141 10.2066C31.8123 10.156 31.7436 10.0906 31.6821 10.0272C31.6428 9.95298 31.6079 9.96182 31.5445 10.0041C30.0329 10.8901 28.09 9.8611 27.8663 8.03273C27.7518 7.08674 27.9243 6.21841 28.5112 5.50349C28.9957 4.89363 29.6345 4.65423 30.3554 4.59442C30.7799 4.57172 31.1833 4.67347 31.5569 4.89363C31.608 4.93039 31.6448 4.95067 31.693 4.88533C31.976 4.59045 32.3072 4.52562 32.6669 4.67695C33.0241 4.80229 33.2001 5.12456 33.2463 5.52258C33.2856 6.08477 33.2561 6.64886 33.2561 7.21209C33.2561 7.30882 33.2561 7.38302 33.2561 7.45531L33.2561 7.45529ZM30.5839 8.9191C30.9843 8.9191 31.1897 8.75302 31.3028 8.34321C31.4207 7.99096 31.4207 7.62275 31.4001 7.24882C31.3853 6.95846 31.3558 6.69946 31.2197 6.43163C31.1268 6.22378 30.9843 6.0896 30.7588 6.05285C30.3106 5.96132 29.9269 6.18703 29.7716 6.66601C29.6011 7.19769 29.6011 7.75606 29.7716 8.30594C29.8969 8.72009 30.1838 8.9191 30.5839 8.9191Z" fill="#C7C7C7"/>
</g>
<g id="path6161">
<path fill-rule="evenodd" clip-rule="evenodd" d="M48.1857 8.41165C47.9322 8.75714 47.7047 9.12223 47.4211 9.42646C47.1056 9.80039 46.7622 10.1331 46.2899 10.2352C46.0786 10.2809 45.8845 10.2844 45.6913 10.244C45.2309 10.1468 45.0024 9.80525 44.9357 9.35262C44.7946 8.59159 44.9111 7.86229 45.1578 7.16107C45.4197 6.40386 45.8408 5.74338 46.4207 5.22695C47.1288 4.59456 47.9139 4.47997 48.7842 4.86222C48.8235 4.87661 48.8845 4.9508 48.8953 4.84453C48.9483 4.49227 49.0294 4.14192 48.9955 3.77718C48.9709 3.53795 48.9709 3.53795 49.1985 3.42354C49.4574 3.2982 49.7179 3.23822 50.0122 3.25192C50.4491 3.284 50.6727 3.56898 50.5936 4.01849C50.4968 4.53994 50.3701 5.06122 50.2629 5.56845C50.0619 6.49711 49.8693 7.40619 49.75 8.34334C49.688 8.85387 49.688 9.38069 49.9082 9.85638C49.9377 9.90752 49.9131 9.92468 49.8738 9.95311C49.4984 10.2672 49.0705 10.3777 48.616 10.193C48.3059 10.0554 48.1649 9.76831 48.1383 9.42299C48.1088 9.0957 48.1629 8.75315 48.1825 8.41164L48.1857 8.41165ZM46.4943 8.35565C46.4894 8.48584 46.4943 8.62296 46.5139 8.75315C46.5533 9.01059 46.6815 9.05826 46.8678 8.89669C47.0579 8.75315 47.1847 8.55466 47.3174 8.35565C47.7469 7.77422 48.0622 7.12414 48.4195 6.51983C48.6613 6.1218 48.6431 6.08488 48.2702 5.82745C48.2652 5.81359 48.2505 5.80283 48.2456 5.79104C47.8299 5.50847 47.4809 5.57382 47.1847 5.98762C47.1286 6.05298 47.0918 6.1218 47.0579 6.20085C46.7517 6.87954 46.542 7.58908 46.4943 8.35565Z" fill="#C7C7C7"/>
<path fill-rule="evenodd" clip-rule="evenodd" d="M48.1857 8.41165C47.9322 8.75714 47.7047 9.12223 47.4211 9.42646C47.1056 9.80039 46.7622 10.1331 46.2899 10.2352C46.0786 10.2809 45.8845 10.2844 45.6913 10.244C45.2309 10.1468 45.0024 9.80525 44.9357 9.35262C44.7946 8.59159 44.9111 7.86229 45.1578 7.16107C45.4197 6.40386 45.8408 5.74338 46.4207 5.22695C47.1288 4.59456 47.9139 4.47997 48.7842 4.86222C48.8235 4.87661 48.8845 4.9508 48.8953 4.84453C48.9483 4.49227 49.0294 4.14192 48.9955 3.77718C48.9709 3.53795 48.9709 3.53795 49.1985 3.42354C49.4574 3.2982 49.7179 3.23822 50.0122 3.25192C50.4491 3.284 50.6727 3.56898 50.5936 4.01849C50.4968 4.53994 50.3701 5.06122 50.2629 5.56845C50.0619 6.49711 49.8693 7.40619 49.75 8.34334C49.688 8.85387 49.688 9.38069 49.9082 9.85638C49.9377 9.90752 49.9131 9.92468 49.8738 9.95311C49.4984 10.2672 49.0705 10.3777 48.616 10.193C48.3059 10.0554 48.1649 9.76831 48.1383 9.42299C48.1088 9.0957 48.1629 8.75315 48.1825 8.41164L48.1857 8.41165ZM46.4943 8.35565C46.4894 8.48584 46.4943 8.62296 46.5139 8.75315C46.5533 9.01059 46.6815 9.05826 46.8678 8.89669C47.0579 8.75315 47.1847 8.55466 47.3174 8.35565C47.7469 7.77422 48.0622 7.12414 48.4195 6.51983C48.6613 6.1218 48.6431 6.08488 48.2702 5.82745C48.2652 5.81359 48.2505 5.80283 48.2456 5.79104C47.8299 5.50847 47.4809 5.57382 47.1847 5.98762C47.1286 6.05298 47.0918 6.1218 47.0579 6.20085C46.7517 6.87954 46.542 7.58908 46.4943 8.35565Z" fill="#C7C7C7"/>
</g>
<g id="path6163">
<path fill-rule="evenodd" clip-rule="evenodd" d="M26.7047 7.80696C26.7047 8.2582 26.7047 8.75296 26.7047 9.21495C26.7047 9.31168 26.7047 9.40356 26.6948 9.49492C26.602 10.0041 26.256 10.2807 25.7735 10.2384C25.2487 10.2012 24.9356 9.84735 24.9262 9.29799C24.9066 8.85368 24.9262 8.39221 24.9115 7.93629C24.9115 7.38294 24.9115 6.81936 24.9262 6.27C24.9262 6.16374 24.9115 6.11277 24.7926 6.09543C24.5582 6.07583 24.366 5.97357 24.2271 5.75687C24.0055 5.35539 24.2271 4.89357 24.6713 4.80221C24.9107 4.75592 24.9264 4.75592 24.9107 4.49208C24.9107 4.27539 24.9107 4.05869 24.9549 3.86107C25.0537 3.36631 25.3387 3.03503 25.774 2.85908C26.3218 2.6507 26.8574 2.66007 27.4157 2.84537C27.7788 2.9506 27.9794 3.23801 27.9563 3.59374C27.9416 3.92104 27.7573 4.10982 27.4437 4.10132C27.3012 4.10132 27.1695 4.08171 27.0368 4.10132C26.8236 4.11867 26.7233 4.23498 26.7091 4.46953C26.6993 4.77411 26.6993 4.77897 26.9823 4.77411C27.1022 4.77411 27.2344 4.77896 27.3538 4.80222C27.6427 4.86203 27.8403 5.08375 27.8546 5.41156C27.8743 5.72498 27.7259 5.9422 27.4355 6.0528C27.2345 6.12162 27.0369 6.11278 26.8309 6.11278C26.7287 6.09543 26.7091 6.13239 26.7091 6.24141C26.7091 6.76476 26.7091 7.28084 26.7091 7.80697" fill="#C7C7C7"/>
<path fill-rule="evenodd" clip-rule="evenodd" d="M26.7047 7.80696C26.7047 8.2582 26.7047 8.75296 26.7047 9.21495C26.7047 9.31168 26.7047 9.40356 26.6948 9.49492C26.602 10.0041 26.256 10.2807 25.7735 10.2384C25.2487 10.2012 24.9356 9.84735 24.9262 9.29799C24.9066 8.85368 24.9262 8.39221 24.9115 7.93629C24.9115 7.38294 24.9115 6.81936 24.9262 6.27C24.9262 6.16374 24.9115 6.11277 24.7926 6.09543C24.5582 6.07583 24.366 5.97357 24.2271 5.75687C24.0055 5.35539 24.2271 4.89357 24.6713 4.80221C24.9107 4.75592 24.9264 4.75592 24.9107 4.49208C24.9107 4.27539 24.9107 4.05869 24.9549 3.86107C25.0537 3.36631 25.3387 3.03503 25.774 2.85908C26.3218 2.6507 26.8574 2.66007 27.4157 2.84537C27.7788 2.9506 27.9794 3.23801 27.9563 3.59374C27.9416 3.92104 27.7573 4.10982 27.4437 4.10132C27.3012 4.10132 27.1695 4.08171 27.0368 4.10132C26.8236 4.11867 26.7233 4.23498 26.7091 4.46953C26.6993 4.77411 26.6993 4.77897 26.9823 4.77411C27.1022 4.77411 27.2344 4.77896 27.3538 4.80222C27.6427 4.86203 27.8403 5.08375 27.8546 5.41156C27.8743 5.72498 27.7259 5.9422 27.4355 6.0528C27.2345 6.12162 27.0369 6.11278 26.8309 6.11278C26.7287 6.09543 26.7091 6.13239 26.7091 6.24141C26.7091 6.76476 26.7091 7.28084 26.7091 7.80697" fill="#C7C7C7"/>
</g>
<g id="path6165">
<path fill-rule="evenodd" clip-rule="evenodd" d="M21.9008 6.49153C21.9008 5.56824 21.8959 4.65414 21.9008 3.73086C21.9008 3.23801 22.1918 2.84536 22.5793 2.74464C23.1465 2.58585 23.6207 2.95059 23.719 3.56877C23.7288 3.68024 23.7435 3.78789 23.7435 3.90733C23.7435 5.62267 23.7435 7.33524 23.7435 9.04781C23.7435 9.1917 23.7288 9.33818 23.689 9.48224C23.5637 9.97058 23.2364 10.2577 22.782 10.2438C22.3481 10.2296 22.0168 9.921 21.9254 9.42625C21.8959 9.28912 21.8959 9.12686 21.8959 8.99321C21.8959 8.15781 21.8959 7.31219 21.8959 6.49153L21.9008 6.49153Z" fill="#C7C7C7"/>
<path fill-rule="evenodd" clip-rule="evenodd" d="M21.9008 6.49153C21.9008 5.56824 21.8959 4.65414 21.9008 3.73086C21.9008 3.23801 22.1918 2.84536 22.5793 2.74464C23.1465 2.58585 23.6207 2.95059 23.719 3.56877C23.7288 3.68024 23.7435 3.78789 23.7435 3.90733C23.7435 5.62267 23.7435 7.33524 23.7435 9.04781C23.7435 9.1917 23.7288 9.33818 23.689 9.48224C23.5637 9.97058 23.2364 10.2577 22.782 10.2438C22.3481 10.2296 22.0168 9.921 21.9254 9.42625C21.8959 9.28912 21.8959 9.12686 21.8959 8.99321C21.8959 8.15781 21.8959 7.31219 21.8959 6.49153L21.9008 6.49153Z" fill="#C7C7C7"/>
</g>
<g id="path6167">
<path fill-rule="evenodd" clip-rule="evenodd" d="M52.5843 9.89304C52.1862 10.1929 51.7685 10.3266 51.3072 10.2439C50.9583 10.1929 50.7504 9.91627 50.7327 9.51478C50.6885 9.09907 50.798 8.6936 50.8826 8.29505C51.0359 7.52553 51.2295 6.77317 51.3563 5.99828C51.4088 5.71675 51.4373 5.41546 51.3759 5.12457C51.3759 5.08383 51.371 5.03859 51.3514 5.00461C51.2772 4.81115 51.2772 4.81115 51.4796 4.75602C51.827 4.65426 52.1793 4.55753 52.5435 4.59445C52.9803 4.67697 53.1513 4.9507 53.0388 5.39241C52.8923 5.96136 52.7361 6.52857 52.6157 7.10498C52.4825 7.68779 52.3641 8.2583 52.3022 8.85915C52.2986 9.02141 52.2986 9.17812 52.312 9.32599C52.3513 9.54616 52.4073 9.73979 52.5832 9.89304" fill="#C7C7C7"/>
<path fill-rule="evenodd" clip-rule="evenodd" d="M52.5843 9.89304C52.1862 10.1929 51.7685 10.3266 51.3072 10.2439C50.9583 10.1929 50.7504 9.91627 50.7327 9.51478C50.6885 9.09907 50.798 8.6936 50.8826 8.29505C51.0359 7.52553 51.2295 6.77317 51.3563 5.99828C51.4088 5.71675 51.4373 5.41546 51.3759 5.12457C51.3759 5.08383 51.371 5.03859 51.3514 5.00461C51.2772 4.81115 51.2772 4.81115 51.4796 4.75602C51.827 4.65426 52.1793 4.55753 52.5435 4.59445C52.9803 4.67697 53.1513 4.9507 53.0388 5.39241C52.8923 5.96136 52.7361 6.52857 52.6157 7.10498C52.4825 7.68779 52.3641 8.2583 52.3022 8.85915C52.2986 9.02141 52.2986 9.17812 52.312 9.32599C52.3513 9.54616 52.4073 9.73979 52.5832 9.89304" fill="#C7C7C7"/>
</g>
<g id="path6169">
<path fill-rule="evenodd" clip-rule="evenodd" d="M43.0506 5.5227C43.0506 5.25001 43.026 5.07007 42.9307 4.8903C42.911 4.84455 42.9209 4.82547 42.97 4.80241C43.3931 4.66321 43.8225 4.53995 44.2717 4.63183C44.6118 4.69667 44.7646 4.95912 44.6717 5.34137C44.5695 5.84219 44.4378 6.31528 44.316 6.8102C44.1661 7.45543 44.027 8.13013 43.9459 8.79061C43.9214 9.05827 43.9312 9.3261 44.0113 9.58856C44.0359 9.6397 44.0506 9.68529 44.0781 9.7399C44.1223 9.79641 44.196 9.86125 44.1818 9.88777C44.1523 9.9852 44.0639 10.0131 44.0039 10.0417C43.7081 10.2067 43.4138 10.2952 43.0825 10.2672C42.6019 10.2156 42.3607 9.93943 42.3518 9.41261C42.3501 9.02152 42.4472 8.62887 42.5243 8.23223C42.6727 7.46965 42.882 6.71729 43.0088 5.94239C43.0285 5.78516 43.0383 5.60574 43.0531 5.5227" fill="#C7C7C7"/>
<path fill-rule="evenodd" clip-rule="evenodd" d="M43.0506 5.5227C43.0506 5.25001 43.026 5.07007 42.9307 4.8903C42.911 4.84455 42.9209 4.82547 42.97 4.80241C43.3931 4.66321 43.8225 4.53995 44.2717 4.63183C44.6118 4.69667 44.7646 4.95912 44.6717 5.34137C44.5695 5.84219 44.4378 6.31528 44.316 6.8102C44.1661 7.45543 44.027 8.13013 43.9459 8.79061C43.9214 9.05827 43.9312 9.3261 44.0113 9.58856C44.0359 9.6397 44.0506 9.68529 44.0781 9.7399C44.1223 9.79641 44.196 9.86125 44.1818 9.88777C44.1523 9.9852 44.0639 10.0131 44.0039 10.0417C43.7081 10.2067 43.4138 10.2952 43.0825 10.2672C42.6019 10.2156 42.3607 9.93943 42.3518 9.41261C42.3501 9.02152 42.4472 8.62887 42.5243 8.23223C42.6727 7.46965 42.882 6.71729 43.0088 5.94239C43.0285 5.78516 43.0383 5.60574 43.0531 5.5227" fill="#C7C7C7"/>
</g>
<g id="path6171">
<path fill-rule="evenodd" clip-rule="evenodd" d="M44.4102 2.74463C44.4348 2.74463 44.4667 2.74463 44.5041 2.74463C44.9635 2.77598 45.1434 3.06741 45.0235 3.53773C44.9635 3.76811 44.8422 3.90732 44.6274 3.97614C44.368 4.04982 44.1198 4.11864 43.8451 4.08657C43.475 4.01827 43.3694 3.87924 43.4574 3.48607C43.5065 3.32589 43.5438 3.16381 43.4574 2.99322C43.418 2.93324 43.5065 2.94208 43.5316 2.93324C43.822 2.80461 44.1074 2.7481 44.4101 2.74463" fill="#C7C7C7"/>
<path fill-rule="evenodd" clip-rule="evenodd" d="M44.4102 2.74463C44.4348 2.74463 44.4667 2.74463 44.5041 2.74463C44.9635 2.77598 45.1434 3.06741 45.0235 3.53773C44.9635 3.76811 44.8422 3.90732 44.6274 3.97614C44.368 4.04982 44.1198 4.11864 43.8451 4.08657C43.475 4.01827 43.3694 3.87924 43.4574 3.48607C43.5065 3.32589 43.5438 3.16381 43.4574 2.99322C43.418 2.93324 43.5065 2.94208 43.5316 2.93324C43.822 2.80461 44.1074 2.7481 44.4101 2.74463" fill="#C7C7C7"/>
</g>
<g id="path6173">
<path fill-rule="evenodd" clip-rule="evenodd" d="M51.8038 2.95078C52.2019 2.80482 52.6033 2.68 53.0158 2.77136C53.3455 2.82736 53.4826 3.08478 53.4035 3.43566C53.3544 3.71389 53.229 3.91637 52.9313 3.98467C52.6743 4.0554 52.4207 4.11885 52.1548 4.08192C51.8428 4.00426 51.7386 3.86124 51.827 3.53447C51.8319 3.46374 51.8467 3.38955 51.8663 3.32124C51.8958 3.20076 51.8811 3.08149 51.803 2.95078" fill="#C7C7C7"/>
<path fill-rule="evenodd" clip-rule="evenodd" d="M51.8038 2.95078C52.2019 2.80482 52.6033 2.68 53.0158 2.77136C53.3455 2.82736 53.4826 3.08478 53.4035 3.43566C53.3544 3.71389 53.229 3.91637 52.9313 3.98467C52.6743 4.0554 52.4207 4.11885 52.1548 4.08192C51.8428 4.00426 51.7386 3.86124 51.827 3.53447C51.8319 3.46374 51.8467 3.38955 51.8663 3.32124C51.8958 3.20076 51.8811 3.08149 51.803 2.95078" fill="#C7C7C7"/>
</g>
<path id="path6175" fill-rule="evenodd" clip-rule="evenodd" d="M10.3769 4.43781C10.3966 5.16711 10.4384 5.8874 10.1917 6.57492C10.0723 6.87968 9.9332 7.14699 9.71502 7.38328C9.66342 7.44326 9.66342 7.51693 9.68062 7.60344C9.87816 8.19856 10.0791 8.8138 10.2886 9.41274C10.323 9.5464 10.3559 9.70814 10.3873 9.84283C10.523 10.7145 9.72499 11.3607 9.00263 11.2413C8.52155 11.1671 8.21885 10.8993 8.08332 10.4147C7.87399 9.72773 7.69758 9.04817 7.51075 8.3558C7.50092 8.2953 7.50092 8.23237 7.41738 8.23237C6.72151 8.25856 6.05911 8.36949 5.46884 8.78034C5.42461 8.80496 5.38825 8.81724 5.37007 8.85402C5.17302 8.97883 5.03886 9.1449 4.99169 9.4039C4.91749 9.74541 4.80103 10.0909 4.69587 10.4289C4.53027 10.9911 4.11616 11.2865 3.53125 11.255C3.01346 11.2354 2.51661 10.8167 2.41037 10.2953C2.35288 10.0275 2.39071 9.75425 2.47769 9.49526C2.7917 8.50367 3.11892 7.52092 3.45351 6.52881C3.86727 5.29245 4.29395 4.05019 4.68658 2.80498C4.89444 2.15334 5.2909 1.8576 5.90771 1.78826C6.37109 1.74251 6.82908 1.74251 7.27807 1.87667C7.61419 1.97357 7.85758 2.20397 7.99851 2.54946C8.25207 3.23837 8.46386 3.93959 8.69782 4.63197C8.81379 4.95926 8.93222 5.29592 9.03639 5.63742C9.06588 5.75721 9.10273 5.74352 9.18922 5.69394C9.69644 5.39265 10.1073 5.00486 10.375 4.43781L10.3769 4.43781ZM5.56771 7.2068C5.98392 6.8197 6.43105 6.57492 6.90829 6.40937C7.01247 6.38632 6.95252 6.31541 6.93778 6.27034C6.77217 5.69723 6.61738 5.13019 6.44441 4.56262C6.4395 4.51201 6.4395 4.45757 6.37807 4.41475C6.1137 5.33804 5.8507 6.24711 5.56726 7.2068" fill="#191D24"/>
<g id="path6177">
<path fill-rule="evenodd" clip-rule="evenodd" d="M5.56769 7.2066C5.85123 6.24691 6.11412 5.33784 6.3785 4.41455C6.43845 4.45735 6.43845 4.5118 6.44483 4.56242C6.61781 5.12999 6.7726 5.69703 6.9382 6.27014C6.95294 6.3152 7.0124 6.38611 6.90872 6.40917C6.43157 6.57472 5.98439 6.8195 5.56818 7.2066" fill="#C7C7C7"/>
<path fill-rule="evenodd" clip-rule="evenodd" d="M5.56769 7.2066C5.85123 6.24691 6.11412 5.33784 6.3785 4.41455C6.43845 4.45735 6.43845 4.5118 6.44483 4.56242C6.61781 5.12999 6.7726 5.69703 6.9382 6.27014C6.95294 6.3152 7.0124 6.38611 6.90872 6.40917C6.43157 6.57472 5.98439 6.8195 5.56818 7.2066" fill="#C7C7C7"/>
</g>
</g>
</g>
</g>
<defs>
<clipPath id="clip0_3472_3154">
<rect width="52.6616" height="12" fill="white" transform="translate(0.763672 0.505371)"/>
</clipPath>
</defs>
</svg>
