<svg width="38" height="12" viewBox="0 0 38 12" fill="none" xmlns="http://www.w3.org/2000/svg">
<g id="Alfamart" clip-path="url(#clip0_3472_3146)">
<g id="Layer 1">
<g id="Group">
<g id="Vector">
<path fill-rule="evenodd" clip-rule="evenodd" d="M2.84158 1.84962C2.94921 2.01713 3.39261 3.52092 3.4578 3.81425L2.24128 3.80364L2.84158 1.84962ZM6.83299 0.0434075C6.24405 0.21698 6.24633 0.833958 6.24633 1.48959C6.24633 2.55528 6.20312 4.56387 6.24784 5.50602C6.30014 6.61567 7.53334 6.72936 7.84865 5.85922C7.97826 5.50147 7.92066 3.39055 7.92066 2.9282C7.92066 2.28242 7.95098 1.55932 7.91687 0.92264C7.88579 0.342801 7.49014 -0.15063 6.83223 0.0426496L6.83299 0.0434075ZM8.9818 1.77307C8.04648 1.77837 8.02601 2.83648 8.9818 2.90546V5.07019C8.9818 5.42037 8.94011 5.73189 9.09095 6.01612C9.3911 6.58307 10.2627 6.52926 10.5045 6.04038C10.7297 5.5856 10.5129 3.76574 10.6152 2.90622C11.1215 2.90622 11.6574 2.88878 11.6422 2.32789C11.6278 1.76473 11.1306 1.77458 10.6053 1.77458C10.6053 1.42365 10.5667 1.22052 10.9388 1.18641C11.2633 1.15609 11.5149 1.26221 11.6612 1.00829C11.9272 0.545176 11.5528 0.127541 10.8994 0.0327961C10.3219 -0.0505793 9.75568 0.0676622 9.38352 0.336737C8.95982 0.642953 8.9818 1.28419 8.9818 1.77458V1.77307ZM13.9669 2.85543C14.6392 2.71218 14.8181 3.32992 14.8545 3.89763C14.8939 4.50703 14.8272 5.23239 14.2216 5.28621C13.5227 5.34836 13.3022 4.83371 13.2711 4.20081C13.2377 3.53077 13.3977 2.97671 13.9669 2.85543ZM15.0561 6.18666C14.671 6.31324 14.596 6.52774 13.785 6.46786C13.3408 6.43451 12.9436 6.29429 12.6261 6.09495C12.0538 5.73568 11.5877 5.02623 11.6203 4.03254C11.6528 3.05099 12.1175 2.36655 12.6602 2.00576C12.9694 1.80036 13.3742 1.66316 13.8168 1.62754C14.6354 1.56084 14.7885 1.83977 15.1008 1.9042C15.4366 1.40319 16.2256 1.58737 16.4424 2.11036L16.409 6.05781C16.1832 6.47241 15.6905 6.57625 15.3282 6.40268C15.1796 6.33143 15.1774 6.27459 15.0546 6.18818L15.0561 6.18666ZM1.85017 5.21269L3.858 5.20207C3.94138 5.56135 4.08615 6.07979 4.30595 6.25033C4.65386 6.51941 5.16321 6.45195 5.45199 6.1715C5.81732 5.81602 5.73622 5.48403 5.56341 4.99212C5.42849 4.60708 5.29964 4.23947 5.16321 3.85442C4.89489 3.09722 4.6296 2.34305 4.37038 1.60329C4.03309 0.642195 4.04673 0.0449234 2.84385 0.0509871C2.34133 0.053261 1.95628 0.151796 1.763 0.476202C1.57351 0.793787 0.416111 4.24022 0.147036 4.98302C-0.0166831 5.43552 -0.0864153 5.83042 0.226622 6.14801C0.592715 6.52016 1.41889 6.62021 1.67053 5.80313C1.73193 5.60455 1.79029 5.41809 1.85017 5.21269Z" fill="#C7C7C7"/>
<path fill-rule="evenodd" clip-rule="evenodd" d="M2.84158 1.84962C2.94921 2.01713 3.39261 3.52092 3.4578 3.81425L2.24128 3.80364L2.84158 1.84962ZM6.83299 0.0434075C6.24405 0.21698 6.24633 0.833958 6.24633 1.48959C6.24633 2.55528 6.20312 4.56387 6.24784 5.50602C6.30014 6.61567 7.53334 6.72936 7.84865 5.85922C7.97826 5.50147 7.92066 3.39055 7.92066 2.9282C7.92066 2.28242 7.95098 1.55932 7.91687 0.92264C7.88579 0.342801 7.49014 -0.15063 6.83223 0.0426496L6.83299 0.0434075ZM8.9818 1.77307C8.04648 1.77837 8.02601 2.83648 8.9818 2.90546V5.07019C8.9818 5.42037 8.94011 5.73189 9.09095 6.01612C9.3911 6.58307 10.2627 6.52926 10.5045 6.04038C10.7297 5.5856 10.5129 3.76574 10.6152 2.90622C11.1215 2.90622 11.6574 2.88878 11.6422 2.32789C11.6278 1.76473 11.1306 1.77458 10.6053 1.77458C10.6053 1.42365 10.5667 1.22052 10.9388 1.18641C11.2633 1.15609 11.5149 1.26221 11.6612 1.00829C11.9272 0.545176 11.5528 0.127541 10.8994 0.0327961C10.3219 -0.0505793 9.75568 0.0676622 9.38352 0.336737C8.95982 0.642953 8.9818 1.28419 8.9818 1.77458V1.77307ZM13.9669 2.85543C14.6392 2.71218 14.8181 3.32992 14.8545 3.89763C14.8939 4.50703 14.8272 5.23239 14.2216 5.28621C13.5227 5.34836 13.3022 4.83371 13.2711 4.20081C13.2377 3.53077 13.3977 2.97671 13.9669 2.85543ZM15.0561 6.18666C14.671 6.31324 14.596 6.52774 13.785 6.46786C13.3408 6.43451 12.9436 6.29429 12.6261 6.09495C12.0538 5.73568 11.5877 5.02623 11.6203 4.03254C11.6528 3.05099 12.1175 2.36655 12.6602 2.00576C12.9694 1.80036 13.3742 1.66316 13.8168 1.62754C14.6354 1.56084 14.7885 1.83977 15.1008 1.9042C15.4366 1.40319 16.2256 1.58737 16.4424 2.11036L16.409 6.05781C16.1832 6.47241 15.6905 6.57625 15.3282 6.40268C15.1796 6.33143 15.1774 6.27459 15.0546 6.18818L15.0561 6.18666ZM1.85017 5.21269L3.858 5.20207C3.94138 5.56135 4.08615 6.07979 4.30595 6.25033C4.65386 6.51941 5.16321 6.45195 5.45199 6.1715C5.81732 5.81602 5.73622 5.48403 5.56341 4.99212C5.42849 4.60708 5.29964 4.23947 5.16321 3.85442C4.89489 3.09722 4.6296 2.34305 4.37038 1.60329C4.03309 0.642195 4.04673 0.0449234 2.84385 0.0509871C2.34133 0.053261 1.95628 0.151796 1.763 0.476202C1.57351 0.793787 0.416111 4.24022 0.147036 4.98302C-0.0166831 5.43552 -0.0864153 5.83042 0.226622 6.14801C0.592715 6.52016 1.41889 6.62021 1.67053 5.80313C1.73193 5.60455 1.79029 5.41809 1.85017 5.21269Z" fill="#C7C7C7"/>
</g>
<g id="Vector_2">
<path fill-rule="evenodd" clip-rule="evenodd" d="M0 10.0543L0.00606367 10.7152H30.2115C31.8843 10.7152 33.5586 10.7236 35.2307 10.7152C35.8939 10.7122 36.5973 10.4128 36.9474 9.93152C37.4538 9.23647 37.456 8.95299 37.456 7.92823C37.0839 7.86987 5.47398 7.91232 2.20793 7.91307C1.01566 7.91307 0 8.85976 0 10.0543Z" fill="#C7C7C7"/>
<path fill-rule="evenodd" clip-rule="evenodd" d="M0 10.0543L0.00606367 10.7152H30.2115C31.8843 10.7152 33.5586 10.7236 35.2307 10.7152C35.8939 10.7122 36.5973 10.4128 36.9474 9.93152C37.4538 9.23647 37.456 8.95299 37.456 7.92823C37.0839 7.86987 5.47398 7.91232 2.20793 7.91307C1.01566 7.91307 0 8.85976 0 10.0543Z" fill="#C7C7C7"/>
</g>
<g id="Vector_3">
<path fill-rule="evenodd" clip-rule="evenodd" d="M34.6599 0.657357C34.7547 0.889292 34.8062 0.808948 34.7948 1.18944C34.7888 1.3994 34.7539 1.60784 34.7145 1.81249C34.6455 2.17782 34.5387 2.54922 34.4538 2.91986C34.121 4.37287 33.4184 6.73012 35.6385 6.44816C36.3828 6.35342 37.2468 5.9282 36.7671 5.10885C36.4472 5.29303 35.4618 5.9805 35.4618 4.93603C35.4618 4.29025 35.6998 3.66645 35.7893 3.05326C36.4927 3.05175 37.409 3.20713 37.4545 2.13841C36.955 2.23922 36.5177 2.28318 35.9826 2.25817C36.047 1.85038 36.4207 0.962056 36.1963 0.654325C35.9075 0.25867 35.07 0.55579 34.6592 0.656599L34.6599 0.657357ZM19.1733 3.04493C19.2377 2.66519 19.5159 1.96635 19.1733 1.72077C18.858 1.4949 18.1236 1.65407 17.8105 1.83068C18.0015 1.98682 17.9598 2.2468 17.9212 2.55377C17.8393 3.20561 17.6339 4.11441 17.4687 4.73745C17.3808 5.06868 17.0889 5.84179 17.2542 6.14649C17.477 6.55806 18.1531 6.44058 18.5988 6.29657C18.5571 5.95549 18.379 5.93351 18.739 5.20738C18.8989 4.88601 19.049 4.58282 19.2089 4.27206C19.3727 3.95372 19.5606 3.66873 19.7395 3.39738C19.8343 3.25336 19.9472 3.10708 20.0404 2.99566C20.1011 2.92214 20.1496 2.89712 20.211 2.83194C20.2989 2.73871 20.2868 2.71067 20.4429 2.69475C20.4982 3.09571 20.0715 4.68591 19.9593 5.15811C19.8729 5.52269 19.6713 6.04493 19.9745 6.30642C20.2345 6.53002 20.906 6.43755 21.1766 6.27459C21.0099 5.83876 21.1387 5.57044 21.3252 5.18616C21.4851 4.85796 21.6268 4.56463 21.8012 4.25614C22.0028 3.89839 22.6963 2.71142 23.0169 2.69702C23.0723 2.85165 22.6054 4.87843 22.5402 5.22936C22.45 5.72052 22.4757 6.20485 22.8813 6.37767C23.3694 6.58535 23.7658 6.28596 24.097 6.1571C24.047 6.04189 24.1046 6.1571 24.0379 6.05781C23.9841 5.97823 24.022 6.05781 23.9704 5.95624C23.734 5.48934 23.9583 4.66317 24.0591 4.17353C24.1546 3.71193 24.4563 2.53558 24.3994 2.11264C24.2956 1.338 23.4315 1.49869 22.8547 1.89738C22.591 2.07929 22.4227 2.27711 22.2317 2.47949C21.9914 2.73341 21.8118 3.02673 21.6799 3.16696C21.7155 2.76676 21.9126 2.32941 21.7428 1.93073C21.5882 1.56918 21.1819 1.48202 20.7249 1.64043C20.1662 1.83447 19.8555 2.23088 19.5068 2.63032C19.4432 2.70309 19.4151 2.74326 19.3454 2.83725L19.1733 3.0472V3.04493ZM28.0695 2.90698C27.9755 3.02749 27.4874 3.98025 27.1486 4.44866C26.9992 4.65483 26.0503 6.1048 26.1359 4.80036C26.1753 4.20005 26.5225 2.23164 27.3775 2.38171C27.6526 2.43022 27.9929 2.72886 28.0687 2.90622L28.0695 2.90698ZM27.6359 4.86933C27.523 4.96256 27.3411 5.28773 27.2259 5.42871C26.9318 5.78798 26.9894 5.68641 26.7802 5.91986C26.5263 6.20334 26.0222 6.5429 25.4416 6.45271C24.3881 6.28899 24.5942 4.55781 24.9368 3.70738C25.4507 2.43098 26.5937 1.22355 27.9482 1.64346C28.0308 1.66923 28.2438 1.77686 28.281 1.78293C28.406 1.80339 28.503 1.69121 28.6372 1.65483C28.9639 1.56463 29.5824 1.66772 29.8082 1.8231L29.452 2.76903C29.2269 3.4565 29.092 4.27282 29.0639 5.00122C29.0351 5.75311 29.1162 5.69551 29.2458 6.15028C28.9457 6.41557 28.3628 6.57398 27.9141 6.29657C27.5109 6.04796 27.6215 5.40294 27.6374 4.86857L27.6359 4.86933ZM31.8623 3.08131C32.2057 2.61592 32.8363 1.67984 33.473 1.57524C34.5258 1.40243 33.808 3.04493 33.2562 3.38828C33.1539 3.25185 33.05 3.09116 32.8052 3.17681C32.502 3.28292 32.0184 4.04164 31.8669 4.31602C31.6971 4.62375 31.5568 4.90344 31.4166 5.23694C31.093 6.01082 31.2514 5.8994 31.3014 6.29278C30.8709 6.44134 30.1539 6.57474 29.9007 6.18212C29.7211 5.90395 30.0243 5.05882 30.1107 4.73214C30.2365 4.25387 30.354 3.76044 30.4563 3.27231C30.5867 2.65306 30.692 2.31198 30.4904 1.80187C30.8732 1.69273 31.5038 1.45852 31.8631 1.74275C32.2436 2.04366 31.8691 2.66367 31.8615 3.08055L31.8623 3.08131Z" fill="#C7C7C7"/>
<path fill-rule="evenodd" clip-rule="evenodd" d="M34.6599 0.657357C34.7547 0.889292 34.8062 0.808948 34.7948 1.18944C34.7888 1.3994 34.7539 1.60784 34.7145 1.81249C34.6455 2.17782 34.5387 2.54922 34.4538 2.91986C34.121 4.37287 33.4184 6.73012 35.6385 6.44816C36.3828 6.35342 37.2468 5.9282 36.7671 5.10885C36.4472 5.29303 35.4618 5.9805 35.4618 4.93603C35.4618 4.29025 35.6998 3.66645 35.7893 3.05326C36.4927 3.05175 37.409 3.20713 37.4545 2.13841C36.955 2.23922 36.5177 2.28318 35.9826 2.25817C36.047 1.85038 36.4207 0.962056 36.1963 0.654325C35.9075 0.25867 35.07 0.55579 34.6592 0.656599L34.6599 0.657357ZM19.1733 3.04493C19.2377 2.66519 19.5159 1.96635 19.1733 1.72077C18.858 1.4949 18.1236 1.65407 17.8105 1.83068C18.0015 1.98682 17.9598 2.2468 17.9212 2.55377C17.8393 3.20561 17.6339 4.11441 17.4687 4.73745C17.3808 5.06868 17.0889 5.84179 17.2542 6.14649C17.477 6.55806 18.1531 6.44058 18.5988 6.29657C18.5571 5.95549 18.379 5.93351 18.739 5.20738C18.8989 4.88601 19.049 4.58282 19.2089 4.27206C19.3727 3.95372 19.5606 3.66873 19.7395 3.39738C19.8343 3.25336 19.9472 3.10708 20.0404 2.99566C20.1011 2.92214 20.1496 2.89712 20.211 2.83194C20.2989 2.73871 20.2868 2.71067 20.4429 2.69475C20.4982 3.09571 20.0715 4.68591 19.9593 5.15811C19.8729 5.52269 19.6713 6.04493 19.9745 6.30642C20.2345 6.53002 20.906 6.43755 21.1766 6.27459C21.0099 5.83876 21.1387 5.57044 21.3252 5.18616C21.4851 4.85796 21.6268 4.56463 21.8012 4.25614C22.0028 3.89839 22.6963 2.71142 23.0169 2.69702C23.0723 2.85165 22.6054 4.87843 22.5402 5.22936C22.45 5.72052 22.4757 6.20485 22.8813 6.37767C23.3694 6.58535 23.7658 6.28596 24.097 6.1571C24.047 6.04189 24.1046 6.1571 24.0379 6.05781C23.9841 5.97823 24.022 6.05781 23.9704 5.95624C23.734 5.48934 23.9583 4.66317 24.0591 4.17353C24.1546 3.71193 24.4563 2.53558 24.3994 2.11264C24.2956 1.338 23.4315 1.49869 22.8547 1.89738C22.591 2.07929 22.4227 2.27711 22.2317 2.47949C21.9914 2.73341 21.8118 3.02673 21.6799 3.16696C21.7155 2.76676 21.9126 2.32941 21.7428 1.93073C21.5882 1.56918 21.1819 1.48202 20.7249 1.64043C20.1662 1.83447 19.8555 2.23088 19.5068 2.63032C19.4432 2.70309 19.4151 2.74326 19.3454 2.83725L19.1733 3.0472V3.04493ZM28.0695 2.90698C27.9755 3.02749 27.4874 3.98025 27.1486 4.44866C26.9992 4.65483 26.0503 6.1048 26.1359 4.80036C26.1753 4.20005 26.5225 2.23164 27.3775 2.38171C27.6526 2.43022 27.9929 2.72886 28.0687 2.90622L28.0695 2.90698ZM27.6359 4.86933C27.523 4.96256 27.3411 5.28773 27.2259 5.42871C26.9318 5.78798 26.9894 5.68641 26.7802 5.91986C26.5263 6.20334 26.0222 6.5429 25.4416 6.45271C24.3881 6.28899 24.5942 4.55781 24.9368 3.70738C25.4507 2.43098 26.5937 1.22355 27.9482 1.64346C28.0308 1.66923 28.2438 1.77686 28.281 1.78293C28.406 1.80339 28.503 1.69121 28.6372 1.65483C28.9639 1.56463 29.5824 1.66772 29.8082 1.8231L29.452 2.76903C29.2269 3.4565 29.092 4.27282 29.0639 5.00122C29.0351 5.75311 29.1162 5.69551 29.2458 6.15028C28.9457 6.41557 28.3628 6.57398 27.9141 6.29657C27.5109 6.04796 27.6215 5.40294 27.6374 4.86857L27.6359 4.86933ZM31.8623 3.08131C32.2057 2.61592 32.8363 1.67984 33.473 1.57524C34.5258 1.40243 33.808 3.04493 33.2562 3.38828C33.1539 3.25185 33.05 3.09116 32.8052 3.17681C32.502 3.28292 32.0184 4.04164 31.8669 4.31602C31.6971 4.62375 31.5568 4.90344 31.4166 5.23694C31.093 6.01082 31.2514 5.8994 31.3014 6.29278C30.8709 6.44134 30.1539 6.57474 29.9007 6.18212C29.7211 5.90395 30.0243 5.05882 30.1107 4.73214C30.2365 4.25387 30.354 3.76044 30.4563 3.27231C30.5867 2.65306 30.692 2.31198 30.4904 1.80187C30.8732 1.69273 31.5038 1.45852 31.8631 1.74275C32.2436 2.04366 31.8691 2.66367 31.8615 3.08055L31.8623 3.08131Z" fill="#C7C7C7"/>
</g>
<g id="Vector_4">
<path fill-rule="evenodd" clip-rule="evenodd" d="M0 11.9949H34.3264C35.1829 11.9949 35.7772 12.0692 36.4335 11.6591C36.789 11.437 37.4015 10.7928 37.4037 10.1978C37.2855 10.2781 37.2249 10.3956 37.1104 10.4964C36.0493 11.4363 35.1245 11.2369 33.6238 11.2369H0.00227388L0 11.9949Z" fill="#C7C7C7"/>
<path fill-rule="evenodd" clip-rule="evenodd" d="M0 11.9949H34.3264C35.1829 11.9949 35.7772 12.0692 36.4335 11.6591C36.789 11.437 37.4015 10.7928 37.4037 10.1978C37.2855 10.2781 37.2249 10.3956 37.1104 10.4964C36.0493 11.4363 35.1245 11.2369 33.6238 11.2369H0.00227388L0 11.9949Z" fill="#C7C7C7"/>
</g>
</g>
</g>
</g>
<defs>
<clipPath id="clip0_3472_3146">
<rect width="37.456" height="12" fill="white"/>
</clipPath>
</defs>
</svg>
