<svg width="36" height="12" viewBox="0 0 36 12" fill="none" xmlns="http://www.w3.org/2000/svg">
<g id="Indomaret" clip-path="url(#clip0_3472_3171)">
<g id="Layer 1">
<g id="Group">
<path id="Vector" fill-rule="evenodd" clip-rule="evenodd" d="M1.03279 0H34.7213C35.0056 0 35.2643 0.116066 35.4511 0.302951C35.638 0.489836 35.7541 0.748033 35.7541 1.03279V10.9672C35.7541 11.2515 35.638 11.5102 35.4511 11.697C35.2643 11.8839 35.0061 12 34.7213 12H1.03279C0.748525 12 0.489836 11.8839 0.302951 11.697C0.116066 11.5102 0 11.252 0 10.9672V1.03279C0 0.748525 0.116066 0.489836 0.302951 0.302951C0.489836 0.116066 0.748525 0 1.03279 0Z" fill="#191D24"/>
<g id="Vector_2">
<path fill-rule="evenodd" clip-rule="evenodd" d="M35.3606 8.14551V10.967C35.3606 11.3186 35.0729 11.6063 34.7213 11.6063H1.03278C0.681138 11.6063 0.393433 11.3186 0.393433 10.967V8.14551H35.3606Z" fill="#C7C7C7"/>
<path fill-rule="evenodd" clip-rule="evenodd" d="M35.3606 8.14551V10.967C35.3606 11.3186 35.0729 11.6063 34.7213 11.6063H1.03278C0.681138 11.6063 0.393433 11.3186 0.393433 10.967V8.14551H35.3606Z" fill="#C7C7C7"/>
</g>
<g id="Vector_3">
<path d="M35.3606 4.26074H0.393433V7.74025H35.3606V4.26074Z" fill="#C7C7C7"/>
<path d="M35.3606 4.26074H0.393433V7.74025H35.3606V4.26074Z" fill="#C7C7C7"/>
</g>
<g id="Vector_4">
<path fill-rule="evenodd" clip-rule="evenodd" d="M1.03278 0.393555H34.7213C35.0729 0.393555 35.3606 0.68126 35.3606 1.0329V3.85487H0.393433V1.0329C0.393433 0.68126 0.681138 0.393555 1.03278 0.393555Z" fill="#C7C7C7"/>
<path fill-rule="evenodd" clip-rule="evenodd" d="M1.03278 0.393555H34.7213C35.0729 0.393555 35.3606 0.68126 35.3606 1.0329V3.85487H0.393433V1.0329C0.393433 0.68126 0.681138 0.393555 1.03278 0.393555Z" fill="#C7C7C7"/>
</g>
<path id="Vector_5" fill-rule="evenodd" clip-rule="evenodd" d="M5.7359 2.82245C8.08082 2.12754 10.0657 1.71442 11.9572 1.47344C13.651 1.25754 15.2621 1.1818 16.9859 1.16557V1.15967H18.8361V1.16606C20.5456 1.18327 22.1464 1.26098 23.8293 1.47737C25.7115 1.71885 27.6871 2.13147 30.0182 2.82196C30.2744 2.8977 30.5233 3.0177 30.7112 3.20508C30.9089 3.40278 31.0328 3.65508 31.0328 3.97672V8.02229C31.0328 8.34393 30.9089 8.59623 30.7112 8.79393C30.5238 8.98131 30.2744 9.10131 30.0182 9.17705C27.6871 9.86754 25.7115 10.2802 23.8293 10.5216C22.1459 10.738 20.5456 10.8157 18.8361 10.8329V10.8388H18.2307V10.8369H18.0369H18V10.8388H17.7541V10.8369H17.4098V10.8359C15.5454 10.829 13.8334 10.7616 12.0452 10.5384C10.1346 10.2998 8.12508 9.88426 5.7359 9.17655C5.47967 9.10082 5.23082 8.98082 5.04295 8.79344C4.84525 8.59573 4.72131 8.34344 4.72131 8.0218V3.97721C4.72131 3.65557 4.84525 3.40327 5.04295 3.20557C5.23033 3.01819 5.47967 2.89819 5.7359 2.82245Z" fill="#191D24"/>
<g id="Group_2">
<g id="Vector_6">
<path fill-rule="evenodd" clip-rule="evenodd" d="M21.9408 7.36772C21.7953 7.16362 21.9349 6.82379 22.0377 6.63395C22.1469 6.4328 22.3082 6.17707 22.564 6.22625C22.681 6.64723 22.3058 7.40854 21.9408 7.36772ZM13.9948 6.19969C14.1841 6.67428 13.562 7.5428 13.3515 7.30625C13.1808 7.11395 13.5797 6.10231 13.9948 6.19969ZM15.304 7.30674L15.2302 7.14493C15.0241 7.19166 14.6985 7.38297 14.4679 7.32789C14.3425 7.04067 15.2474 5.15067 15.42 4.57182L14.9661 4.59198C14.8377 4.80346 14.6012 5.54313 14.4856 5.69657C13.6825 5.61248 13.3481 5.84412 13.021 6.27248C12.4889 6.96789 12.8794 7.03772 12.479 7.26543C12.1264 7.46608 12.1771 7.35248 12.1505 7.32395C12.0044 7.19657 12.4146 6.31871 12.454 6.12739C12.5046 5.87805 12.3753 5.67887 12.1431 5.69215C11.9262 5.70493 11.7644 5.85887 11.6095 5.94198C11.0735 6.23116 11.5781 5.11379 10.1179 6.14559C10.0053 6.22526 9.72199 6.38903 9.66641 6.44461C9.67871 6.35313 10.0992 5.44575 10.1848 5.2328C10.3495 4.82313 10.5148 4.39969 10.6554 3.98313C10.1253 3.94723 8.54658 4.22116 8.06658 4.64952C7.15871 5.45903 8.24117 6.5292 8.95625 5.7069C8.78363 5.58297 8.51904 5.70297 8.47822 5.38428C8.4433 5.11084 8.54166 4.92887 8.6892 4.81477C8.86969 4.67608 9.66149 4.53346 9.94133 4.48084C9.91231 4.62838 9.78936 4.90723 9.73035 5.07198C9.41756 5.94395 9.03445 7.27477 7.9215 7.3092C7.33969 7.32739 7.17297 7.06723 6.96641 6.66936C6.83904 6.81346 6.78641 7.11149 6.86018 7.32887C6.92609 7.52362 7.07953 7.65838 7.26149 7.74592C8.131 8.16543 8.89871 7.4592 9.51592 6.98067C9.67182 6.86018 10.2512 6.27248 10.5482 6.41854C10.7144 6.74952 10.2325 7.44444 10.2217 7.78871L10.7946 7.801C10.8979 7.51723 10.9815 7.20739 11.0799 6.90936C11.1635 6.65608 11.28 6.2051 11.6125 6.43379C11.7399 6.77362 11.1989 7.48526 11.4954 7.72379C11.8028 7.97116 12.4933 7.47592 12.6576 7.37657C12.7859 7.561 12.7835 7.79166 13.1144 7.84772C13.3785 7.89248 13.6461 7.76756 13.7961 7.64411C13.8895 7.7592 13.8664 7.87477 14.0828 7.85461C14.2953 7.83444 14.9272 7.42133 15.3049 7.30674H15.304ZM26.1767 6.82182C26.1512 6.5233 26.4802 6.11116 26.7143 6.12198C26.792 6.29756 26.6558 6.49084 26.5687 6.59362C26.4684 6.71215 26.3636 6.84051 26.1767 6.82182ZM17.5549 6.11166L17.6203 6.3128C17.7994 6.26264 17.9985 6.14559 18.1776 6.19477C18.2336 6.53559 17.7167 7.47149 17.6415 7.86789L18.2056 7.85608C18.3167 7.6692 18.4338 7.23198 18.5199 7.0028C18.6094 6.76477 18.7136 6.29953 19.0417 6.41362C19.2349 6.79575 18.7092 7.48182 18.6699 7.8551L19.3136 7.861C19.4326 7.51772 19.5674 7.09133 19.7071 6.75248C19.7764 6.58428 19.8497 6.32116 20.0995 6.391C20.3843 6.47067 19.893 7.00379 19.8984 7.47543C19.9008 7.68641 20.044 7.87182 20.2544 7.85116C20.5348 7.82362 21.0044 7.44002 21.2454 7.38592C21.3556 7.63428 21.3787 7.7892 21.6733 7.83543C21.9743 7.88264 22.1626 7.74002 22.3559 7.62789C22.3618 7.63379 22.3682 7.64313 22.3717 7.64756L22.4149 7.70854C22.474 7.79412 22.5074 7.861 22.651 7.87526C23.1261 7.92297 23.8274 7.1651 24.1013 6.80362C24.4077 6.39936 24.2828 6.42985 24.6762 6.39543C24.5897 6.76772 24.1658 7.3628 24.5243 7.7228C24.8833 8.08379 25.5999 7.5969 25.8177 7.46953C26.0184 7.69133 26.1246 7.88805 26.6021 7.86592C26.9784 7.84871 27.1869 7.69723 27.4884 7.60969C27.8553 8.21215 29.0538 7.61953 29.0081 7.25264C28.8531 7.22313 28.6726 7.43854 28.5138 7.52412C28.294 7.64215 28.0707 7.5669 28.0658 7.31166C28.0633 7.18526 28.3702 6.2469 28.4312 6.12985L28.7941 6.12641L28.9146 5.7133L28.6594 5.70838C28.7071 5.27559 28.9367 4.90477 29.0144 4.52166L28.5044 4.54182L28.0953 5.67444L27.7215 5.69559L27.6335 6.12051L27.9271 6.11559C27.8646 6.51838 27.6315 7.06231 27.4264 7.31805C27.2144 7.58313 26.4541 7.741 26.3164 7.27772C26.4944 7.07854 26.8053 7.0328 27.0477 6.6128C27.6561 5.56034 26.4418 5.43198 25.9461 6.16477C25.6367 6.62264 25.7322 6.76477 25.7494 7.30674C25.1381 7.64657 24.9231 7.71444 24.9782 7.11543C25.0338 6.50952 25.1262 6.59952 25.2271 6.49182C25.3043 6.4092 25.3333 6.26067 25.2492 6.17952C25.1518 6.07871 24.9861 6.16821 24.8046 6.1033C24.6895 5.81854 24.8862 5.77133 24.9654 5.61543C24.8607 5.59084 24.7766 5.6051 24.6723 5.58887C24.422 5.55002 24.6462 5.54362 24.4785 5.44674C24.3344 5.50231 24.3246 5.50772 24.274 5.66952C24.1279 6.13526 24.181 6.23657 23.9258 6.59461C23.7871 6.78936 23.3174 7.44493 22.9948 7.32444C22.8458 7.12772 23.4143 5.97641 23.4846 5.68772C22.9058 5.64444 22.9923 5.75461 22.9112 5.84412C22.3761 5.60362 22.0948 5.80821 21.7662 6.09985C21.2961 6.51739 21.2754 7.11838 21.2179 7.18477C21.0753 7.27723 20.7856 7.4051 20.5741 7.32838C20.5131 7.08739 20.8874 6.38166 20.9484 6.09444C21.0128 5.79149 20.8382 5.63018 20.5328 5.70887C20.3036 5.76789 20.2156 5.98034 20.0046 6.00789C19.8271 5.88297 19.8192 5.62084 19.4562 5.6833C19.2 5.72707 19.1838 5.92723 18.8941 5.98477C18.8882 5.97641 18.8838 5.9651 18.8808 5.95821L18.8489 5.87854C18.8346 5.83871 18.8026 5.71428 18.7382 5.67985C18.4456 5.64248 17.8613 6.01969 17.5549 6.10969V6.11166Z" fill="#C7C7C7"/>
<path fill-rule="evenodd" clip-rule="evenodd" d="M21.9408 7.36772C21.7953 7.16362 21.9349 6.82379 22.0377 6.63395C22.1469 6.4328 22.3082 6.17707 22.564 6.22625C22.681 6.64723 22.3058 7.40854 21.9408 7.36772ZM13.9948 6.19969C14.1841 6.67428 13.562 7.5428 13.3515 7.30625C13.1808 7.11395 13.5797 6.10231 13.9948 6.19969ZM15.304 7.30674L15.2302 7.14493C15.0241 7.19166 14.6985 7.38297 14.4679 7.32789C14.3425 7.04067 15.2474 5.15067 15.42 4.57182L14.9661 4.59198C14.8377 4.80346 14.6012 5.54313 14.4856 5.69657C13.6825 5.61248 13.3481 5.84412 13.021 6.27248C12.4889 6.96789 12.8794 7.03772 12.479 7.26543C12.1264 7.46608 12.1771 7.35248 12.1505 7.32395C12.0044 7.19657 12.4146 6.31871 12.454 6.12739C12.5046 5.87805 12.3753 5.67887 12.1431 5.69215C11.9262 5.70493 11.7644 5.85887 11.6095 5.94198C11.0735 6.23116 11.5781 5.11379 10.1179 6.14559C10.0053 6.22526 9.72199 6.38903 9.66641 6.44461C9.67871 6.35313 10.0992 5.44575 10.1848 5.2328C10.3495 4.82313 10.5148 4.39969 10.6554 3.98313C10.1253 3.94723 8.54658 4.22116 8.06658 4.64952C7.15871 5.45903 8.24117 6.5292 8.95625 5.7069C8.78363 5.58297 8.51904 5.70297 8.47822 5.38428C8.4433 5.11084 8.54166 4.92887 8.6892 4.81477C8.86969 4.67608 9.66149 4.53346 9.94133 4.48084C9.91231 4.62838 9.78936 4.90723 9.73035 5.07198C9.41756 5.94395 9.03445 7.27477 7.9215 7.3092C7.33969 7.32739 7.17297 7.06723 6.96641 6.66936C6.83904 6.81346 6.78641 7.11149 6.86018 7.32887C6.92609 7.52362 7.07953 7.65838 7.26149 7.74592C8.131 8.16543 8.89871 7.4592 9.51592 6.98067C9.67182 6.86018 10.2512 6.27248 10.5482 6.41854C10.7144 6.74952 10.2325 7.44444 10.2217 7.78871L10.7946 7.801C10.8979 7.51723 10.9815 7.20739 11.0799 6.90936C11.1635 6.65608 11.28 6.2051 11.6125 6.43379C11.7399 6.77362 11.1989 7.48526 11.4954 7.72379C11.8028 7.97116 12.4933 7.47592 12.6576 7.37657C12.7859 7.561 12.7835 7.79166 13.1144 7.84772C13.3785 7.89248 13.6461 7.76756 13.7961 7.64411C13.8895 7.7592 13.8664 7.87477 14.0828 7.85461C14.2953 7.83444 14.9272 7.42133 15.3049 7.30674H15.304ZM26.1767 6.82182C26.1512 6.5233 26.4802 6.11116 26.7143 6.12198C26.792 6.29756 26.6558 6.49084 26.5687 6.59362C26.4684 6.71215 26.3636 6.84051 26.1767 6.82182ZM17.5549 6.11166L17.6203 6.3128C17.7994 6.26264 17.9985 6.14559 18.1776 6.19477C18.2336 6.53559 17.7167 7.47149 17.6415 7.86789L18.2056 7.85608C18.3167 7.6692 18.4338 7.23198 18.5199 7.0028C18.6094 6.76477 18.7136 6.29953 19.0417 6.41362C19.2349 6.79575 18.7092 7.48182 18.6699 7.8551L19.3136 7.861C19.4326 7.51772 19.5674 7.09133 19.7071 6.75248C19.7764 6.58428 19.8497 6.32116 20.0995 6.391C20.3843 6.47067 19.893 7.00379 19.8984 7.47543C19.9008 7.68641 20.044 7.87182 20.2544 7.85116C20.5348 7.82362 21.0044 7.44002 21.2454 7.38592C21.3556 7.63428 21.3787 7.7892 21.6733 7.83543C21.9743 7.88264 22.1626 7.74002 22.3559 7.62789C22.3618 7.63379 22.3682 7.64313 22.3717 7.64756L22.4149 7.70854C22.474 7.79412 22.5074 7.861 22.651 7.87526C23.1261 7.92297 23.8274 7.1651 24.1013 6.80362C24.4077 6.39936 24.2828 6.42985 24.6762 6.39543C24.5897 6.76772 24.1658 7.3628 24.5243 7.7228C24.8833 8.08379 25.5999 7.5969 25.8177 7.46953C26.0184 7.69133 26.1246 7.88805 26.6021 7.86592C26.9784 7.84871 27.1869 7.69723 27.4884 7.60969C27.8553 8.21215 29.0538 7.61953 29.0081 7.25264C28.8531 7.22313 28.6726 7.43854 28.5138 7.52412C28.294 7.64215 28.0707 7.5669 28.0658 7.31166C28.0633 7.18526 28.3702 6.2469 28.4312 6.12985L28.7941 6.12641L28.9146 5.7133L28.6594 5.70838C28.7071 5.27559 28.9367 4.90477 29.0144 4.52166L28.5044 4.54182L28.0953 5.67444L27.7215 5.69559L27.6335 6.12051L27.9271 6.11559C27.8646 6.51838 27.6315 7.06231 27.4264 7.31805C27.2144 7.58313 26.4541 7.741 26.3164 7.27772C26.4944 7.07854 26.8053 7.0328 27.0477 6.6128C27.6561 5.56034 26.4418 5.43198 25.9461 6.16477C25.6367 6.62264 25.7322 6.76477 25.7494 7.30674C25.1381 7.64657 24.9231 7.71444 24.9782 7.11543C25.0338 6.50952 25.1262 6.59952 25.2271 6.49182C25.3043 6.4092 25.3333 6.26067 25.2492 6.17952C25.1518 6.07871 24.9861 6.16821 24.8046 6.1033C24.6895 5.81854 24.8862 5.77133 24.9654 5.61543C24.8607 5.59084 24.7766 5.6051 24.6723 5.58887C24.422 5.55002 24.6462 5.54362 24.4785 5.44674C24.3344 5.50231 24.3246 5.50772 24.274 5.66952C24.1279 6.13526 24.181 6.23657 23.9258 6.59461C23.7871 6.78936 23.3174 7.44493 22.9948 7.32444C22.8458 7.12772 23.4143 5.97641 23.4846 5.68772C22.9058 5.64444 22.9923 5.75461 22.9112 5.84412C22.3761 5.60362 22.0948 5.80821 21.7662 6.09985C21.2961 6.51739 21.2754 7.11838 21.2179 7.18477C21.0753 7.27723 20.7856 7.4051 20.5741 7.32838C20.5131 7.08739 20.8874 6.38166 20.9484 6.09444C21.0128 5.79149 20.8382 5.63018 20.5328 5.70887C20.3036 5.76789 20.2156 5.98034 20.0046 6.00789C19.8271 5.88297 19.8192 5.62084 19.4562 5.6833C19.2 5.72707 19.1838 5.92723 18.8941 5.98477C18.8882 5.97641 18.8838 5.9651 18.8808 5.95821L18.8489 5.87854C18.8346 5.83871 18.8026 5.71428 18.7382 5.67985C18.4456 5.64248 17.8613 6.01969 17.5549 6.10969V6.11166Z" fill="#C7C7C7"/>
</g>
<g id="Vector_7">
<path fill-rule="evenodd" clip-rule="evenodd" d="M16.4139 5.94434C16.6106 5.94434 16.7892 6.02402 16.918 6.15336C17.0469 6.28221 17.127 6.46074 17.127 6.65746C17.127 6.85418 17.0474 7.0327 16.918 7.16156C16.7892 7.29041 16.6106 7.37057 16.4139 7.37057C16.2172 7.37057 16.0387 7.2909 15.9098 7.16156C15.781 7.0327 15.7008 6.85418 15.7008 6.65746C15.7008 6.46074 15.7805 6.28221 15.9098 6.15336C16.0387 6.02451 16.2172 5.94434 16.4139 5.94434ZM16.4139 5.32959C16.047 5.32959 15.7151 5.47811 15.4751 5.71861C15.2346 5.9591 15.0861 6.29106 15.0861 6.65746C15.0861 7.02385 15.2346 7.35631 15.4751 7.59631C15.7156 7.83631 16.0475 7.98533 16.4139 7.98533C16.7803 7.98533 17.1128 7.8368 17.3528 7.59631C17.5933 7.35582 17.7418 7.02385 17.7418 6.65746C17.7418 6.29106 17.5933 5.95861 17.3528 5.71861C17.1123 5.47811 16.7803 5.32959 16.4139 5.32959ZM17.2485 5.82287C17.0351 5.60943 16.74 5.47713 16.4139 5.47713C16.0879 5.47713 15.7928 5.60943 15.5793 5.82287C15.3659 6.03631 15.2336 6.33139 15.2336 6.65746C15.2336 6.98352 15.3659 7.27861 15.5793 7.49205C15.7928 7.70549 16.0879 7.83779 16.4139 7.83779C16.74 7.83779 17.0351 7.70549 17.2485 7.49205C17.462 7.27861 17.5943 6.98352 17.5943 6.65746C17.5943 6.33139 17.462 6.03631 17.2485 5.82287ZM16.4139 5.63697C16.1321 5.63697 15.8769 5.75106 15.6925 5.93598C15.5075 6.12041 15.3934 6.37565 15.3934 6.65746C15.3934 6.93926 15.5075 7.19451 15.6925 7.37893C15.8774 7.56385 16.1321 7.67795 16.4139 7.67795C16.6957 7.67795 16.951 7.56385 17.1354 7.37893C17.3203 7.19451 17.4344 6.93926 17.4344 6.65746C17.4344 6.37565 17.3203 6.12041 17.1354 5.93598C16.9505 5.75106 16.6957 5.63697 16.4139 5.63697ZM17.0311 6.04025C16.8733 5.88238 16.6549 5.78451 16.4139 5.78451C16.1729 5.78451 15.9546 5.88238 15.7967 6.04025C15.6388 6.19811 15.541 6.41647 15.541 6.65746C15.541 6.89844 15.6388 7.1168 15.7967 7.27467C15.9546 7.43254 16.1729 7.53041 16.4139 7.53041C16.6549 7.53041 16.8733 7.43254 17.0311 7.27467C17.189 7.1168 17.2869 6.89844 17.2869 6.65746C17.2869 6.41647 17.189 6.19811 17.0311 6.04025ZM16.8138 6.25762C16.7115 6.15533 16.5698 6.09188 16.4139 6.09188C16.258 6.09188 16.1164 6.15533 16.0141 6.25762C15.9118 6.35992 15.8484 6.50156 15.8484 6.65746C15.8484 6.81336 15.9118 6.955 16.0141 7.05729C16.1164 7.15959 16.258 7.22303 16.4139 7.22303C16.5698 7.22303 16.7115 7.15959 16.8138 7.05729C16.9161 6.955 16.9795 6.81336 16.9795 6.65746C16.9795 6.50156 16.9161 6.35992 16.8138 6.25762Z" fill="#C7C7C7"/>
<path fill-rule="evenodd" clip-rule="evenodd" d="M16.4139 5.94434C16.6106 5.94434 16.7892 6.02402 16.918 6.15336C17.0469 6.28221 17.127 6.46074 17.127 6.65746C17.127 6.85418 17.0474 7.0327 16.918 7.16156C16.7892 7.29041 16.6106 7.37057 16.4139 7.37057C16.2172 7.37057 16.0387 7.2909 15.9098 7.16156C15.781 7.0327 15.7008 6.85418 15.7008 6.65746C15.7008 6.46074 15.7805 6.28221 15.9098 6.15336C16.0387 6.02451 16.2172 5.94434 16.4139 5.94434ZM16.4139 5.32959C16.047 5.32959 15.7151 5.47811 15.4751 5.71861C15.2346 5.9591 15.0861 6.29106 15.0861 6.65746C15.0861 7.02385 15.2346 7.35631 15.4751 7.59631C15.7156 7.83631 16.0475 7.98533 16.4139 7.98533C16.7803 7.98533 17.1128 7.8368 17.3528 7.59631C17.5933 7.35582 17.7418 7.02385 17.7418 6.65746C17.7418 6.29106 17.5933 5.95861 17.3528 5.71861C17.1123 5.47811 16.7803 5.32959 16.4139 5.32959ZM17.2485 5.82287C17.0351 5.60943 16.74 5.47713 16.4139 5.47713C16.0879 5.47713 15.7928 5.60943 15.5793 5.82287C15.3659 6.03631 15.2336 6.33139 15.2336 6.65746C15.2336 6.98352 15.3659 7.27861 15.5793 7.49205C15.7928 7.70549 16.0879 7.83779 16.4139 7.83779C16.74 7.83779 17.0351 7.70549 17.2485 7.49205C17.462 7.27861 17.5943 6.98352 17.5943 6.65746C17.5943 6.33139 17.462 6.03631 17.2485 5.82287ZM16.4139 5.63697C16.1321 5.63697 15.8769 5.75106 15.6925 5.93598C15.5075 6.12041 15.3934 6.37565 15.3934 6.65746C15.3934 6.93926 15.5075 7.19451 15.6925 7.37893C15.8774 7.56385 16.1321 7.67795 16.4139 7.67795C16.6957 7.67795 16.951 7.56385 17.1354 7.37893C17.3203 7.19451 17.4344 6.93926 17.4344 6.65746C17.4344 6.37565 17.3203 6.12041 17.1354 5.93598C16.9505 5.75106 16.6957 5.63697 16.4139 5.63697ZM17.0311 6.04025C16.8733 5.88238 16.6549 5.78451 16.4139 5.78451C16.1729 5.78451 15.9546 5.88238 15.7967 6.04025C15.6388 6.19811 15.541 6.41647 15.541 6.65746C15.541 6.89844 15.6388 7.1168 15.7967 7.27467C15.9546 7.43254 16.1729 7.53041 16.4139 7.53041C16.6549 7.53041 16.8733 7.43254 17.0311 7.27467C17.189 7.1168 17.2869 6.89844 17.2869 6.65746C17.2869 6.41647 17.189 6.19811 17.0311 6.04025ZM16.8138 6.25762C16.7115 6.15533 16.5698 6.09188 16.4139 6.09188C16.258 6.09188 16.1164 6.15533 16.0141 6.25762C15.9118 6.35992 15.8484 6.50156 15.8484 6.65746C15.8484 6.81336 15.9118 6.955 16.0141 7.05729C16.1164 7.15959 16.258 7.22303 16.4139 7.22303C16.5698 7.22303 16.7115 7.15959 16.8138 7.05729C16.9161 6.955 16.9795 6.81336 16.9795 6.65746C16.9795 6.50156 16.9161 6.35992 16.8138 6.25762Z" fill="#C7C7C7"/>
</g>
</g>
<g id="Vector_8">
<path fill-rule="evenodd" clip-rule="evenodd" d="M5.90163 3.38721C10.5349 2.01459 13.7218 1.75787 17.5761 1.75049H18.2459C22.0697 1.76082 25.2462 2.02295 29.8524 3.38721C30.1638 3.47918 30.4426 3.65278 30.4426 3.97737V8.02295C30.4426 8.34754 30.1638 8.52114 29.8524 8.61311C25.2462 9.97787 22.0697 10.2395 18.2459 10.2498H18.2306C18.1539 10.2498 18.0772 10.2498 18 10.2498H17.7541C13.8192 10.2503 10.6062 10.0069 5.90163 8.61311C5.59031 8.52114 5.31146 8.34754 5.31146 8.02295V3.97737C5.31146 3.65278 5.59031 3.47918 5.90163 3.38721ZM17.6597 2.63672C14.0597 2.65 10.8344 2.78721 6.61474 3.87901C6.30048 3.96016 6.02458 4.14459 6.02458 4.46918V7.53114C6.02458 7.85573 6.30048 8.04016 6.61474 8.12131C10.8015 9.20426 14.0095 9.34787 17.5761 9.36311H18.179C21.7451 9.34787 24.9531 9.20426 29.1393 8.12131C29.4536 8.04016 29.7295 7.85573 29.7295 7.53114V4.46918C29.7295 4.14459 29.4536 3.96016 29.1393 3.87901C24.9197 2.7877 21.6944 2.65049 18.0944 2.63672H17.6592H17.6597Z" fill="#C7C7C7"/>
<path fill-rule="evenodd" clip-rule="evenodd" d="M5.90163 3.38721C10.5349 2.01459 13.7218 1.75787 17.5761 1.75049H18.2459C22.0697 1.76082 25.2462 2.02295 29.8524 3.38721C30.1638 3.47918 30.4426 3.65278 30.4426 3.97737V8.02295C30.4426 8.34754 30.1638 8.52114 29.8524 8.61311C25.2462 9.97787 22.0697 10.2395 18.2459 10.2498H18.2306C18.1539 10.2498 18.0772 10.2498 18 10.2498H17.7541C13.8192 10.2503 10.6062 10.0069 5.90163 8.61311C5.59031 8.52114 5.31146 8.34754 5.31146 8.02295V3.97737C5.31146 3.65278 5.59031 3.47918 5.90163 3.38721ZM17.6597 2.63672C14.0597 2.65 10.8344 2.78721 6.61474 3.87901C6.30048 3.96016 6.02458 4.14459 6.02458 4.46918V7.53114C6.02458 7.85573 6.30048 8.04016 6.61474 8.12131C10.8015 9.20426 14.0095 9.34787 17.5761 9.36311H18.179C21.7451 9.34787 24.9531 9.20426 29.1393 8.12131C29.4536 8.04016 29.7295 7.85573 29.7295 7.53114V4.46918C29.7295 4.14459 29.4536 3.96016 29.1393 3.87901C24.9197 2.7877 21.6944 2.65049 18.0944 2.63672H17.6592H17.6597Z" fill="#C7C7C7"/>
</g>
</g>
</g>
</g>
<defs>
<clipPath id="clip0_3472_3171">
<rect width="35.7541" height="12" fill="white"/>
</clipPath>
</defs>
</svg>
