<svg width="24" height="24" viewBox="0 0 24 24" fill="none" xmlns="http://www.w3.org/2000/svg">
<g id="mdi:shop-alert">
<g id="Vector">
<path d="M3.91319 7C3.44449 7 3.03868 7.32553 2.937 7.78307L2.02372 11.8928C2.00789 11.9641 1.99991 12.0368 1.99991 12.1098V13C1.99991 13.5523 2.44762 14 2.99991 14H3.11102V19C3.11102 19.5523 3.55873 20 4.11102 20H13.2221C13.7744 20 14.2221 19.5523 14.2221 19V14H18.6666V19C18.6666 19.5523 19.1143 20 19.6666 20H19.8888C20.4411 20 20.8888 19.5523 20.8888 19V14H20.9999C21.5522 14 21.9999 13.5523 21.9999 13V12.1098C21.9999 12.0368 21.9919 11.9641 21.9761 11.8928L21.0628 7.78307C20.9611 7.32553 20.5553 7 20.0866 7H3.91319ZM11.9999 18H5.33324V14H11.9999V18ZM20.9999 4C20.9999 4.55228 20.5522 5 19.9999 5H3.99991C3.44762 5 2.99991 4.55228 2.99991 4C2.99991 3.44772 3.44762 3 3.99991 3H19.9999C20.5522 3 20.9999 3.44772 20.9999 4Z" fill="white"/>
<path d="M3.91319 7C3.44449 7 3.03868 7.32553 2.937 7.78307L2.02372 11.8928C2.00789 11.9641 1.99991 12.0368 1.99991 12.1098V13C1.99991 13.5523 2.44762 14 2.99991 14H3.11102V19C3.11102 19.5523 3.55873 20 4.11102 20H13.2221C13.7744 20 14.2221 19.5523 14.2221 19V14H18.6666V19C18.6666 19.5523 19.1143 20 19.6666 20H19.8888C20.4411 20 20.8888 19.5523 20.8888 19V14H20.9999C21.5522 14 21.9999 13.5523 21.9999 13V12.1098C21.9999 12.0368 21.9919 11.9641 21.9761 11.8928L21.0628 7.78307C20.9611 7.32553 20.5553 7 20.0866 7H3.91319ZM11.9999 18H5.33324V14H11.9999V18ZM20.9999 4C20.9999 4.55228 20.5522 5 19.9999 5H3.99991C3.44762 5 2.99991 4.55228 2.99991 4C2.99991 3.44772 3.44762 3 3.99991 3H19.9999C20.5522 3 20.9999 3.44772 20.9999 4Z" fill="white"/>
</g>
</g>
</svg>
