<svg width="42" height="12" viewBox="0 0 42 12" fill="none" xmlns="http://www.w3.org/2000/svg">
<g id="DANA" clip-path="url(#clip0_3472_2906)">
<g id="Vector">
<path fill-rule="evenodd" clip-rule="evenodd" d="M16.6021 9.10145C17.4003 9.15858 18.3305 8.53891 18.6581 8.18513C19.7972 6.95349 19.8247 5.1725 18.6779 3.88262C18.2513 3.40249 17.2486 2.87182 16.6142 2.94653H14.3174V9.09375L16.6076 9.10145H16.6021ZM15.6126 7.76982V4.27046C15.9721 4.24689 16.3327 4.24689 16.6923 4.27046C16.9751 4.30324 17.2449 4.40762 17.4762 4.5737C18.7956 5.47464 18.2458 7.6226 16.6703 7.76653C16.3182 7.79126 15.9648 7.79236 15.6126 7.76982Z" fill="#C7C7C7"/>
<path fill-rule="evenodd" clip-rule="evenodd" d="M16.6021 9.10145C17.4003 9.15858 18.3305 8.53891 18.6581 8.18513C19.7972 6.95349 19.8247 5.1725 18.6779 3.88262C18.2513 3.40249 17.2486 2.87182 16.6142 2.94653H14.3174V9.09375L16.6076 9.10145H16.6021ZM15.6126 7.76982V4.27046C15.9721 4.24689 16.3327 4.24689 16.6923 4.27046C16.9751 4.30324 17.2449 4.40762 17.4762 4.5737C18.7956 5.47464 18.2458 7.6226 16.6703 7.76653C16.3182 7.79126 15.9648 7.79236 15.6126 7.76982Z" fill="#C7C7C7"/>
</g>
<g id="Vector_2">
<path fill-rule="evenodd" clip-rule="evenodd" d="M36.7654 9.11271H38.0749V7.78768H40.6729L40.6806 9.10612H41.9901V6.9219C41.9901 6.26268 42.0451 5.44085 41.8802 4.84426C41.7304 4.29809 41.4059 3.81588 40.9563 3.47118C40.5066 3.12648 39.9565 2.93821 39.3898 2.9351C38.8231 2.93199 38.271 3.1142 37.8176 3.45394C37.3642 3.79368 37.0344 4.2723 36.8786 4.81679C36.7027 5.4057 36.7621 6.2506 36.7621 6.90432C36.7621 7.64265 36.7544 8.38537 36.7621 9.1237L36.7654 9.11271ZM38.076 6.45495C38.0683 5.9056 38.01 5.3178 38.2684 4.8948C38.3818 4.70005 38.5448 4.5388 38.7408 4.42745C38.9368 4.31609 39.1589 4.25861 39.3843 4.26085C39.6086 4.2625 39.8287 4.32229 40.0229 4.43438C40.2172 4.54646 40.379 4.707 40.4926 4.90029C40.7477 5.33977 40.6872 5.88912 40.6806 6.45605L38.076 6.45495Z" fill="#C7C7C7"/>
<path fill-rule="evenodd" clip-rule="evenodd" d="M36.7654 9.11271H38.0749V7.78768H40.6729L40.6806 9.10612H41.9901V6.9219C41.9901 6.26268 42.0451 5.44085 41.8802 4.84426C41.7304 4.29809 41.4059 3.81588 40.9563 3.47118C40.5066 3.12648 39.9565 2.93821 39.3898 2.9351C38.8231 2.93199 38.271 3.1142 37.8176 3.45394C37.3642 3.79368 37.0344 4.2723 36.8786 4.81679C36.7027 5.4057 36.7621 6.2506 36.7621 6.90432C36.7621 7.64265 36.7544 8.38537 36.7621 9.1237L36.7654 9.11271ZM38.076 6.45495C38.0683 5.9056 38.01 5.3178 38.2684 4.8948C38.3818 4.70005 38.5448 4.5388 38.7408 4.42745C38.9368 4.31609 39.1589 4.25861 39.3843 4.26085C39.6086 4.2625 39.8287 4.32229 40.0229 4.43438C40.2172 4.54646 40.379 4.707 40.4926 4.90029C40.7477 5.33977 40.6872 5.88912 40.6806 6.45605L38.076 6.45495Z" fill="#C7C7C7"/>
</g>
<g id="Vector_3">
<path fill-rule="evenodd" clip-rule="evenodd" d="M21.7905 9.11155H23.0956C23.0956 8.83468 23.0604 7.98758 23.1077 7.78652H25.6959L25.7047 9.11045H27.0119C27.0054 8.37652 27.0119 7.64369 27.0119 6.91305C27.0119 6.2868 27.0702 5.39026 26.902 4.83431C26.7513 4.28886 26.4263 3.80755 25.9766 3.46365C25.5269 3.11975 24.9771 2.93209 24.4108 2.92923C23.8446 2.92637 23.2929 3.10847 22.8397 3.44781C22.3865 3.78714 22.0567 4.26514 21.9005 4.80904C21.7257 5.38037 21.785 6.25383 21.785 6.88998C21.785 7.62391 21.7686 8.37652 21.785 9.10826L21.7905 9.11155ZM23.0967 6.4549C23.0879 5.90555 23.0318 5.31005 23.2902 4.89584C23.4036 4.7016 23.566 4.54045 23.7611 4.42844C23.9562 4.31644 24.1773 4.2575 24.4023 4.2575C24.6274 4.2575 24.8485 4.31644 25.0436 4.42844C25.2387 4.54045 25.4011 4.7016 25.5145 4.89584C25.7706 5.33532 25.7091 5.89346 25.7047 6.4527L23.0967 6.4549Z" fill="#C7C7C7"/>
<path fill-rule="evenodd" clip-rule="evenodd" d="M21.7905 9.11155H23.0956C23.0956 8.83468 23.0604 7.98758 23.1077 7.78652H25.6959L25.7047 9.11045H27.0119C27.0054 8.37652 27.0119 7.64369 27.0119 6.91305C27.0119 6.2868 27.0702 5.39026 26.902 4.83431C26.7513 4.28886 26.4263 3.80755 25.9766 3.46365C25.5269 3.11975 24.9771 2.93209 24.4108 2.92923C23.8446 2.92637 23.2929 3.10847 22.8397 3.44781C22.3865 3.78714 22.0567 4.26514 21.9005 4.80904C21.7257 5.38037 21.785 6.25383 21.785 6.88998C21.785 7.62391 21.7686 8.37652 21.785 9.10826L21.7905 9.11155ZM23.0967 6.4549C23.0879 5.90555 23.0318 5.31005 23.2902 4.89584C23.4036 4.7016 23.566 4.54045 23.7611 4.42844C23.9562 4.31644 24.1773 4.2575 24.4023 4.2575C24.6274 4.2575 24.8485 4.31644 25.0436 4.42844C25.2387 4.54045 25.4011 4.7016 25.5145 4.89584C25.7706 5.33532 25.7091 5.89346 25.7047 6.4527L23.0967 6.4549Z" fill="#C7C7C7"/>
</g>
<g id="Vector_4">
<path fill-rule="evenodd" clip-rule="evenodd" d="M29.3087 5.34756L29.2901 6.26278C29.2901 7.03187 29.2527 8.46787 29.2901 9.09303H30.5698C30.5995 8.65355 30.5237 5.53214 30.6039 5.43216C30.6039 4.82568 31.2383 4.26094 31.8782 4.25875C32.2108 4.25675 32.5311 4.38445 32.771 4.61473C32.9337 4.76305 33.1833 5.10145 33.1789 5.44315C33.2383 5.47721 33.191 8.73925 33.2097 9.10072H34.4906L34.4807 5.37063C34.5126 5.07838 34.3366 4.62681 34.2234 4.39828C34.0134 3.96285 33.6856 3.59487 33.2771 3.33602C32.8685 3.07718 32.3957 2.9378 31.912 2.93369C31.4283 2.92957 30.9531 3.06088 30.5402 3.31273C30.1274 3.56459 29.7933 3.92693 29.5759 4.35873C29.466 4.58396 29.2813 5.04761 29.3087 5.34756Z" fill="#C7C7C7"/>
<path fill-rule="evenodd" clip-rule="evenodd" d="M29.3087 5.34756L29.2901 6.26278C29.2901 7.03187 29.2527 8.46787 29.2901 9.09303H30.5698C30.5995 8.65355 30.5237 5.53214 30.6039 5.43216C30.6039 4.82568 31.2383 4.26094 31.8782 4.25875C32.2108 4.25675 32.5311 4.38445 32.771 4.61473C32.9337 4.76305 33.1833 5.10145 33.1789 5.44315C33.2383 5.47721 33.191 8.73925 33.2097 9.10072H34.4906L34.4807 5.37063C34.5126 5.07838 34.3366 4.62681 34.2234 4.39828C34.0134 3.96285 33.6856 3.59487 33.2771 3.33602C32.8685 3.07718 32.3957 2.9378 31.912 2.93369C31.4283 2.92957 30.9531 3.06088 30.5402 3.31273C30.1274 3.56459 29.7933 3.92693 29.5759 4.35873C29.466 4.58396 29.2813 5.04761 29.3087 5.34756Z" fill="#C7C7C7"/>
</g>
<g id="Vector_5">
<path d="M6.00424 12C9.32029 12 12.0085 9.31371 12.0085 6C12.0085 2.68629 9.32029 0 6.00424 0C2.68819 0 0 2.68629 0 6C0 9.31371 2.68819 12 6.00424 12Z" fill="#C7C7C7"/>
<path d="M6.00424 12C9.32029 12 12.0085 9.31371 12.0085 6C12.0085 2.68629 9.32029 0 6.00424 0C2.68819 0 0 2.68629 0 6C0 9.31371 2.68819 12 6.00424 12Z" fill="#C7C7C7"/>
</g>
<path id="Vector_6" d="M9.5028 6.02503V7.71373C9.5028 7.8236 9.45552 7.84667 9.36317 7.79283C9.23962 7.71875 9.11103 7.6534 8.97835 7.59727C8.57763 7.43774 8.14358 7.37998 7.71505 7.42917C7.24733 7.4898 6.7883 7.60484 6.3473 7.77196C5.90751 7.92028 5.47652 8.08069 5.02793 8.20485C4.65638 8.3151 4.26972 8.36591 3.88228 8.35537C3.4529 8.33872 3.0356 8.20869 2.67285 7.97852C2.62728 7.95108 2.58988 7.91196 2.56455 7.8652C2.53923 7.81844 2.52689 7.76576 2.52882 7.71263C2.52882 6.60661 2.52882 5.50058 2.52882 4.39456C2.52882 4.34072 2.52882 4.277 2.5772 4.24953C2.62558 4.22206 2.67505 4.26711 2.71683 4.29458C3.11074 4.56073 3.57727 4.69887 4.0527 4.69011C4.39264 4.67617 4.72883 4.61364 5.05102 4.50443C5.5084 4.36269 5.95039 4.17482 6.40008 4.01551C6.75013 3.88108 7.10904 3.77094 7.47427 3.6859C7.78771 3.61255 8.11296 3.60484 8.42953 3.66327C8.74611 3.7217 9.04714 3.845 9.31369 4.02539C9.3748 4.06281 9.42484 4.11581 9.45865 4.17896C9.49247 4.2421 9.50884 4.3131 9.5061 4.38467C9.5061 4.93402 9.5061 5.48337 9.5061 6.03272L9.5028 6.02503Z" fill="#191D24"/>
</g>
<defs>
<clipPath id="clip0_3472_2906">
<rect width="42" height="12" fill="white"/>
</clipPath>
</defs>
</svg>
