<svg width="66" height="24" viewBox="0 0 66 24" fill="none" xmlns="http://www.w3.org/2000/svg">
<path d="M11.8938 18C15.1489 18 17.7877 15.3137 17.7877 12C17.7877 8.68629 15.1489 6 11.8938 6C8.63876 6 6 8.68629 6 12C6 15.3137 8.63876 18 11.8938 18Z" fill="#C7C7C7"/>
<path d="M11.8938 18C15.1489 18 17.7877 15.3137 17.7877 12C17.7877 8.68629 15.1489 6 11.8938 6C8.63876 6 6 8.68629 6 12C6 15.3137 8.63876 18 11.8938 18Z" fill="#C7C7C7"/>
<path d="M11.8938 18C15.1489 18 17.7877 15.3137 17.7877 12C17.7877 8.68629 15.1489 6 11.8938 6C8.63876 6 6 8.68629 6 12C6 15.3137 8.63876 18 11.8938 18Z" fill="#C7C7C7"/>
<path d="M11.8938 18C15.1489 18 17.7877 15.3137 17.7877 12C17.7877 8.68629 15.1489 6 11.8938 6C8.63876 6 6 8.68629 6 12C6 15.3137 8.63876 18 11.8938 18Z" fill="#C7C7C7"/>
<path fill-rule="evenodd" clip-rule="evenodd" d="M15.3268 11.8131C15.2833 11.0512 14.6464 10.4664 13.8975 10.5006H10.1746C10.039 10.5006 9.929 10.3887 9.929 10.2506C9.929 10.1125 10.039 10.0006 10.1746 10.0006H13.9466C13.9262 9.4819 13.5787 9.03613 13.0871 8.89812C11.988 8.70063 10.8635 8.70063 9.76449 8.89812C9.13973 9.05479 8.67239 9.58407 8.58572 10.2331C8.41137 11.4106 8.41137 12.6081 8.58572 13.7856C8.71845 14.471 9.25275 15.002 9.92902 15.1206C11.2933 15.2931 12.6733 15.2931 14.0375 15.1206C14.6442 14.9942 15.1033 14.4866 15.177 13.8606C15.2992 13.1856 15.3494 12.4991 15.3268 11.8131ZM14.1038 12.6531V12.8756C14.1038 13.0137 13.9939 13.1256 13.8582 13.1256C13.7226 13.1256 13.6127 13.0137 13.6127 12.8756V12.6531C13.5342 12.5831 13.4894 12.4819 13.4899 12.3756C13.4899 12.1685 13.6548 12.0006 13.8582 12.0006C14.0617 12.0006 14.2266 12.1685 14.2266 12.3756C14.2271 12.4819 14.1823 12.5831 14.1038 12.6531V12.6531Z" fill="#191D24"/>
<path d="M22.4469 14.9866C22.9471 15.7131 23.779 16.127 24.6494 16.0823C25.6759 16.0823 26.4308 15.4148 26.4308 14.5076V14.0291H26.4059C25.8435 14.5886 25.0757 14.8812 24.2907 14.8352C23.0504 14.8715 21.8877 14.2227 21.2507 13.1388C20.6136 12.0549 20.6015 10.7052 21.2191 9.60967C21.8367 8.51417 22.9876 7.84393 24.2283 7.8572C25.0283 7.80495 25.8147 8.08689 26.4059 8.63796H26.4308V7.98318H28.1883V14.4827C28.1883 16.3718 26.7157 17.6819 24.6495 17.6819C23.296 17.757 21.9892 17.1669 21.1356 16.095L22.4469 14.9866ZM26.357 10.9431C26.357 10.1873 25.5157 9.49441 24.5755 9.49441C23.387 9.49441 22.5956 10.2254 22.5956 11.3211C22.5604 11.8402 22.752 12.3487 23.1193 12.7106C23.4867 13.0725 23.9922 13.2509 24.5007 13.198C25.5281 13.198 26.357 12.5428 26.357 11.7239V10.9431ZM32.7909 7.79422C34.932 7.79422 36.4908 9.34353 36.4908 11.3211C36.4908 13.2986 34.932 14.8479 32.7909 14.8479C31.499 14.9341 30.2673 14.2814 29.5956 13.1547C28.924 12.0279 28.924 10.6143 29.5956 9.4875C30.2673 8.36073 31.499 7.708 32.7909 7.79422ZM32.7909 9.43142C31.7675 9.43853 30.9429 10.2875 30.9475 11.3293C30.9522 12.3711 31.7842 13.2126 32.8076 13.2103C33.831 13.208 34.6594 12.3629 34.6596 11.3211C34.6828 10.8108 34.4929 10.3143 34.1369 9.95433C33.7809 9.59434 33.292 9.40439 32.7909 9.43142ZM37.4808 7.98318H39.2382V8.57498H39.2632C39.8374 8.03738 40.5991 7.75621 41.3784 7.79422C43.265 7.82887 44.7776 9.39392 44.781 11.3149C44.7844 13.2358 43.2774 14.8064 41.3909 14.8479C40.6461 14.8654 39.9191 14.6156 39.337 14.1424H39.3121V17.4929H37.4808V7.98318ZM41.0944 9.4441C40.1284 9.4441 39.3121 10.137 39.3121 10.8928V11.7366C39.3121 12.5428 40.1045 13.2102 41.1059 13.2102C42.1275 13.207 42.9531 12.3613 42.9499 11.3213C42.9467 10.2813 42.116 9.44088 41.0944 9.4441ZM48.2334 10.6785C49.4335 10.5149 49.7923 10.3386 49.7923 9.99832C49.7923 9.5574 49.3347 9.29324 48.6296 9.29324C47.8699 9.22775 47.1766 9.73546 46.9959 10.4895L45.2635 10.1243C45.511 8.76394 46.8847 7.79422 48.5797 7.79422C50.4974 7.79422 51.6859 8.78933 51.6859 10.4138V14.659H50.0397V13.9285H50.0148C49.4568 14.5685 48.6383 14.9083 47.7998 14.8479C46.3523 14.8479 45.3508 14.0418 45.3508 12.8577C45.3508 11.6106 46.1671 10.9685 48.2334 10.6785ZM49.9409 11.3841H49.916C49.7549 11.6233 49.4085 11.762 48.5183 11.9256C47.4411 12.1272 47.0583 12.3411 47.0583 12.7317C47.0583 13.135 47.3797 13.3113 48.0723 13.3113C49.1246 13.3113 49.9409 12.8201 49.9409 12.1775V11.3841ZM55.0012 14.2937L51.9698 7.98318H53.9872L55.9787 12.3411H56.0036L57.9711 7.98318H60L55.4597 17.4929H53.4423L55.0012 14.2937Z" fill="#C7C7C7"/>
<path d="M22.4469 14.9866C22.9471 15.7131 23.779 16.127 24.6494 16.0823C25.6759 16.0823 26.4308 15.4148 26.4308 14.5076V14.0291H26.4059C25.8435 14.5886 25.0757 14.8812 24.2907 14.8352C23.0504 14.8715 21.8877 14.2227 21.2507 13.1388C20.6136 12.0549 20.6015 10.7052 21.2191 9.60967C21.8367 8.51417 22.9876 7.84393 24.2283 7.8572C25.0283 7.80495 25.8147 8.08689 26.4059 8.63796H26.4308V7.98318H28.1883V14.4827C28.1883 16.3718 26.7157 17.6819 24.6495 17.6819C23.296 17.757 21.9892 17.1669 21.1356 16.095L22.4469 14.9866ZM26.357 10.9431C26.357 10.1873 25.5157 9.49441 24.5755 9.49441C23.387 9.49441 22.5956 10.2254 22.5956 11.3211C22.5604 11.8402 22.752 12.3487 23.1193 12.7106C23.4867 13.0725 23.9922 13.2509 24.5007 13.198C25.5281 13.198 26.357 12.5428 26.357 11.7239V10.9431ZM32.7909 7.79422C34.932 7.79422 36.4908 9.34353 36.4908 11.3211C36.4908 13.2986 34.932 14.8479 32.7909 14.8479C31.499 14.9341 30.2673 14.2814 29.5956 13.1547C28.924 12.0279 28.924 10.6143 29.5956 9.4875C30.2673 8.36073 31.499 7.708 32.7909 7.79422ZM32.7909 9.43142C31.7675 9.43853 30.9429 10.2875 30.9475 11.3293C30.9522 12.3711 31.7842 13.2126 32.8076 13.2103C33.831 13.208 34.6594 12.3629 34.6596 11.3211C34.6828 10.8108 34.4929 10.3143 34.1369 9.95433C33.7809 9.59434 33.292 9.40439 32.7909 9.43142ZM37.4808 7.98318H39.2382V8.57498H39.2632C39.8374 8.03738 40.5991 7.75621 41.3784 7.79422C43.265 7.82887 44.7776 9.39392 44.781 11.3149C44.7844 13.2358 43.2774 14.8064 41.3909 14.8479C40.6461 14.8654 39.9191 14.6156 39.337 14.1424H39.3121V17.4929H37.4808V7.98318ZM41.0944 9.4441C40.1284 9.4441 39.3121 10.137 39.3121 10.8928V11.7366C39.3121 12.5428 40.1045 13.2102 41.1059 13.2102C42.1275 13.207 42.9531 12.3613 42.9499 11.3213C42.9467 10.2813 42.116 9.44088 41.0944 9.4441ZM48.2334 10.6785C49.4335 10.5149 49.7923 10.3386 49.7923 9.99832C49.7923 9.5574 49.3347 9.29324 48.6296 9.29324C47.8699 9.22775 47.1766 9.73546 46.9959 10.4895L45.2635 10.1243C45.511 8.76394 46.8847 7.79422 48.5797 7.79422C50.4974 7.79422 51.6859 8.78933 51.6859 10.4138V14.659H50.0397V13.9285H50.0148C49.4568 14.5685 48.6383 14.9083 47.7998 14.8479C46.3523 14.8479 45.3508 14.0418 45.3508 12.8577C45.3508 11.6106 46.1671 10.9685 48.2334 10.6785ZM49.9409 11.3841H49.916C49.7549 11.6233 49.4085 11.762 48.5183 11.9256C47.4411 12.1272 47.0583 12.3411 47.0583 12.7317C47.0583 13.135 47.3797 13.3113 48.0723 13.3113C49.1246 13.3113 49.9409 12.8201 49.9409 12.1775V11.3841ZM55.0012 14.2937L51.9698 7.98318H53.9872L55.9787 12.3411H56.0036L57.9711 7.98318H60L55.4597 17.4929H53.4423L55.0012 14.2937Z" fill="#C7C7C7"/>
</svg>
