<svg width="50" height="24" viewBox="0 0 50 24" fill="none" xmlns="http://www.w3.org/2000/svg">
<g id="Logo Ovo">
<g id="Vector">
<path d="M25.6013 16.4259C25.8689 16.294 26.2013 15.8296 26.3326 15.4041C26.3841 15.2373 26.8676 13.6207 27.4069 11.8117C27.9842 9.87565 28.4739 8.35191 28.5974 8.10755C28.9686 7.37278 29.5024 7.14957 30.8886 7.14957H31.6224V6.24532L30.4052 6.2488C29.2884 6.252 29.2397 6.29655 28.9032 6.45408C28.3851 6.69661 27.9863 7.07669 27.724 7.5778C27.5969 7.82079 27.3233 8.60192 27.1023 9.35292C25.7154 14.0658 25.3394 15.2855 25.2399 15.3939C25.0846 15.5632 24.8489 15.5483 24.7247 15.3614C24.6682 15.2764 24.2728 14.0046 23.846 12.5353C22.782 8.87254 22.5167 8.02055 22.3232 7.64383C22.0893 7.18845 21.5709 6.67146 21.1413 6.46497C20.792 6.29713 20.773 6.25679 19.606 6.25038L18.3501 6.24349V7.13376L19.3051 7.1619C20.1146 7.18576 20.3093 7.21179 20.5837 7.33289C21.3672 7.67864 21.4315 7.81658 22.4639 11.3647C23.0978 13.5435 23.6136 15.2391 23.7364 15.5478C23.8945 15.9453 24.1306 16.2563 24.3949 16.4152C24.661 16.5753 25.2869 16.5808 25.6013 16.4259Z" fill="#C7C7C7"/>
<path d="M25.6013 16.4259C25.8689 16.294 26.2013 15.8296 26.3326 15.4041C26.3841 15.2373 26.8676 13.6207 27.4069 11.8117C27.9842 9.87565 28.4739 8.35191 28.5974 8.10755C28.9686 7.37278 29.5024 7.14957 30.8886 7.14957H31.6224V6.24532L30.4052 6.2488C29.2884 6.252 29.2397 6.29655 28.9032 6.45408C28.3851 6.69661 27.9863 7.07669 27.724 7.5778C27.5969 7.82079 27.3233 8.60192 27.1023 9.35292C25.7154 14.0658 25.3394 15.2855 25.2399 15.3939C25.0846 15.5632 24.8489 15.5483 24.7247 15.3614C24.6682 15.2764 24.2728 14.0046 23.846 12.5353C22.782 8.87254 22.5167 8.02055 22.3232 7.64383C22.0893 7.18845 21.5709 6.67146 21.1413 6.46497C20.792 6.29713 20.773 6.25679 19.606 6.25038L18.3501 6.24349V7.13376L19.3051 7.1619C20.1146 7.18576 20.3093 7.21179 20.5837 7.33289C21.3672 7.67864 21.4315 7.81658 22.4639 11.3647C23.0978 13.5435 23.6136 15.2391 23.7364 15.5478C23.8945 15.9453 24.1306 16.2563 24.3949 16.4152C24.661 16.5753 25.2869 16.5808 25.6013 16.4259Z" fill="#C7C7C7"/>
<path d="M39.6828 17.822C42.1224 17.1783 43.7911 15.1576 43.9775 12.6217C44.1384 10.4323 43.4341 8.58902 41.9644 7.3525C40.8565 6.42045 39.6139 6 37.9671 6C36.2858 6 34.9589 6.47584 33.8353 7.48172C33.2543 8.00186 32.6749 8.84671 32.3854 9.59599C31.8672 10.937 31.8943 13.291 32.442 14.5104C33.2701 16.3541 34.7124 17.5025 36.7132 17.9112C37.3846 18.0483 39.01 17.9995 39.6828 17.822ZM36.8665 16.9519C35.5814 16.6928 34.5139 15.9915 33.8214 14.9513C32.7128 13.2861 32.7516 10.544 33.9072 8.88007C34.5767 7.91606 35.713 7.22079 36.9447 7.02155C37.5669 6.9209 38.9478 6.96988 39.4886 7.11177C41.0129 7.51176 42.2642 8.73173 42.7477 10.2893C43.151 11.5883 43.0275 13.3285 42.4516 14.4621C41.5918 16.1548 40.0084 17.0615 37.9453 17.0427C37.5834 17.0394 37.098 16.9985 36.8665 16.9519ZM38.6469 16.5948C40.4709 16.3746 41.7927 15.3106 42.3543 13.6106C42.4832 13.2206 42.5226 12.9453 42.5478 12.2576C42.5955 10.959 42.3921 10.1451 41.7947 9.24389C41.2461 8.4163 40.4997 7.86184 39.5194 7.55385C39.0227 7.39777 38.8786 7.38159 37.9995 7.38312C37.1297 7.38464 36.9711 7.40262 36.4796 7.55554C35.5057 7.85853 34.7863 8.39057 34.2189 9.22739C33.6135 10.1203 33.4037 10.9467 33.4499 12.2576C33.4753 12.9774 33.5096 13.2059 33.6562 13.6319C34.2357 15.3153 35.5402 16.3675 37.3322 16.597C37.9227 16.6726 38.0033 16.6725 38.6469 16.5948ZM36.976 15.5478C35.797 15.2281 34.8924 14.2927 34.5672 13.0571C34.4341 12.5512 34.4347 11.452 34.5683 10.9496C34.9244 9.61106 35.8963 8.65991 37.1828 8.39092C39.175 7.97435 40.989 9.0688 41.4355 10.9568C41.5601 11.4837 41.5741 12.4009 41.4656 12.9294C41.2068 14.1892 40.2202 15.2283 38.9706 15.557C38.5615 15.6646 37.3868 15.6592 36.976 15.5478Z" fill="#C7C7C7"/>
<path d="M39.6828 17.822C42.1224 17.1783 43.7911 15.1576 43.9775 12.6217C44.1384 10.4323 43.4341 8.58902 41.9644 7.3525C40.8565 6.42045 39.6139 6 37.9671 6C36.2858 6 34.9589 6.47584 33.8353 7.48172C33.2543 8.00186 32.6749 8.84671 32.3854 9.59599C31.8672 10.937 31.8943 13.291 32.442 14.5104C33.2701 16.3541 34.7124 17.5025 36.7132 17.9112C37.3846 18.0483 39.01 17.9995 39.6828 17.822ZM36.8665 16.9519C35.5814 16.6928 34.5139 15.9915 33.8214 14.9513C32.7128 13.2861 32.7516 10.544 33.9072 8.88007C34.5767 7.91606 35.713 7.22079 36.9447 7.02155C37.5669 6.9209 38.9478 6.96988 39.4886 7.11177C41.0129 7.51176 42.2642 8.73173 42.7477 10.2893C43.151 11.5883 43.0275 13.3285 42.4516 14.4621C41.5918 16.1548 40.0084 17.0615 37.9453 17.0427C37.5834 17.0394 37.098 16.9985 36.8665 16.9519ZM38.6469 16.5948C40.4709 16.3746 41.7927 15.3106 42.3543 13.6106C42.4832 13.2206 42.5226 12.9453 42.5478 12.2576C42.5955 10.959 42.3921 10.1451 41.7947 9.24389C41.2461 8.4163 40.4997 7.86184 39.5194 7.55385C39.0227 7.39777 38.8786 7.38159 37.9995 7.38312C37.1297 7.38464 36.9711 7.40262 36.4796 7.55554C35.5057 7.85853 34.7863 8.39057 34.2189 9.22739C33.6135 10.1203 33.4037 10.9467 33.4499 12.2576C33.4753 12.9774 33.5096 13.2059 33.6562 13.6319C34.2357 15.3153 35.5402 16.3675 37.3322 16.597C37.9227 16.6726 38.0033 16.6725 38.6469 16.5948ZM36.976 15.5478C35.797 15.2281 34.8924 14.2927 34.5672 13.0571C34.4341 12.5512 34.4347 11.452 34.5683 10.9496C34.9244 9.61106 35.8963 8.65991 37.1828 8.39092C39.175 7.97435 40.989 9.0688 41.4355 10.9568C41.5601 11.4837 41.5741 12.4009 41.4656 12.9294C41.2068 14.1892 40.2202 15.2283 38.9706 15.557C38.5615 15.6646 37.3868 15.6592 36.976 15.5478Z" fill="#C7C7C7"/>
<path d="M26.1992 17.7643C26.7088 17.5168 27.0768 17.1344 27.3795 16.5378C27.6777 15.9499 27.8289 15.4691 29.1571 10.8857C29.7069 8.98831 29.7016 9.00261 29.9478 8.76968C30.1344 8.59321 30.1684 8.58576 30.8819 8.56508L31.6224 8.54362V7.58026L30.7222 7.6086C29.9271 7.63363 29.786 7.65519 29.514 7.79326C28.9617 8.07366 28.8755 8.26458 28.1304 10.859C26.6812 15.9048 26.6385 16.0312 26.2121 16.531C25.8561 16.9484 25.1119 17.1483 24.511 16.9879C24.1076 16.8803 23.6974 16.4796 23.4346 15.9364C23.2491 15.553 22.5906 13.3728 21.4461 9.35293C21.1963 8.47538 21.079 8.24424 20.7373 7.9557C20.401 7.67178 20.2105 7.63163 19.1918 7.62992L18.3825 7.62857L18.3444 8.55461H18.9968C19.4181 8.55461 19.7281 8.58718 19.8722 8.64656C20.1005 8.74064 20.3305 9.03608 20.3972 9.32099C20.4994 9.75666 22.261 15.6459 22.3915 15.9879C22.8068 17.0762 23.26 17.5918 24.0567 17.8824C24.3372 17.9847 24.5342 18.0056 25.0858 17.9913C25.707 17.9752 25.8068 17.9549 26.1992 17.7643Z" fill="#C7C7C7"/>
<path d="M26.1992 17.7643C26.7088 17.5168 27.0768 17.1344 27.3795 16.5378C27.6777 15.9499 27.8289 15.4691 29.1571 10.8857C29.7069 8.98831 29.7016 9.00261 29.9478 8.76968C30.1344 8.59321 30.1684 8.58576 30.8819 8.56508L31.6224 8.54362V7.58026L30.7222 7.6086C29.9271 7.63363 29.786 7.65519 29.514 7.79326C28.9617 8.07366 28.8755 8.26458 28.1304 10.859C26.6812 15.9048 26.6385 16.0312 26.2121 16.531C25.8561 16.9484 25.1119 17.1483 24.511 16.9879C24.1076 16.8803 23.6974 16.4796 23.4346 15.9364C23.2491 15.553 22.5906 13.3728 21.4461 9.35293C21.1963 8.47538 21.079 8.24424 20.7373 7.9557C20.401 7.67178 20.2105 7.63163 19.1918 7.62992L18.3825 7.62857L18.3444 8.55461H18.9968C19.4181 8.55461 19.7281 8.58718 19.8722 8.64656C20.1005 8.74064 20.3305 9.03608 20.3972 9.32099C20.4994 9.75666 22.261 15.6459 22.3915 15.9879C22.8068 17.0762 23.26 17.5918 24.0567 17.8824C24.3372 17.9847 24.5342 18.0056 25.0858 17.9913C25.707 17.9752 25.8068 17.9549 26.1992 17.7643Z" fill="#C7C7C7"/>
<path d="M13.3973 17.8858C14.4923 17.6617 15.4026 17.1951 16.1973 16.4506C16.9918 15.7064 17.5442 14.7671 17.8364 13.6638C18.0555 12.8366 18.0824 11.5422 17.8988 10.6637C17.4045 8.29818 15.6925 6.56302 13.4156 6.11966C12.5332 5.94784 11.0164 5.97985 10.2249 6.18699C8.32264 6.68482 6.72027 8.26994 6.24979 10.1193C5.50015 13.066 6.46593 15.7673 8.76892 17.1654C9.30025 17.4879 10.2377 17.8345 10.8508 17.9351C11.4863 18.0393 12.7681 18.0145 13.3973 17.8858ZM10.7545 16.9249C9.83155 16.7267 9.17134 16.3662 8.46971 15.6773C7.98429 15.2007 7.83254 15.0017 7.61247 14.5532C6.91278 13.1272 6.83869 11.4258 7.40913 9.88397C7.84749 8.69912 8.83127 7.70274 9.98489 7.27524C11.1612 6.83935 12.9484 6.85185 14.0761 7.30387C15.905 8.03691 16.9905 9.7874 16.9905 12.0033C16.9905 13.1738 16.7331 14.1061 16.1748 14.958C15.5557 15.9027 14.681 16.5381 13.5574 16.8594C12.8533 17.0607 11.5308 17.0916 10.7545 16.9249ZM13.3425 16.4712C14.5445 16.1684 15.5154 15.4134 16.0526 14.3636C16.4707 13.5466 16.569 13.1035 16.5692 12.0353C16.5694 10.9076 16.4892 10.5409 16.0492 9.6569C15.5414 8.63693 14.698 7.92687 13.5592 7.56055C13.0656 7.40177 12.9121 7.38299 12.0701 7.37832C11.2717 7.37389 11.0542 7.39513 10.6156 7.52037C9.8339 7.74362 9.38327 8.00723 8.797 8.58421C8.19765 9.17408 7.81432 9.82986 7.59307 10.6439C7.40184 11.3474 7.40184 12.6593 7.59307 13.3628C7.98828 14.8168 8.98278 15.8905 10.3718 16.3628C11.3138 16.6831 12.351 16.7209 13.3425 16.4712ZM10.9371 15.5229C10.3703 15.3601 10.0191 15.1613 9.59766 14.7648C9.12095 14.3162 8.88657 13.952 8.66333 13.3126C8.50528 12.8599 8.4851 12.7106 8.48638 12.0033C8.48763 11.3121 8.5111 11.1351 8.66131 10.684C8.87279 10.049 9.24837 9.47832 9.69547 9.11277C10.153 8.73872 10.4824 8.57427 11.072 8.4255C13.1101 7.91132 15.0479 9.05839 15.4714 11.0297C15.5891 11.5777 15.5899 12.4254 15.4731 12.9687C15.2055 14.2144 14.2326 15.2308 13.0062 15.5459C12.4885 15.6789 11.4393 15.6672 10.9371 15.5229Z" fill="#C7C7C7"/>
<path d="M13.3973 17.8858C14.4923 17.6617 15.4026 17.1951 16.1973 16.4506C16.9918 15.7064 17.5442 14.7671 17.8364 13.6638C18.0555 12.8366 18.0824 11.5422 17.8988 10.6637C17.4045 8.29818 15.6925 6.56302 13.4156 6.11966C12.5332 5.94784 11.0164 5.97985 10.2249 6.18699C8.32264 6.68482 6.72027 8.26994 6.24979 10.1193C5.50015 13.066 6.46593 15.7673 8.76892 17.1654C9.30025 17.4879 10.2377 17.8345 10.8508 17.9351C11.4863 18.0393 12.7681 18.0145 13.3973 17.8858ZM10.7545 16.9249C9.83155 16.7267 9.17134 16.3662 8.46971 15.6773C7.98429 15.2007 7.83254 15.0017 7.61247 14.5532C6.91278 13.1272 6.83869 11.4258 7.40913 9.88397C7.84749 8.69912 8.83127 7.70274 9.98489 7.27524C11.1612 6.83935 12.9484 6.85185 14.0761 7.30387C15.905 8.03691 16.9905 9.7874 16.9905 12.0033C16.9905 13.1738 16.7331 14.1061 16.1748 14.958C15.5557 15.9027 14.681 16.5381 13.5574 16.8594C12.8533 17.0607 11.5308 17.0916 10.7545 16.9249ZM13.3425 16.4712C14.5445 16.1684 15.5154 15.4134 16.0526 14.3636C16.4707 13.5466 16.569 13.1035 16.5692 12.0353C16.5694 10.9076 16.4892 10.5409 16.0492 9.6569C15.5414 8.63693 14.698 7.92687 13.5592 7.56055C13.0656 7.40177 12.9121 7.38299 12.0701 7.37832C11.2717 7.37389 11.0542 7.39513 10.6156 7.52037C9.8339 7.74362 9.38327 8.00723 8.797 8.58421C8.19765 9.17408 7.81432 9.82986 7.59307 10.6439C7.40184 11.3474 7.40184 12.6593 7.59307 13.3628C7.98828 14.8168 8.98278 15.8905 10.3718 16.3628C11.3138 16.6831 12.351 16.7209 13.3425 16.4712ZM10.9371 15.5229C10.3703 15.3601 10.0191 15.1613 9.59766 14.7648C9.12095 14.3162 8.88657 13.952 8.66333 13.3126C8.50528 12.8599 8.4851 12.7106 8.48638 12.0033C8.48763 11.3121 8.5111 11.1351 8.66131 10.684C8.87279 10.049 9.24837 9.47832 9.69547 9.11277C10.153 8.73872 10.4824 8.57427 11.072 8.4255C13.1101 7.91132 15.0479 9.05839 15.4714 11.0297C15.5891 11.5777 15.5899 12.4254 15.4731 12.9687C15.2055 14.2144 14.2326 15.2308 13.0062 15.5459C12.4885 15.6789 11.4393 15.6672 10.9371 15.5229Z" fill="#C7C7C7"/>
</g>
</g>
</svg>
