<svg width="28" height="24" viewBox="0 0 28 24" fill="none" xmlns="http://www.w3.org/2000/svg">
<g id="Logo Shopee">
<g id="LinkAja">
<path fill-rule="evenodd" clip-rule="evenodd" d="M7.58674 5.37918H8.59906C8.67614 5.37918 8.73534 5.44593 8.72436 5.52043L8.25422 8.70638C8.23612 8.829 8.33353 8.9388 8.46032 8.9388H10.2362C10.2867 8.9388 10.3253 8.98257 10.318 9.03128L10.1802 9.94633C10.1731 9.99387 10.1313 10.0292 10.082 10.0292H8.07402C7.47671 10.0292 6.90389 9.55062 6.98817 8.97294L7.46128 5.48658C7.46959 5.42513 7.52323 5.37918 7.58674 5.37918Z" fill="#C7C7C7"/>
<path fill-rule="evenodd" clip-rule="evenodd" d="M7.58674 5.37918H8.59906C8.67614 5.37918 8.73534 5.44593 8.72436 5.52043L8.25422 8.70638C8.23612 8.829 8.33353 8.9388 8.46032 8.9388H10.2362C10.2867 8.9388 10.3253 8.98257 10.318 9.03128L10.1802 9.94633C10.1731 9.99387 10.1313 10.0292 10.082 10.0292H8.07402C7.47671 10.0292 6.90389 9.55062 6.98817 8.97294L7.46128 5.48658C7.46959 5.42513 7.52323 5.37918 7.58674 5.37918Z" fill="#C7C7C7"/>
<path fill-rule="evenodd" clip-rule="evenodd" d="M10.9624 6.65043L10.499 9.89957C10.4916 9.9511 10.5326 9.99712 10.5859 9.99712H11.5655C11.6351 9.99712 11.6942 9.94697 11.7038 9.87957L12.1627 6.68326C12.1725 6.60963 12.1138 6.54433 12.0378 6.54433H11.0872C11.0242 6.54433 10.9711 6.58963 10.9624 6.65043Z" fill="#C7C7C7"/>
<path fill-rule="evenodd" clip-rule="evenodd" d="M10.9624 6.65043L10.499 9.89957C10.4916 9.9511 10.5326 9.99712 10.5859 9.99712H11.5655C11.6351 9.99712 11.6942 9.94697 11.7038 9.87957L12.1627 6.68326C12.1725 6.60963 12.1138 6.54433 12.0378 6.54433H11.0872C11.0242 6.54433 10.9711 6.58963 10.9624 6.65043Z" fill="#C7C7C7"/>
<path fill-rule="evenodd" clip-rule="evenodd" d="M12.983 9.74799C12.6807 9.73733 12.5393 9.82988 12.361 9.93381C12.404 9.64087 12.7415 7.35802 12.7723 7.21778C12.8049 7.06827 12.8345 6.81881 12.969 6.693C13.1268 6.5453 13.3709 6.46079 14.5857 6.45695C15.8257 6.45304 16.066 7.32483 16.0001 7.89128C15.9441 8.37613 15.7595 9.57405 15.7075 9.90873C15.6995 9.95961 15.655 9.99708 15.6026 9.99708H14.6447C14.5745 9.99708 14.5206 9.93664 14.5304 9.8688C14.5788 9.53412 14.7087 8.64189 14.7528 8.3828C14.8075 8.06232 14.8512 7.70966 14.7637 7.57044C14.6762 7.43151 14.4135 7.32483 13.9103 7.41035L13.5381 9.98121C13.5381 9.98121 13.2986 9.75915 12.983 9.74799Z" fill="#C7C7C7"/>
<path fill-rule="evenodd" clip-rule="evenodd" d="M12.983 9.74799C12.6807 9.73733 12.5393 9.82988 12.361 9.93381C12.404 9.64087 12.7415 7.35802 12.7723 7.21778C12.8049 7.06827 12.8345 6.81881 12.969 6.693C13.1268 6.5453 13.3709 6.46079 14.5857 6.45695C15.8257 6.45304 16.066 7.32483 16.0001 7.89128C15.9441 8.37613 15.7595 9.57405 15.7075 9.90873C15.6995 9.95961 15.655 9.99708 15.6026 9.99708H14.6447C14.5745 9.99708 14.5206 9.93664 14.5304 9.8688C14.5788 9.53412 14.7087 8.64189 14.7528 8.3828C14.8075 8.06232 14.8512 7.70966 14.7637 7.57044C14.6762 7.43151 14.4135 7.32483 13.9103 7.41035L13.5381 9.98121C13.5381 9.98121 13.2986 9.75915 12.983 9.74799Z" fill="#C7C7C7"/>
<path fill-rule="evenodd" clip-rule="evenodd" d="M17.039 5.19462H18.1016C18.1411 5.19462 18.1715 5.22875 18.1661 5.26702L17.5049 9.94592C17.5 9.98064 17.4696 10.0065 17.4337 10.0065H16.3847C16.341 10.0065 16.3075 9.9689 16.3135 9.92672L16.9745 5.24962C16.9789 5.2181 17.0064 5.19462 17.039 5.19462Z" fill="#C7C7C7"/>
<path fill-rule="evenodd" clip-rule="evenodd" d="M17.039 5.19462H18.1016C18.1411 5.19462 18.1715 5.22875 18.1661 5.26702L17.5049 9.94592C17.5 9.98064 17.4696 10.0065 17.4337 10.0065H16.3847C16.341 10.0065 16.3075 9.9689 16.3135 9.92672L16.9745 5.24962C16.9789 5.2181 17.0064 5.19462 17.039 5.19462Z" fill="#C7C7C7"/>
<path fill-rule="evenodd" clip-rule="evenodd" d="M17.8612 8.01372L19.062 6.63998C19.0999 6.59672 19.1552 6.57178 19.2135 6.57178H20.2677C20.3438 6.57178 20.3839 6.65984 20.333 6.71499L19.1051 8.04612L20.2276 10.4043C20.2687 10.4908 20.204 10.5898 20.1064 10.5898H19.1536C19.1038 10.5898 19.0586 10.5615 19.0379 10.5173L17.8612 8.01372Z" fill="#C7C7C7"/>
<path fill-rule="evenodd" clip-rule="evenodd" d="M17.8612 8.01372L19.062 6.63998C19.0999 6.59672 19.1552 6.57178 19.2135 6.57178H20.2677C20.3438 6.57178 20.3839 6.65984 20.333 6.71499L19.1051 8.04612L20.2276 10.4043C20.2687 10.4908 20.204 10.5898 20.1064 10.5898H19.1536C19.1038 10.5898 19.0586 10.5615 19.0379 10.5173L17.8612 8.01372Z" fill="#C7C7C7"/>
<path fill-rule="evenodd" clip-rule="evenodd" d="M12.368 5.66451C12.2821 6.01855 11.9557 6.28199 11.614 6.28199C11.2723 6.28199 11.0103 5.99499 11.0963 5.64103C11.1822 5.287 11.4651 5 11.8705 5C12.2122 5 12.4539 5.31048 12.368 5.66451Z" fill="#C7C7C7"/>
<path fill-rule="evenodd" clip-rule="evenodd" d="M12.368 5.66451C12.2821 6.01855 11.9557 6.28199 11.614 6.28199C11.2723 6.28199 11.0103 5.99499 11.0963 5.64103C11.1822 5.287 11.4651 5 11.8705 5C12.2122 5 12.4539 5.31048 12.368 5.66451Z" fill="#C7C7C7"/>
<path fill-rule="evenodd" clip-rule="evenodd" d="M13.448 10.8253C13.3621 11.1794 13.0357 11.4428 12.694 11.4428C12.3524 11.4428 12.0903 11.1558 12.1763 10.8019C12.2622 10.4478 12.5451 10.1608 12.9506 10.1608C13.2922 10.1608 13.5339 10.4713 13.448 10.8253Z" fill="#C7C7C7"/>
<path fill-rule="evenodd" clip-rule="evenodd" d="M13.448 10.8253C13.3621 11.1794 13.0357 11.4428 12.694 11.4428C12.3524 11.4428 12.0903 11.1558 12.1763 10.8019C12.2622 10.4478 12.5451 10.1608 12.9506 10.1608C13.2922 10.1608 13.5339 10.4713 13.448 10.8253Z" fill="#C7C7C7"/>
<path fill-rule="evenodd" clip-rule="evenodd" d="M18.5878 15.0561C18.5153 15.4059 18.1856 15.6661 17.8263 15.6659C17.467 15.6658 17.177 15.382 17.2494 15.0322C17.3219 14.6824 17.6047 14.3989 18.031 14.3991C18.3903 14.3993 18.6602 14.7062 18.5878 15.0561Z" fill="#C7C7C7"/>
<path fill-rule="evenodd" clip-rule="evenodd" d="M18.5878 15.0561C18.5153 15.4059 18.1856 15.6661 17.8263 15.6659C17.467 15.6658 17.177 15.382 17.2494 15.0322C17.3219 14.6824 17.6047 14.3989 18.031 14.3991C18.3903 14.3993 18.6602 14.7062 18.5878 15.0561Z" fill="#C7C7C7"/>
<path fill-rule="evenodd" clip-rule="evenodd" d="M9.54344 13.3136H8.90014C8.87625 13.3136 8.85986 13.2902 8.86861 13.2684L9.42845 11.8802C9.43913 11.8538 9.47904 11.8594 9.48164 11.8877L9.60747 13.2451C9.61088 13.2819 9.58128 13.3136 9.54344 13.3136ZM11.1019 15.0568L10.384 10.8595C10.3526 10.676 10.19 10.5415 9.99956 10.5415H9.27925C9.05958 10.5415 8.86015 10.6668 8.7692 10.8621L6.83544 15.0621C6.80739 15.123 6.85324 15.1918 6.92157 15.1914L7.92633 15.1857C7.9951 15.1853 8.05697 15.145 8.08383 15.0833L8.41783 14.3157C8.42688 14.2948 8.44788 14.2812 8.47118 14.2812H9.68715C9.71697 14.2812 9.74197 14.3033 9.74487 14.3323L9.81742 15.0587C9.82581 15.1432 9.89859 15.2077 9.98554 15.2077H10.9711C11.0531 15.2077 11.1154 15.1358 11.1019 15.0568Z" fill="#C7C7C7"/>
<path fill-rule="evenodd" clip-rule="evenodd" d="M9.54344 13.3136H8.90014C8.87625 13.3136 8.85986 13.2902 8.86861 13.2684L9.42845 11.8802C9.43913 11.8538 9.47904 11.8594 9.48164 11.8877L9.60747 13.2451C9.61088 13.2819 9.58128 13.3136 9.54344 13.3136ZM11.1019 15.0568L10.384 10.8595C10.3526 10.676 10.19 10.5415 9.99956 10.5415H9.27925C9.05958 10.5415 8.86015 10.6668 8.7692 10.8621L6.83544 15.0621C6.80739 15.123 6.85324 15.1918 6.92157 15.1914L7.92633 15.1857C7.9951 15.1853 8.05697 15.145 8.08383 15.0833L8.41783 14.3157C8.42688 14.2948 8.44788 14.2812 8.47118 14.2812H9.68715C9.71697 14.2812 9.74197 14.3033 9.74487 14.3323L9.81742 15.0587C9.82581 15.1432 9.89859 15.2077 9.98554 15.2077H10.9711C11.0531 15.2077 11.1154 15.1358 11.1019 15.0568Z" fill="#C7C7C7"/>
<path fill-rule="evenodd" clip-rule="evenodd" d="M10.6226 15.8172L10.8546 16.5175C10.8963 16.6327 10.9278 16.6583 11.0093 16.6415C11.3024 16.5811 12.0107 16.3767 12.3573 15.9187C12.809 15.3217 12.871 14.2662 12.9507 13.7297C13.0164 13.2878 13.1601 12.2001 13.2088 11.8305C13.2176 11.7639 13.1645 11.7052 13.0958 11.7052H12.1951C12.1155 11.7052 12.0482 11.7626 12.0375 11.8396C11.9649 12.3618 11.7033 14.2395 11.6576 14.4997C11.6045 14.8026 11.5938 15.2388 11.1352 15.4992C10.9063 15.6291 10.789 15.6539 10.6984 15.6952C10.6523 15.7162 10.6002 15.7388 10.6226 15.8172Z" fill="#C7C7C7"/>
<path fill-rule="evenodd" clip-rule="evenodd" d="M10.6226 15.8172L10.8546 16.5175C10.8963 16.6327 10.9278 16.6583 11.0093 16.6415C11.3024 16.5811 12.0107 16.3767 12.3573 15.9187C12.809 15.3217 12.871 14.2662 12.9507 13.7297C13.0164 13.2878 13.1601 12.2001 13.2088 11.8305C13.2176 11.7639 13.1645 11.7052 13.0958 11.7052H12.1951C12.1155 11.7052 12.0482 11.7626 12.0375 11.8396C11.9649 12.3618 11.7033 14.2395 11.6576 14.4997C11.6045 14.8026 11.5938 15.2388 11.1352 15.4992C10.9063 15.6291 10.789 15.6539 10.6984 15.6952C10.6523 15.7162 10.6002 15.7388 10.6226 15.8172Z" fill="#C7C7C7"/>
<path fill-rule="evenodd" clip-rule="evenodd" d="M15.5795 14.2003C15.5795 14.2003 15.1098 14.3564 14.8844 14.1911C14.6588 14.026 14.6401 13.6864 14.7716 13.2001C14.9031 12.7136 15.232 12.6311 15.3728 12.6219C15.5138 12.6127 15.7787 12.6778 15.7787 12.6778L15.5795 14.2003ZM16.8802 11.8308C16.5764 11.7566 16.0658 11.5935 15.2449 11.6523C14.4875 11.7065 13.6322 12.0487 13.472 13.5093C13.3118 14.9699 13.9954 15.2516 14.9779 15.2933C15.6979 15.3239 16.263 15.1304 16.5136 15.0248C16.6008 14.9881 16.6616 14.9093 16.6744 14.8173L17.0374 12.0053C17.0516 11.8936 16.9945 11.8587 16.8802 11.8308Z" fill="#C7C7C7"/>
<path fill-rule="evenodd" clip-rule="evenodd" d="M15.5795 14.2003C15.5795 14.2003 15.1098 14.3564 14.8844 14.1911C14.6588 14.026 14.6401 13.6864 14.7716 13.2001C14.9031 12.7136 15.232 12.6311 15.3728 12.6219C15.5138 12.6127 15.7787 12.6778 15.7787 12.6778L15.5795 14.2003ZM16.8802 11.8308C16.5764 11.7566 16.0658 11.5935 15.2449 11.6523C14.4875 11.7065 13.6322 12.0487 13.472 13.5093C13.3118 14.9699 13.9954 15.2516 14.9779 15.2933C15.6979 15.3239 16.263 15.1304 16.5136 15.0248C16.6008 14.9881 16.6616 14.9093 16.6744 14.8173L17.0374 12.0053C17.0516 11.8936 16.9945 11.8587 16.8802 11.8308Z" fill="#C7C7C7"/>
<path fill-rule="evenodd" clip-rule="evenodd" d="M17.5807 13.9335L17.8451 11.2407C17.8546 11.1443 17.9374 11.1049 18.0366 11.1049H18.9485C19.0334 11.1049 19.0694 11.1679 19.046 11.271L18.4894 13.9674C18.4781 14.0196 18.4311 14.0569 18.3765 14.0569H17.6955C17.6275 14.0569 17.5742 13.9997 17.5807 13.9335Z" fill="#C7C7C7"/>
<path fill-rule="evenodd" clip-rule="evenodd" d="M17.5807 13.9335L17.8451 11.2407C17.8546 11.1443 17.9374 11.1049 18.0366 11.1049H18.9485C19.0334 11.1049 19.0694 11.1679 19.046 11.271L18.4894 13.9674C18.4781 14.0196 18.4311 14.0569 18.3765 14.0569H17.6955C17.6275 14.0569 17.5742 13.9997 17.5807 13.9335Z" fill="#C7C7C7"/>
<path fill-rule="evenodd" clip-rule="evenodd" d="M6.90994 18.8988C7.09052 18.9963 7.30144 19.0246 7.5022 18.9782C8.30189 18.7931 10.0716 18.2948 13.8152 17.7662C18.5183 17.1021 21.9909 17.1048 21.9909 17.1048L22 17.0994C22 17.0994 18.9222 16.6863 13.8708 17.1682C8.81936 17.6502 6 18.4076 6 18.4076L6.90994 18.8988Z" fill="#C7C7C7"/>
<path fill-rule="evenodd" clip-rule="evenodd" d="M6.90994 18.8988C7.09052 18.9963 7.30144 19.0246 7.5022 18.9782C8.30189 18.7931 10.0716 18.2948 13.8152 17.7662C18.5183 17.1021 21.9909 17.1048 21.9909 17.1048L22 17.0994C22 17.0994 18.9222 16.6863 13.8708 17.1682C8.81936 17.6502 6 18.4076 6 18.4076L6.90994 18.8988Z" fill="#C7C7C7"/>
</g>
</g>
</svg>
