<svg width="246" height="24" viewBox="0 0 246 24" fill="none" xmlns="http://www.w3.org/2000/svg">
<path d="M11.8938 18C15.1489 18 17.7877 15.3137 17.7877 12C17.7877 8.68629 15.1489 6 11.8938 6C8.63876 6 6 8.68629 6 12C6 15.3137 8.63876 18 11.8938 18Z" fill="#C7C7C7"/>
<path d="M11.8938 18C15.1489 18 17.7877 15.3137 17.7877 12C17.7877 8.68629 15.1489 6 11.8938 6C8.63876 6 6 8.68629 6 12C6 15.3137 8.63876 18 11.8938 18Z" fill="#C7C7C7"/>
<path d="M11.8938 18C15.1489 18 17.7877 15.3137 17.7877 12C17.7877 8.68629 15.1489 6 11.8938 6C8.63876 6 6 8.68629 6 12C6 15.3137 8.63876 18 11.8938 18Z" fill="#C7C7C7"/>
<path d="M11.8938 18C15.1489 18 17.7877 15.3137 17.7877 12C17.7877 8.68629 15.1489 6 11.8938 6C8.63876 6 6 8.68629 6 12C6 15.3137 8.63876 18 11.8938 18Z" fill="#C7C7C7"/>
<path fill-rule="evenodd" clip-rule="evenodd" d="M15.3269 11.8131C15.2835 11.0512 14.6466 10.4664 13.8976 10.5006H10.1747C10.0391 10.5006 9.92912 10.3887 9.92912 10.2506C9.92912 10.1125 10.0391 10.0006 10.1747 10.0006H13.9467C13.9263 9.4819 13.5788 9.03613 13.0872 8.89812C11.9882 8.70063 10.8636 8.70063 9.76461 8.89812C9.13986 9.05479 8.67251 9.58407 8.58584 10.2331C8.41149 11.4106 8.41149 12.6081 8.58584 13.7856C8.71857 14.471 9.25288 15.002 9.92914 15.1206C11.2934 15.2931 12.6734 15.2931 14.0376 15.1206C14.6443 14.9942 15.1034 14.4866 15.1771 13.8606C15.2993 13.1856 15.3495 12.4991 15.3269 11.8131ZM14.1039 12.6531V12.8756C14.1039 13.0137 13.994 13.1256 13.8584 13.1256C13.7227 13.1256 13.6128 13.0137 13.6128 12.8756V12.6531C13.5343 12.5831 13.4895 12.4819 13.49 12.3756C13.49 12.1685 13.6549 12.0006 13.8584 12.0006C14.0618 12.0006 14.2267 12.1685 14.2267 12.3756C14.2272 12.4819 14.1824 12.5831 14.1039 12.6531V12.6531Z" fill="#191D24"/>
<path d="M22.4469 14.9866C22.9471 15.7131 23.779 16.127 24.6494 16.0823C25.6758 16.0823 26.4308 15.4148 26.4308 14.5076V14.0291H26.4058C25.8435 14.5886 25.0757 14.8812 24.2906 14.8352C23.0504 14.8715 21.8877 14.2227 21.2506 13.1388C20.6135 12.0549 20.6014 10.7052 21.2191 9.60967C21.8367 8.51417 22.9876 7.84393 24.2283 7.8572C25.0283 7.80495 25.8146 8.08689 26.4058 8.63796H26.4308V7.98318H28.1882V14.4827C28.1882 16.3718 26.7157 17.6819 24.6494 17.6819C23.2959 17.757 21.9892 17.1669 21.1355 16.095L22.4469 14.9866ZM26.3569 10.9431C26.3569 10.1873 25.5156 9.49441 24.5755 9.49441C23.3869 9.49441 22.5955 10.2254 22.5955 11.3211C22.5603 11.8402 22.752 12.3487 23.1193 12.7106C23.4866 13.0725 23.9921 13.2509 24.5007 13.198C25.5281 13.198 26.3569 12.5428 26.3569 11.7239V10.9431ZM32.7908 7.79422C34.9319 7.79422 36.4908 9.34353 36.4908 11.3211C36.4908 13.2986 34.9319 14.8479 32.7908 14.8479C31.4989 14.9341 30.2672 14.2814 29.5956 13.1547C28.9239 12.0279 28.9239 10.6143 29.5956 9.4875C30.2672 8.36073 31.4989 7.708 32.7908 7.79422ZM32.7908 9.43142C31.7675 9.43853 30.9429 10.2875 30.9474 11.3293C30.9521 12.3711 31.7842 13.2126 32.8075 13.2103C33.8309 13.208 34.6594 12.3629 34.6595 11.3211C34.6827 10.8108 34.4928 10.3143 34.1368 9.95433C33.7808 9.59434 33.2919 9.40439 32.7908 9.43142ZM37.4807 7.98318H39.2382V8.57498H39.2631C39.8373 8.03738 40.5991 7.75621 41.3783 7.79422C43.265 7.82887 44.7775 9.39392 44.781 11.3149C44.7843 13.2358 43.2773 14.8064 41.3908 14.8479C40.6461 14.8654 39.919 14.6156 39.337 14.1424H39.312V17.4929H37.4807V7.98318ZM41.0944 9.4441C40.1284 9.4441 39.312 10.137 39.312 10.8928V11.7366C39.312 12.5428 40.1044 13.2102 41.1059 13.2102C42.1275 13.207 42.953 12.3613 42.9499 11.3213C42.9467 10.2813 42.116 9.44088 41.0944 9.4441ZM48.2334 10.6785C49.4334 10.5149 49.7922 10.3386 49.7922 9.99832C49.7922 9.5574 49.3346 9.29324 48.6295 9.29324C47.8698 9.22775 47.1765 9.73546 46.9959 10.4895L45.2634 10.1243C45.5109 8.76394 46.8846 7.79422 48.5797 7.79422C50.4973 7.79422 51.6859 8.78933 51.6859 10.4138V14.659H50.0397V13.9285H50.0147C49.4567 14.5685 48.6383 14.9083 47.7998 14.8479C46.3522 14.8479 45.3507 14.0418 45.3507 12.8577C45.3507 11.6106 46.1671 10.9685 48.2334 10.6785ZM49.9409 11.3841H49.9159C49.7548 11.6233 49.4085 11.762 48.5183 11.9256C47.441 12.1272 47.0582 12.3411 47.0582 12.7317C47.0582 13.135 47.3796 13.3113 48.0722 13.3113C49.1245 13.3113 49.9409 12.8201 49.9409 12.1775V11.3841ZM55.0011 14.2937L51.9698 7.98318H53.9871L55.9786 12.3411H56.0036L57.9711 7.98318H59.9999L55.4596 17.4929H53.4423L55.0011 14.2937Z" fill="#C7C7C7"/>
<path d="M22.4469 14.9866C22.9471 15.7131 23.779 16.127 24.6494 16.0823C25.6758 16.0823 26.4308 15.4148 26.4308 14.5076V14.0291H26.4058C25.8435 14.5886 25.0757 14.8812 24.2906 14.8352C23.0504 14.8715 21.8877 14.2227 21.2506 13.1388C20.6135 12.0549 20.6014 10.7052 21.2191 9.60967C21.8367 8.51417 22.9876 7.84393 24.2283 7.8572C25.0283 7.80495 25.8146 8.08689 26.4058 8.63796H26.4308V7.98318H28.1882V14.4827C28.1882 16.3718 26.7157 17.6819 24.6494 17.6819C23.2959 17.757 21.9892 17.1669 21.1355 16.095L22.4469 14.9866ZM26.3569 10.9431C26.3569 10.1873 25.5156 9.49441 24.5755 9.49441C23.3869 9.49441 22.5955 10.2254 22.5955 11.3211C22.5603 11.8402 22.752 12.3487 23.1193 12.7106C23.4866 13.0725 23.9921 13.2509 24.5007 13.198C25.5281 13.198 26.3569 12.5428 26.3569 11.7239V10.9431ZM32.7908 7.79422C34.9319 7.79422 36.4908 9.34353 36.4908 11.3211C36.4908 13.2986 34.9319 14.8479 32.7908 14.8479C31.4989 14.9341 30.2672 14.2814 29.5956 13.1547C28.9239 12.0279 28.9239 10.6143 29.5956 9.4875C30.2672 8.36073 31.4989 7.708 32.7908 7.79422ZM32.7908 9.43142C31.7675 9.43853 30.9429 10.2875 30.9474 11.3293C30.9521 12.3711 31.7842 13.2126 32.8075 13.2103C33.8309 13.208 34.6594 12.3629 34.6595 11.3211C34.6827 10.8108 34.4928 10.3143 34.1368 9.95433C33.7808 9.59434 33.2919 9.40439 32.7908 9.43142ZM37.4807 7.98318H39.2382V8.57498H39.2631C39.8373 8.03738 40.5991 7.75621 41.3783 7.79422C43.265 7.82887 44.7775 9.39392 44.781 11.3149C44.7843 13.2358 43.2773 14.8064 41.3908 14.8479C40.6461 14.8654 39.919 14.6156 39.337 14.1424H39.312V17.4929H37.4807V7.98318ZM41.0944 9.4441C40.1284 9.4441 39.312 10.137 39.312 10.8928V11.7366C39.312 12.5428 40.1044 13.2102 41.1059 13.2102C42.1275 13.207 42.953 12.3613 42.9499 11.3213C42.9467 10.2813 42.116 9.44088 41.0944 9.4441ZM48.2334 10.6785C49.4334 10.5149 49.7922 10.3386 49.7922 9.99832C49.7922 9.5574 49.3346 9.29324 48.6295 9.29324C47.8698 9.22775 47.1765 9.73546 46.9959 10.4895L45.2634 10.1243C45.5109 8.76394 46.8846 7.79422 48.5797 7.79422C50.4973 7.79422 51.6859 8.78933 51.6859 10.4138V14.659H50.0397V13.9285H50.0147C49.4567 14.5685 48.6383 14.9083 47.7998 14.8479C46.3522 14.8479 45.3507 14.0418 45.3507 12.8577C45.3507 11.6106 46.1671 10.9685 48.2334 10.6785ZM49.9409 11.3841H49.9159C49.7548 11.6233 49.4085 11.762 48.5183 11.9256C47.441 12.1272 47.0582 12.3411 47.0582 12.7317C47.0582 13.135 47.3796 13.3113 48.0722 13.3113C49.1245 13.3113 49.9409 12.8201 49.9409 12.1775V11.3841ZM55.0011 14.2937L51.9698 7.98318H53.9871L55.9786 12.3411H56.0036L57.9711 7.98318H59.9999L55.4596 17.4929H53.4423L55.0011 14.2937Z" fill="#C7C7C7"/>
<g clip-path="url(#clip0_3427_2332)">
<path fill-rule="evenodd" clip-rule="evenodd" d="M90.6021 15.1014C91.4003 15.1586 92.3305 14.5389 92.6581 14.1851C93.7972 12.9535 93.8247 11.1725 92.6779 9.88262C92.2513 9.40249 91.2486 8.87182 90.6142 8.94653H88.3174V15.0938L90.6076 15.1014H90.6021ZM89.6126 13.7698V10.2705C89.9721 10.2469 90.3327 10.2469 90.6923 10.2705C90.9751 10.3032 91.2449 10.4076 91.4762 10.5737C92.7956 11.4746 92.2458 13.6226 90.6703 13.7665C90.3182 13.7913 89.9648 13.7924 89.6126 13.7698Z" fill="#C7C7C7"/>
<path fill-rule="evenodd" clip-rule="evenodd" d="M90.6021 15.1014C91.4003 15.1586 92.3305 14.5389 92.6581 14.1851C93.7972 12.9535 93.8247 11.1725 92.6779 9.88262C92.2513 9.40249 91.2486 8.87182 90.6142 8.94653H88.3174V15.0938L90.6076 15.1014H90.6021ZM89.6126 13.7698V10.2705C89.9721 10.2469 90.3327 10.2469 90.6923 10.2705C90.9751 10.3032 91.2449 10.4076 91.4762 10.5737C92.7956 11.4746 92.2458 13.6226 90.6703 13.7665C90.3182 13.7913 89.9648 13.7924 89.6126 13.7698Z" fill="#C7C7C7"/>
<path fill-rule="evenodd" clip-rule="evenodd" d="M110.765 15.1127H112.075V13.7877H114.673L114.681 15.1061H115.99V12.9219C115.99 12.2627 116.045 11.4409 115.88 10.8443C115.73 10.2981 115.406 9.81588 114.956 9.47118C114.507 9.12648 113.957 8.93821 113.39 8.9351C112.823 8.93199 112.271 9.1142 111.818 9.45394C111.364 9.79368 111.034 10.2723 110.879 10.8168C110.703 11.4057 110.762 12.2506 110.762 12.9043C110.762 13.6426 110.754 14.3854 110.762 15.1237L110.765 15.1127ZM112.076 12.455C112.068 11.9056 112.01 11.3178 112.268 10.8948C112.382 10.7001 112.545 10.5388 112.741 10.4274C112.937 10.3161 113.159 10.2586 113.384 10.2609C113.609 10.2625 113.829 10.3223 114.023 10.4344C114.217 10.5465 114.379 10.707 114.493 10.9003C114.748 11.3398 114.687 11.8891 114.681 12.4561L112.076 12.455Z" fill="#C7C7C7"/>
<path fill-rule="evenodd" clip-rule="evenodd" d="M110.765 15.1127H112.075V13.7877H114.673L114.681 15.1061H115.99V12.9219C115.99 12.2627 116.045 11.4409 115.88 10.8443C115.73 10.2981 115.406 9.81588 114.956 9.47118C114.507 9.12648 113.957 8.93821 113.39 8.9351C112.823 8.93199 112.271 9.1142 111.818 9.45394C111.364 9.79368 111.034 10.2723 110.879 10.8168C110.703 11.4057 110.762 12.2506 110.762 12.9043C110.762 13.6426 110.754 14.3854 110.762 15.1237L110.765 15.1127ZM112.076 12.455C112.068 11.9056 112.01 11.3178 112.268 10.8948C112.382 10.7001 112.545 10.5388 112.741 10.4274C112.937 10.3161 113.159 10.2586 113.384 10.2609C113.609 10.2625 113.829 10.3223 114.023 10.4344C114.217 10.5465 114.379 10.707 114.493 10.9003C114.748 11.3398 114.687 11.8891 114.681 12.4561L112.076 12.455Z" fill="#C7C7C7"/>
<path fill-rule="evenodd" clip-rule="evenodd" d="M95.7906 15.1116H97.0957C97.0957 14.8347 97.0605 13.9876 97.1078 13.7865H99.6959L99.7047 15.1105H101.012C101.005 14.3765 101.012 13.6437 101.012 12.9131C101.012 12.2868 101.07 11.3903 100.902 10.8343C100.751 10.2889 100.426 9.80755 99.9767 9.46365C99.527 9.11975 98.9771 8.93209 98.4109 8.92923C97.8446 8.92637 97.2929 9.10847 96.8398 9.44781C96.3866 9.78714 96.0568 10.2651 95.9005 10.809C95.7257 11.3804 95.7851 12.2538 95.7851 12.89C95.7851 13.6239 95.7686 14.3765 95.7851 15.1083L95.7906 15.1116ZM97.0968 12.4549C97.088 11.9055 97.0319 11.3101 97.2903 10.8958C97.4037 10.7016 97.566 10.5404 97.7611 10.4284C97.9563 10.3164 98.1774 10.2575 98.4024 10.2575C98.6274 10.2575 98.8485 10.3164 99.0437 10.4284C99.2388 10.5404 99.4011 10.7016 99.5145 10.8958C99.7707 11.3353 99.7091 11.8935 99.7047 12.4527L97.0968 12.4549Z" fill="#C7C7C7"/>
<path fill-rule="evenodd" clip-rule="evenodd" d="M95.7906 15.1116H97.0957C97.0957 14.8347 97.0605 13.9876 97.1078 13.7865H99.6959L99.7047 15.1105H101.012C101.005 14.3765 101.012 13.6437 101.012 12.9131C101.012 12.2868 101.07 11.3903 100.902 10.8343C100.751 10.2889 100.426 9.80755 99.9767 9.46365C99.527 9.11975 98.9771 8.93209 98.4109 8.92923C97.8446 8.92637 97.2929 9.10847 96.8398 9.44781C96.3866 9.78714 96.0568 10.2651 95.9005 10.809C95.7257 11.3804 95.7851 12.2538 95.7851 12.89C95.7851 13.6239 95.7686 14.3765 95.7851 15.1083L95.7906 15.1116ZM97.0968 12.4549C97.088 11.9055 97.0319 11.3101 97.2903 10.8958C97.4037 10.7016 97.566 10.5404 97.7611 10.4284C97.9563 10.3164 98.1774 10.2575 98.4024 10.2575C98.6274 10.2575 98.8485 10.3164 99.0437 10.4284C99.2388 10.5404 99.4011 10.7016 99.5145 10.8958C99.7707 11.3353 99.7091 11.8935 99.7047 12.4527L97.0968 12.4549Z" fill="#C7C7C7"/>
<path fill-rule="evenodd" clip-rule="evenodd" d="M103.309 11.3476L103.29 12.2628C103.29 13.0319 103.253 14.4679 103.29 15.093H104.57C104.6 14.6535 104.524 11.5321 104.604 11.4322C104.604 10.8257 105.238 10.2609 105.878 10.2587C106.211 10.2567 106.531 10.3845 106.771 10.6147C106.934 10.7631 107.183 11.1015 107.179 11.4431C107.238 11.4772 107.191 14.7392 107.21 15.1007H108.491L108.481 11.3706C108.513 11.0784 108.337 10.6268 108.223 10.3983C108.013 9.96285 107.686 9.59487 107.277 9.33602C106.869 9.07718 106.396 8.9378 105.912 8.93369C105.428 8.92957 104.953 9.06088 104.54 9.31273C104.127 9.56459 103.793 9.92693 103.576 10.3587C103.466 10.584 103.281 11.0476 103.309 11.3476Z" fill="#C7C7C7"/>
<path fill-rule="evenodd" clip-rule="evenodd" d="M103.309 11.3476L103.29 12.2628C103.29 13.0319 103.253 14.4679 103.29 15.093H104.57C104.6 14.6535 104.524 11.5321 104.604 11.4322C104.604 10.8257 105.238 10.2609 105.878 10.2587C106.211 10.2567 106.531 10.3845 106.771 10.6147C106.934 10.7631 107.183 11.1015 107.179 11.4431C107.238 11.4772 107.191 14.7392 107.21 15.1007H108.491L108.481 11.3706C108.513 11.0784 108.337 10.6268 108.223 10.3983C108.013 9.96285 107.686 9.59487 107.277 9.33602C106.869 9.07718 106.396 8.9378 105.912 8.93369C105.428 8.92957 104.953 9.06088 104.54 9.31273C104.127 9.56459 103.793 9.92693 103.576 10.3587C103.466 10.584 103.281 11.0476 103.309 11.3476Z" fill="#C7C7C7"/>
<path d="M80.0042 18C83.3203 18 86.0085 15.3137 86.0085 12C86.0085 8.68629 83.3203 6 80.0042 6C76.6882 6 74 8.68629 74 12C74 15.3137 76.6882 18 80.0042 18Z" fill="#C7C7C7"/>
<path d="M80.0042 18C83.3203 18 86.0085 15.3137 86.0085 12C86.0085 8.68629 83.3203 6 80.0042 6C76.6882 6 74 8.68629 74 12C74 15.3137 76.6882 18 80.0042 18Z" fill="#C7C7C7"/>
<path d="M83.503 12.025V13.7137C83.503 13.8236 83.4557 13.8467 83.3633 13.7928C83.2398 13.7188 83.1112 13.6534 82.9785 13.5973C82.5778 13.4377 82.1438 13.38 81.7152 13.4292C81.2475 13.4898 80.7885 13.6048 80.3475 13.772C79.9077 13.9203 79.4767 14.0807 79.0281 14.2048C78.6566 14.3151 78.2699 14.3659 77.8825 14.3554C77.4531 14.3387 77.0358 14.2087 76.673 13.9785C76.6275 13.9511 76.5901 13.912 76.5647 13.8652C76.5394 13.8184 76.5271 13.7658 76.529 13.7126C76.529 12.6066 76.529 11.5006 76.529 10.3946C76.529 10.3407 76.529 10.277 76.5774 10.2495C76.6258 10.2221 76.6752 10.2671 76.717 10.2946C77.1109 10.5607 77.5775 10.6989 78.0529 10.6901C78.3928 10.6762 78.729 10.6136 79.0512 10.5044C79.5086 10.3627 79.9506 10.1748 80.4003 10.0155C80.7503 9.88108 81.1092 9.77094 81.4744 9.6859C81.7879 9.61255 82.1131 9.60484 82.4297 9.66327C82.7463 9.7217 83.0473 9.845 83.3139 10.0254C83.375 10.0628 83.425 10.1158 83.4588 10.179C83.4927 10.2421 83.509 10.3131 83.5063 10.3847C83.5063 10.934 83.5063 11.4834 83.5063 12.0327L83.503 12.025Z" fill="#191D24"/>
</g>
<path d="M149.601 16.4259C149.869 16.294 150.201 15.8296 150.333 15.4041C150.384 15.2373 150.868 13.6207 151.407 11.8117C151.984 9.87565 152.474 8.35191 152.597 8.10755C152.969 7.37278 153.502 7.14957 154.889 7.14957H155.622V6.24532L154.405 6.2488C153.288 6.252 153.24 6.29655 152.903 6.45408C152.385 6.69661 151.986 7.07669 151.724 7.5778C151.597 7.82079 151.323 8.60192 151.102 9.35292C149.715 14.0658 149.339 15.2855 149.24 15.3939C149.085 15.5632 148.849 15.5483 148.725 15.3614C148.668 15.2764 148.273 14.0046 147.846 12.5353C146.782 8.87254 146.517 8.02055 146.323 7.64383C146.089 7.18845 145.571 6.67146 145.141 6.46497C144.792 6.29713 144.773 6.25679 143.606 6.25038L142.35 6.24349V7.13376L143.305 7.1619C144.115 7.18576 144.309 7.21179 144.584 7.33289C145.367 7.67864 145.432 7.81658 146.464 11.3647C147.098 13.5435 147.614 15.2391 147.736 15.5478C147.895 15.9453 148.131 16.2563 148.395 16.4152C148.661 16.5753 149.287 16.5808 149.601 16.4259Z" fill="#C7C7C7"/>
<path d="M149.601 16.4259C149.869 16.294 150.201 15.8296 150.333 15.4041C150.384 15.2373 150.868 13.6207 151.407 11.8117C151.984 9.87565 152.474 8.35191 152.597 8.10755C152.969 7.37278 153.502 7.14957 154.889 7.14957H155.622V6.24532L154.405 6.2488C153.288 6.252 153.24 6.29655 152.903 6.45408C152.385 6.69661 151.986 7.07669 151.724 7.5778C151.597 7.82079 151.323 8.60192 151.102 9.35292C149.715 14.0658 149.339 15.2855 149.24 15.3939C149.085 15.5632 148.849 15.5483 148.725 15.3614C148.668 15.2764 148.273 14.0046 147.846 12.5353C146.782 8.87254 146.517 8.02055 146.323 7.64383C146.089 7.18845 145.571 6.67146 145.141 6.46497C144.792 6.29713 144.773 6.25679 143.606 6.25038L142.35 6.24349V7.13376L143.305 7.1619C144.115 7.18576 144.309 7.21179 144.584 7.33289C145.367 7.67864 145.432 7.81658 146.464 11.3647C147.098 13.5435 147.614 15.2391 147.736 15.5478C147.895 15.9453 148.131 16.2563 148.395 16.4152C148.661 16.5753 149.287 16.5808 149.601 16.4259Z" fill="#C7C7C7"/>
<path d="M163.683 17.822C166.122 17.1783 167.791 15.1576 167.977 12.6217C168.138 10.4323 167.434 8.58902 165.964 7.3525C164.857 6.42045 163.614 6 161.967 6C160.286 6 158.959 6.47584 157.835 7.48172C157.254 8.00186 156.675 8.84671 156.385 9.59599C155.867 10.937 155.894 13.291 156.442 14.5104C157.27 16.3541 158.712 17.5025 160.713 17.9112C161.385 18.0483 163.01 17.9995 163.683 17.822ZM160.867 16.9519C159.581 16.6928 158.514 15.9915 157.821 14.9513C156.713 13.2861 156.752 10.544 157.907 8.88007C158.577 7.91606 159.713 7.22079 160.945 7.02155C161.567 6.9209 162.948 6.96988 163.489 7.11177C165.013 7.51176 166.264 8.73173 166.748 10.2893C167.151 11.5883 167.028 13.3285 166.452 14.4621C165.592 16.1548 164.008 17.0615 161.945 17.0427C161.583 17.0394 161.098 16.9985 160.867 16.9519ZM162.647 16.5948C164.471 16.3746 165.793 15.3106 166.354 13.6106C166.483 13.2206 166.523 12.9453 166.548 12.2576C166.595 10.959 166.392 10.1451 165.795 9.24389C165.246 8.4163 164.5 7.86184 163.519 7.55385C163.023 7.39777 162.879 7.38159 162 7.38312C161.13 7.38464 160.971 7.40262 160.48 7.55554C159.506 7.85853 158.786 8.39057 158.219 9.22739C157.613 10.1203 157.404 10.9467 157.45 12.2576C157.475 12.9774 157.51 13.2059 157.656 13.6319C158.236 15.3153 159.54 16.3675 161.332 16.597C161.923 16.6726 162.003 16.6725 162.647 16.5948ZM160.976 15.5478C159.797 15.2281 158.892 14.2927 158.567 13.0571C158.434 12.5512 158.435 11.452 158.568 10.9496C158.924 9.61106 159.896 8.65991 161.183 8.39092C163.175 7.97435 164.989 9.0688 165.436 10.9568C165.56 11.4837 165.574 12.4009 165.466 12.9294C165.207 14.1892 164.22 15.2283 162.971 15.557C162.561 15.6646 161.387 15.6592 160.976 15.5478Z" fill="#C7C7C7"/>
<path d="M163.683 17.822C166.122 17.1783 167.791 15.1576 167.977 12.6217C168.138 10.4323 167.434 8.58902 165.964 7.3525C164.857 6.42045 163.614 6 161.967 6C160.286 6 158.959 6.47584 157.835 7.48172C157.254 8.00186 156.675 8.84671 156.385 9.59599C155.867 10.937 155.894 13.291 156.442 14.5104C157.27 16.3541 158.712 17.5025 160.713 17.9112C161.385 18.0483 163.01 17.9995 163.683 17.822ZM160.867 16.9519C159.581 16.6928 158.514 15.9915 157.821 14.9513C156.713 13.2861 156.752 10.544 157.907 8.88007C158.577 7.91606 159.713 7.22079 160.945 7.02155C161.567 6.9209 162.948 6.96988 163.489 7.11177C165.013 7.51176 166.264 8.73173 166.748 10.2893C167.151 11.5883 167.028 13.3285 166.452 14.4621C165.592 16.1548 164.008 17.0615 161.945 17.0427C161.583 17.0394 161.098 16.9985 160.867 16.9519ZM162.647 16.5948C164.471 16.3746 165.793 15.3106 166.354 13.6106C166.483 13.2206 166.523 12.9453 166.548 12.2576C166.595 10.959 166.392 10.1451 165.795 9.24389C165.246 8.4163 164.5 7.86184 163.519 7.55385C163.023 7.39777 162.879 7.38159 162 7.38312C161.13 7.38464 160.971 7.40262 160.48 7.55554C159.506 7.85853 158.786 8.39057 158.219 9.22739C157.613 10.1203 157.404 10.9467 157.45 12.2576C157.475 12.9774 157.51 13.2059 157.656 13.6319C158.236 15.3153 159.54 16.3675 161.332 16.597C161.923 16.6726 162.003 16.6725 162.647 16.5948ZM160.976 15.5478C159.797 15.2281 158.892 14.2927 158.567 13.0571C158.434 12.5512 158.435 11.452 158.568 10.9496C158.924 9.61106 159.896 8.65991 161.183 8.39092C163.175 7.97435 164.989 9.0688 165.436 10.9568C165.56 11.4837 165.574 12.4009 165.466 12.9294C165.207 14.1892 164.22 15.2283 162.971 15.557C162.561 15.6646 161.387 15.6592 160.976 15.5478Z" fill="#C7C7C7"/>
<path d="M150.199 17.7643C150.709 17.5168 151.077 17.1344 151.379 16.5378C151.678 15.9499 151.829 15.4691 153.157 10.8857C153.707 8.98831 153.702 9.00261 153.948 8.76968C154.134 8.59321 154.168 8.58576 154.882 8.56508L155.622 8.54362V7.58026L154.722 7.6086C153.927 7.63363 153.786 7.65519 153.514 7.79326C152.962 8.07366 152.876 8.26458 152.13 10.859C150.681 15.9048 150.638 16.0312 150.212 16.531C149.856 16.9484 149.112 17.1483 148.511 16.9879C148.108 16.8803 147.697 16.4796 147.435 15.9364C147.249 15.553 146.591 13.3728 145.446 9.35293C145.196 8.47538 145.079 8.24424 144.737 7.9557C144.401 7.67178 144.211 7.63163 143.192 7.62992L142.382 7.62857L142.344 8.55461H142.997C143.418 8.55461 143.728 8.58718 143.872 8.64656C144.1 8.74064 144.33 9.03608 144.397 9.32099C144.499 9.75666 146.261 15.6459 146.392 15.9879C146.807 17.0762 147.26 17.5918 148.057 17.8824C148.337 17.9847 148.534 18.0056 149.086 17.9913C149.707 17.9752 149.807 17.9549 150.199 17.7643Z" fill="#C7C7C7"/>
<path d="M150.199 17.7643C150.709 17.5168 151.077 17.1344 151.379 16.5378C151.678 15.9499 151.829 15.4691 153.157 10.8857C153.707 8.98831 153.702 9.00261 153.948 8.76968C154.134 8.59321 154.168 8.58576 154.882 8.56508L155.622 8.54362V7.58026L154.722 7.6086C153.927 7.63363 153.786 7.65519 153.514 7.79326C152.962 8.07366 152.876 8.26458 152.13 10.859C150.681 15.9048 150.638 16.0312 150.212 16.531C149.856 16.9484 149.112 17.1483 148.511 16.9879C148.108 16.8803 147.697 16.4796 147.435 15.9364C147.249 15.553 146.591 13.3728 145.446 9.35293C145.196 8.47538 145.079 8.24424 144.737 7.9557C144.401 7.67178 144.211 7.63163 143.192 7.62992L142.382 7.62857L142.344 8.55461H142.997C143.418 8.55461 143.728 8.58718 143.872 8.64656C144.1 8.74064 144.33 9.03608 144.397 9.32099C144.499 9.75666 146.261 15.6459 146.392 15.9879C146.807 17.0762 147.26 17.5918 148.057 17.8824C148.337 17.9847 148.534 18.0056 149.086 17.9913C149.707 17.9752 149.807 17.9549 150.199 17.7643Z" fill="#C7C7C7"/>
<path d="M137.397 17.8858C138.492 17.6617 139.403 17.1951 140.197 16.4506C140.992 15.7064 141.544 14.7671 141.836 13.6638C142.055 12.8366 142.082 11.5422 141.899 10.6637C141.404 8.29818 139.693 6.56302 137.416 6.11966C136.533 5.94784 135.016 5.97985 134.225 6.18699C132.323 6.68482 130.72 8.26994 130.25 10.1193C129.5 13.066 130.466 15.7673 132.769 17.1654C133.3 17.4879 134.238 17.8345 134.851 17.9351C135.486 18.0393 136.768 18.0145 137.397 17.8858ZM134.755 16.9249C133.832 16.7267 133.171 16.3662 132.47 15.6773C131.984 15.2007 131.833 15.0017 131.612 14.5532C130.913 13.1272 130.839 11.4258 131.409 9.88397C131.847 8.69912 132.831 7.70274 133.985 7.27524C135.161 6.83935 136.948 6.85185 138.076 7.30387C139.905 8.03691 140.991 9.7874 140.991 12.0033C140.991 13.1738 140.733 14.1061 140.175 14.958C139.556 15.9027 138.681 16.5381 137.557 16.8594C136.853 17.0607 135.531 17.0916 134.755 16.9249ZM137.343 16.4712C138.545 16.1684 139.515 15.4134 140.053 14.3636C140.471 13.5466 140.569 13.1035 140.569 12.0353C140.569 10.9076 140.489 10.5409 140.049 9.6569C139.541 8.63693 138.698 7.92687 137.559 7.56055C137.066 7.40177 136.912 7.38299 136.07 7.37832C135.272 7.37389 135.054 7.39513 134.616 7.52037C133.834 7.74362 133.383 8.00723 132.797 8.58421C132.198 9.17408 131.814 9.82986 131.593 10.6439C131.402 11.3474 131.402 12.6593 131.593 13.3628C131.988 14.8168 132.983 15.8905 134.372 16.3628C135.314 16.6831 136.351 16.7209 137.343 16.4712ZM134.937 15.5229C134.37 15.3601 134.019 15.1613 133.598 14.7648C133.121 14.3162 132.887 13.952 132.663 13.3126C132.505 12.8599 132.485 12.7106 132.486 12.0033C132.488 11.3121 132.511 11.1351 132.661 10.684C132.873 10.049 133.248 9.47832 133.695 9.11277C134.153 8.73872 134.482 8.57427 135.072 8.4255C137.11 7.91132 139.048 9.05839 139.471 11.0297C139.589 11.5777 139.59 12.4254 139.473 12.9687C139.205 14.2144 138.233 15.2308 137.006 15.5459C136.489 15.6789 135.439 15.6672 134.937 15.5229Z" fill="#C7C7C7"/>
<path d="M137.397 17.8858C138.492 17.6617 139.403 17.1951 140.197 16.4506C140.992 15.7064 141.544 14.7671 141.836 13.6638C142.055 12.8366 142.082 11.5422 141.899 10.6637C141.404 8.29818 139.693 6.56302 137.416 6.11966C136.533 5.94784 135.016 5.97985 134.225 6.18699C132.323 6.68482 130.72 8.26994 130.25 10.1193C129.5 13.066 130.466 15.7673 132.769 17.1654C133.3 17.4879 134.238 17.8345 134.851 17.9351C135.486 18.0393 136.768 18.0145 137.397 17.8858ZM134.755 16.9249C133.832 16.7267 133.171 16.3662 132.47 15.6773C131.984 15.2007 131.833 15.0017 131.612 14.5532C130.913 13.1272 130.839 11.4258 131.409 9.88397C131.847 8.69912 132.831 7.70274 133.985 7.27524C135.161 6.83935 136.948 6.85185 138.076 7.30387C139.905 8.03691 140.991 9.7874 140.991 12.0033C140.991 13.1738 140.733 14.1061 140.175 14.958C139.556 15.9027 138.681 16.5381 137.557 16.8594C136.853 17.0607 135.531 17.0916 134.755 16.9249ZM137.343 16.4712C138.545 16.1684 139.515 15.4134 140.053 14.3636C140.471 13.5466 140.569 13.1035 140.569 12.0353C140.569 10.9076 140.489 10.5409 140.049 9.6569C139.541 8.63693 138.698 7.92687 137.559 7.56055C137.066 7.40177 136.912 7.38299 136.07 7.37832C135.272 7.37389 135.054 7.39513 134.616 7.52037C133.834 7.74362 133.383 8.00723 132.797 8.58421C132.198 9.17408 131.814 9.82986 131.593 10.6439C131.402 11.3474 131.402 12.6593 131.593 13.3628C131.988 14.8168 132.983 15.8905 134.372 16.3628C135.314 16.6831 136.351 16.7209 137.343 16.4712ZM134.937 15.5229C134.37 15.3601 134.019 15.1613 133.598 14.7648C133.121 14.3162 132.887 13.952 132.663 13.3126C132.505 12.8599 132.485 12.7106 132.486 12.0033C132.488 11.3121 132.511 11.1351 132.661 10.684C132.873 10.049 133.248 9.47832 133.695 9.11277C134.153 8.73872 134.482 8.57427 135.072 8.4255C137.11 7.91132 139.048 9.05839 139.471 11.0297C139.589 11.5777 139.59 12.4254 139.473 12.9687C139.205 14.2144 138.233 15.2308 137.006 15.5459C136.489 15.6789 135.439 15.6672 134.937 15.5229Z" fill="#C7C7C7"/>
<g clip-path="url(#clip1_3427_2332)">
<path fill-rule="evenodd" clip-rule="evenodd" d="M189.982 5.00293L180.422 6.27686C180.422 6.27686 180 6.32586 180 6.83428V15.9069C180 15.9069 180.058 16.9687 181.272 16.9687H192.107C192.107 16.9687 193.072 16.7381 193.072 15.772V8.28575C193.072 8.28575 193.091 7.22395 191.817 7.22395H181.369C181.246 7.19797 181.133 7.13773 181.043 7.05021C180.953 6.96268 180.889 6.85145 180.859 6.72936C180.828 6.56104 180.896 6.54375 181.074 6.54375H190.668V5.50962C190.668 5.50962 190.634 4.95508 189.982 5.00293Z" fill="#C7C7C7"/>
<path fill-rule="evenodd" clip-rule="evenodd" d="M189.982 5.00293L180.422 6.27686C180.422 6.27686 180 6.32586 180 6.83428V15.9069C180 15.9069 180.058 16.9687 181.272 16.9687H192.107C192.107 16.9687 193.072 16.7381 193.072 15.772V8.28575C193.072 8.28575 193.091 7.22395 191.817 7.22395H181.369C181.246 7.19797 181.133 7.13773 181.043 7.05021C180.953 6.96268 180.889 6.85145 180.859 6.72936C180.828 6.56104 180.896 6.54375 181.074 6.54375H190.668V5.50962C190.668 5.50962 190.634 4.95508 189.982 5.00293Z" fill="#C7C7C7"/>
<path fill-rule="evenodd" clip-rule="evenodd" d="M186.73 15.4291C185.937 15.4291 185.354 15.1063 184.492 14.2549C184.422 14.1813 184.383 14.0831 184.384 13.9813C184.385 13.8794 184.425 13.7818 184.497 13.7095C184.569 13.6371 184.666 13.5956 184.768 13.5938C184.87 13.5919 184.969 13.63 185.043 13.6998C185.95 14.5956 186.37 14.8181 187.094 14.6221C187.515 14.5068 187.893 13.9719 187.915 13.3568C187.932 12.8789 187.595 12.5671 186.912 12.4305C185.687 12.1855 184.964 11.7174 184.763 11.0384C184.602 10.4919 184.814 9.88145 185.345 9.36669L185.367 9.34709C186.509 8.39308 187.835 9.10383 188.377 9.6134C188.449 9.68511 188.491 9.78217 188.492 9.88393C188.494 9.9857 188.456 10.0841 188.386 10.1583C188.317 10.2325 188.221 10.2766 188.119 10.2812C188.017 10.2858 187.918 10.2505 187.842 10.1829C187.796 10.1403 186.77 9.20874 185.88 9.93736C185.576 10.2377 185.439 10.5668 185.514 10.8193C185.623 11.1871 186.174 11.488 187.066 11.6667C188.583 11.9699 188.712 12.9712 188.697 13.3874C188.665 14.2941 187.906 15.3098 187.193 15.3997C187.04 15.4193 186.885 15.4291 186.73 15.4291Z" fill="#191D24"/>
<path fill-rule="evenodd" clip-rule="evenodd" d="M197.093 7.16942C196.92 7.06384 196.733 6.98367 196.537 6.93135C196.134 6.81606 195.842 6.66849 195.703 6.47999C195.579 6.31628 195.579 6.103 195.728 5.82977C195.812 5.66606 196.017 5.5623 196.279 5.54155C196.611 5.52839 196.941 5.60549 197.232 5.76463C197.275 5.78565 197.323 5.78911 197.368 5.77425C197.413 5.75938 197.449 5.72741 197.47 5.68537C197.491 5.64333 197.495 5.59466 197.48 5.55006C197.465 5.50547 197.433 5.46861 197.391 5.44759C196.984 5.23892 196.584 5.15937 196.25 5.18473C195.862 5.21413 195.557 5.38303 195.411 5.65568C195.187 6.06784 195.202 6.40506 195.411 6.68751C195.604 6.94057 195.957 7.13425 196.438 7.26799C196.603 7.31386 196.761 7.38049 196.909 7.46628C197.098 7.58157 197.222 7.71473 197.282 7.85826C197.34 7.99377 197.348 8.14509 197.305 8.28598C197.282 8.35899 197.25 8.42903 197.211 8.49465C197.211 8.50445 197.201 8.51425 197.191 8.52924C197.047 8.74252 196.814 8.85147 196.53 8.85147C196.218 8.85147 195.835 8.72753 195.429 8.47966C195.371 8.44508 195.313 8.40991 195.265 8.37533C195.225 8.34903 195.177 8.33948 195.131 8.34878C195.084 8.35808 195.043 8.38546 195.017 8.4249C194.991 8.46435 194.981 8.51262 194.99 8.5591C195 8.60559 195.027 8.64648 195.066 8.67277C195.125 8.70947 195.181 8.7493 195.235 8.79209C195.702 9.07513 196.143 9.21347 196.521 9.21347C196.928 9.21347 197.265 9.05495 197.479 8.73733C197.487 8.72003 197.497 8.70345 197.509 8.68776C197.566 8.59499 197.611 8.49496 197.643 8.39032C197.709 8.17113 197.695 7.93536 197.603 7.72568C197.496 7.49151 197.317 7.29693 197.093 7.16942Z" fill="#C7C7C7"/>
<path fill-rule="evenodd" clip-rule="evenodd" d="M197.093 7.16942C196.92 7.06384 196.733 6.98367 196.537 6.93135C196.134 6.81606 195.842 6.66849 195.703 6.47999C195.579 6.31628 195.579 6.103 195.728 5.82977C195.812 5.66606 196.017 5.5623 196.279 5.54155C196.611 5.52839 196.941 5.60549 197.232 5.76463C197.275 5.78565 197.323 5.78911 197.368 5.77425C197.413 5.75938 197.449 5.72741 197.47 5.68537C197.491 5.64333 197.495 5.59466 197.48 5.55006C197.465 5.50547 197.433 5.46861 197.391 5.44759C196.984 5.23892 196.584 5.15937 196.25 5.18473C195.862 5.21413 195.557 5.38303 195.411 5.65568C195.187 6.06784 195.202 6.40506 195.411 6.68751C195.604 6.94057 195.957 7.13425 196.438 7.26799C196.603 7.31386 196.761 7.38049 196.909 7.46628C197.098 7.58157 197.222 7.71473 197.282 7.85826C197.34 7.99377 197.348 8.14509 197.305 8.28598C197.282 8.35899 197.25 8.42903 197.211 8.49465C197.211 8.50445 197.201 8.51425 197.191 8.52924C197.047 8.74252 196.814 8.85147 196.53 8.85147C196.218 8.85147 195.835 8.72753 195.429 8.47966C195.371 8.44508 195.313 8.40991 195.265 8.37533C195.225 8.34903 195.177 8.33948 195.131 8.34878C195.084 8.35808 195.043 8.38546 195.017 8.4249C194.991 8.46435 194.981 8.51262 194.99 8.5591C195 8.60559 195.027 8.64648 195.066 8.67277C195.125 8.70947 195.181 8.7493 195.235 8.79209C195.702 9.07513 196.143 9.21347 196.521 9.21347C196.928 9.21347 197.265 9.05495 197.479 8.73733C197.487 8.72003 197.497 8.70345 197.509 8.68776C197.566 8.59499 197.611 8.49496 197.643 8.39032C197.709 8.17113 197.695 7.93536 197.603 7.72568C197.496 7.49151 197.317 7.29693 197.093 7.16942Z" fill="#C7C7C7"/>
<path fill-rule="evenodd" clip-rule="evenodd" d="M199.829 6.77742C199.626 6.72752 199.412 6.7343 199.213 6.79702C198.985 6.86723 198.775 6.98514 198.597 7.14288V5.35361C198.595 5.30805 198.575 5.2652 198.542 5.23386C198.508 5.20252 198.464 5.18506 198.419 5.18506C198.373 5.18506 198.329 5.20252 198.296 5.23386C198.263 5.2652 198.243 5.30805 198.24 5.35361V9.03937C198.243 9.08493 198.263 9.12778 198.296 9.15912C198.329 9.19046 198.373 9.20792 198.419 9.20792C198.464 9.20792 198.508 9.19046 198.542 9.15912C198.575 9.12778 198.595 9.08493 198.597 9.03937V7.65995C198.601 7.65717 198.604 7.65409 198.607 7.65072C198.831 7.37749 199.079 7.20917 199.317 7.13481C199.454 7.09057 199.6 7.08538 199.739 7.11982C199.853 7.15055 199.953 7.21883 200.022 7.31351C200.1 7.4334 200.138 7.57445 200.131 7.71701V9.03533C200.131 9.08272 200.15 9.12818 200.183 9.16169C200.217 9.1952 200.262 9.21403 200.31 9.21403C200.357 9.21403 200.403 9.1952 200.436 9.16169C200.47 9.12818 200.489 9.08272 200.489 9.03533V7.71528C200.495 7.49968 200.432 7.28772 200.31 7.11002C200.193 6.9467 200.023 6.82911 199.829 6.77742Z" fill="#C7C7C7"/>
<path fill-rule="evenodd" clip-rule="evenodd" d="M199.829 6.77742C199.626 6.72752 199.412 6.7343 199.213 6.79702C198.985 6.86723 198.775 6.98514 198.597 7.14288V5.35361C198.595 5.30805 198.575 5.2652 198.542 5.23386C198.508 5.20252 198.464 5.18506 198.419 5.18506C198.373 5.18506 198.329 5.20252 198.296 5.23386C198.263 5.2652 198.243 5.30805 198.24 5.35361V9.03937C198.243 9.08493 198.263 9.12778 198.296 9.15912C198.329 9.19046 198.373 9.20792 198.419 9.20792C198.464 9.20792 198.508 9.19046 198.542 9.15912C198.575 9.12778 198.595 9.08493 198.597 9.03937V7.65995C198.601 7.65717 198.604 7.65409 198.607 7.65072C198.831 7.37749 199.079 7.20917 199.317 7.13481C199.454 7.09057 199.6 7.08538 199.739 7.11982C199.853 7.15055 199.953 7.21883 200.022 7.31351C200.1 7.4334 200.138 7.57445 200.131 7.71701V9.03533C200.131 9.08272 200.15 9.12818 200.183 9.16169C200.217 9.1952 200.262 9.21403 200.31 9.21403C200.357 9.21403 200.403 9.1952 200.436 9.16169C200.47 9.12818 200.489 9.08272 200.489 9.03533V7.71528C200.495 7.49968 200.432 7.28772 200.31 7.11002C200.193 6.9467 200.023 6.82911 199.829 6.77742Z" fill="#C7C7C7"/>
<path fill-rule="evenodd" clip-rule="evenodd" d="M202.866 8.60285C202.7 8.76791 202.475 8.86054 202.241 8.86054C202.007 8.86054 201.782 8.76791 201.615 8.60285C201.45 8.43666 201.357 8.21193 201.357 7.9777C201.357 7.74347 201.45 7.51874 201.615 7.35255C201.782 7.18827 202.007 7.09579 202.241 7.09488C202.416 7.09499 202.587 7.14686 202.732 7.24393C202.877 7.341 202.991 7.47893 203.058 7.64028C203.124 7.80164 203.142 7.97918 203.108 8.1505C203.074 8.32183 202.99 8.47923 202.866 8.60285ZM202.241 6.74268C201.918 6.74965 201.61 6.88284 201.384 7.11369C201.158 7.34454 201.032 7.65469 201.032 7.9777C201.032 8.3007 201.158 8.61086 201.384 8.84171C201.61 9.07256 201.918 9.20574 202.241 9.21272C202.564 9.20574 202.872 9.07256 203.098 8.84171C203.324 8.61086 203.451 8.3007 203.451 7.9777C203.451 7.65469 203.324 7.34454 203.098 7.11369C202.872 6.88284 202.564 6.74965 202.241 6.74268Z" fill="#C7C7C7"/>
<path fill-rule="evenodd" clip-rule="evenodd" d="M202.866 8.60285C202.7 8.76791 202.475 8.86054 202.241 8.86054C202.007 8.86054 201.782 8.76791 201.615 8.60285C201.45 8.43666 201.357 8.21193 201.357 7.9777C201.357 7.74347 201.45 7.51874 201.615 7.35255C201.782 7.18827 202.007 7.09579 202.241 7.09488C202.416 7.09499 202.587 7.14686 202.732 7.24393C202.877 7.341 202.991 7.47893 203.058 7.64028C203.124 7.80164 203.142 7.97918 203.108 8.1505C203.074 8.32183 202.99 8.47923 202.866 8.60285ZM202.241 6.74268C201.918 6.74965 201.61 6.88284 201.384 7.11369C201.158 7.34454 201.032 7.65469 201.032 7.9777C201.032 8.3007 201.158 8.61086 201.384 8.84171C201.61 9.07256 201.918 9.20574 202.241 9.21272C202.564 9.20574 202.872 9.07256 203.098 8.84171C203.324 8.61086 203.451 8.3007 203.451 7.9777C203.451 7.65469 203.324 7.34454 203.098 7.11369C202.872 6.88284 202.564 6.74965 202.241 6.74268Z" fill="#C7C7C7"/>
<path fill-rule="evenodd" clip-rule="evenodd" d="M205.874 8.60285C205.708 8.76783 205.483 8.86097 205.249 8.86225C205.074 8.86214 204.903 8.81027 204.758 8.7132C204.613 8.61612 204.5 8.4782 204.433 8.31685C204.366 8.15549 204.348 7.97794 204.382 7.80662C204.416 7.6353 204.5 7.4779 204.624 7.35428C204.79 7.18993 205.015 7.09743 205.249 7.09661C205.423 7.09706 205.594 7.14905 205.739 7.24604C205.884 7.34303 205.997 7.48068 206.064 7.64168C206.13 7.80268 206.148 7.97984 206.114 8.15086C206.081 8.32189 205.997 8.47915 205.874 8.60285ZM205.254 6.74268C205.091 6.74249 204.931 6.77437 204.781 6.8365C204.631 6.89863 204.495 6.98977 204.38 7.10468C204.366 7.11661 204.352 7.12993 204.341 7.14446V6.92137C204.341 6.87398 204.322 6.82853 204.288 6.79502C204.255 6.7615 204.209 6.74268 204.162 6.74268C204.114 6.74268 204.069 6.7615 204.035 6.79502C204.002 6.82853 203.983 6.87398 203.983 6.92137V10.433C203.983 10.4804 204.002 10.5259 204.035 10.5594C204.069 10.5929 204.114 10.6117 204.162 10.6117C204.209 10.6117 204.255 10.5929 204.288 10.5594C204.322 10.5259 204.341 10.4804 204.341 10.433V8.81094C204.355 8.82302 204.368 8.83633 204.38 8.85072C204.524 8.99426 204.701 9.10017 204.895 9.15906C205.09 9.21796 205.296 9.22803 205.495 9.18837C205.694 9.14871 205.881 9.06056 206.038 8.93172C206.195 8.80288 206.318 8.63732 206.395 8.44972C206.473 8.26211 206.503 8.05825 206.483 7.85618C206.463 7.65412 206.394 7.46009 206.281 7.29128C206.168 7.12247 206.015 6.98409 205.836 6.8884C205.657 6.7927 205.457 6.74265 205.254 6.74268Z" fill="#C7C7C7"/>
<path fill-rule="evenodd" clip-rule="evenodd" d="M205.874 8.60285C205.708 8.76783 205.483 8.86097 205.249 8.86225C205.074 8.86214 204.903 8.81027 204.758 8.7132C204.613 8.61612 204.5 8.4782 204.433 8.31685C204.366 8.15549 204.348 7.97794 204.382 7.80662C204.416 7.6353 204.5 7.4779 204.624 7.35428C204.79 7.18993 205.015 7.09743 205.249 7.09661C205.423 7.09706 205.594 7.14905 205.739 7.24604C205.884 7.34303 205.997 7.48068 206.064 7.64168C206.13 7.80268 206.148 7.97984 206.114 8.15086C206.081 8.32189 205.997 8.47915 205.874 8.60285ZM205.254 6.74268C205.091 6.74249 204.931 6.77437 204.781 6.8365C204.631 6.89863 204.495 6.98977 204.38 7.10468C204.366 7.11661 204.352 7.12993 204.341 7.14446V6.92137C204.341 6.87398 204.322 6.82853 204.288 6.79502C204.255 6.7615 204.209 6.74268 204.162 6.74268C204.114 6.74268 204.069 6.7615 204.035 6.79502C204.002 6.82853 203.983 6.87398 203.983 6.92137V10.433C203.983 10.4804 204.002 10.5259 204.035 10.5594C204.069 10.5929 204.114 10.6117 204.162 10.6117C204.209 10.6117 204.255 10.5929 204.288 10.5594C204.322 10.5259 204.341 10.4804 204.341 10.433V8.81094C204.355 8.82302 204.368 8.83633 204.38 8.85072C204.524 8.99426 204.701 9.10017 204.895 9.15906C205.09 9.21796 205.296 9.22803 205.495 9.18837C205.694 9.14871 205.881 9.06056 206.038 8.93172C206.195 8.80288 206.318 8.63732 206.395 8.44972C206.473 8.26211 206.503 8.05825 206.483 7.85618C206.463 7.65412 206.394 7.46009 206.281 7.29128C206.168 7.12247 206.015 6.98409 205.836 6.8884C205.657 6.7927 205.457 6.74265 205.254 6.74268Z" fill="#C7C7C7"/>
<path fill-rule="evenodd" clip-rule="evenodd" d="M207.4 7.70481C207.444 7.56052 207.523 7.42942 207.631 7.32321C207.701 7.25235 207.784 7.19608 207.876 7.15768C207.968 7.11928 208.067 7.09951 208.166 7.09951C208.266 7.09951 208.365 7.11928 208.457 7.15768C208.549 7.19608 208.632 7.25235 208.702 7.32321C208.809 7.43142 208.89 7.56168 208.941 7.70481H207.4ZM208.954 7.07073C208.852 6.96627 208.73 6.88343 208.595 6.82718C208.46 6.77092 208.315 6.7424 208.169 6.74331C208.023 6.74087 207.878 6.7687 207.743 6.82505C207.608 6.8814 207.486 6.96504 207.385 7.07073C206.958 7.53188 206.963 8.0282 207.132 8.52912C207.207 8.74265 207.354 8.92324 207.549 9.03985C207.746 9.16297 207.976 9.22327 208.209 9.21278C208.493 9.2023 208.773 9.13835 209.033 9.02428C209.056 9.01609 209.077 9.00333 209.094 8.98678C209.112 8.97023 209.126 8.95024 209.136 8.92803C209.146 8.90583 209.151 8.88187 209.151 8.85763C209.151 8.8334 209.146 8.80939 209.137 8.78707C209.127 8.76476 209.113 8.74461 209.096 8.72787C209.078 8.71112 209.057 8.69813 209.035 8.68968C209.012 8.68124 208.988 8.67752 208.963 8.67876C208.939 8.67999 208.916 8.68615 208.894 8.69687C208.676 8.79671 208.441 8.85235 208.202 8.86057C208.038 8.8664 207.876 8.82519 207.735 8.74183C207.61 8.65672 207.513 8.53631 207.457 8.39596C207.419 8.28998 207.392 8.18021 207.378 8.06855H209.021C209.11 8.06855 209.403 8.08815 209.251 7.58722C209.197 7.3925 209.094 7.21466 208.953 7.07015L208.954 7.07073Z" fill="#C7C7C7"/>
<path fill-rule="evenodd" clip-rule="evenodd" d="M207.4 7.70481C207.444 7.56052 207.523 7.42942 207.631 7.32321C207.701 7.25235 207.784 7.19608 207.876 7.15768C207.968 7.11928 208.067 7.09951 208.166 7.09951C208.266 7.09951 208.365 7.11928 208.457 7.15768C208.549 7.19608 208.632 7.25235 208.702 7.32321C208.809 7.43142 208.89 7.56168 208.941 7.70481H207.4ZM208.954 7.07073C208.852 6.96627 208.73 6.88343 208.595 6.82718C208.46 6.77092 208.315 6.7424 208.169 6.74331C208.023 6.74087 207.878 6.7687 207.743 6.82505C207.608 6.8814 207.486 6.96504 207.385 7.07073C206.958 7.53188 206.963 8.0282 207.132 8.52912C207.207 8.74265 207.354 8.92324 207.549 9.03985C207.746 9.16297 207.976 9.22327 208.209 9.21278C208.493 9.2023 208.773 9.13835 209.033 9.02428C209.056 9.01609 209.077 9.00333 209.094 8.98678C209.112 8.97023 209.126 8.95024 209.136 8.92803C209.146 8.90583 209.151 8.88187 209.151 8.85763C209.151 8.8334 209.146 8.80939 209.137 8.78707C209.127 8.76476 209.113 8.74461 209.096 8.72787C209.078 8.71112 209.057 8.69813 209.035 8.68968C209.012 8.68124 208.988 8.67752 208.963 8.67876C208.939 8.67999 208.916 8.68615 208.894 8.69687C208.676 8.79671 208.441 8.85235 208.202 8.86057C208.038 8.8664 207.876 8.82519 207.735 8.74183C207.61 8.65672 207.513 8.53631 207.457 8.39596C207.419 8.28998 207.392 8.18021 207.378 8.06855H209.021C209.11 8.06855 209.403 8.08815 209.251 7.58722C209.197 7.3925 209.094 7.21466 208.953 7.07015L208.954 7.07073Z" fill="#C7C7C7"/>
<path fill-rule="evenodd" clip-rule="evenodd" d="M210.111 7.70459C210.155 7.56018 210.234 7.42902 210.342 7.32299C210.412 7.25211 210.495 7.19583 210.587 7.15743C210.679 7.11902 210.778 7.09924 210.878 7.09924C210.978 7.09924 211.076 7.11902 211.168 7.15743C211.26 7.19583 211.344 7.25211 211.414 7.32299C211.52 7.43126 211.602 7.56152 211.652 7.70459H210.111ZM212.002 7.89078V7.76051C211.994 7.70185 211.981 7.64399 211.963 7.58758C211.909 7.39222 211.806 7.21372 211.664 7.06878C211.563 6.96428 211.441 6.88142 211.306 6.82516C211.171 6.7689 211.026 6.7404 210.88 6.74136C210.734 6.73889 210.589 6.7667 210.454 6.82305C210.319 6.8794 210.197 6.96306 210.096 7.06878C209.669 7.52993 209.674 8.02625 209.843 8.52717C209.918 8.74079 210.065 8.92145 210.26 9.0379C210.457 9.16102 210.688 9.22132 210.92 9.21083C211.204 9.20035 211.484 9.1364 211.744 9.02234C211.767 9.01414 211.788 9.00138 211.805 8.98483C211.823 8.96828 211.837 8.94829 211.847 8.92609C211.857 8.90388 211.862 8.87993 211.862 8.85569C211.862 8.83145 211.857 8.80744 211.848 8.78513C211.838 8.76281 211.824 8.74267 211.807 8.72592C211.789 8.70917 211.769 8.69618 211.746 8.68774C211.723 8.67929 211.699 8.67557 211.675 8.67681C211.65 8.67804 211.627 8.68421 211.605 8.69492C211.387 8.79476 211.152 8.85041 210.913 8.85863C210.749 8.86445 210.587 8.82324 210.446 8.73988C210.321 8.65493 210.224 8.53447 210.168 8.39402C210.13 8.28798 210.103 8.17823 210.088 8.0666H211.732C211.797 8.06718 211.97 8.07755 212 7.89078H212.002Z" fill="#C7C7C7"/>
<path fill-rule="evenodd" clip-rule="evenodd" d="M210.111 7.70459C210.155 7.56018 210.234 7.42902 210.342 7.32299C210.412 7.25211 210.495 7.19583 210.587 7.15743C210.679 7.11902 210.778 7.09924 210.878 7.09924C210.978 7.09924 211.076 7.11902 211.168 7.15743C211.26 7.19583 211.344 7.25211 211.414 7.32299C211.52 7.43126 211.602 7.56152 211.652 7.70459H210.111ZM212.002 7.89078V7.76051C211.994 7.70185 211.981 7.64399 211.963 7.58758C211.909 7.39222 211.806 7.21372 211.664 7.06878C211.563 6.96428 211.441 6.88142 211.306 6.82516C211.171 6.7689 211.026 6.7404 210.88 6.74136C210.734 6.73889 210.589 6.7667 210.454 6.82305C210.319 6.8794 210.197 6.96306 210.096 7.06878C209.669 7.52993 209.674 8.02625 209.843 8.52717C209.918 8.74079 210.065 8.92145 210.26 9.0379C210.457 9.16102 210.688 9.22132 210.92 9.21083C211.204 9.20035 211.484 9.1364 211.744 9.02234C211.767 9.01414 211.788 9.00138 211.805 8.98483C211.823 8.96828 211.837 8.94829 211.847 8.92609C211.857 8.90388 211.862 8.87993 211.862 8.85569C211.862 8.83145 211.857 8.80744 211.848 8.78513C211.838 8.76281 211.824 8.74267 211.807 8.72592C211.789 8.70917 211.769 8.69618 211.746 8.68774C211.723 8.67929 211.699 8.67557 211.675 8.67681C211.65 8.67804 211.627 8.68421 211.605 8.69492C211.387 8.79476 211.152 8.85041 210.913 8.85863C210.749 8.86445 210.587 8.82324 210.446 8.73988C210.321 8.65493 210.224 8.53447 210.168 8.39402C210.13 8.28798 210.103 8.17823 210.088 8.0666H211.732C211.797 8.06718 211.97 8.07755 212 7.89078H212.002Z" fill="#C7C7C7"/>
<path fill-rule="evenodd" clip-rule="evenodd" d="M198.012 13.8198H196.157V11.1261H197.83C197.859 11.1259 197.888 11.1274 197.916 11.1307C198.171 11.1589 199.284 11.3515 199.284 12.5447C199.284 13.8186 198.011 13.8186 198.011 13.8186L198.012 13.8198ZM197.685 10.0994H195.113V16.9689H196.157V14.9185H197.797C198.347 14.9238 198.888 14.7813 199.365 14.5058C199.927 14.1731 200.489 13.5869 200.489 12.5735C200.489 11.623 199.995 11.02 199.47 10.6471C198.946 10.2838 198.322 10.092 197.685 10.0983V10.0994Z" fill="#C7C7C7"/>
<path fill-rule="evenodd" clip-rule="evenodd" d="M198.012 13.8198H196.157V11.1261H197.83C197.859 11.1259 197.888 11.1274 197.916 11.1307C198.171 11.1589 199.284 11.3515 199.284 12.5447C199.284 13.8186 198.011 13.8186 198.011 13.8186L198.012 13.8198ZM197.685 10.0994H195.113V16.9689H196.157V14.9185H197.797C198.347 14.9238 198.888 14.7813 199.365 14.5058C199.927 14.1731 200.489 13.5869 200.489 12.5735C200.489 11.623 199.995 11.02 199.47 10.6471C198.946 10.2838 198.322 10.092 197.685 10.0983V10.0994Z" fill="#C7C7C7"/>
<path fill-rule="evenodd" clip-rule="evenodd" d="M203.073 16.0228C202.768 16.0228 202.469 15.9322 202.214 15.7624C201.96 15.5926 201.762 15.3513 201.644 15.069C201.527 14.7866 201.496 14.4759 201.556 14.176C201.615 13.8762 201.763 13.6007 201.979 13.3844C202.195 13.1681 202.47 13.0207 202.77 12.9608C203.07 12.9009 203.381 12.9312 203.664 13.0478C203.947 13.1645 204.188 13.3623 204.359 13.6162C204.529 13.8701 204.62 14.1688 204.621 14.4745V14.4785C204.62 14.8883 204.457 15.2812 204.167 15.5708C203.877 15.8604 203.483 16.023 203.073 16.0228ZM204.621 12.0857V12.5694C204.26 12.2767 203.823 12.0923 203.362 12.0373C202.901 11.9823 202.433 12.0591 202.013 12.2588C201.594 12.4585 201.24 12.7729 200.992 13.1655C200.743 13.5582 200.612 14.013 200.612 14.4774C200.612 14.9417 200.743 15.3966 200.992 15.7892C201.24 16.1819 201.594 16.4963 202.013 16.6959C202.433 16.8956 202.901 16.9724 203.362 16.9175C203.823 16.8625 204.26 16.678 204.621 16.3854V16.9324H205.663V12.0857H204.621Z" fill="#C7C7C7"/>
<path fill-rule="evenodd" clip-rule="evenodd" d="M203.073 16.0228C202.768 16.0228 202.469 15.9322 202.214 15.7624C201.96 15.5926 201.762 15.3513 201.644 15.069C201.527 14.7866 201.496 14.4759 201.556 14.176C201.615 13.8762 201.763 13.6007 201.979 13.3844C202.195 13.1681 202.47 13.0207 202.77 12.9608C203.07 12.9009 203.381 12.9312 203.664 13.0478C203.947 13.1645 204.188 13.3623 204.359 13.6162C204.529 13.8701 204.62 14.1688 204.621 14.4745V14.4785C204.62 14.8883 204.457 15.2812 204.167 15.5708C203.877 15.8604 203.483 16.023 203.073 16.0228ZM204.621 12.0857V12.5694C204.26 12.2767 203.823 12.0923 203.362 12.0373C202.901 11.9823 202.433 12.0591 202.013 12.2588C201.594 12.4585 201.24 12.7729 200.992 13.1655C200.743 13.5582 200.612 14.013 200.612 14.4774C200.612 14.9417 200.743 15.3966 200.992 15.7892C201.24 16.1819 201.594 16.4963 202.013 16.6959C202.433 16.8956 202.901 16.9724 203.362 16.9175C203.823 16.8625 204.26 16.678 204.621 16.3854V16.9324H205.663V12.0857H204.621Z" fill="#C7C7C7"/>
<path fill-rule="evenodd" clip-rule="evenodd" d="M206.133 12.0195H207.528L209.164 15.1496L210.743 12.0195H212V12.0282L208.252 19.0002H207.023L208.455 16.4091L206.133 12.0195Z" fill="#C7C7C7"/>
<path fill-rule="evenodd" clip-rule="evenodd" d="M206.133 12.0195H207.528L209.164 15.1496L210.743 12.0195H212V12.0282L208.252 19.0002H207.023L208.455 16.4091L206.133 12.0195Z" fill="#C7C7C7"/>
</g>
<path fill-rule="evenodd" clip-rule="evenodd" d="M225.587 5.37918H226.599C226.676 5.37918 226.735 5.44593 226.724 5.52043L226.254 8.70638C226.236 8.829 226.334 8.9388 226.46 8.9388H228.236C228.287 8.9388 228.325 8.98257 228.318 9.03128L228.18 9.94633C228.173 9.99387 228.131 10.0292 228.082 10.0292H226.074C225.477 10.0292 224.904 9.55062 224.988 8.97294L225.461 5.48658C225.47 5.42513 225.523 5.37918 225.587 5.37918Z" fill="#C7C7C7"/>
<path fill-rule="evenodd" clip-rule="evenodd" d="M225.587 5.37918H226.599C226.676 5.37918 226.735 5.44593 226.724 5.52043L226.254 8.70638C226.236 8.829 226.334 8.9388 226.46 8.9388H228.236C228.287 8.9388 228.325 8.98257 228.318 9.03128L228.18 9.94633C228.173 9.99387 228.131 10.0292 228.082 10.0292H226.074C225.477 10.0292 224.904 9.55062 224.988 8.97294L225.461 5.48658C225.47 5.42513 225.523 5.37918 225.587 5.37918Z" fill="#C7C7C7"/>
<path fill-rule="evenodd" clip-rule="evenodd" d="M228.962 6.65043L228.499 9.89957C228.492 9.9511 228.533 9.99712 228.586 9.99712H229.565C229.635 9.99712 229.694 9.94697 229.704 9.87957L230.163 6.68326C230.172 6.60963 230.114 6.54433 230.038 6.54433H229.087C229.024 6.54433 228.971 6.58963 228.962 6.65043Z" fill="#C7C7C7"/>
<path fill-rule="evenodd" clip-rule="evenodd" d="M228.962 6.65043L228.499 9.89957C228.492 9.9511 228.533 9.99712 228.586 9.99712H229.565C229.635 9.99712 229.694 9.94697 229.704 9.87957L230.163 6.68326C230.172 6.60963 230.114 6.54433 230.038 6.54433H229.087C229.024 6.54433 228.971 6.58963 228.962 6.65043Z" fill="#C7C7C7"/>
<path fill-rule="evenodd" clip-rule="evenodd" d="M230.983 9.74799C230.681 9.73733 230.539 9.82988 230.361 9.93381C230.404 9.64087 230.742 7.35802 230.772 7.21778C230.805 7.06827 230.834 6.81881 230.969 6.693C231.127 6.5453 231.371 6.46079 232.586 6.45695C233.826 6.45304 234.066 7.32483 234 7.89128C233.944 8.37613 233.76 9.57405 233.707 9.90873C233.7 9.95961 233.655 9.99708 233.603 9.99708H232.645C232.575 9.99708 232.521 9.93664 232.53 9.8688C232.579 9.53412 232.709 8.64189 232.753 8.3828C232.807 8.06232 232.851 7.70966 232.764 7.57044C232.676 7.43151 232.414 7.32483 231.91 7.41035L231.538 9.98121C231.538 9.98121 231.299 9.75915 230.983 9.74799Z" fill="#C7C7C7"/>
<path fill-rule="evenodd" clip-rule="evenodd" d="M230.983 9.74799C230.681 9.73733 230.539 9.82988 230.361 9.93381C230.404 9.64087 230.742 7.35802 230.772 7.21778C230.805 7.06827 230.834 6.81881 230.969 6.693C231.127 6.5453 231.371 6.46079 232.586 6.45695C233.826 6.45304 234.066 7.32483 234 7.89128C233.944 8.37613 233.76 9.57405 233.707 9.90873C233.7 9.95961 233.655 9.99708 233.603 9.99708H232.645C232.575 9.99708 232.521 9.93664 232.53 9.8688C232.579 9.53412 232.709 8.64189 232.753 8.3828C232.807 8.06232 232.851 7.70966 232.764 7.57044C232.676 7.43151 232.414 7.32483 231.91 7.41035L231.538 9.98121C231.538 9.98121 231.299 9.75915 230.983 9.74799Z" fill="#C7C7C7"/>
<path fill-rule="evenodd" clip-rule="evenodd" d="M235.039 5.19462H236.102C236.141 5.19462 236.172 5.22875 236.166 5.26702L235.505 9.94592C235.5 9.98064 235.47 10.0065 235.434 10.0065H234.385C234.341 10.0065 234.308 9.9689 234.314 9.92672L234.974 5.24962C234.979 5.2181 235.006 5.19462 235.039 5.19462Z" fill="#C7C7C7"/>
<path fill-rule="evenodd" clip-rule="evenodd" d="M235.039 5.19462H236.102C236.141 5.19462 236.172 5.22875 236.166 5.26702L235.505 9.94592C235.5 9.98064 235.47 10.0065 235.434 10.0065H234.385C234.341 10.0065 234.308 9.9689 234.314 9.92672L234.974 5.24962C234.979 5.2181 235.006 5.19462 235.039 5.19462Z" fill="#C7C7C7"/>
<path fill-rule="evenodd" clip-rule="evenodd" d="M235.861 8.01372L237.062 6.63998C237.1 6.59672 237.155 6.57178 237.214 6.57178H238.268C238.344 6.57178 238.384 6.65984 238.333 6.71499L237.105 8.04612L238.228 10.4043C238.269 10.4908 238.204 10.5898 238.106 10.5898H237.154C237.104 10.5898 237.059 10.5615 237.038 10.5173L235.861 8.01372Z" fill="#C7C7C7"/>
<path fill-rule="evenodd" clip-rule="evenodd" d="M235.861 8.01372L237.062 6.63998C237.1 6.59672 237.155 6.57178 237.214 6.57178H238.268C238.344 6.57178 238.384 6.65984 238.333 6.71499L237.105 8.04612L238.228 10.4043C238.269 10.4908 238.204 10.5898 238.106 10.5898H237.154C237.104 10.5898 237.059 10.5615 237.038 10.5173L235.861 8.01372Z" fill="#C7C7C7"/>
<path fill-rule="evenodd" clip-rule="evenodd" d="M230.368 5.66451C230.282 6.01855 229.956 6.28199 229.614 6.28199C229.272 6.28199 229.01 5.99499 229.096 5.64103C229.182 5.287 229.465 5 229.871 5C230.212 5 230.454 5.31048 230.368 5.66451Z" fill="#C7C7C7"/>
<path fill-rule="evenodd" clip-rule="evenodd" d="M230.368 5.66451C230.282 6.01855 229.956 6.28199 229.614 6.28199C229.272 6.28199 229.01 5.99499 229.096 5.64103C229.182 5.287 229.465 5 229.871 5C230.212 5 230.454 5.31048 230.368 5.66451Z" fill="#C7C7C7"/>
<path fill-rule="evenodd" clip-rule="evenodd" d="M231.448 10.8253C231.362 11.1794 231.036 11.4428 230.694 11.4428C230.352 11.4428 230.09 11.1558 230.176 10.8019C230.262 10.4478 230.545 10.1608 230.951 10.1608C231.292 10.1608 231.534 10.4713 231.448 10.8253Z" fill="#C7C7C7"/>
<path fill-rule="evenodd" clip-rule="evenodd" d="M231.448 10.8253C231.362 11.1794 231.036 11.4428 230.694 11.4428C230.352 11.4428 230.09 11.1558 230.176 10.8019C230.262 10.4478 230.545 10.1608 230.951 10.1608C231.292 10.1608 231.534 10.4713 231.448 10.8253Z" fill="#C7C7C7"/>
<path fill-rule="evenodd" clip-rule="evenodd" d="M236.588 15.0561C236.515 15.4059 236.186 15.6661 235.826 15.6659C235.467 15.6658 235.177 15.382 235.249 15.0322C235.322 14.6824 235.605 14.3989 236.031 14.3991C236.39 14.3993 236.66 14.7062 236.588 15.0561Z" fill="#C7C7C7"/>
<path fill-rule="evenodd" clip-rule="evenodd" d="M236.588 15.0561C236.515 15.4059 236.186 15.6661 235.826 15.6659C235.467 15.6658 235.177 15.382 235.249 15.0322C235.322 14.6824 235.605 14.3989 236.031 14.3991C236.39 14.3993 236.66 14.7062 236.588 15.0561Z" fill="#C7C7C7"/>
<path fill-rule="evenodd" clip-rule="evenodd" d="M227.543 13.3136H226.9C226.876 13.3136 226.86 13.2902 226.869 13.2684L227.428 11.8802C227.439 11.8538 227.479 11.8594 227.482 11.8877L227.607 13.2451C227.611 13.2819 227.581 13.3136 227.543 13.3136ZM229.102 15.0568L228.384 10.8595C228.353 10.676 228.19 10.5415 228 10.5415H227.279C227.06 10.5415 226.86 10.6668 226.769 10.8621L224.835 15.0621C224.807 15.123 224.853 15.1918 224.922 15.1914L225.926 15.1857C225.995 15.1853 226.057 15.145 226.084 15.0833L226.418 14.3157C226.427 14.2948 226.448 14.2812 226.471 14.2812H227.687C227.717 14.2812 227.742 14.3033 227.745 14.3323L227.817 15.0587C227.826 15.1432 227.899 15.2077 227.986 15.2077H228.971C229.053 15.2077 229.115 15.1358 229.102 15.0568Z" fill="#C7C7C7"/>
<path fill-rule="evenodd" clip-rule="evenodd" d="M227.543 13.3136H226.9C226.876 13.3136 226.86 13.2902 226.869 13.2684L227.428 11.8802C227.439 11.8538 227.479 11.8594 227.482 11.8877L227.607 13.2451C227.611 13.2819 227.581 13.3136 227.543 13.3136ZM229.102 15.0568L228.384 10.8595C228.353 10.676 228.19 10.5415 228 10.5415H227.279C227.06 10.5415 226.86 10.6668 226.769 10.8621L224.835 15.0621C224.807 15.123 224.853 15.1918 224.922 15.1914L225.926 15.1857C225.995 15.1853 226.057 15.145 226.084 15.0833L226.418 14.3157C226.427 14.2948 226.448 14.2812 226.471 14.2812H227.687C227.717 14.2812 227.742 14.3033 227.745 14.3323L227.817 15.0587C227.826 15.1432 227.899 15.2077 227.986 15.2077H228.971C229.053 15.2077 229.115 15.1358 229.102 15.0568Z" fill="#C7C7C7"/>
<path fill-rule="evenodd" clip-rule="evenodd" d="M228.623 15.8172L228.855 16.5175C228.896 16.6327 228.928 16.6583 229.009 16.6415C229.302 16.5811 230.011 16.3767 230.357 15.9187C230.809 15.3217 230.871 14.2662 230.951 13.7297C231.016 13.2878 231.16 12.2001 231.209 11.8305C231.218 11.7639 231.165 11.7052 231.096 11.7052H230.195C230.115 11.7052 230.048 11.7626 230.038 11.8396C229.965 12.3618 229.703 14.2395 229.658 14.4997C229.604 14.8026 229.594 15.2388 229.135 15.4992C228.906 15.6291 228.789 15.6539 228.698 15.6952C228.652 15.7162 228.6 15.7388 228.623 15.8172Z" fill="#C7C7C7"/>
<path fill-rule="evenodd" clip-rule="evenodd" d="M228.623 15.8172L228.855 16.5175C228.896 16.6327 228.928 16.6583 229.009 16.6415C229.302 16.5811 230.011 16.3767 230.357 15.9187C230.809 15.3217 230.871 14.2662 230.951 13.7297C231.016 13.2878 231.16 12.2001 231.209 11.8305C231.218 11.7639 231.165 11.7052 231.096 11.7052H230.195C230.115 11.7052 230.048 11.7626 230.038 11.8396C229.965 12.3618 229.703 14.2395 229.658 14.4997C229.604 14.8026 229.594 15.2388 229.135 15.4992C228.906 15.6291 228.789 15.6539 228.698 15.6952C228.652 15.7162 228.6 15.7388 228.623 15.8172Z" fill="#C7C7C7"/>
<path fill-rule="evenodd" clip-rule="evenodd" d="M233.58 14.2003C233.58 14.2003 233.11 14.3564 232.884 14.1911C232.659 14.026 232.64 13.6864 232.772 13.2001C232.903 12.7136 233.232 12.6311 233.373 12.6219C233.514 12.6127 233.779 12.6778 233.779 12.6778L233.58 14.2003ZM234.88 11.8308C234.576 11.7566 234.066 11.5935 233.245 11.6523C232.487 11.7065 231.632 12.0487 231.472 13.5093C231.312 14.9699 231.995 15.2516 232.978 15.2933C233.698 15.3239 234.263 15.1304 234.514 15.0248C234.601 14.9881 234.662 14.9093 234.674 14.8173L235.037 12.0053C235.052 11.8936 234.994 11.8587 234.88 11.8308Z" fill="#C7C7C7"/>
<path fill-rule="evenodd" clip-rule="evenodd" d="M233.58 14.2003C233.58 14.2003 233.11 14.3564 232.884 14.1911C232.659 14.026 232.64 13.6864 232.772 13.2001C232.903 12.7136 233.232 12.6311 233.373 12.6219C233.514 12.6127 233.779 12.6778 233.779 12.6778L233.58 14.2003ZM234.88 11.8308C234.576 11.7566 234.066 11.5935 233.245 11.6523C232.487 11.7065 231.632 12.0487 231.472 13.5093C231.312 14.9699 231.995 15.2516 232.978 15.2933C233.698 15.3239 234.263 15.1304 234.514 15.0248C234.601 14.9881 234.662 14.9093 234.674 14.8173L235.037 12.0053C235.052 11.8936 234.994 11.8587 234.88 11.8308Z" fill="#C7C7C7"/>
<path fill-rule="evenodd" clip-rule="evenodd" d="M235.581 13.9335L235.845 11.2407C235.855 11.1443 235.937 11.1049 236.037 11.1049H236.948C237.033 11.1049 237.069 11.1679 237.046 11.271L236.489 13.9674C236.478 14.0196 236.431 14.0569 236.376 14.0569H235.695C235.627 14.0569 235.574 13.9997 235.581 13.9335Z" fill="#C7C7C7"/>
<path fill-rule="evenodd" clip-rule="evenodd" d="M235.581 13.9335L235.845 11.2407C235.855 11.1443 235.937 11.1049 236.037 11.1049H236.948C237.033 11.1049 237.069 11.1679 237.046 11.271L236.489 13.9674C236.478 14.0196 236.431 14.0569 236.376 14.0569H235.695C235.627 14.0569 235.574 13.9997 235.581 13.9335Z" fill="#C7C7C7"/>
<path fill-rule="evenodd" clip-rule="evenodd" d="M224.91 18.8988C225.091 18.9963 225.301 19.0246 225.502 18.9782C226.302 18.7931 228.072 18.2948 231.815 17.7662C236.518 17.1021 239.991 17.1048 239.991 17.1048L240 17.0994C240 17.0994 236.922 16.6863 231.871 17.1682C226.819 17.6502 224 18.4076 224 18.4076L224.91 18.8988Z" fill="#C7C7C7"/>
<path fill-rule="evenodd" clip-rule="evenodd" d="M224.91 18.8988C225.091 18.9963 225.301 19.0246 225.502 18.9782C226.302 18.7931 228.072 18.2948 231.815 17.7662C236.518 17.1021 239.991 17.1048 239.991 17.1048L240 17.0994C240 17.0994 236.922 16.6863 231.871 17.1682C226.819 17.6502 224 18.4076 224 18.4076L224.91 18.8988Z" fill="#C7C7C7"/>
<defs>
<clipPath id="clip0_3427_2332">
<rect width="42" height="12" fill="white" transform="translate(74 6)"/>
</clipPath>
<clipPath id="clip1_3427_2332">
<rect width="32" height="14" fill="white" transform="translate(180 5)"/>
</clipPath>
</defs>
</svg>
