<svg width="32" height="14" viewBox="0 0 32 14" fill="none" xmlns="http://www.w3.org/2000/svg">
<g id="Shopee Pay" clip-path="url(#clip0_3472_2916)">
<g id="Layer 1">
<g id="Vector">
<path fill-rule="evenodd" clip-rule="evenodd" d="M9.98215 0.00292702L0.422244 1.27686C0.422244 1.27686 0 1.32586 0 1.83428V10.9069C0 10.9069 0.0576836 11.9687 1.27192 11.9687H12.1066C12.1066 11.9687 13.0723 11.7381 13.0723 10.772V3.28575C13.0723 3.28575 13.0913 2.22395 11.8171 2.22395H1.36883C1.24587 2.19797 1.13278 2.13773 1.04264 2.05021C0.952505 1.96268 0.889004 1.85145 0.859486 1.72936C0.82776 1.56104 0.895827 1.54375 1.07407 1.54375H10.668V0.509618C10.668 0.509618 10.634 -0.0449175 9.98215 0.00292702Z" fill="#C7C7C7"/>
<path fill-rule="evenodd" clip-rule="evenodd" d="M9.98215 0.00292702L0.422244 1.27686C0.422244 1.27686 0 1.32586 0 1.83428V10.9069C0 10.9069 0.0576836 11.9687 1.27192 11.9687H12.1066C12.1066 11.9687 13.0723 11.7381 13.0723 10.772V3.28575C13.0723 3.28575 13.0913 2.22395 11.8171 2.22395H1.36883C1.24587 2.19797 1.13278 2.13773 1.04264 2.05021C0.952505 1.96268 0.889004 1.85145 0.859486 1.72936C0.82776 1.56104 0.895827 1.54375 1.07407 1.54375H10.668V0.509618C10.668 0.509618 10.634 -0.0449175 9.98215 0.00292702Z" fill="#C7C7C7"/>
</g>
<path id="Vector_2" fill-rule="evenodd" clip-rule="evenodd" d="M6.72997 10.4291C5.9374 10.4291 5.35364 10.1063 4.49242 9.2549C4.42189 9.18133 4.38289 9.08314 4.38374 8.98125C4.38459 8.87937 4.42523 8.78184 4.49698 8.70946C4.56874 8.63708 4.66594 8.59556 4.76789 8.59375C4.86983 8.59194 4.96845 8.62999 5.04273 8.69979C5.94951 9.59557 6.36945 9.81808 7.09396 9.62209C7.51505 9.5068 7.89288 8.97187 7.9148 8.3568C7.9321 7.87893 7.59465 7.56708 6.91226 7.43046C5.68705 7.18548 4.9637 6.71741 4.76296 6.03836C4.60145 5.4919 4.81372 4.88145 5.34499 4.36669L5.36691 4.34709C6.50905 3.39308 7.83519 4.10383 8.37684 4.6134C8.44912 4.68511 8.49056 4.78217 8.49234 4.88393C8.49412 4.9857 8.4561 5.08414 8.38637 5.15833C8.31664 5.23252 8.2207 5.27659 8.11895 5.28119C8.0172 5.28578 7.91768 5.25053 7.84154 5.18292C7.79597 5.14027 6.76978 4.20874 5.88029 4.93736C5.5763 5.23769 5.43901 5.56683 5.514 5.81931C5.62245 6.18708 6.1739 6.48799 7.06627 6.66668C8.58277 6.96989 8.71199 7.97117 8.69699 8.38736C8.66469 9.2941 7.90557 10.3098 7.19317 10.3997C7.03955 10.4193 6.88484 10.4291 6.72997 10.4291Z" fill="#191D24"/>
<g id="Vector_3">
<path fill-rule="evenodd" clip-rule="evenodd" d="M17.0934 2.16942C16.9204 2.06384 16.7331 1.98367 16.5373 1.93135C16.1335 1.81606 15.8422 1.66849 15.7032 1.47999C15.5792 1.31628 15.5792 1.103 15.728 0.829769C15.8123 0.66606 16.0165 0.562301 16.2789 0.541549C16.6111 0.528389 16.9406 0.605485 17.2324 0.764631C17.2745 0.785653 17.3232 0.789111 17.3678 0.774247C17.4124 0.759383 17.4493 0.727413 17.4704 0.685371C17.4914 0.643328 17.4949 0.594657 17.48 0.550065C17.4651 0.505472 17.4331 0.468611 17.3911 0.447589C16.9844 0.238918 16.5835 0.159369 16.2495 0.184733C15.8619 0.214131 15.5573 0.383028 15.4108 0.655684C15.187 1.06784 15.202 1.40506 15.4108 1.68751C15.604 1.94057 15.9565 2.13425 16.4381 2.26799C16.603 2.31386 16.7613 2.38049 16.9094 2.46628C17.098 2.58157 17.222 2.71473 17.282 2.85826C17.3395 2.99377 17.3476 3.14509 17.3051 3.28598C17.2818 3.35899 17.2501 3.42903 17.2105 3.49465C17.2105 3.50445 17.2007 3.51425 17.1909 3.52924C17.0467 3.74252 16.8136 3.85147 16.5304 3.85147C16.2178 3.85147 15.8353 3.72753 15.4287 3.47966C15.371 3.44508 15.3133 3.40991 15.2648 3.37533C15.2254 3.34903 15.1771 3.33948 15.1305 3.34878C15.084 3.35808 15.0431 3.38546 15.0168 3.4249C14.9905 3.46435 14.9809 3.51262 14.9902 3.5591C14.9995 3.60559 15.0269 3.64648 15.0664 3.67277C15.1247 3.70947 15.1809 3.7493 15.2348 3.79209C15.7015 4.07513 16.1434 4.21347 16.5206 4.21347C16.9279 4.21347 17.2653 4.05495 17.4787 3.73733C17.4874 3.72003 17.4974 3.70345 17.5087 3.68776C17.5663 3.59499 17.6114 3.49496 17.6426 3.39032C17.7092 3.17113 17.6951 2.93536 17.6028 2.72568C17.4955 2.49151 17.3173 2.29693 17.0934 2.16942Z" fill="#C7C7C7"/>
<path fill-rule="evenodd" clip-rule="evenodd" d="M17.0934 2.16942C16.9204 2.06384 16.7331 1.98367 16.5373 1.93135C16.1335 1.81606 15.8422 1.66849 15.7032 1.47999C15.5792 1.31628 15.5792 1.103 15.728 0.829769C15.8123 0.66606 16.0165 0.562301 16.2789 0.541549C16.6111 0.528389 16.9406 0.605485 17.2324 0.764631C17.2745 0.785653 17.3232 0.789111 17.3678 0.774247C17.4124 0.759383 17.4493 0.727413 17.4704 0.685371C17.4914 0.643328 17.4949 0.594657 17.48 0.550065C17.4651 0.505472 17.4331 0.468611 17.3911 0.447589C16.9844 0.238918 16.5835 0.159369 16.2495 0.184733C15.8619 0.214131 15.5573 0.383028 15.4108 0.655684C15.187 1.06784 15.202 1.40506 15.4108 1.68751C15.604 1.94057 15.9565 2.13425 16.4381 2.26799C16.603 2.31386 16.7613 2.38049 16.9094 2.46628C17.098 2.58157 17.222 2.71473 17.282 2.85826C17.3395 2.99377 17.3476 3.14509 17.3051 3.28598C17.2818 3.35899 17.2501 3.42903 17.2105 3.49465C17.2105 3.50445 17.2007 3.51425 17.1909 3.52924C17.0467 3.74252 16.8136 3.85147 16.5304 3.85147C16.2178 3.85147 15.8353 3.72753 15.4287 3.47966C15.371 3.44508 15.3133 3.40991 15.2648 3.37533C15.2254 3.34903 15.1771 3.33948 15.1305 3.34878C15.084 3.35808 15.0431 3.38546 15.0168 3.4249C14.9905 3.46435 14.9809 3.51262 14.9902 3.5591C14.9995 3.60559 15.0269 3.64648 15.0664 3.67277C15.1247 3.70947 15.1809 3.7493 15.2348 3.79209C15.7015 4.07513 16.1434 4.21347 16.5206 4.21347C16.9279 4.21347 17.2653 4.05495 17.4787 3.73733C17.4874 3.72003 17.4974 3.70345 17.5087 3.68776C17.5663 3.59499 17.6114 3.49496 17.6426 3.39032C17.7092 3.17113 17.6951 2.93536 17.6028 2.72568C17.4955 2.49151 17.3173 2.29693 17.0934 2.16942Z" fill="#C7C7C7"/>
</g>
<g id="Vector_4">
<path fill-rule="evenodd" clip-rule="evenodd" d="M19.8288 1.77742C19.6255 1.72752 19.4124 1.7343 19.2127 1.79702C18.9853 1.86723 18.7754 1.98514 18.5972 2.14288V0.35361C18.5946 0.308046 18.5747 0.265201 18.5415 0.23386C18.5083 0.202519 18.4644 0.185059 18.4187 0.185059C18.373 0.185059 18.3291 0.202519 18.2959 0.23386C18.2627 0.265201 18.2428 0.308046 18.2402 0.35361V4.03937C18.2428 4.08493 18.2627 4.12778 18.2959 4.15912C18.3291 4.19046 18.373 4.20792 18.4187 4.20792C18.4644 4.20792 18.5083 4.19046 18.5415 4.15912C18.5747 4.12778 18.5946 4.08493 18.5972 4.03937V2.65995C18.6008 2.65717 18.6041 2.65409 18.607 2.65072C18.8309 2.37749 19.0789 2.20917 19.3171 2.13481C19.4537 2.09057 19.6 2.08538 19.7394 2.11982C19.8528 2.15055 19.9525 2.21883 20.022 2.31351C20.0995 2.4334 20.1376 2.57445 20.131 2.71701V4.03533C20.131 4.08272 20.1499 4.12818 20.1834 4.16169C20.2169 4.1952 20.2624 4.21403 20.3099 4.21403C20.3573 4.21403 20.4028 4.1952 20.4363 4.16169C20.4698 4.12818 20.4887 4.08272 20.4887 4.03533V2.71528C20.4948 2.49968 20.4322 2.28772 20.3099 2.11002C20.193 1.9467 20.0229 1.82911 19.8288 1.77742Z" fill="#C7C7C7"/>
<path fill-rule="evenodd" clip-rule="evenodd" d="M19.8288 1.77742C19.6255 1.72752 19.4124 1.7343 19.2127 1.79702C18.9853 1.86723 18.7754 1.98514 18.5972 2.14288V0.35361C18.5946 0.308046 18.5747 0.265201 18.5415 0.23386C18.5083 0.202519 18.4644 0.185059 18.4187 0.185059C18.373 0.185059 18.3291 0.202519 18.2959 0.23386C18.2627 0.265201 18.2428 0.308046 18.2402 0.35361V4.03937C18.2428 4.08493 18.2627 4.12778 18.2959 4.15912C18.3291 4.19046 18.373 4.20792 18.4187 4.20792C18.4644 4.20792 18.5083 4.19046 18.5415 4.15912C18.5747 4.12778 18.5946 4.08493 18.5972 4.03937V2.65995C18.6008 2.65717 18.6041 2.65409 18.607 2.65072C18.8309 2.37749 19.0789 2.20917 19.3171 2.13481C19.4537 2.09057 19.6 2.08538 19.7394 2.11982C19.8528 2.15055 19.9525 2.21883 20.022 2.31351C20.0995 2.4334 20.1376 2.57445 20.131 2.71701V4.03533C20.131 4.08272 20.1499 4.12818 20.1834 4.16169C20.2169 4.1952 20.2624 4.21403 20.3099 4.21403C20.3573 4.21403 20.4028 4.1952 20.4363 4.16169C20.4698 4.12818 20.4887 4.08272 20.4887 4.03533V2.71528C20.4948 2.49968 20.4322 2.28772 20.3099 2.11002C20.193 1.9467 20.0229 1.82911 19.8288 1.77742Z" fill="#C7C7C7"/>
</g>
<g id="Vector_5">
<path fill-rule="evenodd" clip-rule="evenodd" d="M22.8664 3.60285C22.7001 3.76791 22.4752 3.86054 22.2408 3.86054C22.0064 3.86054 21.7815 3.76791 21.6152 3.60285C21.45 3.43666 21.3573 3.21193 21.3573 2.9777C21.3573 2.74347 21.45 2.51874 21.6152 2.35255C21.7821 2.18827 22.0068 2.09579 22.2411 2.09488C22.4159 2.09499 22.5867 2.14686 22.732 2.24393C22.8773 2.341 22.9905 2.47893 23.0574 2.64028C23.1243 2.80164 23.1419 2.97918 23.1079 3.1505C23.0739 3.32183 22.9898 3.47923 22.8664 3.60285ZM22.2411 1.74268C21.9179 1.74965 21.6104 1.88284 21.3843 2.11369C21.1582 2.34454 21.0316 2.65469 21.0316 2.9777C21.0316 3.3007 21.1582 3.61086 21.3843 3.84171C21.6104 4.07256 21.9179 4.20574 22.2411 4.21272C22.5642 4.20574 22.8718 4.07256 23.0979 3.84171C23.3239 3.61086 23.4505 3.3007 23.4505 2.9777C23.4505 2.65469 23.3239 2.34454 23.0979 2.11369C22.8718 1.88284 22.5642 1.74965 22.2411 1.74268Z" fill="#C7C7C7"/>
<path fill-rule="evenodd" clip-rule="evenodd" d="M22.8664 3.60285C22.7001 3.76791 22.4752 3.86054 22.2408 3.86054C22.0064 3.86054 21.7815 3.76791 21.6152 3.60285C21.45 3.43666 21.3573 3.21193 21.3573 2.9777C21.3573 2.74347 21.45 2.51874 21.6152 2.35255C21.7821 2.18827 22.0068 2.09579 22.2411 2.09488C22.4159 2.09499 22.5867 2.14686 22.732 2.24393C22.8773 2.341 22.9905 2.47893 23.0574 2.64028C23.1243 2.80164 23.1419 2.97918 23.1079 3.1505C23.0739 3.32183 22.9898 3.47923 22.8664 3.60285ZM22.2411 1.74268C21.9179 1.74965 21.6104 1.88284 21.3843 2.11369C21.1582 2.34454 21.0316 2.65469 21.0316 2.9777C21.0316 3.3007 21.1582 3.61086 21.3843 3.84171C21.6104 4.07256 21.9179 4.20574 22.2411 4.21272C22.5642 4.20574 22.8718 4.07256 23.0979 3.84171C23.3239 3.61086 23.4505 3.3007 23.4505 2.9777C23.4505 2.65469 23.3239 2.34454 23.0979 2.11369C22.8718 1.88284 22.5642 1.74965 22.2411 1.74268Z" fill="#C7C7C7"/>
</g>
<g id="Vector_6">
<path fill-rule="evenodd" clip-rule="evenodd" d="M25.8746 3.60285C25.7082 3.76783 25.4837 3.86097 25.2493 3.86225C25.0745 3.86214 24.9037 3.81027 24.7584 3.7132C24.6131 3.61612 24.4999 3.4782 24.4329 3.31685C24.366 3.15549 24.3485 2.97794 24.3825 2.80662C24.4165 2.6353 24.5005 2.4779 24.624 2.35428C24.7907 2.18993 25.0152 2.09743 25.2493 2.09661C25.4237 2.09706 25.5941 2.14905 25.7391 2.24604C25.884 2.34303 25.997 2.48068 26.0638 2.64168C26.1306 2.80268 26.1483 2.97984 26.1147 3.15086C26.081 3.32189 25.9975 3.47915 25.8746 3.60285ZM25.2539 1.74268C25.0917 1.74249 24.931 1.77437 24.7811 1.8365C24.6312 1.89863 24.4951 1.98977 24.3806 2.10468C24.3661 2.11661 24.3527 2.12993 24.3408 2.14446V1.92137C24.3408 1.87398 24.322 1.82853 24.2884 1.79502C24.2549 1.7615 24.2094 1.74268 24.162 1.74268C24.1145 1.74268 24.0691 1.7615 24.0355 1.79502C24.002 1.82853 23.9832 1.87398 23.9832 1.92137V5.43305C23.9832 5.48044 24.002 5.52589 24.0355 5.55941C24.0691 5.59292 24.1145 5.61174 24.162 5.61174C24.2094 5.61174 24.2549 5.59292 24.2884 5.55941C24.322 5.52589 24.3408 5.48044 24.3408 5.43305V3.81094C24.3552 3.82302 24.3685 3.83633 24.3806 3.85072C24.5243 3.99426 24.7012 4.10017 24.8957 4.15906C25.0901 4.21796 25.2961 4.22803 25.4954 4.18837C25.6946 4.14871 25.8811 4.06056 26.0381 3.93172C26.1951 3.80288 26.318 3.63732 26.3957 3.44972C26.4734 3.26211 26.5036 3.05825 26.4837 2.85618C26.4637 2.65412 26.3942 2.46009 26.2813 2.29128C26.1684 2.12247 26.0156 1.98409 25.8364 1.8884C25.6572 1.7927 25.4571 1.74265 25.2539 1.74268Z" fill="#C7C7C7"/>
<path fill-rule="evenodd" clip-rule="evenodd" d="M25.8746 3.60285C25.7082 3.76783 25.4837 3.86097 25.2493 3.86225C25.0745 3.86214 24.9037 3.81027 24.7584 3.7132C24.6131 3.61612 24.4999 3.4782 24.4329 3.31685C24.366 3.15549 24.3485 2.97794 24.3825 2.80662C24.4165 2.6353 24.5005 2.4779 24.624 2.35428C24.7907 2.18993 25.0152 2.09743 25.2493 2.09661C25.4237 2.09706 25.5941 2.14905 25.7391 2.24604C25.884 2.34303 25.997 2.48068 26.0638 2.64168C26.1306 2.80268 26.1483 2.97984 26.1147 3.15086C26.081 3.32189 25.9975 3.47915 25.8746 3.60285ZM25.2539 1.74268C25.0917 1.74249 24.931 1.77437 24.7811 1.8365C24.6312 1.89863 24.4951 1.98977 24.3806 2.10468C24.3661 2.11661 24.3527 2.12993 24.3408 2.14446V1.92137C24.3408 1.87398 24.322 1.82853 24.2884 1.79502C24.2549 1.7615 24.2094 1.74268 24.162 1.74268C24.1145 1.74268 24.0691 1.7615 24.0355 1.79502C24.002 1.82853 23.9832 1.87398 23.9832 1.92137V5.43305C23.9832 5.48044 24.002 5.52589 24.0355 5.55941C24.0691 5.59292 24.1145 5.61174 24.162 5.61174C24.2094 5.61174 24.2549 5.59292 24.2884 5.55941C24.322 5.52589 24.3408 5.48044 24.3408 5.43305V3.81094C24.3552 3.82302 24.3685 3.83633 24.3806 3.85072C24.5243 3.99426 24.7012 4.10017 24.8957 4.15906C25.0901 4.21796 25.2961 4.22803 25.4954 4.18837C25.6946 4.14871 25.8811 4.06056 26.0381 3.93172C26.1951 3.80288 26.318 3.63732 26.3957 3.44972C26.4734 3.26211 26.5036 3.05825 26.4837 2.85618C26.4637 2.65412 26.3942 2.46009 26.2813 2.29128C26.1684 2.12247 26.0156 1.98409 25.8364 1.8884C25.6572 1.7927 25.4571 1.74265 25.2539 1.74268Z" fill="#C7C7C7"/>
</g>
<g id="Vector_7">
<path fill-rule="evenodd" clip-rule="evenodd" d="M27.3997 2.70481C27.4439 2.56052 27.5232 2.42942 27.6304 2.32321C27.7005 2.25235 27.784 2.19608 27.8759 2.15768C27.9679 2.11928 28.0666 2.09951 28.1663 2.09951C28.266 2.09951 28.3647 2.11928 28.4567 2.15768C28.5487 2.19608 28.6321 2.25235 28.7022 2.32321C28.8088 2.43142 28.8903 2.56168 28.941 2.70481H27.3997ZM28.9537 2.07073C28.8517 1.96627 28.7296 1.88343 28.5948 1.82718C28.46 1.77092 28.3153 1.7424 28.1692 1.74331C28.0229 1.74087 27.8777 1.7687 27.7427 1.82505C27.6077 1.8814 27.4858 1.96504 27.3847 2.07073C26.9578 2.53188 26.963 3.0282 27.1315 3.52912C27.2068 3.74265 27.3543 3.92324 27.5485 4.03985C27.7461 4.16297 27.9764 4.22327 28.209 4.21278C28.493 4.2023 28.7725 4.13835 29.0327 4.02428C29.0556 4.01609 29.0765 4.00333 29.0942 3.98678C29.1119 3.97023 29.1261 3.95024 29.1358 3.92803C29.1455 3.90583 29.1506 3.88187 29.1507 3.85763C29.1509 3.8334 29.1461 3.80939 29.1366 3.78707C29.1271 3.76476 29.1132 3.74461 29.0956 3.72787C29.0781 3.71112 29.0573 3.69813 29.0346 3.68968C29.0119 3.68124 28.9876 3.67752 28.9634 3.67876C28.9392 3.67999 28.9155 3.68615 28.8937 3.69687C28.6761 3.79671 28.4408 3.85235 28.2015 3.86057C28.0378 3.8664 27.8758 3.82519 27.7348 3.74183C27.6098 3.65672 27.513 3.53631 27.4568 3.39596C27.4188 3.28998 27.3923 3.18021 27.3778 3.06855H29.0206C29.11 3.06855 29.4031 3.08815 29.2514 2.58722C29.1968 2.3925 29.0941 2.21466 28.9526 2.07015L28.9537 2.07073Z" fill="#C7C7C7"/>
<path fill-rule="evenodd" clip-rule="evenodd" d="M27.3997 2.70481C27.4439 2.56052 27.5232 2.42942 27.6304 2.32321C27.7005 2.25235 27.784 2.19608 27.8759 2.15768C27.9679 2.11928 28.0666 2.09951 28.1663 2.09951C28.266 2.09951 28.3647 2.11928 28.4567 2.15768C28.5487 2.19608 28.6321 2.25235 28.7022 2.32321C28.8088 2.43142 28.8903 2.56168 28.941 2.70481H27.3997ZM28.9537 2.07073C28.8517 1.96627 28.7296 1.88343 28.5948 1.82718C28.46 1.77092 28.3153 1.7424 28.1692 1.74331C28.0229 1.74087 27.8777 1.7687 27.7427 1.82505C27.6077 1.8814 27.4858 1.96504 27.3847 2.07073C26.9578 2.53188 26.963 3.0282 27.1315 3.52912C27.2068 3.74265 27.3543 3.92324 27.5485 4.03985C27.7461 4.16297 27.9764 4.22327 28.209 4.21278C28.493 4.2023 28.7725 4.13835 29.0327 4.02428C29.0556 4.01609 29.0765 4.00333 29.0942 3.98678C29.1119 3.97023 29.1261 3.95024 29.1358 3.92803C29.1455 3.90583 29.1506 3.88187 29.1507 3.85763C29.1509 3.8334 29.1461 3.80939 29.1366 3.78707C29.1271 3.76476 29.1132 3.74461 29.0956 3.72787C29.0781 3.71112 29.0573 3.69813 29.0346 3.68968C29.0119 3.68124 28.9876 3.67752 28.9634 3.67876C28.9392 3.67999 28.9155 3.68615 28.8937 3.69687C28.6761 3.79671 28.4408 3.85235 28.2015 3.86057C28.0378 3.8664 27.8758 3.82519 27.7348 3.74183C27.6098 3.65672 27.513 3.53631 27.4568 3.39596C27.4188 3.28998 27.3923 3.18021 27.3778 3.06855H29.0206C29.11 3.06855 29.4031 3.08815 29.2514 2.58722C29.1968 2.3925 29.0941 2.21466 28.9526 2.07015L28.9537 2.07073Z" fill="#C7C7C7"/>
</g>
<g id="Vector_8">
<path fill-rule="evenodd" clip-rule="evenodd" d="M30.1108 2.70459C30.1548 2.56018 30.2341 2.42902 30.3416 2.32299C30.4117 2.25211 30.4952 2.19583 30.5872 2.15743C30.6793 2.11902 30.778 2.09924 30.8777 2.09924C30.9775 2.09924 31.0762 2.11902 31.1683 2.15743C31.2603 2.19583 31.3438 2.25211 31.4139 2.32299C31.5203 2.43126 31.6016 2.56152 31.6522 2.70459H30.1108ZM32.0017 2.89078V2.76051C31.9936 2.70185 31.9805 2.64399 31.9625 2.58758C31.9086 2.39222 31.806 2.21372 31.6643 2.06878C31.5624 1.96428 31.4404 1.88142 31.3057 1.82516C31.171 1.7689 31.0263 1.7404 30.8803 1.74136C30.734 1.73889 30.5888 1.7667 30.4538 1.82305C30.3188 1.8794 30.1969 1.96306 30.0958 2.06878C29.669 2.52993 29.6736 3.02625 29.8426 3.52717C29.9178 3.74079 30.0653 3.92145 30.2597 4.0379C30.4572 4.16102 30.6875 4.22132 30.9201 4.21083C31.2041 4.20035 31.4836 4.1364 31.7439 4.02234C31.7667 4.01414 31.7876 4.00138 31.8053 3.98483C31.8231 3.96828 31.8372 3.94829 31.8469 3.92609C31.8567 3.90388 31.8617 3.87993 31.8619 3.85569C31.862 3.83145 31.8572 3.80744 31.8477 3.78513C31.8382 3.76281 31.8243 3.74267 31.8068 3.72592C31.7892 3.70917 31.7685 3.69618 31.7457 3.68774C31.723 3.67929 31.6988 3.67557 31.6745 3.67681C31.6503 3.67804 31.6266 3.68421 31.6049 3.69492C31.3872 3.79476 31.152 3.85041 30.9126 3.85863C30.7489 3.86445 30.587 3.82324 30.446 3.73988C30.3208 3.65493 30.224 3.53447 30.1679 3.39402C30.13 3.28798 30.1033 3.17823 30.0883 3.0666H31.7318C31.7969 3.06718 31.97 3.07755 32 2.89078H32.0017Z" fill="#C7C7C7"/>
<path fill-rule="evenodd" clip-rule="evenodd" d="M30.1108 2.70459C30.1548 2.56018 30.2341 2.42902 30.3416 2.32299C30.4117 2.25211 30.4952 2.19583 30.5872 2.15743C30.6793 2.11902 30.778 2.09924 30.8777 2.09924C30.9775 2.09924 31.0762 2.11902 31.1683 2.15743C31.2603 2.19583 31.3438 2.25211 31.4139 2.32299C31.5203 2.43126 31.6016 2.56152 31.6522 2.70459H30.1108ZM32.0017 2.89078V2.76051C31.9936 2.70185 31.9805 2.64399 31.9625 2.58758C31.9086 2.39222 31.806 2.21372 31.6643 2.06878C31.5624 1.96428 31.4404 1.88142 31.3057 1.82516C31.171 1.7689 31.0263 1.7404 30.8803 1.74136C30.734 1.73889 30.5888 1.7667 30.4538 1.82305C30.3188 1.8794 30.1969 1.96306 30.0958 2.06878C29.669 2.52993 29.6736 3.02625 29.8426 3.52717C29.9178 3.74079 30.0653 3.92145 30.2597 4.0379C30.4572 4.16102 30.6875 4.22132 30.9201 4.21083C31.2041 4.20035 31.4836 4.1364 31.7439 4.02234C31.7667 4.01414 31.7876 4.00138 31.8053 3.98483C31.8231 3.96828 31.8372 3.94829 31.8469 3.92609C31.8567 3.90388 31.8617 3.87993 31.8619 3.85569C31.862 3.83145 31.8572 3.80744 31.8477 3.78513C31.8382 3.76281 31.8243 3.74267 31.8068 3.72592C31.7892 3.70917 31.7685 3.69618 31.7457 3.68774C31.723 3.67929 31.6988 3.67557 31.6745 3.67681C31.6503 3.67804 31.6266 3.68421 31.6049 3.69492C31.3872 3.79476 31.152 3.85041 30.9126 3.85863C30.7489 3.86445 30.587 3.82324 30.446 3.73988C30.3208 3.65493 30.224 3.53447 30.1679 3.39402C30.13 3.28798 30.1033 3.17823 30.0883 3.0666H31.7318C31.7969 3.06718 31.97 3.07755 32 2.89078H32.0017Z" fill="#C7C7C7"/>
</g>
<g id="Vector_9">
<path fill-rule="evenodd" clip-rule="evenodd" d="M18.0123 8.81979H16.1572V6.12609H17.83C17.8587 6.1259 17.8874 6.12744 17.9159 6.1307C18.1709 6.15894 19.2842 6.35147 19.2842 7.5447C19.2842 8.81864 18.0111 8.81864 18.0111 8.81864L18.0123 8.81979ZM17.6846 5.09945H15.1131V11.9689H16.1572V9.91848H17.7965C18.3467 9.92382 18.8882 9.78127 19.3644 9.50575C19.9268 9.17315 20.4886 8.58691 20.4886 7.57353C20.4886 6.62298 19.9949 6.02002 19.4699 5.64706C18.9461 5.28379 18.3222 5.09204 17.6846 5.09829V5.09945Z" fill="#C7C7C7"/>
<path fill-rule="evenodd" clip-rule="evenodd" d="M18.0123 8.81979H16.1572V6.12609H17.83C17.8587 6.1259 17.8874 6.12744 17.9159 6.1307C18.1709 6.15894 19.2842 6.35147 19.2842 7.5447C19.2842 8.81864 18.0111 8.81864 18.0111 8.81864L18.0123 8.81979ZM17.6846 5.09945H15.1131V11.9689H16.1572V9.91848H17.7965C18.3467 9.92382 18.8882 9.78127 19.3644 9.50575C19.9268 9.17315 20.4886 8.58691 20.4886 7.57353C20.4886 6.62298 19.9949 6.02002 19.4699 5.64706C18.9461 5.28379 18.3222 5.09204 17.6846 5.09829V5.09945Z" fill="#C7C7C7"/>
</g>
<g id="Vector_10">
<path fill-rule="evenodd" clip-rule="evenodd" d="M23.0734 11.0228C22.7676 11.0228 22.4685 10.9322 22.2142 10.7624C21.9598 10.5926 21.7615 10.3513 21.6444 10.069C21.5272 9.78661 21.4964 9.47587 21.5559 9.17604C21.6154 8.87621 21.7625 8.60073 21.9787 8.38443C22.1948 8.16812 22.4703 8.0207 22.7702 7.96078C23.0702 7.90087 23.3811 7.93116 23.6639 8.04782C23.9466 8.16448 24.1884 8.36228 24.3587 8.61621C24.5289 8.87015 24.6201 9.16883 24.6205 9.4745V9.47853C24.6202 9.88831 24.4571 10.2812 24.1669 10.5708C23.8768 10.8604 23.4835 11.023 23.0734 11.0228ZM24.6205 7.08574V7.56937C24.2597 7.27674 23.8233 7.09226 23.3619 7.0373C22.9005 6.98233 22.433 7.05914 22.0134 7.25882C21.5939 7.4585 21.2396 7.77287 20.9915 8.16552C20.7435 8.55817 20.6118 9.01303 20.6118 9.47738C20.6118 9.94174 20.7435 10.3966 20.9915 10.7892C21.2396 11.1819 21.5939 11.4963 22.0134 11.6959C22.433 11.8956 22.9005 11.9724 23.3619 11.9175C23.8233 11.8625 24.2597 11.678 24.6205 11.3854V11.9324H25.6634V7.08574H24.6205Z" fill="#C7C7C7"/>
<path fill-rule="evenodd" clip-rule="evenodd" d="M23.0734 11.0228C22.7676 11.0228 22.4685 10.9322 22.2142 10.7624C21.9598 10.5926 21.7615 10.3513 21.6444 10.069C21.5272 9.78661 21.4964 9.47587 21.5559 9.17604C21.6154 8.87621 21.7625 8.60073 21.9787 8.38443C22.1948 8.16812 22.4703 8.0207 22.7702 7.96078C23.0702 7.90087 23.3811 7.93116 23.6639 8.04782C23.9466 8.16448 24.1884 8.36228 24.3587 8.61621C24.5289 8.87015 24.6201 9.16883 24.6205 9.4745V9.47853C24.6202 9.88831 24.4571 10.2812 24.1669 10.5708C23.8768 10.8604 23.4835 11.023 23.0734 11.0228ZM24.6205 7.08574V7.56937C24.2597 7.27674 23.8233 7.09226 23.3619 7.0373C22.9005 6.98233 22.433 7.05914 22.0134 7.25882C21.5939 7.4585 21.2396 7.77287 20.9915 8.16552C20.7435 8.55817 20.6118 9.01303 20.6118 9.47738C20.6118 9.94174 20.7435 10.3966 20.9915 10.7892C21.2396 11.1819 21.5939 11.4963 22.0134 11.6959C22.433 11.8956 22.9005 11.9724 23.3619 11.9175C23.8233 11.8625 24.2597 11.678 24.6205 11.3854V11.9324H25.6634V7.08574H24.6205Z" fill="#C7C7C7"/>
</g>
<g id="Vector_11">
<path fill-rule="evenodd" clip-rule="evenodd" d="M26.133 7.01953H27.5278L29.1643 10.1496L30.7431 7.01953H32V7.02818L28.2517 14.0002H27.0236L28.4548 11.4091L26.133 7.01953Z" fill="#C7C7C7"/>
<path fill-rule="evenodd" clip-rule="evenodd" d="M26.133 7.01953H27.5278L29.1643 10.1496L30.7431 7.01953H32V7.02818L28.2517 14.0002H27.0236L28.4548 11.4091L26.133 7.01953Z" fill="#C7C7C7"/>
</g>
</g>
</g>
<defs>
<clipPath id="clip0_3472_2916">
<rect width="32" height="14" fill="white"/>
</clipPath>
</defs>
</svg>
