<svg width="60" height="60" viewBox="0 0 60 60" fill="none" xmlns="http://www.w3.org/2000/svg">
<path d="M42.501 23.75C42.501 20.75 45.001 20 46.301 20C48.3985 20 50.001 21.68 50.001 23.75V40C50.001 50 42.166 55 32.501 55C22.836 55 19.511 52.5 12.011 40L8.08347 33.4875C6.74347 31.3175 7.81597 28.5025 10.286 27.7025C11.0936 27.4387 11.9629 27.4295 12.7759 27.6764C13.5889 27.9232 14.3064 28.4141 14.831 29.0825L20.001 35.0825M20.001 35V13.8" stroke="#386EDC" stroke-width="2.6" stroke-linecap="round" stroke-linejoin="round"/>
<path d="M42.501 27.5V18.75C42.501 17.7554 42.1059 16.8016 41.4026 16.0984C40.6994 15.3951 39.7455 15 38.751 15C37.7564 15 36.8026 15.3951 36.0993 16.0984C35.3961 16.8016 35.001 17.7554 35.001 18.75V27.5V16.25C35.001 15.2554 34.6059 14.3016 33.9026 13.5984C33.1994 12.8951 32.2455 12.5 31.251 12.5C30.2564 12.5 29.3026 12.8951 28.5993 13.5984C27.8961 14.3016 27.501 15.2554 27.501 16.25V27.5V6.25C27.501 5.25544 27.1059 4.30161 26.4026 3.59835C25.6994 2.89509 24.7455 2.5 23.751 2.5C22.7564 2.5 21.8026 2.89509 21.0993 3.59835C20.3961 4.30161 20.001 5.25544 20.001 6.25V27.5" stroke="#386EDC" stroke-width="2.6" stroke-linecap="round" stroke-linejoin="round"/>
</svg>
