<svg width="60" height="60" viewBox="0 0 60 60" fill="none" xmlns="http://www.w3.org/2000/svg">
<path d="M10.001 28.75L8.78848 29.0525C7.70678 29.3229 6.74649 29.9471 6.06024 30.8258C5.37399 31.7046 5.00115 32.7875 5.00098 33.9025V38.595C5.00115 39.71 5.37399 40.7929 6.06024 41.6717C6.74649 42.5504 7.70678 43.1746 8.78848 43.445L13.1385 44.5325C13.3595 44.5875 13.5902 44.5915 13.813 44.5441C14.0358 44.4968 14.2449 44.3993 14.4244 44.259C14.6039 44.1188 14.7491 43.9395 14.849 43.7348C14.9489 43.5301 15.0009 43.3053 15.001 43.0775V29.42C15.001 29.1919 14.949 28.9669 14.849 28.7619C14.7489 28.557 14.6035 28.3775 14.4236 28.2373C14.2438 28.097 14.0344 27.9995 13.8113 27.9524C13.5881 27.9052 13.3572 27.9095 13.136 27.965L10.001 28.75ZM10.001 28.75V27.5C10.001 22.1957 12.1081 17.1086 15.8588 13.3579C19.6096 9.60714 24.6966 7.5 30.001 7.5C35.3053 7.5 40.3924 9.60714 44.1431 13.3579C47.8938 17.1086 50.001 22.1957 50.001 27.5V28.75M50.001 28.75L51.2135 29.0525C52.2952 29.3229 53.2555 29.9471 53.9417 30.8258C54.628 31.7046 55.0008 32.7875 55.001 33.9025V38.595C55.0008 39.71 54.628 40.7929 53.9417 41.6717C53.2555 42.5504 52.2952 43.1746 51.2135 43.445L50.001 43.75M50.001 28.75L46.8635 27.965C46.6424 27.9099 46.4118 27.906 46.1889 27.9534C45.9661 28.0007 45.757 28.0982 45.5775 28.2385C45.398 28.3787 45.2528 28.558 45.1529 28.7627C45.053 28.9674 45.0011 29.1922 45.001 29.42V43.0775C45.0011 43.3053 45.053 43.5301 45.1529 43.7348C45.2528 43.9395 45.398 44.1188 45.5775 44.259C45.757 44.3993 45.9661 44.4968 46.1889 44.5441C46.4118 44.5915 46.6424 44.5875 46.8635 44.5325L50.001 43.75M50.001 43.75V46.25C50.001 47.5761 49.4742 48.8479 48.5365 49.7855C47.5988 50.7232 46.3271 51.25 45.001 51.25H37.501M37.501 51.25C37.501 50.2554 37.1059 49.3016 36.4026 48.5984C35.6994 47.8951 34.7455 47.5 33.751 47.5H26.251C25.2564 47.5 24.3026 47.8951 23.5993 48.5984C22.8961 49.3016 22.501 50.2554 22.501 51.25C22.501 52.2446 22.8961 53.1984 23.5993 53.9016C24.3026 54.6049 25.2564 55 26.251 55H33.751C34.7455 55 35.6994 54.6049 36.4026 53.9016C37.1059 53.1984 37.501 52.2446 37.501 51.25Z" stroke="#386EDC" stroke-width="2.8"/>
</svg>
