<svg width="60" height="60" viewBox="0 0 60 60" fill="none" xmlns="http://www.w3.org/2000/svg">
<path d="M30.001 55C43.8085 55 55.001 43.8075 55.001 30C55.001 16.1925 43.8085 5 30.001 5C16.1935 5 5.00098 16.1925 5.00098 30C5.00098 43.8075 16.1935 55 30.001 55Z" stroke="#386EDC" stroke-width="3" stroke-linecap="round" stroke-linejoin="round"/>
<path d="M37.501 21.25C35.7885 19.5375 32.7735 18.3475 30.001 18.2725M30.001 18.2725C26.701 18.1825 23.751 19.675 23.751 23.75C23.751 31.25 37.501 27.5 37.501 35C37.501 39.2775 33.841 41.115 30.001 40.9775M30.001 18.2725V13.75M22.501 37.5C24.111 39.65 27.1085 40.875 30.001 40.9775M30.001 40.9775V46.25" stroke="#386EDC" stroke-width="3" stroke-linecap="round" stroke-linejoin="round"/>
</svg>
