<svg width="60" height="60" viewBox="0 0 60 60" fill="none" xmlns="http://www.w3.org/2000/svg">
<path d="M54.7873 29.1598C52.6311 19.4121 49.433 13.1941 44.3073 11.6789C43.3145 11.3893 42.2851 11.2448 41.251 11.25C38.0998 11.25 35.6131 13.125 30.001 13.125C24.3889 13.125 21.8975 11.25 18.751 11.25C17.6738 11.2444 16.601 11.3888 15.5635 11.6789C10.4307 13.1941 7.2596 19.418 5.07874 29.1598C2.85218 39.1102 3.2553 46.9723 7.60765 48.4816C10.6545 49.5363 13.3791 47.3555 15.9596 44.1457C18.8893 40.4895 22.4975 39.3645 30.001 39.3645C37.5045 39.3645 40.9721 40.4895 43.9065 44.1457C46.4846 47.3578 49.31 49.5117 52.276 48.5004C57.083 46.8586 57.0151 39.2273 54.7873 29.1598Z" stroke="#386EDC" stroke-width="2.8" stroke-miterlimit="10"/>
<path d="M35.1572 28.8281C36.1928 28.8281 37.0322 27.9887 37.0322 26.9531C37.0322 25.9176 36.1928 25.0781 35.1572 25.0781C34.1217 25.0781 33.2822 25.9176 33.2822 26.9531C33.2822 27.9887 34.1217 28.8281 35.1572 28.8281Z" fill="#386EDC"/>
<path d="M40.3135 33.9844C39.9424 33.9844 39.5797 33.8743 39.2713 33.6681C38.9628 33.4618 38.7225 33.1687 38.5808 32.8258C38.439 32.4829 38.4021 32.1057 38.4748 31.7419C38.5476 31.378 38.7266 31.0439 38.9893 30.7819C39.252 30.5199 39.5865 30.3417 39.9506 30.2698C40.3146 30.198 40.6917 30.2358 41.0343 30.3785C41.3768 30.5211 41.6693 30.7621 41.8748 31.0711C42.0802 31.3801 42.1894 31.743 42.1885 32.1141C42.1872 32.6105 41.9891 33.0862 41.6376 33.4369C41.2861 33.7875 40.8099 33.9844 40.3135 33.9844Z" fill="#386EDC"/>
<path d="M40.3135 23.6719C41.349 23.6719 42.1885 22.8324 42.1885 21.7969C42.1885 20.7613 41.349 19.9219 40.3135 19.9219C39.2779 19.9219 38.4385 20.7613 38.4385 21.7969C38.4385 22.8324 39.2779 23.6719 40.3135 23.6719Z" fill="#386EDC"/>
<path d="M45.4697 28.8281C46.5053 28.8281 47.3447 27.9887 47.3447 26.9531C47.3447 25.9176 46.5053 25.0781 45.4697 25.0781C44.4342 25.0781 43.5947 25.9176 43.5947 26.9531C43.5947 27.9887 44.4342 28.8281 45.4697 28.8281Z" fill="#386EDC"/>
<path d="M18.751 20.625V31.875M24.376 26.25H13.126" stroke="#386EDC" stroke-width="2.8" stroke-linecap="round" stroke-linejoin="round"/>
</svg>
