<svg width="60" height="60" viewBox="0 0 60 60" fill="none" xmlns="http://www.w3.org/2000/svg">
<path d="M48.751 16.875H11.251C8.14437 16.875 5.62598 19.3934 5.62598 22.5V45C5.62598 48.1066 8.14437 50.625 11.251 50.625H48.751C51.8576 50.625 54.376 48.1066 54.376 45V22.5C54.376 19.3934 51.8576 16.875 48.751 16.875Z" stroke="#386EDC" stroke-width="3" stroke-linejoin="round"/>
<path d="M48.2072 16.875V13.3594C48.2069 12.4971 48.0164 11.6456 47.6491 10.8654C47.2818 10.0853 46.7469 9.39586 46.0824 8.84628C45.418 8.29671 44.6405 7.90054 43.8053 7.68606C42.9702 7.47158 42.098 7.44406 41.251 7.60548L10.3885 12.8731C9.04823 13.1285 7.83913 13.8436 6.9697 14.8951C6.10028 15.9465 5.62505 17.2685 5.62598 18.6328V24.375" stroke="#386EDC" stroke-width="3" stroke-linejoin="round"/>
<path d="M43.126 37.5C42.3843 37.5 41.6593 37.2801 41.0426 36.868C40.4259 36.456 39.9453 35.8703 39.6614 35.1851C39.3776 34.4998 39.3033 33.7458 39.448 33.0184C39.5927 32.291 39.9499 31.6228 40.4743 31.0984C40.9988 30.5739 41.667 30.2168 42.3944 30.0721C43.1218 29.9274 43.8758 30.0016 44.561 30.2855C45.2463 30.5693 45.8319 31.0499 46.244 31.6666C46.656 32.2833 46.876 33.0083 46.876 33.75C46.876 34.7446 46.4809 35.6984 45.7776 36.4017C45.0744 37.1049 44.1205 37.5 43.126 37.5Z" fill="#386EDC"/>
</svg>
