<svg width="60" height="60" viewBox="0 0 60 60" fill="none" xmlns="http://www.w3.org/2000/svg">
<path d="M53.9569 30.0784C54.2498 25.1818 52.9948 20.3162 50.3654 16.1537C47.7359 11.9912 43.8617 8.73704 39.2778 6.84065C34.6938 4.94427 29.6263 4.49923 24.7751 5.56698C19.9238 6.63474 15.5282 9.16261 12.1953 12.8015C8.8623 16.4404 6.75644 21.0108 6.16851 25.8814C5.58058 30.7521 6.53958 35.6828 8.91308 39.9925C11.2866 44.3022 14.9575 47.7783 19.4188 49.9408C23.8801 52.1033 28.9117 52.8455 33.8188 52.0649" stroke="#386EDC" stroke-width="3.4" stroke-linecap="round" stroke-linejoin="round"/>
<path d="M30.0007 15.5259V28.6836L38.0005 36.5782M48.6668 39.2097L43.3337 47.1043H54L48.6668 54.999" stroke="#386EDC" stroke-width="3.4" stroke-linecap="round" stroke-linejoin="round"/>
</svg>
