<svg width="41" height="12" viewBox="0 0 41 12" fill="none" xmlns="http://www.w3.org/2000/svg">
<g id="Bank Syariah Indonesia">
<g id="Bank Syariah Indonesia_2">
<g id="Vector">
<path d="M13.5831 3.36328H13.5687V3.36464C13.5736 3.36418 13.5776 3.3638 13.5831 3.36328Z" fill="#C7C7C7"/>
<path d="M13.5831 3.36328H13.5687V3.36464C13.5736 3.36418 13.5776 3.3638 13.5831 3.36328Z" fill="#C7C7C7"/>
</g>
<g id="Vector_2">
<path d="M13.6737 3.23193V11.6354H15.6395V5.33746C15.6395 4.8671 15.3898 3.44609 13.6737 3.23193Z" fill="#C7C7C7"/>
<path d="M13.6737 3.23193V11.6354H15.6395V5.33746C15.6395 4.8671 15.3898 3.44609 13.6737 3.23193Z" fill="#C7C7C7"/>
</g>
<g id="Vector_3">
<path d="M3.22468 10.1727C3.47468 10.1727 3.67902 10.1409 3.83779 10.0771C3.99636 10.0133 4.12049 9.93087 4.21022 9.82961C4.2997 9.72835 4.36123 9.61395 4.39487 9.48641C4.42845 9.35906 4.44521 9.22964 4.44521 9.09839C4.44521 8.94842 4.42563 8.8134 4.38636 8.69328C4.34734 8.57328 4.28006 8.47215 4.18483 8.38955C4.08978 8.30708 3.96372 8.24328 3.80696 8.19828C3.6502 8.15333 3.45235 8.13077 3.21342 8.13077H1.89229V10.1727H3.22468ZM1.89229 4.83435V6.85948H2.87764C3.08655 6.85948 3.27514 6.84452 3.4431 6.81447C3.61093 6.78443 3.75381 6.73201 3.8713 6.65689C3.9888 6.58197 4.07853 6.47888 4.14006 6.34757C4.20159 6.21633 4.23248 6.05133 4.23248 5.85257C4.23248 5.65759 4.20815 5.49535 4.15969 5.36599C4.11111 5.23657 4.03645 5.13254 3.93571 5.05372C3.83497 4.97496 3.70704 4.91876 3.55227 4.88495C3.39739 4.85119 3.21342 4.83435 3.00082 4.83435H1.89229ZM3.00082 3.41113C3.56434 3.41113 4.04401 3.46374 4.43964 3.56865C4.83514 3.67375 5.15811 3.82178 5.40823 4.01305C5.65816 4.20433 5.84006 4.4369 5.95406 4.71058C6.0678 4.98439 6.12476 5.29 6.12476 5.62754C6.12476 5.81127 6.09863 5.98853 6.04654 6.15912C5.9942 6.32985 5.91197 6.48913 5.80005 6.63722C5.68805 6.78544 5.54436 6.92133 5.36896 7.04516C5.19344 7.16886 4.98271 7.27578 4.73641 7.36567C5.27373 7.49698 5.6713 7.70881 5.9288 8.00141C6.18629 8.29388 6.31523 8.67272 6.31523 9.13768C6.31523 9.48641 6.24801 9.81094 6.11357 10.1109C5.97926 10.411 5.78222 10.6725 5.52285 10.8956C5.26354 11.1187 4.94345 11.2931 4.5627 11.4188C4.18214 11.5445 3.74724 11.6072 3.25838 11.6072H0V3.41113H3.00082Z" fill="#C7C7C7"/>
<path d="M3.22468 10.1727C3.47468 10.1727 3.67902 10.1409 3.83779 10.0771C3.99636 10.0133 4.12049 9.93087 4.21022 9.82961C4.2997 9.72835 4.36123 9.61395 4.39487 9.48641C4.42845 9.35906 4.44521 9.22964 4.44521 9.09839C4.44521 8.94842 4.42563 8.8134 4.38636 8.69328C4.34734 8.57328 4.28006 8.47215 4.18483 8.38955C4.08978 8.30708 3.96372 8.24328 3.80696 8.19828C3.6502 8.15333 3.45235 8.13077 3.21342 8.13077H1.89229V10.1727H3.22468ZM1.89229 4.83435V6.85948H2.87764C3.08655 6.85948 3.27514 6.84452 3.4431 6.81447C3.61093 6.78443 3.75381 6.73201 3.8713 6.65689C3.9888 6.58197 4.07853 6.47888 4.14006 6.34757C4.20159 6.21633 4.23248 6.05133 4.23248 5.85257C4.23248 5.65759 4.20815 5.49535 4.15969 5.36599C4.11111 5.23657 4.03645 5.13254 3.93571 5.05372C3.83497 4.97496 3.70704 4.91876 3.55227 4.88495C3.39739 4.85119 3.21342 4.83435 3.00082 4.83435H1.89229ZM3.00082 3.41113C3.56434 3.41113 4.04401 3.46374 4.43964 3.56865C4.83514 3.67375 5.15811 3.82178 5.40823 4.01305C5.65816 4.20433 5.84006 4.4369 5.95406 4.71058C6.0678 4.98439 6.12476 5.29 6.12476 5.62754C6.12476 5.81127 6.09863 5.98853 6.04654 6.15912C5.9942 6.32985 5.91197 6.48913 5.80005 6.63722C5.68805 6.78544 5.54436 6.92133 5.36896 7.04516C5.19344 7.16886 4.98271 7.27578 4.73641 7.36567C5.27373 7.49698 5.6713 7.70881 5.9288 8.00141C6.18629 8.29388 6.31523 8.67272 6.31523 9.13768C6.31523 9.48641 6.24801 9.81094 6.11357 10.1109C5.97926 10.411 5.78222 10.6725 5.52285 10.8956C5.26354 11.1187 4.94345 11.2931 4.5627 11.4188C4.18214 11.5445 3.74724 11.6072 3.25838 11.6072H0V3.41113H3.00082Z" fill="#C7C7C7"/>
</g>
<g id="Vector_4">
<path d="M12.0033 5.07639C11.9473 5.16646 11.8886 5.23391 11.8269 5.27891C11.7654 5.32392 11.6861 5.34642 11.589 5.34642C11.5032 5.34642 11.4108 5.31921 11.3119 5.26483C11.2131 5.21046 11.101 5.14956 10.9761 5.08205C10.851 5.01454 10.7082 4.95357 10.5477 4.89919C10.3873 4.84482 10.2044 4.81767 9.99897 4.81767C9.64442 4.81767 9.38036 4.8936 9.20683 5.04553C9.03331 5.19733 8.94646 5.40268 8.94646 5.66146C8.94646 5.82653 8.9988 5.96337 9.10322 6.07205C9.20765 6.18085 9.34496 6.27464 9.51486 6.3534C9.68463 6.43209 9.87878 6.50438 10.0971 6.56994C10.3154 6.63563 10.5384 6.70873 10.766 6.78931C10.9937 6.87002 11.2169 6.96468 11.4351 7.07336C11.6535 7.18217 11.8476 7.32089 12.0174 7.48967C12.1872 7.65844 12.3243 7.86373 12.4288 8.10561C12.5333 8.34748 12.5856 8.63914 12.5856 8.98033C12.5856 9.35923 12.5204 9.71362 12.3897 10.0435C12.259 10.3736 12.0695 10.6614 11.8214 10.907C11.5731 11.1527 11.2671 11.3458 10.9033 11.4864C10.5394 11.6271 10.1259 11.6974 9.66318 11.6974C9.40937 11.6974 9.15081 11.6711 8.8878 11.6187C8.62462 11.5661 8.36993 11.492 8.12363 11.3964C7.87719 11.3008 7.64577 11.1874 7.42935 11.0561C7.21269 10.9249 7.02428 10.7786 6.86383 10.6173L7.42366 9.72852C7.46856 9.66472 7.52721 9.61135 7.6 9.56823C7.67278 9.52511 7.75207 9.50355 7.83811 9.50355C7.94992 9.50355 8.06272 9.53913 8.17678 9.61041C8.29058 9.68169 8.41933 9.76039 8.56309 9.84669C8.70672 9.93299 8.87186 10.0117 9.05851 10.083C9.24504 10.1542 9.46533 10.1898 9.71921 10.1898C10.0625 10.1898 10.3294 10.1138 10.5198 9.96203C10.7101 9.8101 10.8052 9.56917 10.8052 9.23917C10.8052 9.04783 10.7529 8.89233 10.6485 8.7722C10.544 8.65227 10.4067 8.55283 10.2371 8.47401C10.067 8.39531 9.87391 8.32592 9.65749 8.26595C9.44107 8.20605 9.2189 8.13942 8.99136 8.06619C8.76356 7.99309 8.54151 7.90314 8.3251 7.79628C8.10849 7.68936 7.91534 7.54875 7.74576 7.37439C7.57574 7.19996 7.43854 6.98247 7.33412 6.7218C7.22969 6.4612 7.17736 6.13962 7.17736 5.75707C7.17736 5.44964 7.23889 5.14955 7.36213 4.85695C7.48538 4.56448 7.66628 4.30387 7.90514 4.07514C8.14407 3.84646 8.43715 3.66355 8.78413 3.52658C9.13124 3.38974 9.52874 3.32129 9.9767 3.32129C10.2267 3.32129 10.4703 3.34103 10.7074 3.38044C10.9442 3.41972 11.1692 3.47793 11.3819 3.5548C11.5948 3.63168 11.7934 3.72358 11.9782 3.83043C12.1629 3.93735 12.328 4.05823 12.4736 4.19325L12.0033 5.07639Z" fill="#C7C7C7"/>
<path d="M12.0033 5.07639C11.9473 5.16646 11.8886 5.23391 11.8269 5.27891C11.7654 5.32392 11.6861 5.34642 11.589 5.34642C11.5032 5.34642 11.4108 5.31921 11.3119 5.26483C11.2131 5.21046 11.101 5.14956 10.9761 5.08205C10.851 5.01454 10.7082 4.95357 10.5477 4.89919C10.3873 4.84482 10.2044 4.81767 9.99897 4.81767C9.64442 4.81767 9.38036 4.8936 9.20683 5.04553C9.03331 5.19733 8.94646 5.40268 8.94646 5.66146C8.94646 5.82653 8.9988 5.96337 9.10322 6.07205C9.20765 6.18085 9.34496 6.27464 9.51486 6.3534C9.68463 6.43209 9.87878 6.50438 10.0971 6.56994C10.3154 6.63563 10.5384 6.70873 10.766 6.78931C10.9937 6.87002 11.2169 6.96468 11.4351 7.07336C11.6535 7.18217 11.8476 7.32089 12.0174 7.48967C12.1872 7.65844 12.3243 7.86373 12.4288 8.10561C12.5333 8.34748 12.5856 8.63914 12.5856 8.98033C12.5856 9.35923 12.5204 9.71362 12.3897 10.0435C12.259 10.3736 12.0695 10.6614 11.8214 10.907C11.5731 11.1527 11.2671 11.3458 10.9033 11.4864C10.5394 11.6271 10.1259 11.6974 9.66318 11.6974C9.40937 11.6974 9.15081 11.6711 8.8878 11.6187C8.62462 11.5661 8.36993 11.492 8.12363 11.3964C7.87719 11.3008 7.64577 11.1874 7.42935 11.0561C7.21269 10.9249 7.02428 10.7786 6.86383 10.6173L7.42366 9.72852C7.46856 9.66472 7.52721 9.61135 7.6 9.56823C7.67278 9.52511 7.75207 9.50355 7.83811 9.50355C7.94992 9.50355 8.06272 9.53913 8.17678 9.61041C8.29058 9.68169 8.41933 9.76039 8.56309 9.84669C8.70672 9.93299 8.87186 10.0117 9.05851 10.083C9.24504 10.1542 9.46533 10.1898 9.71921 10.1898C10.0625 10.1898 10.3294 10.1138 10.5198 9.96203C10.7101 9.8101 10.8052 9.56917 10.8052 9.23917C10.8052 9.04783 10.7529 8.89233 10.6485 8.7722C10.544 8.65227 10.4067 8.55283 10.2371 8.47401C10.067 8.39531 9.87391 8.32592 9.65749 8.26595C9.44107 8.20605 9.2189 8.13942 8.99136 8.06619C8.76356 7.99309 8.54151 7.90314 8.3251 7.79628C8.10849 7.68936 7.91534 7.54875 7.74576 7.37439C7.57574 7.19996 7.43854 6.98247 7.33412 6.7218C7.22969 6.4612 7.17736 6.13962 7.17736 5.75707C7.17736 5.44964 7.23889 5.14955 7.36213 4.85695C7.48538 4.56448 7.66628 4.30387 7.90514 4.07514C8.14407 3.84646 8.43715 3.66355 8.78413 3.52658C9.13124 3.38974 9.52874 3.32129 9.9767 3.32129C10.2267 3.32129 10.4703 3.34103 10.7074 3.38044C10.9442 3.41972 11.1692 3.47793 11.3819 3.5548C11.5948 3.63168 11.7934 3.72358 11.9782 3.83043C12.1629 3.93735 12.328 4.05823 12.4736 4.19325L12.0033 5.07639Z" fill="#C7C7C7"/>
</g>
<g id="Vector_5">
<path d="M15.855 0.203029C15.8507 0.134326 15.8429 0.0666915 15.8327 0C16.2725 0.456155 16.9006 0.72355 17.5809 0.680367C17.9062 0.659624 18.2106 0.569613 18.4814 0.42611C18.271 0.794956 18.1619 1.2276 18.1907 1.68357C18.2262 2.24803 18.4666 2.75013 18.8339 3.12262C18.646 3.08459 18.4502 3.06995 18.2499 3.08277C17.4539 3.13331 16.7822 3.59644 16.4265 4.25147C16.286 3.28322 15.5386 2.53051 14.6041 2.36488C15.3937 1.97711 15.9139 1.13904 15.855 0.203029Z" fill="#C7C7C7"/>
<path d="M15.855 0.203029C15.8507 0.134326 15.8429 0.0666915 15.8327 0C16.2725 0.456155 16.9006 0.72355 17.5809 0.680367C17.9062 0.659624 18.2106 0.569613 18.4814 0.42611C18.271 0.794956 18.1619 1.2276 18.1907 1.68357C18.2262 2.24803 18.4666 2.75013 18.8339 3.12262C18.646 3.08459 18.4502 3.06995 18.2499 3.08277C17.4539 3.13331 16.7822 3.59644 16.4265 4.25147C16.286 3.28322 15.5386 2.53051 14.6041 2.36488C15.3937 1.97711 15.9139 1.13904 15.855 0.203029Z" fill="#C7C7C7"/>
</g>
<g id="Vector_6">
<path d="M19.228 8.28212C19.3181 8.28212 19.3957 8.27175 19.4608 8.25101C19.526 8.23027 19.5792 8.20135 19.6205 8.16427C19.6628 8.12605 19.6937 8.0813 19.7133 8.03C19.7328 7.97764 19.7426 7.92038 19.7426 7.85815C19.7426 7.73703 19.6997 7.64155 19.6139 7.57171C19.5282 7.50075 19.3995 7.4653 19.228 7.4653H18.7232V8.28212H19.228ZM18.7232 6.4389V7.23939H19.14C19.2291 7.23939 19.3061 7.22958 19.3713 7.20991C19.4375 7.19029 19.4918 7.16302 19.5341 7.12807C19.5776 7.09312 19.6096 7.05113 19.6302 7.00204C19.6508 6.95182 19.6612 6.89726 19.6612 6.83836C19.6612 6.69976 19.6199 6.59881 19.5374 6.53551C19.4549 6.47108 19.3268 6.4389 19.153 6.4389H18.7232ZM19.153 6.18848C19.2964 6.18848 19.4196 6.20262 19.5227 6.23103C19.627 6.25938 19.7122 6.2998 19.7784 6.35216C19.8457 6.40452 19.8951 6.46895 19.9266 6.54532C19.9581 6.62062 19.9738 6.70573 19.9738 6.80071C19.9738 6.85854 19.9646 6.91416 19.9461 6.96766C19.9287 7.02002 19.9022 7.06917 19.8663 7.11499C19.8305 7.16082 19.7849 7.2023 19.7295 7.23939C19.6752 7.2754 19.6112 7.30488 19.5374 7.32776C19.7089 7.36051 19.8376 7.42218 19.9234 7.51275C20.0101 7.60226 20.0536 7.72012 20.0536 7.86632C20.0536 7.96564 20.0352 8.05622 19.9982 8.13806C19.9624 8.2199 19.9092 8.2903 19.8386 8.34926C19.7692 8.40815 19.6834 8.45398 19.5814 8.48672C19.4793 8.5184 19.3631 8.53418 19.2328 8.53418H18.4089V6.18848H19.153Z" fill="#C7C7C7"/>
<path d="M19.228 8.28212C19.3181 8.28212 19.3957 8.27175 19.4608 8.25101C19.526 8.23027 19.5792 8.20135 19.6205 8.16427C19.6628 8.12605 19.6937 8.0813 19.7133 8.03C19.7328 7.97764 19.7426 7.92038 19.7426 7.85815C19.7426 7.73703 19.6997 7.64155 19.6139 7.57171C19.5282 7.50075 19.3995 7.4653 19.228 7.4653H18.7232V8.28212H19.228ZM18.7232 6.4389V7.23939H19.14C19.2291 7.23939 19.3061 7.22958 19.3713 7.20991C19.4375 7.19029 19.4918 7.16302 19.5341 7.12807C19.5776 7.09312 19.6096 7.05113 19.6302 7.00204C19.6508 6.95182 19.6612 6.89726 19.6612 6.83836C19.6612 6.69976 19.6199 6.59881 19.5374 6.53551C19.4549 6.47108 19.3268 6.4389 19.153 6.4389H18.7232ZM19.153 6.18848C19.2964 6.18848 19.4196 6.20262 19.5227 6.23103C19.627 6.25938 19.7122 6.2998 19.7784 6.35216C19.8457 6.40452 19.8951 6.46895 19.9266 6.54532C19.9581 6.62062 19.9738 6.70573 19.9738 6.80071C19.9738 6.85854 19.9646 6.91416 19.9461 6.96766C19.9287 7.02002 19.9022 7.06917 19.8663 7.11499C19.8305 7.16082 19.7849 7.2023 19.7295 7.23939C19.6752 7.2754 19.6112 7.30488 19.5374 7.32776C19.7089 7.36051 19.8376 7.42218 19.9234 7.51275C20.0101 7.60226 20.0536 7.72012 20.0536 7.86632C20.0536 7.96564 20.0352 8.05622 19.9982 8.13806C19.9624 8.2199 19.9092 8.2903 19.8386 8.34926C19.7692 8.40815 19.6834 8.45398 19.5814 8.48672C19.4793 8.5184 19.3631 8.53418 19.2328 8.53418H18.4089V6.18848H19.153Z" fill="#C7C7C7"/>
</g>
<g id="Vector_7">
<path d="M21.7217 7.66336L21.3553 6.709C21.3445 6.68065 21.333 6.6479 21.3211 6.61082C21.3091 6.5726 21.2977 6.53224 21.2869 6.48969C21.2641 6.57807 21.2408 6.65173 21.2169 6.71063L20.8505 7.66336H21.7217ZM22.3796 8.53418H22.1353C22.1071 8.53418 22.0843 8.52714 22.0669 8.51294C22.0495 8.49873 22.0365 8.48075 22.0279 8.45888L21.8096 7.89254H20.7626L20.5443 8.45888C20.5378 8.47855 20.5253 8.49603 20.5069 8.5113C20.4884 8.52658 20.4656 8.53418 20.4385 8.53418H20.1942L21.1273 6.18848H21.4465L22.3796 8.53418Z" fill="#C7C7C7"/>
<path d="M21.7217 7.66336L21.3553 6.709C21.3445 6.68065 21.333 6.6479 21.3211 6.61082C21.3091 6.5726 21.2977 6.53224 21.2869 6.48969C21.2641 6.57807 21.2408 6.65173 21.2169 6.71063L20.8505 7.66336H21.7217ZM22.3796 8.53418H22.1353C22.1071 8.53418 22.0843 8.52714 22.0669 8.51294C22.0495 8.49873 22.0365 8.48075 22.0279 8.45888L21.8096 7.89254H20.7626L20.5443 8.45888C20.5378 8.47855 20.5253 8.49603 20.5069 8.5113C20.4884 8.52658 20.4656 8.53418 20.4385 8.53418H20.1942L21.1273 6.18848H21.4465L22.3796 8.53418Z" fill="#C7C7C7"/>
</g>
<g id="Vector_8">
<path d="M24.5773 6.18848V8.53418H24.4194C24.3943 8.53418 24.3732 8.52984 24.3558 8.52111C24.3396 8.51237 24.3232 8.49766 24.307 8.47692L22.957 6.709C22.9591 6.73628 22.9608 6.76305 22.9619 6.7892C22.963 6.81541 22.9635 6.83999 22.9635 6.86287V8.53418H22.6867V6.18848H22.8495C22.8636 6.18848 22.8755 6.18955 22.8854 6.19175C22.8951 6.19281 22.9038 6.19558 22.9114 6.19992C22.919 6.20319 22.9266 6.20865 22.9342 6.21626C22.9418 6.22286 22.95 6.2316 22.9586 6.24247L24.3086 8.00876C24.3064 7.98035 24.3042 7.95307 24.3021 7.92692C24.301 7.89964 24.3005 7.87399 24.3005 7.84998V6.18848H24.5773Z" fill="#C7C7C7"/>
<path d="M24.5773 6.18848V8.53418H24.4194C24.3943 8.53418 24.3732 8.52984 24.3558 8.52111C24.3396 8.51237 24.3232 8.49766 24.307 8.47692L22.957 6.709C22.9591 6.73628 22.9608 6.76305 22.9619 6.7892C22.963 6.81541 22.9635 6.83999 22.9635 6.86287V8.53418H22.6867V6.18848H22.8495C22.8636 6.18848 22.8755 6.18955 22.8854 6.19175C22.8951 6.19281 22.9038 6.19558 22.9114 6.19992C22.919 6.20319 22.9266 6.20865 22.9342 6.21626C22.9418 6.22286 22.95 6.2316 22.9586 6.24247L24.3086 8.00876C24.3064 7.98035 24.3042 7.95307 24.3021 7.92692C24.301 7.89964 24.3005 7.87399 24.3005 7.84998V6.18848H24.5773Z" fill="#C7C7C7"/>
</g>
<g id="Vector_9">
<path d="M25.4882 7.21644H25.6071C25.6483 7.21644 25.6814 7.21154 25.7064 7.20174C25.7314 7.1908 25.7542 7.17282 25.7748 7.14774L26.5516 6.26378C26.5733 6.23537 26.5961 6.21576 26.62 6.20482C26.6438 6.19395 26.6732 6.18848 26.7079 6.18848H26.9749L26.0858 7.19847C26.0641 7.22468 26.0429 7.24649 26.0224 7.26396C26.0028 7.28031 25.9817 7.29395 25.9588 7.30488C25.9882 7.31469 26.0147 7.3294 26.0386 7.34907C26.0625 7.36762 26.0858 7.39219 26.1086 7.42274L27.0368 8.53418H26.7633C26.7426 8.53418 26.7248 8.53311 26.7096 8.53091C26.6954 8.52764 26.6829 8.52331 26.6721 8.51784C26.6612 8.5113 26.6515 8.5042 26.6428 8.49653C26.6352 8.48786 26.6276 8.47799 26.62 8.46711L25.8155 7.5357C25.7938 7.50842 25.7705 7.48931 25.7455 7.47837C25.7205 7.46636 25.6825 7.46039 25.6315 7.46039H25.4882V8.53418H25.1739V6.18848H25.4882V7.21644Z" fill="#C7C7C7"/>
<path d="M25.4882 7.21644H25.6071C25.6483 7.21644 25.6814 7.21154 25.7064 7.20174C25.7314 7.1908 25.7542 7.17282 25.7748 7.14774L26.5516 6.26378C26.5733 6.23537 26.5961 6.21576 26.62 6.20482C26.6438 6.19395 26.6732 6.18848 26.7079 6.18848H26.9749L26.0858 7.19847C26.0641 7.22468 26.0429 7.24649 26.0224 7.26396C26.0028 7.28031 25.9817 7.29395 25.9588 7.30488C25.9882 7.31469 26.0147 7.3294 26.0386 7.34907C26.0625 7.36762 26.0858 7.39219 26.1086 7.42274L27.0368 8.53418H26.7633C26.7426 8.53418 26.7248 8.53311 26.7096 8.53091C26.6954 8.52764 26.6829 8.52331 26.6721 8.51784C26.6612 8.5113 26.6515 8.5042 26.6428 8.49653C26.6352 8.48786 26.6276 8.47799 26.62 8.46711L25.8155 7.5357C25.7938 7.50842 25.7705 7.48931 25.7455 7.47837C25.7205 7.46636 25.6825 7.46039 25.6315 7.46039H25.4882V8.53418H25.1739V6.18848H25.4882V7.21644Z" fill="#C7C7C7"/>
</g>
<g id="Vector_10">
<path d="M29.3572 6.55546C29.3474 6.57186 29.3366 6.58437 29.3246 6.59311C29.3138 6.60078 29.3002 6.60461 29.2839 6.60461C29.2655 6.60461 29.2438 6.59531 29.2187 6.57677C29.1938 6.55822 29.1623 6.53798 29.1243 6.51617C29.0874 6.49329 29.0423 6.47255 28.9891 6.454C28.937 6.4354 28.8735 6.42616 28.7987 6.42616C28.7281 6.42616 28.6657 6.43596 28.6114 6.45564C28.5582 6.47418 28.5131 6.49983 28.4762 6.53258C28.4404 6.56526 28.4132 6.60405 28.3948 6.6488C28.3763 6.69242 28.3671 6.73988 28.3671 6.79117C28.3671 6.85667 28.3828 6.91123 28.4143 6.95491C28.4469 6.99747 28.4892 7.03399 28.5414 7.06454C28.5946 7.09515 28.6542 7.12186 28.7204 7.14474C28.7878 7.16662 28.8562 7.1895 28.9257 7.21351C28.9962 7.23752 29.0646 7.2648 29.1308 7.29535C29.1982 7.32483 29.2579 7.36248 29.31 7.4083C29.3632 7.45413 29.4055 7.51038 29.437 7.57695C29.4696 7.64351 29.4858 7.72536 29.4858 7.82247C29.4858 7.92505 29.4685 8.0216 29.4337 8.11218C29.399 8.20169 29.348 8.27969 29.2807 8.34632C29.2144 8.41289 29.1325 8.46525 29.0348 8.50346C28.9381 8.54162 28.8279 8.56073 28.7042 8.56073C28.5522 8.56073 28.4143 8.53345 28.2906 8.47889C28.1668 8.42326 28.0609 8.34846 27.973 8.25461L28.0642 8.10401C28.0729 8.092 28.0832 8.08219 28.0951 8.07453C28.1082 8.06585 28.1223 8.06145 28.1375 8.06145C28.1516 8.06145 28.1674 8.06749 28.1847 8.07949C28.2032 8.09037 28.2238 8.10457 28.2466 8.12205C28.2694 8.13952 28.2954 8.15857 28.3248 8.17931C28.3541 8.20005 28.3872 8.21916 28.4241 8.23664C28.4621 8.25405 28.505 8.26882 28.5527 8.28082C28.6005 8.2917 28.6542 8.29717 28.7139 8.29717C28.7889 8.29717 28.8556 8.2868 28.9143 8.26605C28.9729 8.24537 29.0223 8.2164 29.0624 8.17931C29.1037 8.14116 29.1352 8.09584 29.1569 8.04348C29.1786 7.99105 29.1895 7.93266 29.1895 7.86829C29.1895 7.79739 29.1732 7.73956 29.1406 7.69481C29.1091 7.64892 29.0674 7.61077 29.0152 7.58022C28.9631 7.54967 28.9034 7.52402 28.8361 7.50328C28.7688 7.48147 28.7004 7.4596 28.6309 7.43778C28.5614 7.41484 28.493 7.38869 28.4257 7.35921C28.3584 7.32973 28.2987 7.29158 28.2466 7.24462C28.1945 7.19773 28.1522 7.13934 28.1196 7.0695C28.0881 6.99854 28.0724 6.91123 28.0724 6.80758C28.0724 6.72461 28.0881 6.6444 28.1196 6.56696C28.1522 6.48946 28.1988 6.42069 28.2596 6.36066C28.3215 6.30063 28.397 6.25261 28.486 6.21659C28.5761 6.18064 28.6792 6.1626 28.7954 6.1626C28.9257 6.1626 29.044 6.18334 29.1504 6.22483C29.2579 6.26625 29.3523 6.32628 29.4337 6.40485L29.3572 6.55546Z" fill="#C7C7C7"/>
<path d="M29.3572 6.55546C29.3474 6.57186 29.3366 6.58437 29.3246 6.59311C29.3138 6.60078 29.3002 6.60461 29.2839 6.60461C29.2655 6.60461 29.2438 6.59531 29.2187 6.57677C29.1938 6.55822 29.1623 6.53798 29.1243 6.51617C29.0874 6.49329 29.0423 6.47255 28.9891 6.454C28.937 6.4354 28.8735 6.42616 28.7987 6.42616C28.7281 6.42616 28.6657 6.43596 28.6114 6.45564C28.5582 6.47418 28.5131 6.49983 28.4762 6.53258C28.4404 6.56526 28.4132 6.60405 28.3948 6.6488C28.3763 6.69242 28.3671 6.73988 28.3671 6.79117C28.3671 6.85667 28.3828 6.91123 28.4143 6.95491C28.4469 6.99747 28.4892 7.03399 28.5414 7.06454C28.5946 7.09515 28.6542 7.12186 28.7204 7.14474C28.7878 7.16662 28.8562 7.1895 28.9257 7.21351C28.9962 7.23752 29.0646 7.2648 29.1308 7.29535C29.1982 7.32483 29.2579 7.36248 29.31 7.4083C29.3632 7.45413 29.4055 7.51038 29.437 7.57695C29.4696 7.64351 29.4858 7.72536 29.4858 7.82247C29.4858 7.92505 29.4685 8.0216 29.4337 8.11218C29.399 8.20169 29.348 8.27969 29.2807 8.34632C29.2144 8.41289 29.1325 8.46525 29.0348 8.50346C28.9381 8.54162 28.8279 8.56073 28.7042 8.56073C28.5522 8.56073 28.4143 8.53345 28.2906 8.47889C28.1668 8.42326 28.0609 8.34846 27.973 8.25461L28.0642 8.10401C28.0729 8.092 28.0832 8.08219 28.0951 8.07453C28.1082 8.06585 28.1223 8.06145 28.1375 8.06145C28.1516 8.06145 28.1674 8.06749 28.1847 8.07949C28.2032 8.09037 28.2238 8.10457 28.2466 8.12205C28.2694 8.13952 28.2954 8.15857 28.3248 8.17931C28.3541 8.20005 28.3872 8.21916 28.4241 8.23664C28.4621 8.25405 28.505 8.26882 28.5527 8.28082C28.6005 8.2917 28.6542 8.29717 28.7139 8.29717C28.7889 8.29717 28.8556 8.2868 28.9143 8.26605C28.9729 8.24537 29.0223 8.2164 29.0624 8.17931C29.1037 8.14116 29.1352 8.09584 29.1569 8.04348C29.1786 7.99105 29.1895 7.93266 29.1895 7.86829C29.1895 7.79739 29.1732 7.73956 29.1406 7.69481C29.1091 7.64892 29.0674 7.61077 29.0152 7.58022C28.9631 7.54967 28.9034 7.52402 28.8361 7.50328C28.7688 7.48147 28.7004 7.4596 28.6309 7.43778C28.5614 7.41484 28.493 7.38869 28.4257 7.35921C28.3584 7.32973 28.2987 7.29158 28.2466 7.24462C28.1945 7.19773 28.1522 7.13934 28.1196 7.0695C28.0881 6.99854 28.0724 6.91123 28.0724 6.80758C28.0724 6.72461 28.0881 6.6444 28.1196 6.56696C28.1522 6.48946 28.1988 6.42069 28.2596 6.36066C28.3215 6.30063 28.397 6.25261 28.486 6.21659C28.5761 6.18064 28.6792 6.1626 28.7954 6.1626C28.9257 6.1626 29.044 6.18334 29.1504 6.22483C29.2579 6.26625 29.3523 6.32628 29.4337 6.40485L29.3572 6.55546Z" fill="#C7C7C7"/>
</g>
<g id="Vector_11">
<path d="M30.7602 7.5995V8.53418H30.4443V7.5995L29.5894 6.18848H29.8662C29.8944 6.18848 29.9167 6.19558 29.933 6.20972C29.9493 6.22286 29.9634 6.24027 29.9754 6.26215L30.5095 7.17389C30.529 7.21211 30.5469 7.24812 30.5632 7.28194C30.5795 7.31469 30.5936 7.34794 30.6055 7.38182C30.6175 7.34794 30.631 7.31469 30.6462 7.28194C30.6615 7.24812 30.6783 7.21211 30.6968 7.17389L31.2293 6.26215C31.239 6.2436 31.2526 6.22663 31.27 6.21136C31.2873 6.19608 31.3095 6.18848 31.3367 6.18848H31.6152L30.7602 7.5995Z" fill="#C7C7C7"/>
<path d="M30.7602 7.5995V8.53418H30.4443V7.5995L29.5894 6.18848H29.8662C29.8944 6.18848 29.9167 6.19558 29.933 6.20972C29.9493 6.22286 29.9634 6.24027 29.9754 6.26215L30.5095 7.17389C30.529 7.21211 30.5469 7.24812 30.5632 7.28194C30.5795 7.31469 30.5936 7.34794 30.6055 7.38182C30.6175 7.34794 30.631 7.31469 30.6462 7.28194C30.6615 7.24812 30.6783 7.21211 30.6968 7.17389L31.2293 6.26215C31.239 6.2436 31.2526 6.22663 31.27 6.21136C31.2873 6.19608 31.3095 6.18848 31.3367 6.18848H31.6152L30.7602 7.5995Z" fill="#C7C7C7"/>
</g>
<g id="Vector_12">
<path d="M32.9269 7.66336L32.5605 6.709C32.5497 6.68065 32.5383 6.6479 32.5263 6.61082C32.5144 6.5726 32.5029 6.53224 32.4921 6.48969C32.4693 6.57807 32.446 6.65173 32.4221 6.71063L32.0557 7.66336H32.9269ZM33.5848 8.53418H33.3405C33.3123 8.53418 33.2895 8.52714 33.2721 8.51294C33.2547 8.49873 33.2417 8.48075 33.233 8.45888L33.0148 7.89254H31.9678L31.7495 8.45888C31.743 8.47855 31.7305 8.49603 31.7121 8.5113C31.6936 8.52658 31.6709 8.53418 31.6437 8.53418H31.3994L32.3325 6.18848H32.6517L33.5848 8.53418Z" fill="#C7C7C7"/>
<path d="M32.9269 7.66336L32.5605 6.709C32.5497 6.68065 32.5383 6.6479 32.5263 6.61082C32.5144 6.5726 32.5029 6.53224 32.4921 6.48969C32.4693 6.57807 32.446 6.65173 32.4221 6.71063L32.0557 7.66336H32.9269ZM33.5848 8.53418H33.3405C33.3123 8.53418 33.2895 8.52714 33.2721 8.51294C33.2547 8.49873 33.2417 8.48075 33.233 8.45888L33.0148 7.89254H31.9678L31.7495 8.45888C31.743 8.47855 31.7305 8.49603 31.7121 8.5113C31.6936 8.52658 31.6709 8.53418 31.6437 8.53418H31.3994L32.3325 6.18848H32.6517L33.5848 8.53418Z" fill="#C7C7C7"/>
</g>
<g id="Vector_13">
<path d="M34.5382 7.3245C34.6294 7.3245 34.7097 7.31362 34.7792 7.29175C34.8497 7.26887 34.9084 7.23719 34.955 7.19683C35.0028 7.15535 35.0387 7.10626 35.0625 7.0495C35.0864 6.99274 35.0984 6.93 35.0984 6.86124C35.0984 6.72157 35.0528 6.61622 34.9616 6.54532C34.8704 6.47435 34.7336 6.4389 34.5512 6.4389H34.206V7.3245H34.5382ZM35.6162 8.53418H35.3361C35.2786 8.53418 35.2362 8.5118 35.2091 8.46711L34.6033 7.62898C34.5849 7.60276 34.5648 7.58422 34.5431 7.57335C34.5225 7.56134 34.4899 7.55531 34.4454 7.55531H34.206V8.53418H33.8917V6.18848H34.5512C34.6989 6.18848 34.8264 6.20375 34.9339 6.2343C35.0414 6.26378 35.1299 6.30684 35.1994 6.3636C35.2699 6.42036 35.322 6.48912 35.3557 6.5699C35.3893 6.64954 35.4061 6.73904 35.4061 6.83836C35.4061 6.92127 35.3931 6.99877 35.3671 7.0708C35.341 7.14278 35.303 7.20771 35.2531 7.2656C35.2042 7.3223 35.144 7.37088 35.0723 7.41124C35.0018 7.45165 34.9214 7.4822 34.8313 7.50295C34.8715 7.52583 34.9062 7.55914 34.9355 7.60276L35.6162 8.53418Z" fill="#C7C7C7"/>
<path d="M34.5382 7.3245C34.6294 7.3245 34.7097 7.31362 34.7792 7.29175C34.8497 7.26887 34.9084 7.23719 34.955 7.19683C35.0028 7.15535 35.0387 7.10626 35.0625 7.0495C35.0864 6.99274 35.0984 6.93 35.0984 6.86124C35.0984 6.72157 35.0528 6.61622 34.9616 6.54532C34.8704 6.47435 34.7336 6.4389 34.5512 6.4389H34.206V7.3245H34.5382ZM35.6162 8.53418H35.3361C35.2786 8.53418 35.2362 8.5118 35.2091 8.46711L34.6033 7.62898C34.5849 7.60276 34.5648 7.58422 34.5431 7.57335C34.5225 7.56134 34.4899 7.55531 34.4454 7.55531H34.206V8.53418H33.8917V6.18848H34.5512C34.6989 6.18848 34.8264 6.20375 34.9339 6.2343C35.0414 6.26378 35.1299 6.30684 35.1994 6.3636C35.2699 6.42036 35.322 6.48912 35.3557 6.5699C35.3893 6.64954 35.4061 6.73904 35.4061 6.83836C35.4061 6.92127 35.3931 6.99877 35.3671 7.0708C35.341 7.14278 35.303 7.20771 35.2531 7.2656C35.2042 7.3223 35.144 7.37088 35.0723 7.41124C35.0018 7.45165 34.9214 7.4822 34.8313 7.50295C34.8715 7.52583 34.9062 7.55914 34.9355 7.60276L35.6162 8.53418Z" fill="#C7C7C7"/>
</g>
<g id="Vector_14">
<path d="M36.2496 8.53418H35.9337V6.18848H36.2496V8.53418Z" fill="#C7C7C7"/>
<path d="M36.2496 8.53418H35.9337V6.18848H36.2496V8.53418Z" fill="#C7C7C7"/>
</g>
<g id="Vector_15">
<path d="M38.0857 7.66336L37.7192 6.709C37.7084 6.68065 37.697 6.6479 37.6851 6.61082C37.6731 6.5726 37.6617 6.53224 37.6509 6.48969C37.6281 6.57807 37.6047 6.65173 37.5808 6.71063L37.2144 7.66336H38.0857ZM38.7435 8.53418H38.4993C38.471 8.53418 38.4483 8.52714 38.4309 8.51294C38.4135 8.49873 38.4005 8.48075 38.3918 8.45888L38.1736 7.89254H37.1265L36.9083 8.45888C36.9018 8.47855 36.8893 8.49603 36.8708 8.5113C36.8524 8.52658 36.8295 8.53418 36.8024 8.53418H36.5582L37.4912 6.18848H37.8105L38.7435 8.53418Z" fill="#C7C7C7"/>
<path d="M38.0857 7.66336L37.7192 6.709C37.7084 6.68065 37.697 6.6479 37.6851 6.61082C37.6731 6.5726 37.6617 6.53224 37.6509 6.48969C37.6281 6.57807 37.6047 6.65173 37.5808 6.71063L37.2144 7.66336H38.0857ZM38.7435 8.53418H38.4993C38.471 8.53418 38.4483 8.52714 38.4309 8.51294C38.4135 8.49873 38.4005 8.48075 38.3918 8.45888L38.1736 7.89254H37.1265L36.9083 8.45888C36.9018 8.47855 36.8893 8.49603 36.8708 8.5113C36.8524 8.52658 36.8295 8.53418 36.8024 8.53418H36.5582L37.4912 6.18848H37.8105L38.7435 8.53418Z" fill="#C7C7C7"/>
</g>
<g id="Vector_16">
<path d="M40.9412 6.18848V8.53418H40.6253V7.46693H39.3665V8.53418H39.0506V6.18848H39.3665V7.23448H40.6253V6.18848H40.9412Z" fill="#C7C7C7"/>
<path d="M40.9412 6.18848V8.53418H40.6253V7.46693H39.3665V8.53418H39.0506V6.18848H39.3665V7.23448H40.6253V6.18848H40.9412Z" fill="#C7C7C7"/>
</g>
<g id="Vector_17">
<path d="M18.7248 11.6265H18.4089V9.28076H18.7248V11.6265Z" fill="#C7C7C7"/>
<path d="M18.7248 11.6265H18.4089V9.28076H18.7248V11.6265Z" fill="#C7C7C7"/>
</g>
<g id="Vector_18">
<path d="M21.2121 9.28076V11.6265H21.0542C21.0292 11.6265 21.008 11.6222 20.9907 11.6135C20.9744 11.6047 20.9581 11.5899 20.9418 11.5693L19.5919 9.80134C19.594 9.82862 19.5957 9.85534 19.5967 9.88155C19.5979 9.90776 19.5984 9.93228 19.5984 9.95522V11.6265H19.3215V9.28076H19.4844C19.4985 9.28076 19.5104 9.28189 19.5202 9.28409C19.5299 9.28516 19.5386 9.28786 19.5463 9.29226C19.5538 9.29553 19.5615 9.301 19.569 9.30861C19.5767 9.31514 19.5848 9.32388 19.5935 9.33482L20.9434 11.101C20.9413 11.0727 20.9391 11.0454 20.9369 11.0192C20.9359 10.9919 20.9353 10.9663 20.9353 10.9423V9.28076H21.2121Z" fill="#C7C7C7"/>
<path d="M21.2121 9.28076V11.6265H21.0542C21.0292 11.6265 21.008 11.6222 20.9907 11.6135C20.9744 11.6047 20.9581 11.5899 20.9418 11.5693L19.5919 9.80134C19.594 9.82862 19.5957 9.85534 19.5967 9.88155C19.5979 9.90776 19.5984 9.93228 19.5984 9.95522V11.6265H19.3215V9.28076H19.4844C19.4985 9.28076 19.5104 9.28189 19.5202 9.28409C19.5299 9.28516 19.5386 9.28786 19.5463 9.29226C19.5538 9.29553 19.5615 9.301 19.569 9.30861C19.5767 9.31514 19.5848 9.32388 19.5935 9.33482L20.9434 11.101C20.9413 11.0727 20.9391 11.0454 20.9369 11.0192C20.9359 10.9919 20.9353 10.9663 20.9353 10.9423V9.28076H21.2121Z" fill="#C7C7C7"/>
</g>
<g id="Vector_19">
<path d="M23.8313 10.4545C23.8313 10.6302 23.8036 10.79 23.7483 10.9341C23.6929 11.0782 23.6147 11.2015 23.5137 11.3041C23.4128 11.4067 23.2912 11.4863 23.149 11.5431C23.0079 11.5987 22.8515 11.6265 22.68 11.6265H21.8088V9.28076H22.68C22.8515 9.28076 23.0079 9.30917 23.149 9.36593C23.2912 9.42156 23.4128 9.5012 23.5137 9.60492C23.6147 9.7075 23.6929 9.83083 23.7483 9.97483C23.8036 10.1189 23.8313 10.2788 23.8313 10.4545ZM23.5072 10.4545C23.5072 10.3104 23.4877 10.1816 23.4486 10.0682C23.4095 9.95465 23.3541 9.85861 23.2825 9.78004C23.2109 9.70146 23.124 9.64144 23.022 9.60001C22.9199 9.55853 22.8059 9.53778 22.68 9.53778H22.1247V11.3695H22.68C22.8059 11.3695 22.9199 11.3488 23.022 11.3073C23.124 11.2659 23.2109 11.2064 23.2825 11.1289C23.3541 11.0503 23.4095 10.9543 23.4486 10.8408C23.4877 10.7273 23.5072 10.5985 23.5072 10.4545Z" fill="#C7C7C7"/>
<path d="M23.8313 10.4545C23.8313 10.6302 23.8036 10.79 23.7483 10.9341C23.6929 11.0782 23.6147 11.2015 23.5137 11.3041C23.4128 11.4067 23.2912 11.4863 23.149 11.5431C23.0079 11.5987 22.8515 11.6265 22.68 11.6265H21.8088V9.28076H22.68C22.8515 9.28076 23.0079 9.30917 23.149 9.36593C23.2912 9.42156 23.4128 9.5012 23.5137 9.60492C23.6147 9.7075 23.6929 9.83083 23.7483 9.97483C23.8036 10.1189 23.8313 10.2788 23.8313 10.4545ZM23.5072 10.4545C23.5072 10.3104 23.4877 10.1816 23.4486 10.0682C23.4095 9.95465 23.3541 9.85861 23.2825 9.78004C23.2109 9.70146 23.124 9.64144 23.022 9.60001C22.9199 9.55853 22.8059 9.53778 22.68 9.53778H22.1247V11.3695H22.68C22.8059 11.3695 22.9199 11.3488 23.022 11.3073C23.124 11.2659 23.2109 11.2064 23.2825 11.1289C23.3541 11.0503 23.4095 10.9543 23.4486 10.8408C23.4877 10.7273 23.5072 10.5985 23.5072 10.4545Z" fill="#C7C7C7"/>
</g>
<g id="Vector_20">
<path d="M26.4425 10.4543C26.4425 10.63 26.4148 10.7914 26.3594 10.9388C26.3041 11.085 26.2259 11.2111 26.1249 11.3169C26.024 11.4228 25.9024 11.5052 25.7602 11.5641C25.6191 11.622 25.4627 11.6509 25.2912 11.6509C25.1196 11.6509 24.9633 11.622 24.8222 11.5641C24.6811 11.5052 24.56 11.4228 24.4591 11.3169C24.3581 11.2111 24.2799 11.085 24.2246 10.9388C24.1692 10.7914 24.1415 10.63 24.1415 10.4543C24.1415 10.2786 24.1692 10.1176 24.2246 9.97134C24.2799 9.82401 24.3581 9.69748 24.4591 9.59156C24.56 9.48464 24.6811 9.40173 24.8222 9.34277C24.9633 9.28387 25.1196 9.25439 25.2912 9.25439C25.4627 9.25439 25.6191 9.28387 25.7602 9.34277C25.9024 9.40173 26.024 9.48464 26.1249 9.59156C26.2259 9.69748 26.3041 9.82401 26.3594 9.97134C26.4148 10.1176 26.4425 10.2786 26.4425 10.4543ZM26.1184 10.4543C26.1184 10.3102 26.0989 10.1809 26.0598 10.0663C26.0208 9.95173 25.9654 9.85512 25.8937 9.77655C25.822 9.69691 25.7352 9.63581 25.6331 9.59326C25.5311 9.55064 25.4171 9.5294 25.2912 9.5294C25.1663 9.5294 25.0529 9.55064 24.9509 9.59326C24.8488 9.63581 24.7614 9.69691 24.6887 9.77655C24.617 9.85512 24.5616 9.95173 24.5225 10.0663C24.4835 10.1809 24.4639 10.3102 24.4639 10.4543C24.4639 10.5983 24.4835 10.7276 24.5225 10.8422C24.5616 10.9557 24.617 11.0523 24.6887 11.1319C24.7614 11.2105 24.8488 11.2711 24.9509 11.3137C25.0529 11.3551 25.1663 11.3759 25.2912 11.3759C25.4171 11.3759 25.5311 11.3551 25.6331 11.3137C25.7352 11.2711 25.822 11.2105 25.8937 11.1319C25.9654 11.0523 26.0208 10.9557 26.0598 10.8422C26.0989 10.7276 26.1184 10.5983 26.1184 10.4543Z" fill="#C7C7C7"/>
<path d="M26.4425 10.4543C26.4425 10.63 26.4148 10.7914 26.3594 10.9388C26.3041 11.085 26.2259 11.2111 26.1249 11.3169C26.024 11.4228 25.9024 11.5052 25.7602 11.5641C25.6191 11.622 25.4627 11.6509 25.2912 11.6509C25.1196 11.6509 24.9633 11.622 24.8222 11.5641C24.6811 11.5052 24.56 11.4228 24.4591 11.3169C24.3581 11.2111 24.2799 11.085 24.2246 10.9388C24.1692 10.7914 24.1415 10.63 24.1415 10.4543C24.1415 10.2786 24.1692 10.1176 24.2246 9.97134C24.2799 9.82401 24.3581 9.69748 24.4591 9.59156C24.56 9.48464 24.6811 9.40173 24.8222 9.34277C24.9633 9.28387 25.1196 9.25439 25.2912 9.25439C25.4627 9.25439 25.6191 9.28387 25.7602 9.34277C25.9024 9.40173 26.024 9.48464 26.1249 9.59156C26.2259 9.69748 26.3041 9.82401 26.3594 9.97134C26.4148 10.1176 26.4425 10.2786 26.4425 10.4543ZM26.1184 10.4543C26.1184 10.3102 26.0989 10.1809 26.0598 10.0663C26.0208 9.95173 25.9654 9.85512 25.8937 9.77655C25.822 9.69691 25.7352 9.63581 25.6331 9.59326C25.5311 9.55064 25.4171 9.5294 25.2912 9.5294C25.1663 9.5294 25.0529 9.55064 24.9509 9.59326C24.8488 9.63581 24.7614 9.69691 24.6887 9.77655C24.617 9.85512 24.5616 9.95173 24.5225 10.0663C24.4835 10.1809 24.4639 10.3102 24.4639 10.4543C24.4639 10.5983 24.4835 10.7276 24.5225 10.8422C24.5616 10.9557 24.617 11.0523 24.6887 11.1319C24.7614 11.2105 24.8488 11.2711 24.9509 11.3137C25.0529 11.3551 25.1663 11.3759 25.2912 11.3759C25.4171 11.3759 25.5311 11.3551 25.6331 11.3137C25.7352 11.2711 25.822 11.2105 25.8937 11.1319C25.9654 11.0523 26.0208 10.9557 26.0598 10.8422C26.0989 10.7276 26.1184 10.5983 26.1184 10.4543Z" fill="#C7C7C7"/>
</g>
<g id="Vector_21">
<path d="M28.7851 9.28076V11.6265H28.6272C28.6022 11.6265 28.581 11.6222 28.5637 11.6135C28.5474 11.6047 28.5311 11.5899 28.5148 11.5693L27.1648 9.80134C27.167 9.82862 27.1687 9.85534 27.1697 9.88155C27.1709 9.90776 27.1714 9.93228 27.1714 9.95522V11.6265H26.8945V9.28076H27.0574C27.0715 9.28076 27.0834 9.28189 27.0932 9.28409C27.1029 9.28516 27.1116 9.28786 27.1193 9.29226C27.1268 9.29553 27.1345 9.301 27.1421 9.30861C27.1497 9.31514 27.1578 9.32388 27.1665 9.33482L28.5164 11.101C28.5143 11.0727 28.5121 11.0454 28.5099 11.0192C28.5089 10.9919 28.5083 10.9663 28.5083 10.9423V9.28076H28.7851Z" fill="#C7C7C7"/>
<path d="M28.7851 9.28076V11.6265H28.6272C28.6022 11.6265 28.581 11.6222 28.5637 11.6135C28.5474 11.6047 28.5311 11.5899 28.5148 11.5693L27.1648 9.80134C27.167 9.82862 27.1687 9.85534 27.1697 9.88155C27.1709 9.90776 27.1714 9.93228 27.1714 9.95522V11.6265H26.8945V9.28076H27.0574C27.0715 9.28076 27.0834 9.28189 27.0932 9.28409C27.1029 9.28516 27.1116 9.28786 27.1193 9.29226C27.1268 9.29553 27.1345 9.301 27.1421 9.30861C27.1497 9.31514 27.1578 9.32388 27.1665 9.33482L28.5164 11.101C28.5143 11.0727 28.5121 11.0454 28.5099 11.0192C28.5089 10.9919 28.5083 10.9663 28.5083 10.9423V9.28076H28.7851Z" fill="#C7C7C7"/>
</g>
<g id="Vector_22">
<path d="M30.8212 11.3679L30.8195 11.6265H29.3816V9.28076H30.8195V9.53942H29.6975V10.3186H30.6062V10.5674H29.6975V11.3679H30.8212Z" fill="#C7C7C7"/>
<path d="M30.8212 11.3679L30.8195 11.6265H29.3816V9.28076H30.8195V9.53942H29.6975V10.3186H30.6062V10.5674H29.6975V11.3679H30.8212Z" fill="#C7C7C7"/>
</g>
<g id="Vector_23">
<path d="M32.455 9.64725C32.4453 9.6636 32.4344 9.67617 32.4225 9.6849C32.4116 9.69251 32.3981 9.69634 32.3817 9.69634C32.3633 9.69634 32.3416 9.6871 32.3166 9.6685C32.2916 9.64996 32.2602 9.62978 32.2222 9.60797C32.1853 9.58502 32.1402 9.56428 32.087 9.54574C32.0349 9.5272 31.9714 9.51795 31.8965 9.51795C31.8259 9.51795 31.7635 9.52776 31.7092 9.54737C31.656 9.56592 31.6109 9.59156 31.574 9.62431C31.5382 9.65706 31.5111 9.69578 31.4926 9.74053C31.4742 9.78422 31.4649 9.83168 31.4649 9.88297C31.4649 9.94846 31.4807 10.003 31.5121 10.0466C31.5447 10.0892 31.587 10.1258 31.6392 10.1563C31.6924 10.1869 31.7521 10.2137 31.8183 10.2365C31.8856 10.2584 31.954 10.2813 32.0235 10.3053C32.094 10.3293 32.1625 10.3566 32.2287 10.3871C32.296 10.4166 32.3557 10.4543 32.4078 10.5001C32.461 10.5459 32.5034 10.6021 32.5348 10.6687C32.5674 10.7352 32.5837 10.8171 32.5837 10.9143C32.5837 11.0169 32.5663 11.1134 32.5316 11.204C32.4968 11.2935 32.4458 11.3715 32.3785 11.4381C32.3123 11.5046 32.2303 11.557 32.1326 11.5952C32.036 11.6334 31.9258 11.6525 31.802 11.6525C31.65 11.6525 31.5121 11.6252 31.3884 11.5707C31.2646 11.515 31.1588 11.4403 31.0709 11.3464L31.162 11.1958C31.1707 11.1838 31.181 11.174 31.193 11.1663C31.206 11.1576 31.2201 11.1533 31.2353 11.1533C31.2494 11.1533 31.2652 11.1592 31.2825 11.1712C31.301 11.1822 31.3216 11.1964 31.3444 11.2138C31.3673 11.2313 31.3933 11.2504 31.4226 11.2711C31.4519 11.2919 31.485 11.311 31.522 11.3284C31.5599 11.3458 31.6028 11.3606 31.6506 11.3726C31.6984 11.3835 31.7521 11.389 31.8118 11.389C31.8867 11.389 31.9535 11.3786 32.0121 11.3579C32.0707 11.3371 32.1201 11.3082 32.1603 11.2711C32.2015 11.2329 32.2331 11.1876 32.2548 11.1352C32.2765 11.0828 32.2873 11.0245 32.2873 10.9601C32.2873 10.8891 32.271 10.8313 32.2384 10.7865C32.207 10.7407 32.1651 10.7026 32.1131 10.672C32.061 10.6414 32.0013 10.6158 31.9339 10.595C31.8666 10.5732 31.7982 10.5514 31.7287 10.5296C31.6593 10.5066 31.5909 10.4804 31.5236 10.451C31.4562 10.4215 31.3965 10.3833 31.3444 10.3364C31.2923 10.2895 31.25 10.2311 31.2174 10.1612C31.1859 10.0903 31.1702 10.003 31.1702 9.89931C31.1702 9.8164 31.1859 9.7362 31.2174 9.65869C31.25 9.58125 31.2967 9.51249 31.3574 9.45246C31.4193 9.39243 31.4948 9.34441 31.5838 9.30839C31.6739 9.27237 31.7771 9.25439 31.8932 9.25439C32.0235 9.25439 32.1418 9.27514 32.2482 9.31656C32.3557 9.35805 32.4502 9.41808 32.5316 9.49665L32.455 9.64725Z" fill="#C7C7C7"/>
<path d="M32.455 9.64725C32.4453 9.6636 32.4344 9.67617 32.4225 9.6849C32.4116 9.69251 32.3981 9.69634 32.3817 9.69634C32.3633 9.69634 32.3416 9.6871 32.3166 9.6685C32.2916 9.64996 32.2602 9.62978 32.2222 9.60797C32.1853 9.58502 32.1402 9.56428 32.087 9.54574C32.0349 9.5272 31.9714 9.51795 31.8965 9.51795C31.8259 9.51795 31.7635 9.52776 31.7092 9.54737C31.656 9.56592 31.6109 9.59156 31.574 9.62431C31.5382 9.65706 31.5111 9.69578 31.4926 9.74053C31.4742 9.78422 31.4649 9.83168 31.4649 9.88297C31.4649 9.94846 31.4807 10.003 31.5121 10.0466C31.5447 10.0892 31.587 10.1258 31.6392 10.1563C31.6924 10.1869 31.7521 10.2137 31.8183 10.2365C31.8856 10.2584 31.954 10.2813 32.0235 10.3053C32.094 10.3293 32.1625 10.3566 32.2287 10.3871C32.296 10.4166 32.3557 10.4543 32.4078 10.5001C32.461 10.5459 32.5034 10.6021 32.5348 10.6687C32.5674 10.7352 32.5837 10.8171 32.5837 10.9143C32.5837 11.0169 32.5663 11.1134 32.5316 11.204C32.4968 11.2935 32.4458 11.3715 32.3785 11.4381C32.3123 11.5046 32.2303 11.557 32.1326 11.5952C32.036 11.6334 31.9258 11.6525 31.802 11.6525C31.65 11.6525 31.5121 11.6252 31.3884 11.5707C31.2646 11.515 31.1588 11.4403 31.0709 11.3464L31.162 11.1958C31.1707 11.1838 31.181 11.174 31.193 11.1663C31.206 11.1576 31.2201 11.1533 31.2353 11.1533C31.2494 11.1533 31.2652 11.1592 31.2825 11.1712C31.301 11.1822 31.3216 11.1964 31.3444 11.2138C31.3673 11.2313 31.3933 11.2504 31.4226 11.2711C31.4519 11.2919 31.485 11.311 31.522 11.3284C31.5599 11.3458 31.6028 11.3606 31.6506 11.3726C31.6984 11.3835 31.7521 11.389 31.8118 11.389C31.8867 11.389 31.9535 11.3786 32.0121 11.3579C32.0707 11.3371 32.1201 11.3082 32.1603 11.2711C32.2015 11.2329 32.2331 11.1876 32.2548 11.1352C32.2765 11.0828 32.2873 11.0245 32.2873 10.9601C32.2873 10.8891 32.271 10.8313 32.2384 10.7865C32.207 10.7407 32.1651 10.7026 32.1131 10.672C32.061 10.6414 32.0013 10.6158 31.9339 10.595C31.8666 10.5732 31.7982 10.5514 31.7287 10.5296C31.6593 10.5066 31.5909 10.4804 31.5236 10.451C31.4562 10.4215 31.3965 10.3833 31.3444 10.3364C31.2923 10.2895 31.25 10.2311 31.2174 10.1612C31.1859 10.0903 31.1702 10.003 31.1702 9.89931C31.1702 9.8164 31.1859 9.7362 31.2174 9.65869C31.25 9.58125 31.2967 9.51249 31.3574 9.45246C31.4193 9.39243 31.4948 9.34441 31.5838 9.30839C31.6739 9.27237 31.7771 9.25439 31.8932 9.25439C32.0235 9.25439 32.1418 9.27514 32.2482 9.31656C32.3557 9.35805 32.4502 9.41808 32.5316 9.49665L32.455 9.64725Z" fill="#C7C7C7"/>
</g>
<g id="Vector_24">
<path d="M33.3456 11.6265H33.0297V9.28076H33.3456V11.6265Z" fill="#C7C7C7"/>
<path d="M33.3456 11.6265H33.0297V9.28076H33.3456V11.6265Z" fill="#C7C7C7"/>
</g>
<g id="Vector_25">
<path d="M35.1818 10.7557L34.8154 9.80134C34.8046 9.77293 34.7932 9.74025 34.7812 9.7031C34.7693 9.66494 34.7579 9.62453 34.747 9.58197C34.7243 9.67035 34.7009 9.74402 34.677 9.80298L34.3106 10.7557H35.1818ZM35.8397 11.6265H35.5955C35.5672 11.6265 35.5445 11.6194 35.5271 11.6052C35.5097 11.5911 35.4967 11.573 35.488 11.5512L35.2698 10.9848H34.2227L34.0045 11.5512C33.998 11.5709 33.9855 11.5883 33.967 11.6036C33.9486 11.6189 33.9257 11.6265 33.8986 11.6265H33.6544L34.5874 9.28076H34.9066L35.8397 11.6265Z" fill="#C7C7C7"/>
<path d="M35.1818 10.7557L34.8154 9.80134C34.8046 9.77293 34.7932 9.74025 34.7812 9.7031C34.7693 9.66494 34.7579 9.62453 34.747 9.58197C34.7243 9.67035 34.7009 9.74402 34.677 9.80298L34.3106 10.7557H35.1818ZM35.8397 11.6265H35.5955C35.5672 11.6265 35.5445 11.6194 35.5271 11.6052C35.5097 11.5911 35.4967 11.573 35.488 11.5512L35.2698 10.9848H34.2227L34.0045 11.5512C33.998 11.5709 33.9855 11.5883 33.967 11.6036C33.9486 11.6189 33.9257 11.6265 33.8986 11.6265H33.6544L34.5874 9.28076H34.9066L35.8397 11.6265Z" fill="#C7C7C7"/>
</g>
</g>
</g>
</svg>
