<svg width="48" height="24" viewBox="0 0 48 24" fill="none" xmlns="http://www.w3.org/2000/svg">
<g id="BCA">
<g id="logo">
<g id="Fill 1">
<path fill-rule="evenodd" clip-rule="evenodd" d="M9.98502 15.1083C9.98502 14.63 9.99052 13.3516 9.97801 13.1941C9.98892 11.2918 8.52168 9.94993 7.59474 10.0545C6.95333 10.107 6.41567 10.3536 6.12716 11.0628C5.85953 11.7238 6.09881 12.603 6.98822 12.8093C7.93914 13.0309 8.49459 13.2152 8.89649 13.4753C9.38894 13.7937 9.79095 14.402 9.80162 15.1091" fill="#C7C7C7"/>
<path fill-rule="evenodd" clip-rule="evenodd" d="M9.98502 15.1083C9.98502 14.63 9.99052 13.3516 9.97801 13.1941C9.98892 11.2918 8.52168 9.94993 7.59474 10.0545C6.95333 10.107 6.41567 10.3536 6.12716 11.0628C5.85953 11.7238 6.09881 12.603 6.98822 12.8093C7.93914 13.0309 8.49459 13.2152 8.89649 13.4753C9.38894 13.7937 9.79095 14.402 9.80162 15.1091" fill="#C7C7C7"/>
</g>
<g id="Fill 6">
<path fill-rule="evenodd" clip-rule="evenodd" d="M9.58755 15.1092C9.59065 14.4961 9.22765 13.954 8.75323 13.6627C8.33239 13.4052 7.76742 13.2361 6.85597 13.0181C6.57423 12.9502 6.27952 12.7993 6.18828 12.6069C5.94694 12.8362 5.9031 13.3516 5.94556 13.6528C5.99491 14.0013 6.42699 14.5758 7.07758 14.5983C7.47489 14.6133 7.9772 14.5177 8.21809 14.4694C8.63364 14.3848 9.29112 14.6302 9.39578 15.1085" fill="#C7C7C7"/>
<path fill-rule="evenodd" clip-rule="evenodd" d="M9.58755 15.1092C9.59065 14.4961 9.22765 13.954 8.75323 13.6627C8.33239 13.4052 7.76742 13.2361 6.85597 13.0181C6.57423 12.9502 6.27952 12.7993 6.18828 12.6069C5.94694 12.8362 5.9031 13.3516 5.94556 13.6528C5.99491 14.0013 6.42699 14.5758 7.07758 14.5983C7.47489 14.6133 7.9772 14.5177 8.21809 14.4694C8.63364 14.3848 9.29112 14.6302 9.39578 15.1085" fill="#C7C7C7"/>
</g>
<g id="Fill 8">
<path fill-rule="evenodd" clip-rule="evenodd" d="M10.3211 7.08984C9.21793 7.08984 8.26517 7.77562 8.2685 8.96228C8.27195 9.96016 9.12325 10.4944 9.42715 10.8759C9.8862 11.4509 10.1347 12.1315 10.1604 13.1729C10.1806 14.0017 10.1795 14.8201 10.184 15.1101H10.4274C10.4233 14.8067 10.4123 13.9378 10.4248 13.1472C10.4413 12.1055 10.6987 11.4509 11.158 10.8759C11.4645 10.4944 12.315 9.96016 12.3169 8.96228C12.3211 7.77562 11.3687 7.08984 10.2666 7.08984" fill="#C7C7C7"/>
<path fill-rule="evenodd" clip-rule="evenodd" d="M10.3211 7.08984C9.21793 7.08984 8.26517 7.77562 8.2685 8.96228C8.27195 9.96016 9.12325 10.4944 9.42715 10.8759C9.8862 11.4509 10.1347 12.1315 10.1604 13.1729C10.1806 14.0017 10.1795 14.8201 10.184 15.1101H10.4274C10.4233 14.8067 10.4123 13.9378 10.4248 13.1472C10.4413 12.1055 10.6987 11.4509 11.158 10.8759C11.4645 10.4944 12.315 9.96016 12.3169 8.96228C12.3211 7.77562 11.3687 7.08984 10.2666 7.08984" fill="#C7C7C7"/>
</g>
<g id="Fill 10">
<path fill-rule="evenodd" clip-rule="evenodd" d="M10.6011 15.1083C10.6011 14.63 10.5953 13.3516 10.6076 13.1941C10.5968 11.2918 12.0631 9.94993 12.9909 10.0545C13.6323 10.107 14.1693 10.3536 14.4587 11.0628C14.726 11.7238 14.4854 12.603 13.5972 12.8093C12.6456 13.0309 12.0909 13.2152 11.688 13.4753C11.1961 13.7937 10.8222 14.402 10.8107 15.1091" fill="#C7C7C7"/>
<path fill-rule="evenodd" clip-rule="evenodd" d="M10.6011 15.1083C10.6011 14.63 10.5953 13.3516 10.6076 13.1941C10.5968 11.2918 12.0631 9.94993 12.9909 10.0545C13.6323 10.107 14.1693 10.3536 14.4587 11.0628C14.726 11.7238 14.4854 12.603 13.5972 12.8093C12.6456 13.0309 12.0909 13.2152 11.688 13.4753C11.1961 13.7937 10.8222 14.402 10.8107 15.1091" fill="#C7C7C7"/>
</g>
<g id="Fill 12">
<path fill-rule="evenodd" clip-rule="evenodd" d="M10.9983 15.1092C10.9949 14.4961 11.3578 13.954 11.8308 13.6627C12.2535 13.4052 12.819 13.2361 13.7297 13.0181C14.012 12.9502 14.3063 12.7993 14.396 12.6069C14.6385 12.8362 14.6823 13.3516 14.6397 13.6528C14.5895 14.0013 14.1584 14.5758 13.509 14.5983C13.1119 14.6133 12.6068 14.5177 12.367 14.4694C11.953 14.3848 11.2937 14.6302 11.1886 15.1085" fill="#C7C7C7"/>
<path fill-rule="evenodd" clip-rule="evenodd" d="M10.9983 15.1092C10.9949 14.4961 11.3578 13.954 11.8308 13.6627C12.2535 13.4052 12.819 13.2361 13.7297 13.0181C14.012 12.9502 14.3063 12.7993 14.396 12.6069C14.6385 12.8362 14.6823 13.3516 14.6397 13.6528C14.5895 14.0013 14.1584 14.5758 13.509 14.5983C13.1119 14.6133 12.6068 14.5177 12.367 14.4694C11.953 14.3848 11.2937 14.6302 11.1886 15.1085" fill="#C7C7C7"/>
</g>
<g id="Fill 14">
<path fill-rule="evenodd" clip-rule="evenodd" d="M11.3385 17.0884L11.1974 16.1175L11.5382 16.0688C11.621 16.0582 11.722 16.0718 11.7624 16.1207C11.8071 16.1719 11.8207 16.2142 11.8293 16.2813C11.8423 16.3644 11.8168 16.4602 11.7177 16.508V16.5109C11.8283 16.5109 11.8952 16.5859 11.9147 16.7125C11.9175 16.7393 11.926 16.8038 11.9175 16.8577C11.895 16.9859 11.814 17.0272 11.6769 17.0453L11.3385 17.0884ZM11.5579 16.9147C11.5983 16.9092 11.6392 16.9072 11.6713 16.8879C11.7204 16.8577 11.7159 16.7933 11.709 16.7452C11.692 16.64 11.6629 16.5998 11.5443 16.6164L11.4697 16.6272L11.517 16.92L11.5579 16.9147ZM11.4867 16.4661C11.5318 16.4592 11.5928 16.454 11.6183 16.4137C11.6317 16.3868 11.6487 16.3653 11.6375 16.3054C11.6236 16.2344 11.5987 16.1903 11.5028 16.2074L11.4137 16.2209L11.4489 16.4697L11.4867 16.4661Z" fill="#C7C7C7"/>
<path fill-rule="evenodd" clip-rule="evenodd" d="M11.3385 17.0884L11.1974 16.1175L11.5382 16.0688C11.621 16.0582 11.722 16.0718 11.7624 16.1207C11.8071 16.1719 11.8207 16.2142 11.8293 16.2813C11.8423 16.3644 11.8168 16.4602 11.7177 16.508V16.5109C11.8283 16.5109 11.8952 16.5859 11.9147 16.7125C11.9175 16.7393 11.926 16.8038 11.9175 16.8577C11.895 16.9859 11.814 17.0272 11.6769 17.0453L11.3385 17.0884ZM11.5579 16.9147C11.5983 16.9092 11.6392 16.9072 11.6713 16.8879C11.7204 16.8577 11.7159 16.7933 11.709 16.7452C11.692 16.64 11.6629 16.5998 11.5443 16.6164L11.4697 16.6272L11.517 16.92L11.5579 16.9147ZM11.4867 16.4661C11.5318 16.4592 11.5928 16.454 11.6183 16.4137C11.6317 16.3868 11.6487 16.3653 11.6375 16.3054C11.6236 16.2344 11.5987 16.1903 11.5028 16.2074L11.4137 16.2209L11.4489 16.4697L11.4867 16.4661Z" fill="#C7C7C7"/>
</g>
<g id="Fill 16">
<path fill-rule="evenodd" clip-rule="evenodd" d="M12.8145 16.5044C12.8172 16.5225 12.8203 16.5426 12.8214 16.5607C12.8489 16.7377 12.8145 16.8844 12.6034 16.9247C12.2911 16.9813 12.2313 16.7986 12.1764 16.5426L12.1472 16.4041C12.1041 16.1592 12.0857 15.9738 12.39 15.9166C12.5616 15.8872 12.675 15.9515 12.7221 16.1125C12.7295 16.1365 12.7387 16.1602 12.7421 16.1844L12.5554 16.2208C12.5338 16.1602 12.5052 16.0521 12.4212 16.0612C12.2704 16.0784 12.3202 16.2552 12.3357 16.3292L12.3918 16.595C12.4087 16.6754 12.4422 16.8038 12.5727 16.779C12.6786 16.759 12.6324 16.6034 12.623 16.5396" fill="#C7C7C7"/>
<path fill-rule="evenodd" clip-rule="evenodd" d="M12.8145 16.5044C12.8172 16.5225 12.8203 16.5426 12.8214 16.5607C12.8489 16.7377 12.8145 16.8844 12.6034 16.9247C12.2911 16.9813 12.2313 16.7986 12.1764 16.5426L12.1472 16.4041C12.1041 16.1592 12.0857 15.9738 12.39 15.9166C12.5616 15.8872 12.675 15.9515 12.7221 16.1125C12.7295 16.1365 12.7387 16.1602 12.7421 16.1844L12.5554 16.2208C12.5338 16.1602 12.5052 16.0521 12.4212 16.0612C12.2704 16.0784 12.3202 16.2552 12.3357 16.3292L12.3918 16.595C12.4087 16.6754 12.4422 16.8038 12.5727 16.779C12.6786 16.759 12.6324 16.6034 12.623 16.5396" fill="#C7C7C7"/>
</g>
<g id="Fill 18">
<path fill-rule="evenodd" clip-rule="evenodd" d="M13.1141 16.7982L13.0496 15.7933L13.3003 15.7212L13.8263 16.5951L13.6288 16.6508L13.5042 16.4287L13.2849 16.4908L13.3132 16.7433L13.1141 16.7982ZM13.2665 16.3285L13.425 16.2853L13.2146 15.8787L13.2665 16.3285Z" fill="#C7C7C7"/>
<path fill-rule="evenodd" clip-rule="evenodd" d="M13.1141 16.7982L13.0496 15.7933L13.3003 15.7212L13.8263 16.5951L13.6288 16.6508L13.5042 16.4287L13.2849 16.4908L13.3132 16.7433L13.1141 16.7982ZM13.2665 16.3285L13.425 16.2853L13.2146 15.8787L13.2665 16.3285Z" fill="#C7C7C7"/>
</g>
<g id="Fill 20">
<path fill-rule="evenodd" clip-rule="evenodd" d="M6.91786 16.0385C6.99636 15.8017 7.06659 15.6272 7.36624 15.7047C7.52656 15.747 7.62595 15.8135 7.62124 15.9891C7.62044 16.0281 7.60678 16.068 7.59783 16.1066L7.41134 16.0581C7.43578 15.961 7.45128 15.8841 7.32458 15.8473C7.17814 15.8095 7.14245 15.9769 7.12225 16.0492L7.04639 16.3125C7.02229 16.3907 6.99337 16.52 7.12225 16.5535C7.22875 16.5804 7.29325 16.4819 7.33181 16.3381L7.20144 16.3054L7.24654 16.1531L7.5533 16.246L7.40767 16.7537L7.26651 16.7176L7.2983 16.6103H7.29428C7.22921 16.6981 7.15003 16.7073 7.08059 16.6946C6.77383 16.6165 6.80585 16.4275 6.87907 16.175" fill="#C7C7C7"/>
<path fill-rule="evenodd" clip-rule="evenodd" d="M6.91786 16.0385C6.99636 15.8017 7.06659 15.6272 7.36624 15.7047C7.52656 15.747 7.62595 15.8135 7.62124 15.9891C7.62044 16.0281 7.60678 16.068 7.59783 16.1066L7.41134 16.0581C7.43578 15.961 7.45128 15.8841 7.32458 15.8473C7.17814 15.8095 7.14245 15.9769 7.12225 16.0492L7.04639 16.3125C7.02229 16.3907 6.99337 16.52 7.12225 16.5535C7.22875 16.5804 7.29325 16.4819 7.33181 16.3381L7.20144 16.3054L7.24654 16.1531L7.5533 16.246L7.40767 16.7537L7.26651 16.7176L7.2983 16.6103H7.29428C7.22921 16.6981 7.15003 16.7073 7.08059 16.6946C6.77383 16.6165 6.80585 16.4275 6.87907 16.175" fill="#C7C7C7"/>
</g>
<g id="Fill 22">
<path fill-rule="evenodd" clip-rule="evenodd" d="M8.05967 16.4672L7.96729 16.8803L7.75934 16.838L7.98094 15.8735L8.33545 15.9489C8.54294 15.9912 8.6056 16.0782 8.57622 16.2576C8.55946 16.3605 8.50564 16.4712 8.37424 16.4623L8.37286 16.4606C8.48395 16.4972 8.49336 16.5501 8.47396 16.6413C8.46559 16.6803 8.40786 16.9159 8.44768 16.954L8.44906 16.983L8.23388 16.9299C8.22493 16.8647 8.25546 16.7472 8.26751 16.6821C8.27956 16.6245 8.29895 16.5434 8.23698 16.513C8.18855 16.4886 8.17042 16.4897 8.11556 16.478L8.05967 16.4672ZM8.09526 16.3178L8.23527 16.3534C8.32031 16.3651 8.36759 16.3235 8.38435 16.2266C8.3995 16.1378 8.37987 16.1032 8.30356 16.086L8.15345 16.0572L8.09526 16.3178Z" fill="#C7C7C7"/>
<path fill-rule="evenodd" clip-rule="evenodd" d="M8.05967 16.4672L7.96729 16.8803L7.75934 16.838L7.98094 15.8735L8.33545 15.9489C8.54294 15.9912 8.6056 16.0782 8.57622 16.2576C8.55946 16.3605 8.50564 16.4712 8.37424 16.4623L8.37286 16.4606C8.48395 16.4972 8.49336 16.5501 8.47396 16.6413C8.46559 16.6803 8.40786 16.9159 8.44768 16.954L8.44906 16.983L8.23388 16.9299C8.22493 16.8647 8.25546 16.7472 8.26751 16.6821C8.27956 16.6245 8.29895 16.5434 8.23698 16.513C8.18855 16.4886 8.17042 16.4897 8.11556 16.478L8.05967 16.4672ZM8.09526 16.3178L8.23527 16.3534C8.32031 16.3651 8.36759 16.3235 8.38435 16.2266C8.3995 16.1378 8.37987 16.1032 8.30356 16.086L8.15345 16.0572L8.09526 16.3178Z" fill="#C7C7C7"/>
</g>
<g id="Fill 24">
<path fill-rule="evenodd" clip-rule="evenodd" d="M9.3935 16.0891L9.59915 16.1116L9.51055 16.7897C9.46752 17.0047 9.37938 17.0986 9.12851 17.0693C8.87328 17.0388 8.81268 16.9293 8.82806 16.7126L8.91735 16.0352L9.12461 16.0574L9.03567 16.7197C9.02614 16.7917 9.00858 16.8982 9.14423 16.9112C9.26462 16.9199 9.29193 16.8446 9.30559 16.7511" fill="#C7C7C7"/>
<path fill-rule="evenodd" clip-rule="evenodd" d="M9.3935 16.0891L9.59915 16.1116L9.51055 16.7897C9.46752 17.0047 9.37938 17.0986 9.12851 17.0693C8.87328 17.0388 8.81268 16.9293 8.82806 16.7126L8.91735 16.0352L9.12461 16.0574L9.03567 16.7197C9.02614 16.7917 9.00858 16.8982 9.14423 16.9112C9.26462 16.9199 9.29193 16.8446 9.30559 16.7511" fill="#C7C7C7"/>
</g>
<g id="Fill 26">
<path fill-rule="evenodd" clip-rule="evenodd" d="M9.8259 17.1063L9.88787 16.1367L10.2829 16.1528C10.4697 16.1616 10.5185 16.3053 10.5128 16.4424C10.5072 16.5259 10.4797 16.619 10.4026 16.6695C10.3393 16.7125 10.258 16.7226 10.1827 16.7192L10.0539 16.7125L10.0282 17.1188L9.8259 17.1063ZM10.0596 16.5646L10.1643 16.5702C10.2493 16.5731 10.3057 16.5414 10.313 16.4237C10.3172 16.3107 10.2718 16.2915 10.1616 16.2869L10.0788 16.2842L10.0596 16.5646Z" fill="#C7C7C7"/>
<path fill-rule="evenodd" clip-rule="evenodd" d="M9.8259 17.1063L9.88787 16.1367L10.2829 16.1528C10.4697 16.1616 10.5185 16.3053 10.5128 16.4424C10.5072 16.5259 10.4797 16.619 10.4026 16.6695C10.3393 16.7125 10.258 16.7226 10.1827 16.7192L10.0539 16.7125L10.0282 17.1188L9.8259 17.1063ZM10.0596 16.5646L10.1643 16.5702C10.2493 16.5731 10.3057 16.5414 10.313 16.4237C10.3172 16.3107 10.2718 16.2915 10.1616 16.2869L10.0788 16.2842L10.0596 16.5646Z" fill="#C7C7C7"/>
</g>
<g id="Fill 28">
<path fill-rule="evenodd" clip-rule="evenodd" d="M37.6939 8.02678L36.1235 10.7138C35.5307 10.26 34.807 9.92615 33.8835 9.92615C31.6981 9.92615 30.8103 11.4617 30.8103 12.5434C30.8103 13.3465 31.368 14.5311 33.3126 14.5311C34.1289 14.5311 35.2891 13.9959 35.6231 13.7523L34.07 16.8697C33.3297 17.0089 33.0864 17.0952 32.4598 17.1135C28.9793 17.2114 27.573 15.1959 27.5739 13.1365C27.5763 10.4138 30.144 7.10279 34.4009 7.10279C34.6616 7.10279 34.9807 7.18793 35.2535 7.28215L35.5292 6.94971" fill="#C7C7C7"/>
<path fill-rule="evenodd" clip-rule="evenodd" d="M37.6939 8.02678L36.1235 10.7138C35.5307 10.26 34.807 9.92615 33.8835 9.92615C31.6981 9.92615 30.8103 11.4617 30.8103 12.5434C30.8103 13.3465 31.368 14.5311 33.3126 14.5311C34.1289 14.5311 35.2891 13.9959 35.6231 13.7523L34.07 16.8697C33.3297 17.0089 33.0864 17.0952 32.4598 17.1135C28.9793 17.2114 27.573 15.1959 27.5739 13.1365C27.5763 10.4138 30.144 7.10279 34.4009 7.10279C34.6616 7.10279 34.9807 7.18793 35.2535 7.28215L35.5292 6.94971" fill="#C7C7C7"/>
</g>
<g id="Fill 30">
<path fill-rule="evenodd" clip-rule="evenodd" d="M44.1737 7.03418L44.6184 16.8H41.3089L41.3071 15.1252H39.0503L38.3076 16.8H34.7183L38.4708 9.82639L37.6247 9.82119L39.2323 7.03418H44.1737ZM41.2855 10.0219L40.0097 12.8625H41.3241L41.2855 10.0219Z" fill="#C7C7C7"/>
<path fill-rule="evenodd" clip-rule="evenodd" d="M44.1737 7.03418L44.6184 16.8H41.3089L41.3071 15.1252H39.0503L38.3076 16.8H34.7183L38.4708 9.82639L37.6247 9.82119L39.2323 7.03418H44.1737ZM41.2855 10.0219L40.0097 12.8625H41.3241L41.2855 10.0219Z" fill="#C7C7C7"/>
</g>
<g id="Fill 32">
<path fill-rule="evenodd" clip-rule="evenodd" d="M25.4844 7.03412C27.1234 7.04277 28.0495 7.88141 28.0495 9.09274C28.0495 10.2096 27.0728 11.1981 26.0005 11.7093C27.1044 12.0919 27.1999 13.0309 27.1999 13.6952C27.1999 15.3003 25.4916 16.7999 23.2708 16.7999H18.4275L20.3167 9.92348L19.5407 9.91926L21.127 7.03412C21.127 7.03412 24.1517 7.02547 25.4844 7.03412ZM23.8766 10.9936C24.2156 10.9936 24.8142 10.9127 24.9638 10.2942C25.1278 9.62275 24.566 9.60468 24.2966 9.60468L23.3337 9.60078L22.9979 10.9936H23.8766ZM22.5152 12.7193L22.0719 14.3243H23.2058C23.6517 14.3243 24.2596 14.1155 24.4086 13.5932C24.5557 13.0695 24.1308 12.7193 23.6864 12.7193H22.5152Z" fill="#C7C7C7"/>
<path fill-rule="evenodd" clip-rule="evenodd" d="M25.4844 7.03412C27.1234 7.04277 28.0495 7.88141 28.0495 9.09274C28.0495 10.2096 27.0728 11.1981 26.0005 11.7093C27.1044 12.0919 27.1999 13.0309 27.1999 13.6952C27.1999 15.3003 25.4916 16.7999 23.2708 16.7999H18.4275L20.3167 9.92348L19.5407 9.91926L21.127 7.03412C21.127 7.03412 24.1517 7.02547 25.4844 7.03412ZM23.8766 10.9936C24.2156 10.9936 24.8142 10.9127 24.9638 10.2942C25.1278 9.62275 24.566 9.60468 24.2966 9.60468L23.3337 9.60078L22.9979 10.9936H23.8766ZM22.5152 12.7193L22.0719 14.3243H23.2058C23.6517 14.3243 24.2596 14.1155 24.4086 13.5932C24.5557 13.0695 24.1308 12.7193 23.6864 12.7193H22.5152Z" fill="#C7C7C7"/>
</g>
<g id="group">
<g id="Fill 3">
<path fill-rule="evenodd" clip-rule="evenodd" d="M10.3647 18C8.68771 18 6.96443 17.6106 5.24334 16.8406L5.20111 16.821L5.18091 16.7805C4.40855 15.2436 4 13.5628 4 11.9182C4 10.2759 4.3918 8.66693 5.16461 7.13214L5.18596 7.09135L5.22899 7.07101C6.82109 6.36003 8.5337 6 10.3211 6C11.986 6 13.7642 6.40082 15.4625 7.16135L15.506 7.17963L15.5262 7.22117C16.3132 8.78637 16.7283 10.4669 16.7283 12.0843C16.7283 13.6953 16.3297 15.3058 15.5417 16.87L15.521 16.911L15.4772 16.9301C13.9093 17.6297 12.1414 18 10.3647 18ZM5.40258 16.6299C7.07444 17.3714 8.74205 17.7457 10.3647 17.7457C12.0852 17.7457 13.7962 17.3912 15.3194 16.7191C16.0761 15.2034 16.4596 13.6434 16.4596 12.0843C16.4596 10.5188 16.0593 8.89056 15.3021 7.37134C13.654 6.641 11.9328 6.2537 10.3211 6.2537C8.59068 6.2537 6.93202 6.59967 5.38812 7.28231C4.64698 8.76982 4.26976 10.3286 4.26976 11.9182C4.26976 13.5105 4.66167 15.1395 5.40258 16.6299Z" fill="#C7C7C7"/>
<path fill-rule="evenodd" clip-rule="evenodd" d="M10.3647 18C8.68771 18 6.96443 17.6106 5.24334 16.8406L5.20111 16.821L5.18091 16.7805C4.40855 15.2436 4 13.5628 4 11.9182C4 10.2759 4.3918 8.66693 5.16461 7.13214L5.18596 7.09135L5.22899 7.07101C6.82109 6.36003 8.5337 6 10.3211 6C11.986 6 13.7642 6.40082 15.4625 7.16135L15.506 7.17963L15.5262 7.22117C16.3132 8.78637 16.7283 10.4669 16.7283 12.0843C16.7283 13.6953 16.3297 15.3058 15.5417 16.87L15.521 16.911L15.4772 16.9301C13.9093 17.6297 12.1414 18 10.3647 18ZM5.40258 16.6299C7.07444 17.3714 8.74205 17.7457 10.3647 17.7457C12.0852 17.7457 13.7962 17.3912 15.3194 16.7191C16.0761 15.2034 16.4596 13.6434 16.4596 12.0843C16.4596 10.5188 16.0593 8.89056 15.3021 7.37134C13.654 6.641 11.9328 6.2537 10.3211 6.2537C8.59068 6.2537 6.93202 6.59967 5.38812 7.28231C4.64698 8.76982 4.26976 10.3286 4.26976 11.9182C4.26976 13.5105 4.66167 15.1395 5.40258 16.6299Z" fill="#C7C7C7"/>
</g>
</g>
</g>
</g>
</svg>
