<svg width="50" height="24" viewBox="0 0 50 24" fill="none" xmlns="http://www.w3.org/2000/svg">
<g id="BNI">
<g id="logo">
<g id="46">
<path fill-rule="evenodd" clip-rule="evenodd" d="M7.9556 15.2412L9.71134 17.4154H5.36443L7.9556 15.2412ZM7.40348 14.5696L4.00311 17.422L4.00172 10.4067L7.40348 14.5696ZM15.585 7.50545C15.585 7.50545 14.8385 7.15208 13.9713 7.20369C12.9799 7.26208 12.1505 7.64229 11.6736 8.14399C11.3736 8.45918 11.0419 8.84369 10.8753 9.26127C10.6337 9.86536 10.5821 10.6636 10.5821 10.6636C10.5821 10.6636 10.2353 10.3693 9.80091 9.5117C9.29578 8.51425 9.15761 7.91002 9.08916 7.22071C9.02823 6.61579 9.12387 6.01765 9.12387 6.01765H15.585V7.50545ZM15.585 9.49422V13.9177C15.585 13.9177 15.1833 14.0719 14.8557 14.0719C14.5281 14.0719 13.9701 14.0234 13.3221 13.6671C12.6788 13.3137 12.3227 12.8862 12.0466 12.4988C11.7667 12.1047 11.5355 11.5584 11.4668 11.1648C11.4116 10.8499 11.352 10.0644 11.6737 9.42601C11.8482 9.07955 12.3167 8.4857 13.2186 8.45194C13.9538 8.42372 14.3615 8.61701 14.7351 8.82206C15.4462 9.21307 15.585 9.49422 15.585 9.49422ZM8.54963 13.607L9.71506 12.6356C9.34364 12.1611 9.24548 11.9824 8.83028 11.3698C8.40518 10.7429 8.0491 10.0532 7.7446 9.2439C7.41501 8.36724 7.3354 7.87509 7.37179 7.22064C7.41738 6.38797 7.60671 6.01758 7.60671 6.01758H4L4.00167 7.96143C4.00167 7.96143 6.76251 11.4213 8.54963 13.607ZM11.8796 17.4122H15.585V14.7104C15.585 14.7104 14.6659 15.132 14.0685 15.166C13.7128 15.1867 13.3676 15.2004 12.8106 15.0523C12.1915 14.8877 11.8397 14.7274 11.2658 14.2541C10.8049 13.8744 10.2779 13.3137 10.2779 13.3137L9.10562 14.2911C9.64951 14.9564 10.0512 15.4406 10.1742 15.571C10.7028 16.1297 10.9269 16.335 11.283 16.5341C11.6389 16.7336 12.8282 16.7228 12.8282 16.7228L11.8796 17.4122Z" fill="#C7C7C7"/>
<path fill-rule="evenodd" clip-rule="evenodd" d="M7.9556 15.2412L9.71134 17.4154H5.36443L7.9556 15.2412ZM7.40348 14.5696L4.00311 17.422L4.00172 10.4067L7.40348 14.5696ZM15.585 7.50545C15.585 7.50545 14.8385 7.15208 13.9713 7.20369C12.9799 7.26208 12.1505 7.64229 11.6736 8.14399C11.3736 8.45918 11.0419 8.84369 10.8753 9.26127C10.6337 9.86536 10.5821 10.6636 10.5821 10.6636C10.5821 10.6636 10.2353 10.3693 9.80091 9.5117C9.29578 8.51425 9.15761 7.91002 9.08916 7.22071C9.02823 6.61579 9.12387 6.01765 9.12387 6.01765H15.585V7.50545ZM15.585 9.49422V13.9177C15.585 13.9177 15.1833 14.0719 14.8557 14.0719C14.5281 14.0719 13.9701 14.0234 13.3221 13.6671C12.6788 13.3137 12.3227 12.8862 12.0466 12.4988C11.7667 12.1047 11.5355 11.5584 11.4668 11.1648C11.4116 10.8499 11.352 10.0644 11.6737 9.42601C11.8482 9.07955 12.3167 8.4857 13.2186 8.45194C13.9538 8.42372 14.3615 8.61701 14.7351 8.82206C15.4462 9.21307 15.585 9.49422 15.585 9.49422ZM8.54963 13.607L9.71506 12.6356C9.34364 12.1611 9.24548 11.9824 8.83028 11.3698C8.40518 10.7429 8.0491 10.0532 7.7446 9.2439C7.41501 8.36724 7.3354 7.87509 7.37179 7.22064C7.41738 6.38797 7.60671 6.01758 7.60671 6.01758H4L4.00167 7.96143C4.00167 7.96143 6.76251 11.4213 8.54963 13.607ZM11.8796 17.4122H15.585V14.7104C15.585 14.7104 14.6659 15.132 14.0685 15.166C13.7128 15.1867 13.3676 15.2004 12.8106 15.0523C12.1915 14.8877 11.8397 14.7274 11.2658 14.2541C10.8049 13.8744 10.2779 13.3137 10.2779 13.3137L9.10562 14.2911C9.64951 14.9564 10.0512 15.4406 10.1742 15.571C10.7028 16.1297 10.9269 16.335 11.283 16.5341C11.6389 16.7336 12.8282 16.7228 12.8282 16.7228L11.8796 17.4122Z" fill="#C7C7C7"/>
</g>
<g id="BNI_2">
<path fill-rule="evenodd" clip-rule="evenodd" d="M43.609 15.0086C43.609 15.7915 43.7146 17.0782 42.8379 17.3915V17.4436H46.1676V17.3915C45.2914 17.0611 45.3965 15.7915 45.3965 15.0086V8.45205C45.3965 7.66961 45.2914 6.38257 46.1676 6.05216V6H42.8379V6.05216C43.7317 6.38257 43.609 7.65218 43.609 8.45205V15.0086ZM31.3997 8.45205L37.4109 16.0175C38.1817 17.0086 38.7254 17.5828 39.9696 18V8.2434C39.9696 7.26961 39.9696 6.57379 40.8811 6.05216V6H37.7964V6.05216C38.7254 6.57379 38.7075 7.26961 38.7075 8.2434V14.8348L32.2937 6.79987L32.048 6.45203C31.9256 6.31297 31.8556 6.22608 31.7855 6.01743V6H29.2264V6.05216C30.1378 6.57379 30.1378 7.26961 30.1378 8.2434V15.1829C30.1378 16.1566 30.1378 16.8521 29.2092 17.3915V17.4436H32.3112V17.3915C31.3823 16.8521 31.3997 16.1566 31.3997 15.1829V8.45205ZM21.6012 10.6089V7.20025L22.7752 7.07822C23.8268 6.97389 24.9482 7.60012 24.9482 8.80027C24.9482 10.2264 23.3183 10.6089 22.1795 10.6089H21.6012ZM21.6012 16.0523V11.7564L22.8277 11.687C24.37 11.5999 26.0173 12.3306 26.0173 14.0175C26.0173 15.6697 24.5631 16.3305 23.1257 16.1915L21.6012 16.0523ZM19.8135 14.9913C19.8135 15.7915 19.9188 17.0611 19.0422 17.3915V17.4436H21.934C23.2483 17.4436 24.6332 17.4959 25.8597 16.9046C27.0339 16.348 27.9629 15.2 27.9629 13.8608C27.9629 12.1567 26.6833 11.113 25.106 10.7823C26.1051 10.3477 26.8584 9.68693 26.8584 8.52165C26.8584 6.97379 25.5093 6 23.1962 6H19.0422V6.05216C19.9365 6.38257 19.8135 7.65218 19.8135 8.43462V14.9913Z" fill="#C7C7C7"/>
<path fill-rule="evenodd" clip-rule="evenodd" d="M43.609 15.0086C43.609 15.7915 43.7146 17.0782 42.8379 17.3915V17.4436H46.1676V17.3915C45.2914 17.0611 45.3965 15.7915 45.3965 15.0086V8.45205C45.3965 7.66961 45.2914 6.38257 46.1676 6.05216V6H42.8379V6.05216C43.7317 6.38257 43.609 7.65218 43.609 8.45205V15.0086ZM31.3997 8.45205L37.4109 16.0175C38.1817 17.0086 38.7254 17.5828 39.9696 18V8.2434C39.9696 7.26961 39.9696 6.57379 40.8811 6.05216V6H37.7964V6.05216C38.7254 6.57379 38.7075 7.26961 38.7075 8.2434V14.8348L32.2937 6.79987L32.048 6.45203C31.9256 6.31297 31.8556 6.22608 31.7855 6.01743V6H29.2264V6.05216C30.1378 6.57379 30.1378 7.26961 30.1378 8.2434V15.1829C30.1378 16.1566 30.1378 16.8521 29.2092 17.3915V17.4436H32.3112V17.3915C31.3823 16.8521 31.3997 16.1566 31.3997 15.1829V8.45205ZM21.6012 10.6089V7.20025L22.7752 7.07822C23.8268 6.97389 24.9482 7.60012 24.9482 8.80027C24.9482 10.2264 23.3183 10.6089 22.1795 10.6089H21.6012ZM21.6012 16.0523V11.7564L22.8277 11.687C24.37 11.5999 26.0173 12.3306 26.0173 14.0175C26.0173 15.6697 24.5631 16.3305 23.1257 16.1915L21.6012 16.0523ZM19.8135 14.9913C19.8135 15.7915 19.9188 17.0611 19.0422 17.3915V17.4436H21.934C23.2483 17.4436 24.6332 17.4959 25.8597 16.9046C27.0339 16.348 27.9629 15.2 27.9629 13.8608C27.9629 12.1567 26.6833 11.113 25.106 10.7823C26.1051 10.3477 26.8584 9.68693 26.8584 8.52165C26.8584 6.97379 25.5093 6 23.1962 6H19.0422V6.05216C19.9365 6.38257 19.8135 7.65218 19.8135 8.43462V14.9913Z" fill="#C7C7C7"/>
</g>
</g>
</g>
</svg>
