<svg width="58" height="24" viewBox="0 0 58 24" fill="none" xmlns="http://www.w3.org/2000/svg">
<g id="BRI">
<g id="logo">
<g id="Fill 1">
<path fill-rule="evenodd" clip-rule="evenodd" d="M17.6691 9.01172H20.3916C21.494 9.01172 22.3159 9.4995 22.3159 10.5264C22.3159 11.2793 21.9349 11.6986 21.2731 11.9207V11.9376C22.0619 12.1007 22.469 12.5285 22.469 13.2554C22.469 14.6846 21.222 14.9839 20.1621 14.9839H17.6691V9.01172ZM19.2461 11.3732H19.6875C20.2048 11.3732 20.7394 11.2448 20.7394 10.7396C20.7394 10.1927 20.2303 10.1409 19.704 10.1409H19.2461V11.3732ZM19.2461 13.8546H19.7133C20.2895 13.8546 20.8914 13.7689 20.8914 13.1613C20.8914 12.5116 20.2727 12.4511 19.7298 12.4511H19.2461V13.8546Z" fill="#C7C7C7"/>
<path fill-rule="evenodd" clip-rule="evenodd" d="M17.6691 9.01172H20.3916C21.494 9.01172 22.3159 9.4995 22.3159 10.5264C22.3159 11.2793 21.9349 11.6986 21.2731 11.9207V11.9376C22.0619 12.1007 22.469 12.5285 22.469 13.2554C22.469 14.6846 21.222 14.9839 20.1621 14.9839H17.6691V9.01172ZM19.2461 11.3732H19.6875C20.2048 11.3732 20.7394 11.2448 20.7394 10.7396C20.7394 10.1927 20.2303 10.1409 19.704 10.1409H19.2461V11.3732ZM19.2461 13.8546H19.7133C20.2895 13.8546 20.8914 13.7689 20.8914 13.1613C20.8914 12.5116 20.2727 12.4511 19.7298 12.4511H19.2461V13.8546Z" fill="#C7C7C7"/>
</g>
<g id="Fill 3">
<path fill-rule="evenodd" clip-rule="evenodd" d="M24.5392 9.01172H26.4728L28.7541 14.9839H27.0239L26.5833 13.7093H24.3613L23.8946 14.9839H22.2919L24.5392 9.01172ZM25.5063 10.2441H25.4885L24.7258 12.5801H26.2097L25.5063 10.2441Z" fill="#C7C7C7"/>
<path fill-rule="evenodd" clip-rule="evenodd" d="M24.5392 9.01172H26.4728L28.7541 14.9839H27.0239L26.5833 13.7093H24.3613L23.8946 14.9839H22.2919L24.5392 9.01172ZM25.5063 10.2441H25.4885L24.7258 12.5801H26.2097L25.5063 10.2441Z" fill="#C7C7C7"/>
</g>
<g id="Fill 5">
<path fill-rule="evenodd" clip-rule="evenodd" d="M28.9737 9.01172H30.9835L32.985 13.0676H33.0015L32.9764 9.01172H34.4186V14.9839H32.4594L30.3895 10.9027H30.3732L30.4238 14.9839H28.9737V9.01172Z" fill="#C7C7C7"/>
<path fill-rule="evenodd" clip-rule="evenodd" d="M28.9737 9.01172H30.9835L32.985 13.0676H33.0015L32.9764 9.01172H34.4186V14.9839H32.4594L30.3895 10.9027H30.3732L30.4238 14.9839H28.9737V9.01172Z" fill="#C7C7C7"/>
</g>
<g id="Fill 7">
<path fill-rule="evenodd" clip-rule="evenodd" d="M34.9539 9.01172H36.5311V11.4509H36.5481L38.3284 9.01172H40.2287L38.0403 11.7923L40.3983 14.9839H38.3878L36.5481 12.2718H36.5311V14.9839H34.9539V9.01172Z" fill="#C7C7C7"/>
<path fill-rule="evenodd" clip-rule="evenodd" d="M34.9539 9.01172H36.5311V11.4509H36.5481L38.3284 9.01172H40.2287L38.0403 11.7923L40.3983 14.9839H38.3878L36.5481 12.2718H36.5311V14.9839H34.9539V9.01172Z" fill="#C7C7C7"/>
</g>
<g id="Fill 9">
<path fill-rule="evenodd" clip-rule="evenodd" d="M42.3539 9.01172H45.0763C46.1785 9.01172 47.0014 9.4995 47.0014 10.5264C47.0014 11.2793 46.6204 11.6986 45.9586 11.9207V11.9376C46.7472 12.1007 47.1542 12.5285 47.1542 13.2554C47.1542 14.6846 45.9075 14.9839 44.8479 14.9839H42.3539V9.01172ZM43.9315 11.3732H44.3721C44.8896 11.3732 45.4234 11.2448 45.4234 10.7396C45.4234 10.1927 44.9152 10.1409 44.3897 10.1409H43.9315V11.3732ZM43.9315 13.8546H44.3982C44.9743 13.8546 45.5768 13.7689 45.5768 13.1613C45.5768 12.5116 44.9578 12.4511 44.4149 12.4511H43.9315V13.8546Z" fill="#C7C7C7"/>
<path fill-rule="evenodd" clip-rule="evenodd" d="M42.3539 9.01172H45.0763C46.1785 9.01172 47.0014 9.4995 47.0014 10.5264C47.0014 11.2793 46.6204 11.6986 45.9586 11.9207V11.9376C46.7472 12.1007 47.1542 12.5285 47.1542 13.2554C47.1542 14.6846 45.9075 14.9839 44.8479 14.9839H42.3539V9.01172ZM43.9315 11.3732H44.3721C44.8896 11.3732 45.4234 11.2448 45.4234 10.7396C45.4234 10.1927 44.9152 10.1409 44.3897 10.1409H43.9315V11.3732ZM43.9315 13.8546H44.3982C44.9743 13.8546 45.5768 13.7689 45.5768 13.1613C45.5768 12.5116 44.9578 12.4511 44.4149 12.4511H43.9315V13.8546Z" fill="#C7C7C7"/>
</g>
<g id="Fill 11">
<path fill-rule="evenodd" clip-rule="evenodd" d="M47.5037 9.01172H50.3193C51.3707 9.01172 52.2277 9.49065 52.2277 10.518C52.2277 11.3136 51.8544 11.8441 51.0914 12.0236V12.0405C51.5991 12.1777 51.6337 12.6309 51.9306 13.3583L52.5075 14.9839H50.8624L50.523 13.9065C50.2006 12.8796 49.997 12.6223 49.4118 12.6223H49.0809V14.9839H47.5037V9.01172ZM49.0809 11.493H49.4967C50.0055 11.493 50.6503 11.4756 50.6503 10.7998C50.6503 10.244 50.0984 10.1409 49.4967 10.1409H49.0809V11.493Z" fill="#C7C7C7"/>
<path fill-rule="evenodd" clip-rule="evenodd" d="M47.5037 9.01172H50.3193C51.3707 9.01172 52.2277 9.49065 52.2277 10.518C52.2277 11.3136 51.8544 11.8441 51.0914 12.0236V12.0405C51.5991 12.1777 51.6337 12.6309 51.9306 13.3583L52.5075 14.9839H50.8624L50.523 13.9065C50.2006 12.8796 49.997 12.6223 49.4118 12.6223H49.0809V14.9839H47.5037V9.01172ZM49.0809 11.493H49.4967C50.0055 11.493 50.6503 11.4756 50.6503 10.7998C50.6503 10.244 50.0984 10.1409 49.4967 10.1409H49.0809V11.493Z" fill="#C7C7C7"/>
</g>
<mask id="mask0_3472_3016" style="mask-type:luminance" maskUnits="userSpaceOnUse" x="4" y="6" width="51" height="12">
<path id="Clip 14" fill-rule="evenodd" clip-rule="evenodd" d="M4 18H54.5192V6H4V18Z" fill="white"/>
</mask>
<g mask="url(#mask0_3472_3016)">
<g id="Fill 13">
<path fill-rule="evenodd" clip-rule="evenodd" d="M52.942 14.9839H54.5192V9.01172H52.942V14.9839Z" fill="#C7C7C7"/>
<path fill-rule="evenodd" clip-rule="evenodd" d="M52.942 14.9839H54.5192V9.01172H52.942V14.9839Z" fill="#C7C7C7"/>
</g>
<g id="Fill 15">
<path fill-rule="evenodd" clip-rule="evenodd" d="M14.0696 6H5.8143C4.81226 6 3.99994 6.83988 3.99994 7.87612V7.89592V16.1244C3.99994 17.1505 4.79729 17.9846 5.78642 18H14.0653C15.0676 18 15.8801 17.1601 15.8801 16.1244L15.884 7.87612C15.884 6.83988 15.0719 6 14.0696 6ZM6.79574 17.0385L6.34531 17.0434C5.80015 17.0434 5.35824 16.5916 5.35824 16.034L5.35566 15.9546V8.33705L5.3585 7.92687C5.37889 7.38727 5.78518 6.95287 6.31743 6.95287H7.233C8.06261 6.95287 8.73554 7.68077 8.73554 8.53966C8.73554 8.96416 8.5706 9.34959 8.30344 9.62981L5.96741 12.0213L8.15683 14.2706C8.43922 14.5641 8.60984 14.9501 8.60984 15.3728C8.60984 16.2929 7.79752 17.0385 6.79574 17.0385ZM13.5266 17.0309L9.44459 17.0291C9.44459 17.0291 9.9167 15.9999 9.9167 15.3629C9.9167 14.5863 9.65909 13.8922 9.25616 13.4331L7.85996 11.9971L9.28507 10.5116C9.70917 10.1093 9.99104 9.39517 9.99104 8.58185C9.99104 7.93781 9.81448 7.36721 9.53029 6.95287H10.5194C11.3493 6.95287 12.0222 7.68077 12.0222 8.53966C12.0222 8.96416 11.8575 9.34959 11.5904 9.62981L9.29901 11.9963L14.0581 16.8926C13.9073 16.9885 13.7171 17.0309 13.5266 17.0309ZM14.5234 15.5022L11.1128 11.9953L12.7372 10.3296C13.0681 9.91264 13.2777 9.28422 13.2777 8.58185C13.2777 7.93365 13.0986 7.34924 12.8118 6.93464L13.5389 6.95652C14.0841 6.95652 14.526 7.40914 14.526 7.96646L14.5234 15.5022Z" fill="#C7C7C7"/>
<path fill-rule="evenodd" clip-rule="evenodd" d="M14.0696 6H5.8143C4.81226 6 3.99994 6.83988 3.99994 7.87612V7.89592V16.1244C3.99994 17.1505 4.79729 17.9846 5.78642 18H14.0653C15.0676 18 15.8801 17.1601 15.8801 16.1244L15.884 7.87612C15.884 6.83988 15.0719 6 14.0696 6ZM6.79574 17.0385L6.34531 17.0434C5.80015 17.0434 5.35824 16.5916 5.35824 16.034L5.35566 15.9546V8.33705L5.3585 7.92687C5.37889 7.38727 5.78518 6.95287 6.31743 6.95287H7.233C8.06261 6.95287 8.73554 7.68077 8.73554 8.53966C8.73554 8.96416 8.5706 9.34959 8.30344 9.62981L5.96741 12.0213L8.15683 14.2706C8.43922 14.5641 8.60984 14.9501 8.60984 15.3728C8.60984 16.2929 7.79752 17.0385 6.79574 17.0385ZM13.5266 17.0309L9.44459 17.0291C9.44459 17.0291 9.9167 15.9999 9.9167 15.3629C9.9167 14.5863 9.65909 13.8922 9.25616 13.4331L7.85996 11.9971L9.28507 10.5116C9.70917 10.1093 9.99104 9.39517 9.99104 8.58185C9.99104 7.93781 9.81448 7.36721 9.53029 6.95287H10.5194C11.3493 6.95287 12.0222 7.68077 12.0222 8.53966C12.0222 8.96416 11.8575 9.34959 11.5904 9.62981L9.29901 11.9963L14.0581 16.8926C13.9073 16.9885 13.7171 17.0309 13.5266 17.0309ZM14.5234 15.5022L11.1128 11.9953L12.7372 10.3296C13.0681 9.91264 13.2777 9.28422 13.2777 8.58185C13.2777 7.93365 13.0986 7.34924 12.8118 6.93464L13.5389 6.95652C14.0841 6.95652 14.526 7.40914 14.526 7.96646L14.5234 15.5022Z" fill="#C7C7C7"/>
</g>
</g>
</g>
</g>
</svg>
