<svg width="52" height="24" viewBox="0 0 52 24" fill="none" xmlns="http://www.w3.org/2000/svg">
<g id="Cimb niaga">
<g id="Logo CIMB">
<g id="Logogram">
<g id="Fill 1">
<path fill-rule="evenodd" clip-rule="evenodd" d="M4 18H16.1458V6H4V18Z" fill="#C7C7C7"/>
<path fill-rule="evenodd" clip-rule="evenodd" d="M4 18H16.1458V6H4V18Z" fill="#C7C7C7"/>
</g>
<path id="Fill 2" fill-rule="evenodd" clip-rule="evenodd" d="M12.0957 8.26758H5.6413L8.49944 11.9995H14.9544L12.0957 8.26758Z" fill="white"/>
<path id="Fill 3" fill-rule="evenodd" clip-rule="evenodd" d="M14.9543 11.9995H8.49932L5.64117 15.7312H12.0956L14.9543 11.9995Z" fill="#3A3443"/>
</g>
<g id="CIMB">
<path fill-rule="evenodd" clip-rule="evenodd" d="M45.3844 14.5062H43.8106V12.6565H45.3844C46.1186 12.6565 46.3812 13.1319 46.3812 13.5765C46.3812 14.0262 46.1186 14.5062 45.3844 14.5062ZM43.8106 9.49251H45.2843C45.9026 9.49251 46.2708 9.81474 46.2708 10.358C46.2708 10.8996 45.9026 11.2215 45.2843 11.2215H43.8106V9.49251ZM46.9445 11.9C47.2975 11.7086 47.8766 11.1696 47.8766 10.2917C47.8766 8.9205 46.9299 8.06715 45.4056 8.06715H42.2038V15.9302H45.5403C47.0492 15.9302 47.9873 15.059 47.9873 13.6533C47.9873 12.5973 47.3602 12.1075 46.9445 11.9ZM35.9514 13.0909C35.891 12.9889 33.1405 8.05168 33.1405 8.05168H31.5689V15.9153H33.1748V11.2177C33.297 11.4235 35.9514 15.9789 35.9514 15.9789C35.9514 15.9789 38.5935 11.4241 38.7114 11.2189V15.9153H40.319V8.05168H38.7483C38.7483 8.05168 36.0075 12.9889 35.9514 13.0909ZM27.991 15.9302H29.6026V8.06715H27.991V15.9302ZM25.3299 14.0361C24.8613 14.4058 24.2939 14.6002 23.696 14.6002C22.244 14.6002 21.1148 13.4583 21.1148 11.9995C21.1148 10.5404 22.244 9.39763 23.696 9.39763C24.2939 9.39763 24.8613 9.59238 25.3299 9.96266L25.3522 9.98019L26.472 8.87443L26.4466 8.85097C25.6804 8.19689 24.7054 7.83594 23.696 7.83594C21.3468 7.83594 19.4357 9.70403 19.4357 11.9995C19.4357 14.2944 21.3468 16.1619 23.696 16.1619C24.7054 16.1619 25.6804 15.8018 26.4466 15.1478L26.472 15.1232L25.3522 14.0185L25.3299 14.0361Z" fill="#C7C7C7"/>
<path fill-rule="evenodd" clip-rule="evenodd" d="M45.3844 14.5062H43.8106V12.6565H45.3844C46.1186 12.6565 46.3812 13.1319 46.3812 13.5765C46.3812 14.0262 46.1186 14.5062 45.3844 14.5062ZM43.8106 9.49251H45.2843C45.9026 9.49251 46.2708 9.81474 46.2708 10.358C46.2708 10.8996 45.9026 11.2215 45.2843 11.2215H43.8106V9.49251ZM46.9445 11.9C47.2975 11.7086 47.8766 11.1696 47.8766 10.2917C47.8766 8.9205 46.9299 8.06715 45.4056 8.06715H42.2038V15.9302H45.5403C47.0492 15.9302 47.9873 15.059 47.9873 13.6533C47.9873 12.5973 47.3602 12.1075 46.9445 11.9ZM35.9514 13.0909C35.891 12.9889 33.1405 8.05168 33.1405 8.05168H31.5689V15.9153H33.1748V11.2177C33.297 11.4235 35.9514 15.9789 35.9514 15.9789C35.9514 15.9789 38.5935 11.4241 38.7114 11.2189V15.9153H40.319V8.05168H38.7483C38.7483 8.05168 36.0075 12.9889 35.9514 13.0909ZM27.991 15.9302H29.6026V8.06715H27.991V15.9302ZM25.3299 14.0361C24.8613 14.4058 24.2939 14.6002 23.696 14.6002C22.244 14.6002 21.1148 13.4583 21.1148 11.9995C21.1148 10.5404 22.244 9.39763 23.696 9.39763C24.2939 9.39763 24.8613 9.59238 25.3299 9.96266L25.3522 9.98019L26.472 8.87443L26.4466 8.85097C25.6804 8.19689 24.7054 7.83594 23.696 7.83594C21.3468 7.83594 19.4357 9.70403 19.4357 11.9995C19.4357 14.2944 21.3468 16.1619 23.696 16.1619C24.7054 16.1619 25.6804 15.8018 26.4466 15.1478L26.472 15.1232L25.3522 14.0185L25.3299 14.0361Z" fill="#C7C7C7"/>
</g>
</g>
</g>
</svg>
