<svg width="41" height="24" viewBox="0 0 41 24" fill="none" xmlns="http://www.w3.org/2000/svg">
<g id="Danamon">
<g id="logo">
<g id="group">
<g id="Fill 1">
<path fill-rule="evenodd" clip-rule="evenodd" d="M5.13361 13.6475H5.65583C5.95619 13.6475 6.19714 13.671 6.46289 13.9768C6.64925 14.1867 6.85628 14.6552 6.85628 15.409C6.85628 15.6811 6.8604 15.9489 6.80932 16.2247C6.72487 16.6608 6.52359 17.3572 5.3698 17.3572C5.0621 17.3572 5.13361 17.3493 5.13361 17.3493V13.6475ZM5.72847 18.0001C7.28046 18.0001 7.97634 17.3107 7.97634 15.4284C7.97634 14.9303 7.82906 14.0966 7.36203 13.5868C6.88032 13.0649 6.25778 12.9985 5.72976 12.9985H4V18.0001H5.72847Z" fill="#C7C7C7"/>
<path fill-rule="evenodd" clip-rule="evenodd" d="M5.13361 13.6475H5.65583C5.95619 13.6475 6.19714 13.671 6.46289 13.9768C6.64925 14.1867 6.85628 14.6552 6.85628 15.409C6.85628 15.6811 6.8604 15.9489 6.80932 16.2247C6.72487 16.6608 6.52359 17.3572 5.3698 17.3572C5.0621 17.3572 5.13361 17.3493 5.13361 17.3493V13.6475ZM5.72847 18.0001C7.28046 18.0001 7.97634 17.3107 7.97634 15.4284C7.97634 14.9303 7.82906 14.0966 7.36203 13.5868C6.88032 13.0649 6.25778 12.9985 5.72976 12.9985H4V18.0001H5.72847Z" fill="#C7C7C7"/>
</g>
<g id="Fill 2">
<path fill-rule="evenodd" clip-rule="evenodd" d="M10.6296 16.7049C10.6296 16.8703 10.6223 17.0928 10.4477 17.2513C10.2991 17.3811 10.0918 17.3918 10.0098 17.3918C9.81369 17.3918 9.63845 17.3203 9.56258 17.0796C9.54353 17.0022 9.5352 16.925 9.5352 16.8506C9.5352 16.4851 9.77868 16.3313 10.0499 16.2666C10.193 16.2344 10.2871 16.2268 10.6296 16.1988V16.7049ZM10.6296 15.7474L10.0635 15.8025C9.45197 15.8737 9.22089 15.9287 8.95859 16.1005C8.53793 16.3858 8.53247 16.8024 8.53247 16.9398C8.53247 17.2808 8.63571 17.5386 8.77764 17.6872C8.96531 17.9033 9.2615 17.9833 9.54813 17.9833C10.2502 17.9833 10.5848 17.666 10.5848 17.666L10.5919 17.892H11.5357V15.5253C11.5357 15.2583 11.5433 14.8855 11.2356 14.6197C11.076 14.4816 10.9347 14.4195 10.7185 14.3876C10.5013 14.3501 10.4248 14.335 10.2156 14.335C9.57768 14.335 9.09513 14.4456 8.81959 14.9322C8.70117 15.1425 8.70965 15.3534 8.70965 15.5146H9.57768C9.58472 15.374 9.59038 15.1797 9.70274 15.0443C9.75863 14.9672 9.88984 14.8577 10.132 14.8577C10.2108 14.8577 10.4414 14.8577 10.5585 15.0473C10.6222 15.1597 10.6296 15.3067 10.6296 15.472V15.7474Z" fill="#C7C7C7"/>
<path fill-rule="evenodd" clip-rule="evenodd" d="M10.6296 16.7049C10.6296 16.8703 10.6223 17.0928 10.4477 17.2513C10.2991 17.3811 10.0918 17.3918 10.0098 17.3918C9.81369 17.3918 9.63845 17.3203 9.56258 17.0796C9.54353 17.0022 9.5352 16.925 9.5352 16.8506C9.5352 16.4851 9.77868 16.3313 10.0499 16.2666C10.193 16.2344 10.2871 16.2268 10.6296 16.1988V16.7049ZM10.6296 15.7474L10.0635 15.8025C9.45197 15.8737 9.22089 15.9287 8.95859 16.1005C8.53793 16.3858 8.53247 16.8024 8.53247 16.9398C8.53247 17.2808 8.63571 17.5386 8.77764 17.6872C8.96531 17.9033 9.2615 17.9833 9.54813 17.9833C10.2502 17.9833 10.5848 17.666 10.5848 17.666L10.5919 17.892H11.5357V15.5253C11.5357 15.2583 11.5433 14.8855 11.2356 14.6197C11.076 14.4816 10.9347 14.4195 10.7185 14.3876C10.5013 14.3501 10.4248 14.335 10.2156 14.335C9.57768 14.335 9.09513 14.4456 8.81959 14.9322C8.70117 15.1425 8.70965 15.3534 8.70965 15.5146H9.57768C9.58472 15.374 9.59038 15.1797 9.70274 15.0443C9.75863 14.9672 9.88984 14.8577 10.132 14.8577C10.2108 14.8577 10.4414 14.8577 10.5585 15.0473C10.6222 15.1597 10.6296 15.3067 10.6296 15.472V15.7474Z" fill="#C7C7C7"/>
</g>
<g id="Fill 3">
<path fill-rule="evenodd" clip-rule="evenodd" d="M18.1669 16.7049C18.1669 16.8703 18.1602 17.0928 17.9833 17.2513C17.8392 17.3811 17.6294 17.3918 17.5452 17.3918C17.35 17.3918 17.1747 17.3203 17.1001 17.0796C17.0805 17.0022 17.0741 16.925 17.0741 16.8506C17.0741 16.4851 17.3154 16.3313 17.5881 16.2666C17.7313 16.2344 17.8252 16.2268 18.1669 16.1988V16.7049ZM18.1671 15.7474L17.6016 15.8025C16.9878 15.8737 16.7599 15.9287 16.4961 16.1005C16.0773 16.3858 16.0699 16.8024 16.0699 16.9398C16.0699 17.2808 16.1732 17.5386 16.3141 17.6872C16.5031 17.9033 16.8014 17.9833 17.0867 17.9833C17.7892 17.9833 18.1232 17.666 18.1232 17.666L18.1289 17.892H19.0733V15.5253C19.0733 15.2583 19.0795 14.8855 18.7744 14.6197C18.6141 14.4816 18.4705 14.4195 18.2559 14.3876C18.0394 14.3501 17.9635 14.335 17.753 14.335C17.1148 14.335 16.6326 14.4456 16.3583 14.9322C16.2395 15.1425 16.2475 15.3534 16.2475 15.5146H17.1148C17.1228 15.374 17.1288 15.1797 17.2406 15.0443C17.2945 14.9672 17.426 14.8577 17.6708 14.8577C17.7486 14.8577 17.9794 14.8577 18.0981 15.0473C18.1603 15.1597 18.1671 15.3067 18.1671 15.472V15.7474Z" fill="#C7C7C7"/>
<path fill-rule="evenodd" clip-rule="evenodd" d="M18.1669 16.7049C18.1669 16.8703 18.1602 17.0928 17.9833 17.2513C17.8392 17.3811 17.6294 17.3918 17.5452 17.3918C17.35 17.3918 17.1747 17.3203 17.1001 17.0796C17.0805 17.0022 17.0741 16.925 17.0741 16.8506C17.0741 16.4851 17.3154 16.3313 17.5881 16.2666C17.7313 16.2344 17.8252 16.2268 18.1669 16.1988V16.7049ZM18.1671 15.7474L17.6016 15.8025C16.9878 15.8737 16.7599 15.9287 16.4961 16.1005C16.0773 16.3858 16.0699 16.8024 16.0699 16.9398C16.0699 17.2808 16.1732 17.5386 16.3141 17.6872C16.5031 17.9033 16.8014 17.9833 17.0867 17.9833C17.7892 17.9833 18.1232 17.666 18.1232 17.666L18.1289 17.892H19.0733V15.5253C19.0733 15.2583 19.0795 14.8855 18.7744 14.6197C18.6141 14.4816 18.4705 14.4195 18.2559 14.3876C18.0394 14.3501 17.9635 14.335 17.753 14.335C17.1148 14.335 16.6326 14.4456 16.3583 14.9322C16.2395 15.1425 16.2475 15.3534 16.2475 15.5146H17.1148C17.1228 15.374 17.1288 15.1797 17.2406 15.0443C17.2945 14.9672 17.426 14.8577 17.6708 14.8577C17.7486 14.8577 17.9794 14.8577 18.0981 15.0473C18.1603 15.1597 18.1671 15.3067 18.1671 15.472V15.7474Z" fill="#C7C7C7"/>
</g>
<g id="Fill 4">
<path fill-rule="evenodd" clip-rule="evenodd" d="M32.4293 17.8922H31.4424V15.7743C31.4424 15.6376 31.4424 15.5257 31.4288 15.4099C31.4215 15.2993 31.3872 14.9386 30.9573 14.9386C30.8431 14.9386 30.7465 14.9674 30.6843 14.9929C30.3931 15.1267 30.3861 15.3613 30.3798 15.5488V17.8922H29.3889V14.4255H30.3798V14.8203C30.6293 14.5988 30.8532 14.3569 31.4075 14.3569C31.8742 14.3569 32.105 14.536 32.2003 14.6466C32.4204 14.8917 32.4204 15.2106 32.4293 15.4594V17.8922Z" fill="#C7C7C7"/>
<path fill-rule="evenodd" clip-rule="evenodd" d="M32.4293 17.8922H31.4424V15.7743C31.4424 15.6376 31.4424 15.5257 31.4288 15.4099C31.4215 15.2993 31.3872 14.9386 30.9573 14.9386C30.8431 14.9386 30.7465 14.9674 30.6843 14.9929C30.3931 15.1267 30.3861 15.3613 30.3798 15.5488V17.8922H29.3889V14.4255H30.3798V14.8203C30.6293 14.5988 30.8532 14.3569 31.4075 14.3569C31.8742 14.3569 32.105 14.536 32.2003 14.6466C32.4204 14.8917 32.4204 15.2106 32.4293 15.4594V17.8922Z" fill="#C7C7C7"/>
</g>
<g id="Fill 5">
<path fill-rule="evenodd" clip-rule="evenodd" d="M15.3451 17.8922H14.3573V15.7743C14.3573 15.6376 14.3573 15.5257 14.3415 15.4099C14.3358 15.2993 14.3014 14.9386 13.8665 14.9386C13.7579 14.9386 13.6605 14.9674 13.5986 14.9929C13.3058 15.1267 13.2975 15.3613 13.2912 15.5488V17.8922H12.301V14.4255H13.2912V14.8203C13.5433 14.5988 13.7649 14.3569 14.3208 14.3569C14.7885 14.3569 15.0168 14.536 15.1143 14.6466C15.3368 14.8917 15.3368 15.2106 15.3451 15.4594V17.8922Z" fill="#C7C7C7"/>
<path fill-rule="evenodd" clip-rule="evenodd" d="M15.3451 17.8922H14.3573V15.7743C14.3573 15.6376 14.3573 15.5257 14.3415 15.4099C14.3358 15.2993 14.3014 14.9386 13.8665 14.9386C13.7579 14.9386 13.6605 14.9674 13.5986 14.9929C13.3058 15.1267 13.2975 15.3613 13.2912 15.5488V17.8922H12.301V14.4255H13.2912V14.8203C13.5433 14.5988 13.7649 14.3569 14.3208 14.3569C14.7885 14.3569 15.0168 14.536 15.1143 14.6466C15.3368 14.8917 15.3368 15.2106 15.3451 15.4594V17.8922Z" fill="#C7C7C7"/>
</g>
<g id="Fill 6">
<path fill-rule="evenodd" clip-rule="evenodd" d="M19.7968 14.4237H20.7872V14.8275C20.9765 14.6575 21.3109 14.353 21.9062 14.353C22.5846 14.353 22.7736 14.757 22.8208 14.8881C23.2241 14.5004 23.4908 14.353 23.8791 14.353C24.0677 14.353 24.1992 14.3841 24.3249 14.4296C24.8558 14.6321 24.8688 15.1043 24.8772 15.4093V17.8888H23.8731V15.631C23.8668 15.3847 23.8598 15.2473 23.794 15.1378C23.7829 15.11 23.6838 14.9364 23.4345 14.9364C23.3504 14.9364 23.1889 14.9569 23.1124 14.9992C22.8371 15.1315 22.8259 15.3581 22.8208 15.544V17.8888H21.8395V15.6445C21.8395 15.3786 21.8443 14.9364 21.3953 14.9364C21.2959 14.9364 21.12 14.9647 21.0331 15.013C20.7872 15.1644 20.7803 15.3847 20.7872 15.6932V17.8888H19.7968V14.4237Z" fill="#C7C7C7"/>
<path fill-rule="evenodd" clip-rule="evenodd" d="M19.7968 14.4237H20.7872V14.8275C20.9765 14.6575 21.3109 14.353 21.9062 14.353C22.5846 14.353 22.7736 14.757 22.8208 14.8881C23.2241 14.5004 23.4908 14.353 23.8791 14.353C24.0677 14.353 24.1992 14.3841 24.3249 14.4296C24.8558 14.6321 24.8688 15.1043 24.8772 15.4093V17.8888H23.8731V15.631C23.8668 15.3847 23.8598 15.2473 23.794 15.1378C23.7829 15.11 23.6838 14.9364 23.4345 14.9364C23.3504 14.9364 23.1889 14.9569 23.1124 14.9992C22.8371 15.1315 22.8259 15.3581 22.8208 15.544V17.8888H21.8395V15.6445C21.8395 15.3786 21.8443 14.9364 21.3953 14.9364C21.2959 14.9364 21.12 14.9647 21.0331 15.013C20.7872 15.1644 20.7803 15.3847 20.7872 15.6932V17.8888H19.7968V14.4237Z" fill="#C7C7C7"/>
</g>
<g id="Fill 7">
<path fill-rule="evenodd" clip-rule="evenodd" d="M27.7982 16.0827C27.7982 16.2813 27.7904 16.4684 27.7707 16.6603C27.7497 16.8505 27.7174 17.235 27.4199 17.3969C27.3344 17.4374 27.2449 17.4587 27.1525 17.4587C26.5914 17.4587 26.5413 16.874 26.5287 16.6603C26.5162 16.5006 26.5068 16.3434 26.5068 16.1884C26.5068 16.0504 26.5162 15.858 26.5369 15.6309C26.5569 15.4474 26.5967 15.0955 26.8826 14.93C26.9807 14.881 27.0747 14.8605 27.1833 14.8605C27.7174 14.8605 27.7646 15.4153 27.7774 15.6309C27.7904 15.7824 27.7982 15.9354 27.7982 16.0827ZM28.807 16.1005C28.807 15.7941 28.807 15.2188 28.4647 14.827C28.0482 14.335 27.4532 14.335 27.2449 14.335C27.0004 14.335 26.4391 14.345 25.9994 14.741C25.5015 15.1843 25.5015 15.8881 25.5015 16.2455C25.5015 16.9226 25.6549 17.6396 26.5162 17.8886C26.7668 17.9659 26.9007 17.9783 27.1525 17.9783C27.3897 17.9783 27.979 17.9783 28.4175 17.4927C28.807 17.0649 28.807 16.4201 28.807 16.1005Z" fill="#C7C7C7"/>
<path fill-rule="evenodd" clip-rule="evenodd" d="M27.7982 16.0827C27.7982 16.2813 27.7904 16.4684 27.7707 16.6603C27.7497 16.8505 27.7174 17.235 27.4199 17.3969C27.3344 17.4374 27.2449 17.4587 27.1525 17.4587C26.5914 17.4587 26.5413 16.874 26.5287 16.6603C26.5162 16.5006 26.5068 16.3434 26.5068 16.1884C26.5068 16.0504 26.5162 15.858 26.5369 15.6309C26.5569 15.4474 26.5967 15.0955 26.8826 14.93C26.9807 14.881 27.0747 14.8605 27.1833 14.8605C27.7174 14.8605 27.7646 15.4153 27.7774 15.6309C27.7904 15.7824 27.7982 15.9354 27.7982 16.0827ZM28.807 16.1005C28.807 15.7941 28.807 15.2188 28.4647 14.827C28.0482 14.335 27.4532 14.335 27.2449 14.335C27.0004 14.335 26.4391 14.345 25.9994 14.741C25.5015 15.1843 25.5015 15.8881 25.5015 16.2455C25.5015 16.9226 25.6549 17.6396 26.5162 17.8886C26.7668 17.9659 26.9007 17.9783 27.1525 17.9783C27.3897 17.9783 27.979 17.9783 28.4175 17.4927C28.807 17.0649 28.807 16.4201 28.807 16.1005Z" fill="#C7C7C7"/>
</g>
</g>
<g id="group_2">
<g id="Fill 8">
<path fill-rule="evenodd" clip-rule="evenodd" d="M4 6V8.37911H9.14996V7.08344L4 6Z" fill="#C7C7C7"/>
<path fill-rule="evenodd" clip-rule="evenodd" d="M4 6V8.37911H9.14996V7.08344L4 6Z" fill="#C7C7C7"/>
</g>
<g id="Fill 9">
<path fill-rule="evenodd" clip-rule="evenodd" d="M15.3099 8.37911L9.14862 6L9.14989 7.08344L15.3099 8.37911Z" fill="#C7C7C7"/>
<path fill-rule="evenodd" clip-rule="evenodd" d="M15.3099 8.37911L9.14862 6L9.14989 7.08344L15.3099 8.37911Z" fill="#C7C7C7"/>
</g>
<g id="Fill 10">
<path fill-rule="evenodd" clip-rule="evenodd" d="M9.14862 8.37916H15.3076L9.14862 7.0835V8.37916Z" fill="#C7C7C7"/>
<path fill-rule="evenodd" clip-rule="evenodd" d="M9.14862 8.37916H15.3076L9.14862 7.0835V8.37916Z" fill="#C7C7C7"/>
</g>
<g id="Fill 11">
<path fill-rule="evenodd" clip-rule="evenodd" d="M15.3085 8.37695V8.37911L28.2461 11.1027V8.37695H15.3085Z" fill="#C7C7C7"/>
<path fill-rule="evenodd" clip-rule="evenodd" d="M15.3085 8.37695V8.37911L28.2461 11.1027V8.37695H15.3085Z" fill="#C7C7C7"/>
</g>
<g id="Fill 12">
<path fill-rule="evenodd" clip-rule="evenodd" d="M36.5421 12.849V8.37695H28.2465V11.1037L36.5421 12.849Z" fill="#C7C7C7"/>
<path fill-rule="evenodd" clip-rule="evenodd" d="M36.5421 12.849V8.37695H28.2465V11.1037L36.5421 12.849Z" fill="#C7C7C7"/>
</g>
<g id="Fill 13">
<path fill-rule="evenodd" clip-rule="evenodd" d="M28.246 11.1036L15.3112 8.37988L28.246 12.8509V11.1036Z" fill="#C7C7C7"/>
<path fill-rule="evenodd" clip-rule="evenodd" d="M28.246 11.1036L15.3112 8.37988L28.246 12.8509V11.1036Z" fill="#C7C7C7"/>
</g>
</g>
</g>
</g>
</svg>
