<svg width="24" height="24" viewBox="0 0 24 24" fill="none" xmlns="http://www.w3.org/2000/svg">
<g id="dashicons:bank">
<path id="Vector" d="M12.4961 2.68341C12.1887 2.50773 11.8113 2.50773 11.5039 2.68341L3.98261 6.98127C3.74602 7.11647 3.60001 7.36807 3.60001 7.64056C3.60001 8.05994 3.93997 8.3999 4.35935 8.3999H19.6407C20.06 8.3999 20.4 8.05994 20.4 7.64056C20.4 7.36807 20.254 7.11647 20.0174 6.98127L12.4961 2.68341ZM6.97184 9.5999C6.43068 9.5999 5.98771 10.0304 5.97225 10.5713L5.78939 16.9713C5.7733 17.5346 6.22551 17.9999 6.78899 17.9999H7.71623C8.28532 17.9999 8.73968 17.5257 8.71531 16.9571L8.44103 10.5571C8.41809 10.0219 7.97758 9.5999 7.44195 9.5999H6.97184ZM11.7718 9.5999C11.2307 9.5999 10.7877 10.0304 10.7723 10.5713L10.5894 16.9713C10.5733 17.5346 11.0255 17.9999 11.589 17.9999H12.5162C13.0853 17.9999 13.5397 17.5257 13.5153 16.9571L13.241 10.5571C13.2181 10.0219 12.7776 9.5999 12.2419 9.5999H11.7718ZM16.5718 9.5999C16.0307 9.5999 15.5877 10.0304 15.5723 10.5713L15.3894 16.9713C15.3733 17.5346 15.8255 17.9999 16.389 17.9999H17.3162C17.8853 17.9999 18.3397 17.5257 18.3153 16.9571L18.041 10.5571C18.0181 10.0219 17.5776 9.5999 17.0419 9.5999H16.5718ZM3.60001 20.5999C3.60001 21.1522 4.04772 21.5999 4.60001 21.5999H19.4C19.9523 21.5999 20.4 21.1522 20.4 20.5999V20.1999C20.4 19.6476 19.9523 19.1999 19.4 19.1999H4.60001C4.04772 19.1999 3.60001 19.6476 3.60001 20.1999V20.5999Z" fill="white"/>
</g>
</svg>
