<svg width="68" height="24" viewBox="0 0 68 24" fill="none" xmlns="http://www.w3.org/2000/svg">
<g id="Maybank">
<g id="logo">
<g id="Fill 1">
<path fill-rule="evenodd" clip-rule="evenodd" d="M22.8362 15.3733L24.5862 10.5868L25.1586 15.3733H27.0074L26.0061 8.34326H23.7498L22.2556 12.5664L20.7617 8.34326H18.5054L17.5037 15.3733H19.3529L19.9249 10.5868L21.6753 15.3733H22.8362Z" fill="#C7C7C7"/>
<path fill-rule="evenodd" clip-rule="evenodd" d="M22.8362 15.3733L24.5862 10.5868L25.1586 15.3733H27.0074L26.0061 8.34326H23.7498L22.2556 12.5664L20.7617 8.34326H18.5054L17.5037 15.3733H19.3529L19.9249 10.5868L21.6753 15.3733H22.8362Z" fill="#C7C7C7"/>
</g>
<g id="Fill 2">
<path fill-rule="evenodd" clip-rule="evenodd" d="M37.1935 10.145L35.9396 13.8012L34.6678 10.145H32.5552L34.9325 15.3729L33.9909 17.4239H36.0384L39.3068 10.145H37.1935Z" fill="#C7C7C7"/>
<path fill-rule="evenodd" clip-rule="evenodd" d="M37.1935 10.145L35.9396 13.8012L34.6678 10.145H32.5552L34.9325 15.3729L33.9909 17.4239H36.0384L39.3068 10.145H37.1935Z" fill="#C7C7C7"/>
</g>
<g id="Fill 3">
<path fill-rule="evenodd" clip-rule="evenodd" d="M57.9298 7.76367V15.3672H59.8451V12.7198L61.8093 15.3672H63.9884L61.8262 12.5722L63.7954 10.1454H61.5948L59.8451 12.4286V7.76367H57.9298Z" fill="#C7C7C7"/>
<path fill-rule="evenodd" clip-rule="evenodd" d="M57.9298 7.76367V15.3672H59.8451V12.7198L61.8093 15.3672H63.9884L61.8262 12.5722L63.7954 10.1454H61.5948L59.8451 12.4286V7.76367H57.9298Z" fill="#C7C7C7"/>
</g>
<g id="group">
<g id="Fill 4">
<path fill-rule="evenodd" clip-rule="evenodd" d="M41.5633 14.1607V11.4106C41.9513 11.2796 43.3568 10.9279 43.3568 12.7146C43.3568 14.5354 41.915 14.2561 41.5633 14.1607ZM39.6149 15.1039C39.6149 15.1039 40.6277 15.4833 42.0476 15.4833C43.4671 15.4833 45.3159 15.0416 45.3159 12.594C45.3159 10.1452 42.8621 10.057 42.5757 10.057C42.0353 10.057 41.6901 10.2043 41.5633 10.2694V7.75195H39.6149V15.1039Z" fill="#C7C7C7"/>
<path fill-rule="evenodd" clip-rule="evenodd" d="M41.5633 14.1607V11.4106C41.9513 11.2796 43.3568 10.9279 43.3568 12.7146C43.3568 14.5354 41.915 14.2561 41.5633 14.1607ZM39.6149 15.1039C39.6149 15.1039 40.6277 15.4833 42.0476 15.4833C43.4671 15.4833 45.3159 15.0416 45.3159 12.594C45.3159 10.1452 42.8621 10.057 42.5757 10.057C42.0353 10.057 41.6901 10.2043 41.5633 10.2694V7.75195H39.6149V15.1039Z" fill="#C7C7C7"/>
</g>
<g id="Fill 6">
<path fill-rule="evenodd" clip-rule="evenodd" d="M47.3416 13.7625C47.3416 13.0112 48.7665 12.9575 49.1581 12.9572V14.2953C48.7503 14.3443 47.3416 14.4605 47.3416 13.7625ZM46.3618 11.4689C49.1574 10.6417 49.1581 11.6349 49.1581 11.7667V11.9441C46.8953 11.9632 45.5473 12.6109 45.5473 13.7848C45.5473 14.9757 46.8023 15.4941 48.4643 15.4941C50.1263 15.4941 50.9735 15.1078 50.9735 15.1078V11.8549C50.9735 10.7079 50.2363 9.97998 48.4643 9.97998C46.692 9.97998 45.922 10.3994 45.922 10.3994L46.3618 11.4689Z" fill="#C7C7C7"/>
<path fill-rule="evenodd" clip-rule="evenodd" d="M47.3416 13.7625C47.3416 13.0112 48.7665 12.9575 49.1581 12.9572V14.2953C48.7503 14.3443 47.3416 14.4605 47.3416 13.7625ZM46.3618 11.4689C49.1574 10.6417 49.1581 11.6349 49.1581 11.7667V11.9441C46.8953 11.9632 45.5473 12.6109 45.5473 13.7848C45.5473 14.9757 46.8023 15.4941 48.4643 15.4941C50.1263 15.4941 50.9735 15.1078 50.9735 15.1078V11.8549C50.9735 10.7079 50.2363 9.97998 48.4643 9.97998C46.692 9.97998 45.922 10.3994 45.922 10.3994L46.3618 11.4689Z" fill="#C7C7C7"/>
</g>
<g id="Fill 8">
<path fill-rule="evenodd" clip-rule="evenodd" d="M29.0494 13.7625C29.0494 13.0112 30.4743 12.9575 30.8652 12.9572V14.2953C30.4578 14.3443 29.0494 14.4605 29.0494 13.7625ZM28.0697 11.4689C30.8652 10.6417 30.8652 11.6349 30.8652 11.7667V11.9441C28.6032 11.9632 27.2552 12.6109 27.2552 13.7848C27.2552 14.9757 28.5102 15.4941 30.1718 15.4941C31.8339 15.4941 32.6814 15.1078 32.6814 15.1078V11.8549C32.6814 10.7079 31.9442 9.97998 30.1718 9.97998C28.3999 9.97998 27.6296 10.3994 27.6296 10.3994L28.0697 11.4689Z" fill="#C7C7C7"/>
<path fill-rule="evenodd" clip-rule="evenodd" d="M29.0494 13.7625C29.0494 13.0112 30.4743 12.9575 30.8652 12.9572V14.2953C30.4578 14.3443 29.0494 14.4605 29.0494 13.7625ZM28.0697 11.4689C30.8652 10.6417 30.8652 11.6349 30.8652 11.7667V11.9441C28.6032 11.9632 27.2552 12.6109 27.2552 13.7848C27.2552 14.9757 28.5102 15.4941 30.1718 15.4941C31.8339 15.4941 32.6814 15.1078 32.6814 15.1078V11.8549C32.6814 10.7079 31.9442 9.97998 30.1718 9.97998C28.3999 9.97998 27.6296 10.3994 27.6296 10.3994L28.0697 11.4689Z" fill="#C7C7C7"/>
</g>
<g id="Fill 10">
<path fill-rule="evenodd" clip-rule="evenodd" d="M55.277 15.3619H57.2031V12.0535C57.2031 10.3331 55.9708 9.96875 54.4514 9.96875C52.933 9.96875 51.7111 10.3878 51.7111 10.3878V15.3619H53.6376V11.4062C55.1185 10.9724 55.277 11.6852 55.277 12.0312V15.3619Z" fill="#C7C7C7"/>
<path fill-rule="evenodd" clip-rule="evenodd" d="M55.277 15.3619H57.2031V12.0535C57.2031 10.3331 55.9708 9.96875 54.4514 9.96875C52.933 9.96875 51.7111 10.3878 51.7111 10.3878V15.3619H53.6376V11.4062C55.1185 10.9724 55.277 11.6852 55.277 12.0312V15.3619Z" fill="#C7C7C7"/>
</g>
<g id="Fill 15">
<path fill-rule="evenodd" clip-rule="evenodd" d="M7.32833 9.80653C7.32833 9.80653 7.45228 9.31837 7.65025 9.15313C7.84857 8.98753 8.56103 8.51593 9.59001 8.18509C9.71252 8.14549 9.8548 8.19085 9.86126 8.19301C9.85444 8.23369 9.85049 8.26141 9.84869 8.27041C9.83504 8.34781 9.77719 8.39713 9.77719 8.39713C9.98629 8.42485 10.1239 8.27617 10.1623 8.10481C10.2011 7.93453 10.333 7.25701 10.5479 7.26709C11.1475 7.29445 11.5768 9.23593 11.533 9.32377C11.5039 9.38137 11.2686 9.33457 11.2686 9.33457C11.6426 9.92461 12.1323 9.91885 12.2426 9.82561C12.3525 9.73237 12.2922 9.42853 12.2922 9.42853C13.4699 10.1291 13.4038 10.9618 13.4038 10.9618C13.7559 9.58333 12.9417 8.99293 12.9417 8.99293C13.2608 8.98177 13.6075 9.18589 13.6075 9.18589C13.112 8.51881 12.0885 8.14909 12.0885 8.14909C12.0885 8.14909 10.8946 6.82033 10.5094 6.87001C10.19 6.91141 10.0075 7.49821 9.91803 7.89925C9.8742 7.89565 9.79049 7.89241 9.68162 7.90537C9.59719 7.80025 9.23971 7.37509 9.10067 7.51513C9.04641 7.56913 9.02917 7.95217 9.0245 8.11309C8.44606 8.34349 7.46198 8.77657 7.26186 9.09445C7.08079 9.38425 7.03911 9.59953 7.03911 9.59953C7.03911 9.59953 5.85923 10.3602 5.57001 11.1882C5.57001 11.1882 6.36258 10.2612 7.32833 9.80653Z" fill="#C7C7C7"/>
<path fill-rule="evenodd" clip-rule="evenodd" d="M7.32833 9.80653C7.32833 9.80653 7.45228 9.31837 7.65025 9.15313C7.84857 8.98753 8.56103 8.51593 9.59001 8.18509C9.71252 8.14549 9.8548 8.19085 9.86126 8.19301C9.85444 8.23369 9.85049 8.26141 9.84869 8.27041C9.83504 8.34781 9.77719 8.39713 9.77719 8.39713C9.98629 8.42485 10.1239 8.27617 10.1623 8.10481C10.2011 7.93453 10.333 7.25701 10.5479 7.26709C11.1475 7.29445 11.5768 9.23593 11.533 9.32377C11.5039 9.38137 11.2686 9.33457 11.2686 9.33457C11.6426 9.92461 12.1323 9.91885 12.2426 9.82561C12.3525 9.73237 12.2922 9.42853 12.2922 9.42853C13.4699 10.1291 13.4038 10.9618 13.4038 10.9618C13.7559 9.58333 12.9417 8.99293 12.9417 8.99293C13.2608 8.98177 13.6075 9.18589 13.6075 9.18589C13.112 8.51881 12.0885 8.14909 12.0885 8.14909C12.0885 8.14909 10.8946 6.82033 10.5094 6.87001C10.19 6.91141 10.0075 7.49821 9.91803 7.89925C9.8742 7.89565 9.79049 7.89241 9.68162 7.90537C9.59719 7.80025 9.23971 7.37509 9.10067 7.51513C9.04641 7.56913 9.02917 7.95217 9.0245 8.11309C8.44606 8.34349 7.46198 8.77657 7.26186 9.09445C7.08079 9.38425 7.03911 9.59953 7.03911 9.59953C7.03911 9.59953 5.85923 10.3602 5.57001 11.1882C5.57001 11.1882 6.36258 10.2612 7.32833 9.80653Z" fill="#C7C7C7"/>
</g>
<g id="group_2">
<mask id="mask0_3472_3066" style="mask-type:luminance" maskUnits="userSpaceOnUse" x="4" y="6" width="12" height="12">
<path id="Clip 13" fill-rule="evenodd" clip-rule="evenodd" d="M4 6H15.692V17.7157H4V6Z" fill="white"/>
</mask>
<g mask="url(#mask0_3472_3066)">
<g id="Fill 12">
<path fill-rule="evenodd" clip-rule="evenodd" d="M9.84575 6C6.62263 6 3.99988 8.62836 3.99988 11.8576C3.99988 15.0875 6.62263 17.7158 9.84575 17.7158C13.0696 17.7158 15.692 15.0875 15.692 11.8576C15.692 8.62836 13.0696 6 9.84575 6ZM9.84575 6.48924C12.8044 6.48924 15.2034 8.89224 15.2034 11.8576C15.2034 14.8225 12.8044 17.2259 9.84575 17.2259C6.88742 17.2259 4.48886 14.8225 4.48886 11.8576C4.48886 8.89224 6.88742 6.48924 9.84575 6.48924Z" fill="#C7C7C7"/>
<path fill-rule="evenodd" clip-rule="evenodd" d="M9.84575 6C6.62263 6 3.99988 8.62836 3.99988 11.8576C3.99988 15.0875 6.62263 17.7158 9.84575 17.7158C13.0696 17.7158 15.692 15.0875 15.692 11.8576C15.692 8.62836 13.0696 6 9.84575 6ZM9.84575 6.48924C12.8044 6.48924 15.2034 8.89224 15.2034 11.8576C15.2034 14.8225 12.8044 17.2259 9.84575 17.2259C6.88742 17.2259 4.48886 14.8225 4.48886 11.8576C4.48886 8.89224 6.88742 6.48924 9.84575 6.48924Z" fill="#C7C7C7"/>
</g>
</g>
</g>
<g id="Fill 17">
<path fill-rule="evenodd" clip-rule="evenodd" d="M11.1255 9.19196C11.1086 8.57924 10.8065 8.08892 10.652 8.06048C10.4982 8.03348 10.4486 8.6174 10.4486 8.6174C10.856 8.8874 11.1255 9.19196 11.1255 9.19196Z" fill="#C7C7C7"/>
<path fill-rule="evenodd" clip-rule="evenodd" d="M11.1255 9.19196C11.1086 8.57924 10.8065 8.08892 10.652 8.06048C10.4982 8.03348 10.4486 8.6174 10.4486 8.6174C10.856 8.8874 11.1255 9.19196 11.1255 9.19196Z" fill="#C7C7C7"/>
</g>
<g id="Fill 19">
<path fill-rule="evenodd" clip-rule="evenodd" d="M8.22508 9.08174C7.98832 9.2243 8.09323 9.34598 8.09323 9.34598C8.09323 9.34598 8.05478 9.2243 8.34652 9.14186C8.86676 8.99462 9.33706 8.84378 9.32556 8.71742C9.31478 8.5907 8.96269 8.54102 8.96269 8.54102C9.06185 8.67314 8.46185 8.9381 8.22508 9.08174Z" fill="#C7C7C7"/>
<path fill-rule="evenodd" clip-rule="evenodd" d="M8.22508 9.08174C7.98832 9.2243 8.09323 9.34598 8.09323 9.34598C8.09323 9.34598 8.05478 9.2243 8.34652 9.14186C8.86676 8.99462 9.33706 8.84378 9.32556 8.71742C9.31478 8.5907 8.96269 8.54102 8.96269 8.54102C9.06185 8.67314 8.46185 8.9381 8.22508 9.08174Z" fill="#C7C7C7"/>
</g>
<g id="Fill 21">
<path fill-rule="evenodd" clip-rule="evenodd" d="M8.47003 9.89165C8.54153 9.89165 8.59938 9.83405 8.59938 9.76241C8.59938 9.72317 8.58177 9.68933 8.55411 9.66557C8.63997 9.65981 8.83614 9.67061 8.83614 9.67061C8.81423 9.66557 8.76464 9.72065 8.65435 9.85853C8.54441 9.99677 8.44021 9.89165 8.44021 9.89165L8.43842 9.88553C8.44848 9.88769 8.4589 9.89165 8.47003 9.89165ZM8.0547 10.4817C8.0547 10.4817 8.20309 10.1346 8.31339 10.0907C8.31339 10.0907 8.50596 10.14 8.61051 10.1012C8.71506 10.063 8.91303 9.79841 8.99027 9.79265C8.99027 9.79265 8.78656 10.6797 7.96093 10.6635C7.96093 10.6635 8.55554 11.0001 8.85806 10.7628C9.16093 10.5256 8.92955 10.3438 9.32045 9.96329C9.71099 9.58241 9.45267 9.56657 9.43614 9.57233C9.41961 9.57737 9.29818 9.53885 9.29818 9.53885C9.29818 9.53885 9.35315 9.46721 9.46381 9.41825C9.57375 9.36785 10.2064 9.08165 10.2176 8.90957C10.2284 8.73929 9.76057 8.54633 9.52416 8.55137C9.52416 8.55137 9.7383 8.63957 9.72752 8.76125C9.71674 8.88257 9.10057 9.15293 9.10057 9.50033C9.10057 9.50033 8.88033 9.51653 8.72045 9.48413C8.56093 9.45029 8.39027 9.46721 8.21422 9.58241C8.03818 9.69869 8.0274 9.43985 8.04357 9.40637C8.04357 9.40637 7.70261 9.62129 8.13195 9.89705C8.13195 9.89705 7.95554 10.0792 7.93902 10.1235C7.92249 10.1674 7.85099 10.4043 8.0547 10.4817Z" fill="#C7C7C7"/>
<path fill-rule="evenodd" clip-rule="evenodd" d="M8.47003 9.89165C8.54153 9.89165 8.59938 9.83405 8.59938 9.76241C8.59938 9.72317 8.58177 9.68933 8.55411 9.66557C8.63997 9.65981 8.83614 9.67061 8.83614 9.67061C8.81423 9.66557 8.76464 9.72065 8.65435 9.85853C8.54441 9.99677 8.44021 9.89165 8.44021 9.89165L8.43842 9.88553C8.44848 9.88769 8.4589 9.89165 8.47003 9.89165ZM8.0547 10.4817C8.0547 10.4817 8.20309 10.1346 8.31339 10.0907C8.31339 10.0907 8.50596 10.14 8.61051 10.1012C8.71506 10.063 8.91303 9.79841 8.99027 9.79265C8.99027 9.79265 8.78656 10.6797 7.96093 10.6635C7.96093 10.6635 8.55554 11.0001 8.85806 10.7628C9.16093 10.5256 8.92955 10.3438 9.32045 9.96329C9.71099 9.58241 9.45267 9.56657 9.43614 9.57233C9.41961 9.57737 9.29818 9.53885 9.29818 9.53885C9.29818 9.53885 9.35315 9.46721 9.46381 9.41825C9.57375 9.36785 10.2064 9.08165 10.2176 8.90957C10.2284 8.73929 9.76057 8.54633 9.52416 8.55137C9.52416 8.55137 9.7383 8.63957 9.72752 8.76125C9.71674 8.88257 9.10057 9.15293 9.10057 9.50033C9.10057 9.50033 8.88033 9.51653 8.72045 9.48413C8.56093 9.45029 8.39027 9.46721 8.21422 9.58241C8.03818 9.69869 8.0274 9.43985 8.04357 9.40637C8.04357 9.40637 7.70261 9.62129 8.13195 9.89705C8.13195 9.89705 7.95554 10.0792 7.93902 10.1235C7.92249 10.1674 7.85099 10.4043 8.0547 10.4817Z" fill="#C7C7C7"/>
</g>
<g id="Fill 23">
<path fill-rule="evenodd" clip-rule="evenodd" d="M7.50988 11.6181C7.50988 11.6181 7.50162 11.3038 7.2124 11.37C6.72665 11.4809 6.5603 12.3456 6.5603 12.3456C7.10569 11.3369 7.50988 11.6181 7.50988 11.6181Z" fill="#C7C7C7"/>
<path fill-rule="evenodd" clip-rule="evenodd" d="M7.50988 11.6181C7.50988 11.6181 7.50162 11.3038 7.2124 11.37C6.72665 11.4809 6.5603 12.3456 6.5603 12.3456C7.10569 11.3369 7.50988 11.6181 7.50988 11.6181Z" fill="#C7C7C7"/>
</g>
<g id="Fill 25">
<path fill-rule="evenodd" clip-rule="evenodd" d="M7.69168 12.3869C7.95539 11.9574 7.63384 11.6841 7.22102 11.9153C6.80857 12.1471 6.70905 12.7015 6.70905 12.7015C7.52641 11.8083 7.69168 12.3869 7.69168 12.3869Z" fill="#C7C7C7"/>
<path fill-rule="evenodd" clip-rule="evenodd" d="M7.69168 12.3869C7.95539 11.9574 7.63384 11.6841 7.22102 11.9153C6.80857 12.1471 6.70905 12.7015 6.70905 12.7015C7.52641 11.8083 7.69168 12.3869 7.69168 12.3869Z" fill="#C7C7C7"/>
</g>
<g id="Fill 27">
<path fill-rule="evenodd" clip-rule="evenodd" d="M11.588 11.8327C11.588 11.8327 11.2905 11.5688 11.3235 11.0799C11.3566 10.5917 11.4475 9.85662 10.6222 9.34326C10.6222 9.34326 10.9603 9.86454 10.8364 10.3772C10.7124 10.8902 10.2992 11.7653 10.333 12.0562C10.4074 12.6931 11.0677 12.809 11.0182 13.6773C11.0182 13.6773 11.4062 13.2053 11.3322 12.6517C11.2578 12.0973 10.7706 11.8571 10.9851 11.4194C10.9851 11.4194 11.2327 11.783 11.588 11.8327Z" fill="#C7C7C7"/>
<path fill-rule="evenodd" clip-rule="evenodd" d="M11.588 11.8327C11.588 11.8327 11.2905 11.5688 11.3235 11.0799C11.3566 10.5917 11.4475 9.85662 10.6222 9.34326C10.6222 9.34326 10.9603 9.86454 10.8364 10.3772C10.7124 10.8902 10.2992 11.7653 10.333 12.0562C10.4074 12.6931 11.0677 12.809 11.0182 13.6773C11.0182 13.6773 11.4062 13.2053 11.3322 12.6517C11.2578 12.0973 10.7706 11.8571 10.9851 11.4194C10.9851 11.4194 11.2327 11.783 11.588 11.8327Z" fill="#C7C7C7"/>
</g>
<g id="Fill 29">
<path fill-rule="evenodd" clip-rule="evenodd" d="M7.83601 14.3802C7.76128 14.3561 7.69553 14.0829 7.69553 14.0829C7.80296 14.17 8.02176 14.1739 8.02176 14.1739C7.91829 14.2726 7.91038 14.4051 7.83601 14.3802ZM8.66021 13.5094C8.66021 13.5094 8.91853 13.5202 8.92967 13.4763C8.9408 13.432 8.84703 13.1285 8.84703 13.1285C8.84703 13.1285 9.17182 13.1616 9.17757 13.2667C9.18296 13.3708 8.99577 13.6365 8.59949 13.8071C8.59949 13.8071 8.67134 13.5972 8.66021 13.5094ZM6.98092 13.2282C7.01649 13.2077 7.04991 13.1857 7.08044 13.1616C7.16092 13.1008 7.22128 13.0716 7.26188 13.0583C7.25362 13.1746 7.24679 13.3791 7.28308 13.549C7.28308 13.549 7.06931 13.4118 6.98092 13.2282ZM5.94691 12.1691C5.82044 12.1691 5.59482 11.8329 5.55637 11.7666C5.51793 11.7007 5.7705 11.5791 5.84811 11.5571C5.925 11.5348 6.00619 11.5535 6.01841 11.5909C6.02955 11.623 5.85925 11.7281 5.83697 11.7666C5.81506 11.8055 5.97206 11.9506 5.99649 11.9812C6.04032 12.0373 6.07374 12.1691 5.94691 12.1691ZM13.9643 9.5249C13.9643 9.5249 14.6861 11.4912 13.8716 13.2775C13.8716 13.2775 13.9179 13.018 13.7175 12.5061C13.5026 11.9574 13.5745 11.2486 13.6625 11.1165C13.6625 11.1165 13.2658 11.5132 13.2881 12.1752C13.3104 12.8362 13.4861 14.7003 12.1438 15.3951C12.1438 15.3951 12.6525 14.463 12.4625 13.3708C12.4625 13.3708 12.636 13.4377 12.7269 13.6692C12.7269 13.6692 13.0901 12.7098 12.6195 11.5348C12.6195 11.5348 12.8836 11.5848 13.0488 11.7252C13.0488 11.7252 13.2224 10.8846 12.2728 10.2942C12.0335 10.1452 12.0662 10.0631 12.0662 10.0631C12.0662 10.0631 11.9922 10.2532 12.1488 10.4433C12.3055 10.6337 12.5207 11.0059 12.4876 11.1964C12.4876 11.1964 12.2315 11.0139 11.86 11.0639C11.86 11.0639 12.5699 11.6673 12.4625 12.9661C12.4625 12.9661 12.2814 12.7678 11.819 12.685C11.819 12.685 12.3389 13.6613 11.8765 14.5955C11.8765 14.5955 11.8434 14.2647 11.6951 14.0577C11.6951 14.0577 11.5794 14.7445 10.7541 14.9847C10.7541 14.9847 11.4224 14.1487 10.6301 13.7275C9.83757 13.3049 9.16895 14.2398 9.03709 15.0592C9.03709 15.0592 8.12092 15.1247 8.03003 14.7528C7.93913 14.3802 8.2032 14.2229 8.2032 14.2229C8.2032 14.2229 8.34368 14.314 8.66595 14.1653C8.98751 14.0166 9.6644 13.6109 9.59829 13.0983C9.53218 12.586 8.7317 12.0813 8.09577 12.2875C7.46057 12.4949 7.09697 13.0572 6.76679 13.0489C6.43661 13.0407 6.03206 12.5359 6.09027 12.2717C6.14775 12.0067 6.36224 11.9322 6.43661 11.4855C6.43661 11.4855 6.32128 11.4966 6.2444 11.4469C6.16715 11.3969 5.96344 11.3145 5.8535 11.3425C5.7432 11.3699 5.47374 11.5521 5.4626 11.5186C5.45146 11.4855 5.49027 11.2864 5.49027 11.2864C5.49027 11.2864 5.19314 11.6007 5.23733 11.7281C5.28116 11.8548 5.53985 12.1691 5.80931 12.3459C5.80931 12.3459 5.85925 12.7314 6.21134 13.0903C6.42152 13.3045 6.61769 13.3434 6.78512 13.3074C6.85589 13.4122 7.09697 13.7283 7.48104 13.7974C7.48104 13.7974 7.41458 13.3542 7.46272 13.0194C7.47745 13.0115 7.49218 13.0029 7.5044 12.9906C7.56476 12.9305 8.26931 12.2796 8.79206 12.9082C8.79206 12.9082 8.5553 12.9964 8.46188 13.2937C8.36847 13.5922 8.3135 14.3309 7.53745 13.8568C7.53745 13.8568 7.47134 14.2812 7.70811 14.5354C7.70811 14.5354 7.67506 14.9872 8.18667 15.2349C8.69865 15.4833 9.05649 15.2961 9.38667 15.4613C9.38667 15.4613 9.35362 14.7827 9.63386 14.3694C9.91482 13.9558 10.3111 13.8179 10.5037 13.9785C10.6959 14.1379 10.8173 14.7445 10.0743 15.3735C10.0743 15.3735 10.9273 15.4833 11.5107 15.0369C11.5107 15.0369 11.4382 15.8245 10.8493 16.492C12.9831 16.0333 14.5758 14.1325 14.5758 11.8573C14.5758 11.0095 14.3534 10.2136 13.9643 9.5249Z" fill="#C7C7C7"/>
<path fill-rule="evenodd" clip-rule="evenodd" d="M7.83601 14.3802C7.76128 14.3561 7.69553 14.0829 7.69553 14.0829C7.80296 14.17 8.02176 14.1739 8.02176 14.1739C7.91829 14.2726 7.91038 14.4051 7.83601 14.3802ZM8.66021 13.5094C8.66021 13.5094 8.91853 13.5202 8.92967 13.4763C8.9408 13.432 8.84703 13.1285 8.84703 13.1285C8.84703 13.1285 9.17182 13.1616 9.17757 13.2667C9.18296 13.3708 8.99577 13.6365 8.59949 13.8071C8.59949 13.8071 8.67134 13.5972 8.66021 13.5094ZM6.98092 13.2282C7.01649 13.2077 7.04991 13.1857 7.08044 13.1616C7.16092 13.1008 7.22128 13.0716 7.26188 13.0583C7.25362 13.1746 7.24679 13.3791 7.28308 13.549C7.28308 13.549 7.06931 13.4118 6.98092 13.2282ZM5.94691 12.1691C5.82044 12.1691 5.59482 11.8329 5.55637 11.7666C5.51793 11.7007 5.7705 11.5791 5.84811 11.5571C5.925 11.5348 6.00619 11.5535 6.01841 11.5909C6.02955 11.623 5.85925 11.7281 5.83697 11.7666C5.81506 11.8055 5.97206 11.9506 5.99649 11.9812C6.04032 12.0373 6.07374 12.1691 5.94691 12.1691ZM13.9643 9.5249C13.9643 9.5249 14.6861 11.4912 13.8716 13.2775C13.8716 13.2775 13.9179 13.018 13.7175 12.5061C13.5026 11.9574 13.5745 11.2486 13.6625 11.1165C13.6625 11.1165 13.2658 11.5132 13.2881 12.1752C13.3104 12.8362 13.4861 14.7003 12.1438 15.3951C12.1438 15.3951 12.6525 14.463 12.4625 13.3708C12.4625 13.3708 12.636 13.4377 12.7269 13.6692C12.7269 13.6692 13.0901 12.7098 12.6195 11.5348C12.6195 11.5348 12.8836 11.5848 13.0488 11.7252C13.0488 11.7252 13.2224 10.8846 12.2728 10.2942C12.0335 10.1452 12.0662 10.0631 12.0662 10.0631C12.0662 10.0631 11.9922 10.2532 12.1488 10.4433C12.3055 10.6337 12.5207 11.0059 12.4876 11.1964C12.4876 11.1964 12.2315 11.0139 11.86 11.0639C11.86 11.0639 12.5699 11.6673 12.4625 12.9661C12.4625 12.9661 12.2814 12.7678 11.819 12.685C11.819 12.685 12.3389 13.6613 11.8765 14.5955C11.8765 14.5955 11.8434 14.2647 11.6951 14.0577C11.6951 14.0577 11.5794 14.7445 10.7541 14.9847C10.7541 14.9847 11.4224 14.1487 10.6301 13.7275C9.83757 13.3049 9.16895 14.2398 9.03709 15.0592C9.03709 15.0592 8.12092 15.1247 8.03003 14.7528C7.93913 14.3802 8.2032 14.2229 8.2032 14.2229C8.2032 14.2229 8.34368 14.314 8.66595 14.1653C8.98751 14.0166 9.6644 13.6109 9.59829 13.0983C9.53218 12.586 8.7317 12.0813 8.09577 12.2875C7.46057 12.4949 7.09697 13.0572 6.76679 13.0489C6.43661 13.0407 6.03206 12.5359 6.09027 12.2717C6.14775 12.0067 6.36224 11.9322 6.43661 11.4855C6.43661 11.4855 6.32128 11.4966 6.2444 11.4469C6.16715 11.3969 5.96344 11.3145 5.8535 11.3425C5.7432 11.3699 5.47374 11.5521 5.4626 11.5186C5.45146 11.4855 5.49027 11.2864 5.49027 11.2864C5.49027 11.2864 5.19314 11.6007 5.23733 11.7281C5.28116 11.8548 5.53985 12.1691 5.80931 12.3459C5.80931 12.3459 5.85925 12.7314 6.21134 13.0903C6.42152 13.3045 6.61769 13.3434 6.78512 13.3074C6.85589 13.4122 7.09697 13.7283 7.48104 13.7974C7.48104 13.7974 7.41458 13.3542 7.46272 13.0194C7.47745 13.0115 7.49218 13.0029 7.5044 12.9906C7.56476 12.9305 8.26931 12.2796 8.79206 12.9082C8.79206 12.9082 8.5553 12.9964 8.46188 13.2937C8.36847 13.5922 8.3135 14.3309 7.53745 13.8568C7.53745 13.8568 7.47134 14.2812 7.70811 14.5354C7.70811 14.5354 7.67506 14.9872 8.18667 15.2349C8.69865 15.4833 9.05649 15.2961 9.38667 15.4613C9.38667 15.4613 9.35362 14.7827 9.63386 14.3694C9.91482 13.9558 10.3111 13.8179 10.5037 13.9785C10.6959 14.1379 10.8173 14.7445 10.0743 15.3735C10.0743 15.3735 10.9273 15.4833 11.5107 15.0369C11.5107 15.0369 11.4382 15.8245 10.8493 16.492C12.9831 16.0333 14.5758 14.1325 14.5758 11.8573C14.5758 11.0095 14.3534 10.2136 13.9643 9.5249Z" fill="#C7C7C7"/>
</g>
<g id="Fill 31">
<path fill-rule="evenodd" clip-rule="evenodd" d="M10.5368 9.70935C10.5368 9.70935 9.98097 9.39579 9.73343 9.72051C9.50025 10.0269 9.65187 10.5514 9.51498 10.8794C9.51103 10.8758 9.506 10.8714 9.50205 10.8678C9.19379 10.5914 8.81438 11.0608 8.74253 11.1983C8.67139 11.3366 8.57762 11.3524 8.57762 11.3524C7.90073 11.4906 8.04373 10.9449 7.8181 10.7796C7.59283 10.6137 7.21271 10.857 7.21271 10.857C7.59247 10.7843 7.68049 11.0496 7.66971 11.154C7.65858 11.2592 7.73546 11.5684 7.84001 11.739C7.94456 11.9097 8.36852 11.7884 8.71522 11.8168C9.06193 11.8438 9.25989 12.2679 9.25989 12.2679C9.469 11.7606 8.9078 11.5295 8.9078 11.5295C8.9078 11.5295 9.07163 11.2178 9.26528 11.325C9.88181 11.6667 9.72768 13.0509 9.72768 13.0509C10.2587 12.0508 10.0248 11.4636 9.7478 11.1206C9.78265 10.8088 9.94037 9.82527 10.5368 9.70935Z" fill="#C7C7C7"/>
<path fill-rule="evenodd" clip-rule="evenodd" d="M10.5368 9.70935C10.5368 9.70935 9.98097 9.39579 9.73343 9.72051C9.50025 10.0269 9.65187 10.5514 9.51498 10.8794C9.51103 10.8758 9.506 10.8714 9.50205 10.8678C9.19379 10.5914 8.81438 11.0608 8.74253 11.1983C8.67139 11.3366 8.57762 11.3524 8.57762 11.3524C7.90073 11.4906 8.04373 10.9449 7.8181 10.7796C7.59283 10.6137 7.21271 10.857 7.21271 10.857C7.59247 10.7843 7.68049 11.0496 7.66971 11.154C7.65858 11.2592 7.73546 11.5684 7.84001 11.739C7.94456 11.9097 8.36852 11.7884 8.71522 11.8168C9.06193 11.8438 9.25989 12.2679 9.25989 12.2679C9.469 11.7606 8.9078 11.5295 8.9078 11.5295C8.9078 11.5295 9.07163 11.2178 9.26528 11.325C9.88181 11.6667 9.72768 13.0509 9.72768 13.0509C10.2587 12.0508 10.0248 11.4636 9.7478 11.1206C9.78265 10.8088 9.94037 9.82527 10.5368 9.70935Z" fill="#C7C7C7"/>
</g>
</g>
</g>
</g>
</svg>
