<svg width="40" height="40" viewBox="0 0 40 40" fill="none" xmlns="http://www.w3.org/2000/svg">
<g id="Logomark">
<path id="Subtract" fill-rule="evenodd" clip-rule="evenodd" d="M20 40C31.0457 40 40 31.0457 40 20C40 8.9543 31.0457 0 20 0C8.9543 0 0 8.9543 0 20C0 31.0457 8.9543 40 20 40ZM10.0033 32.7264L14.6322 22.2373C14.6906 22.1051 14.5938 21.9565 14.4493 21.9565H11.2132C11.0687 21.9565 10.9719 21.808 11.0302 21.6758L15.6879 11.1193C15.7199 11.0468 15.7917 11 15.8709 11H25.0508C28.6317 11 32.9287 15 30.0641 20.0435C28.6535 22.0987 26.3056 24.3227 18.5392 24.2236C18.3825 24.2216 18.2863 24.0476 18.3717 23.9162L20.0382 21.3519C20.0751 21.2951 20.1382 21.2609 20.2059 21.2609H22.1861C27.0203 21.2609 30.2431 14.3043 22.3652 14.3043H18.0648C17.9855 14.3043 17.9137 14.3512 17.8818 14.4238L15.84 19.0673C15.7819 19.1995 15.8787 19.3478 16.0231 19.3478H18.8018C18.9605 19.3478 19.0559 19.5237 18.9695 19.6568L10.354 32.9161C10.2199 33.1225 9.90399 32.9515 10.0033 32.7264Z" fill="#386EDC"/>
</g>
</svg>
