<svg width="24" height="24" viewBox="0 0 24 24" fill="none" xmlns="http://www.w3.org/2000/svg">
<path d="M17.001 2H7.00098C4.23955 2 2.00098 4.23858 2.00098 7V17C2.00098 19.7614 4.23955 22 7.00098 22H17.001C19.7624 22 22.001 19.7614 22.001 17V7C22.001 4.23858 19.7624 2 17.001 2Z" stroke="#DFE4F1" stroke-width="2" stroke-linecap="round" stroke-linejoin="round"/>
<path d="M16.0009 11.3701C16.1243 12.2023 15.9822 13.0523 15.5947 13.7991C15.2072 14.5459 14.5941 15.1515 13.8426 15.5297C13.091 15.908 12.2394 16.0397 11.4087 15.906C10.5781 15.7723 9.81069 15.3801 9.21577 14.7852C8.62084 14.1903 8.22866 13.4229 8.095 12.5923C7.96133 11.7616 8.09299 10.91 8.47125 10.1584C8.84952 9.40691 9.45511 8.7938 10.2019 8.4063C10.9487 8.0188 11.7987 7.87665 12.6309 8.00006C13.4799 8.12594 14.2658 8.52152 14.8726 9.12836C15.4795 9.73521 15.875 10.5211 16.0009 11.3701Z" stroke="#DFE4F1" stroke-width="2" stroke-linecap="round" stroke-linejoin="round"/>
<path d="M17.501 6.5H17.511" stroke="#DFE4F1" stroke-width="2" stroke-linecap="round" stroke-linejoin="round"/>
</svg>
