<svg width="24" height="24" viewBox="0 0 24 24" fill="none" xmlns="http://www.w3.org/2000/svg">
<g clip-path="url(#clip0_1787_15262)">
<path d="M16.0412 14.1827C15.7682 14.0463 14.4219 13.3861 14.171 13.2959C13.9201 13.2046 13.7377 13.1595 13.5553 13.4323C13.373 13.7041 12.8479 14.3191 12.6877 14.5007C12.5285 14.6822 12.3682 14.7042 12.0952 14.5678C11.2884 14.248 10.5437 13.7908 9.89456 13.2167C9.29584 12.6658 8.78255 12.0295 8.37145 11.3287C8.21229 11.0558 8.35487 10.9084 8.49193 10.773C8.61462 10.6509 8.76605 10.4551 8.902 10.2955C9.0146 10.1578 9.1069 10.0048 9.17611 9.84114C9.21253 9.76593 9.22949 9.68285 9.22544 9.59945C9.22138 9.51606 9.19645 9.43499 9.1529 9.36364C9.08437 9.22721 8.53725 7.88601 8.30955 7.34029C8.08739 6.80998 7.86191 6.88149 7.69279 6.87269C7.53363 6.86499 7.35125 6.86279 7.16888 6.86279C7.03015 6.86664 6.89372 6.89903 6.76817 6.95792C6.64262 7.0168 6.53068 7.10092 6.43938 7.20496C6.12992 7.49668 5.88489 7.84935 5.7199 8.24052C5.55491 8.63169 5.47358 9.05278 5.48108 9.47696C5.56983 10.5048 5.95822 11.4846 6.59854 12.2958C7.77229 14.0474 9.3835 15.4651 11.274 16.4096C11.7839 16.6276 12.3049 16.8193 12.8347 16.9839C13.3932 17.1527 13.9837 17.1892 14.5589 17.0906C14.9399 17.0138 15.3008 16.8591 15.6187 16.6364C15.9366 16.4137 16.2047 16.1278 16.4059 15.7967C16.5855 15.3896 16.6408 14.9389 16.5651 14.5007C16.4977 14.3862 16.3153 14.3191 16.0412 14.1827ZM18.7956 4.19361C16.9165 2.32359 14.4188 1.197 11.7674 1.0236C9.11601 0.850197 6.49166 1.64179 4.38294 3.25101C2.27422 4.86022 0.824825 7.17739 0.304597 9.77113C-0.215631 12.3649 0.22876 15.0584 1.55504 17.3503L0.000976562 23L5.80825 21.485C7.41443 22.3555 9.21412 22.8117 11.043 22.8119H11.0474C13.2139 22.8108 15.3315 22.1705 17.1326 20.9719C18.9337 19.7734 20.3375 18.0703 21.1666 16.0779C21.9958 14.0856 22.2131 11.8932 21.791 9.77797C21.369 7.6627 20.3266 5.7194 18.7956 4.1936V4.19361ZM15.8853 19.5849C14.4353 20.4896 12.7587 20.9696 11.0474 20.9701H11.043C9.41254 20.97 7.81215 20.5333 6.40953 19.7059L6.07684 19.51L2.6305 20.41L3.55011 17.0653L3.33458 16.722C2.37799 15.2035 1.89523 13.4368 1.94735 11.6452C1.99947 9.85354 2.58413 8.11754 3.6274 6.65668C4.67066 5.19582 6.12568 4.07571 7.80846 3.43798C9.49124 2.80025 11.3262 2.67354 13.0813 3.07389C14.8365 3.47423 16.4329 4.38364 17.6688 5.68713C18.9047 6.99061 19.7246 8.62962 20.0247 10.3969C20.3248 12.1642 20.0918 13.9804 19.355 15.6158C18.6182 17.2513 17.4107 18.6325 15.8853 19.5849Z" fill="#DFE4F1"/>
</g>
<defs>
<clipPath id="clip0_1787_15262">
<rect width="24" height="24" fill="white" transform="translate(0.000976562)"/>
</clipPath>
</defs>
</svg>
